<svg xmlns="http://www.w3.org/2000/svg" xmlns:xlink="http://www.w3.org/1999/xlink" width="20" height="20" viewBox="0 0 20 20">
    <defs>
        <path id="a" d="M14.118 4.79v.545a.476.476 0 1 1-.951 0V4.79h-6.43v.546a.476.476 0 1 1-.952 0V4.79H3.427v2.695h13.146V4.79h-2.455zm0-1.43h3.501c.21 0 .381.172.381.381V17.62a.38.38 0 0 1-.38.381H2.38a.38.38 0 0 1-.38-.381V3.74c0-.21.171-.381.38-.381h3.405v-.884a.476.476 0 1 1 .951 0v.884h6.43v-.884a.476.476 0 1 1 .952 0v.884zM3.428 8.914v7.657h13.145V8.914H3.427z"/>
    </defs>
    <use fill="#909CAB" fill-rule="evenodd" xlink:href="#a"/>
</svg>