<svg xmlns="http://www.w3.org/2000/svg" xmlns:xlink="http://www.w3.org/1999/xlink" width="143.566" height="198.894" viewBox="0 0 143.566 198.894">
  <defs>
    <linearGradient id="linear-gradient" x1="0.624" y1="1.252" x2="0.502" y2="0.287" gradientUnits="objectBoundingBox">
      <stop offset="0" stop-color="#feffff"/>
      <stop offset="0.296" stop-color="#e5ffff"/>
      <stop offset="1" stop-color="#bfbafb"/>
    </linearGradient>
    <linearGradient id="linear-gradient-2" x1="1.263" y1="1.058" x2="-0.059" y2="0.078" xlink:href="#linear-gradient"/>
    <linearGradient id="linear-gradient-3" y1="0.5" x2="1" y2="0.5" gradientUnits="objectBoundingBox">
      <stop offset="0" stop-color="#64d0fb"/>
      <stop offset="1" stop-color="#e5fbff"/>
    </linearGradient>
    <linearGradient id="linear-gradient-4" y1="0.5" x2="1" y2="0.5" gradientUnits="objectBoundingBox">
      <stop offset="0" stop-color="#c0bdfb"/>
      <stop offset="1" stop-color="#e5ffff"/>
    </linearGradient>
    <linearGradient id="linear-gradient-8" y1="0.5" x2="1" y2="0.5" gradientUnits="objectBoundingBox">
      <stop offset="0" stop-color="#fb97ce"/>
      <stop offset="1" stop-color="#e5ffff"/>
    </linearGradient>
    <linearGradient id="linear-gradient-28" y1="0.5" x2="1" y2="0.5" gradientUnits="objectBoundingBox">
      <stop offset="0" stop-color="#7ab4f4"/>
      <stop offset="1" stop-color="#dfedfa"/>
    </linearGradient>
    <linearGradient id="linear-gradient-30" x1="0.778" y1="0.891" x2="0.283" y2="0.189" xlink:href="#linear-gradient-28"/>
    <linearGradient id="linear-gradient-35" x1="0" y1="0.5" x2="1" y2="0.5" xlink:href="#linear-gradient-28"/>
    <linearGradient id="linear-gradient-36" x1="0" y1="0.5" x2="1" y2="0.5" xlink:href="#linear-gradient-28"/>
    <linearGradient id="linear-gradient-40" x1="0" y1="0.5" x2="1" y2="0.5" xlink:href="#linear-gradient-28"/>
  </defs>
  <g id="API" transform="translate(0 0)">
    <path id="Path_2218" data-name="Path 2218" d="M3734.757,8402.442l-108.463-62.62,10.152-5.862,108.463,62.622Z" transform="translate(-3626.293 -8224.89)" fill="#c9cfe5" fill-rule="evenodd" opacity="0.15"/>
    <path id="Path_2219" data-name="Path 2219" d="M3754.325,8300.58l-111.6-64.434a2.83,2.83,0,0,0-2.126-.423l-.017-.016-8.533,1.973,6.381,8.346.874-.308v82.194a2.794,2.794,0,0,0,1.31,2.153l104.58,60.38,3.475,8.66,8.6-1.974-.012-.034a.74.74,0,0,0,.5-.8v-90.121A7.274,7.274,0,0,0,3754.325,8300.58Z" transform="translate(-3625.664 -8235.657)" fill="url(#linear-gradient)"/>
    <path id="Path_2220" data-name="Path 2220" d="M3749.341,8307.963v90.119c0,.771-.588,1.058-1.317.638L3632.2,8331.849a2.8,2.8,0,0,1-1.31-2.153v-90.119c0-2.007,1.532-2.737,3.421-1.647l111.6,64.434A7.267,7.267,0,0,1,3749.341,8307.963Z" transform="translate(-3625.79 -8235.464)" fill="#f9fbfc"/>
    <path id="Path_2221" data-name="Path 2221" d="M3749.341,8307.963v7.907l-118.451-68.387v-7.907c0-2.007,1.532-2.737,3.421-1.647l111.6,64.434A7.267,7.267,0,0,1,3749.341,8307.963Z" transform="translate(-3625.79 -8235.464)" fill="url(#linear-gradient-2)"/>
    <g id="Group_625" data-name="Group 625" transform="translate(17.565 32.365)">
      <g id="Group_624" data-name="Group 624">
        <g id="Group_615" data-name="Group 615" transform="translate(0 13.381)">
          <path id="Path_2222" data-name="Path 2222" d="M3690.808,8306.888l-47.743-27.564a2.149,2.149,0,0,1-.941-1.7h0c0-.64.42-.915.941-.613l47.743,27.563a2.15,2.15,0,0,1,.94,1.7h0C3691.748,8306.913,3691.328,8307.188,3690.808,8306.888Z" transform="translate(-3642.124 -8276.888)" fill="url(#linear-gradient-3)"/>
          <path id="Path_2223" data-name="Path 2223" d="M3713.448,8319.959l-20.779-12a2.147,2.147,0,0,1-.939-1.7h0c0-.639.42-.914.939-.614l20.779,12a2.148,2.148,0,0,1,.941,1.7h0C3714.389,8319.982,3713.967,8320.258,3713.448,8319.959Z" transform="translate(-3636.69 -8273.75)" fill="url(#linear-gradient-4)"/>
        </g>
        <g id="Group_616" data-name="Group 616" transform="translate(0 20.071)">
          <path id="Path_2224" data-name="Path 2224" d="M3688.456,8311.56l-25.094-14.488a2.151,2.151,0,0,1-.941-1.7h0c0-.64.422-.915.941-.615l25.094,14.488a2.149,2.149,0,0,1,.941,1.7h0C3689.4,8311.585,3688.977,8311.859,3688.456,8311.56Z" transform="translate(-3639.901 -8281.634)" fill="url(#linear-gradient-4)"/>
          <path id="Path_2225" data-name="Path 2225" d="M3659.925,8295.086l-16.86-9.732a2.148,2.148,0,0,1-.941-1.7h0c0-.639.42-.914.941-.613l16.86,9.734a2.144,2.144,0,0,1,.941,1.7h0C3660.865,8295.113,3660.445,8295.387,3659.925,8295.086Z" transform="translate(-3642.124 -8282.917)" fill="url(#linear-gradient-4)"/>
          <path id="Path_2226" data-name="Path 2226" d="M3713.333,8325.923l-20.778-12a2.147,2.147,0,0,1-.94-1.7h0c0-.639.421-.913.94-.614l20.778,12a2.147,2.147,0,0,1,.941,1.7h0C3714.274,8325.947,3713.853,8326.223,3713.333,8325.923Z" transform="translate(-3636.703 -8279.788)" fill="url(#linear-gradient-4)"/>
        </g>
        <g id="Group_617" data-name="Group 617">
          <path id="Path_2227" data-name="Path 2227" d="M3673.564,8284.872l-30.5-17.608a2.146,2.146,0,0,1-.941-1.7h0c0-.638.42-.913.941-.614l30.5,17.609a2.149,2.149,0,0,1,.941,1.7h0C3674.5,8284.9,3674.083,8285.172,3673.564,8284.872Z" transform="translate(-3642.124 -8264.828)" fill="url(#linear-gradient-8)"/>
          <path id="Path_2228" data-name="Path 2228" d="M3688.338,8293.4l-12.905-7.449a2.15,2.15,0,0,1-.94-1.7h0c0-.638.421-.912.94-.613l12.905,7.45a2.151,2.151,0,0,1,.94,1.7h0C3689.278,8293.427,3688.857,8293.7,3688.338,8293.4Z" transform="translate(-3638.578 -8262.78)" fill="url(#linear-gradient-4)"/>
          <path id="Path_2229" data-name="Path 2229" d="M3723.464,8313.683l-31.1-17.955a2.151,2.151,0,0,1-.94-1.7h0c0-.64.42-.914.94-.613l31.1,17.954a2.147,2.147,0,0,1,.939,1.7h0C3724.4,8313.707,3723.983,8313.982,3723.464,8313.683Z" transform="translate(-3636.724 -8261.709)" fill="url(#linear-gradient-4)"/>
        </g>
        <g id="Group_618" data-name="Group 618" transform="translate(0 46.833)">
          <path id="Path_2230" data-name="Path 2230" d="M3692.905,8338.248l30.5,17.608c.519.3.939.026.939-.613h0a2.147,2.147,0,0,0-.939-1.7l-30.5-17.609c-.52-.3-.94-.023-.94.614h0A2.146,2.146,0,0,0,3692.905,8338.248Z" transform="translate(-3636.665 -8303.887)" fill="url(#linear-gradient-4)"/>
          <path id="Path_2231" data-name="Path 2231" d="M3676.4,8328.715l12.9,7.451c.519.3.941.024.941-.614h0a2.149,2.149,0,0,0-.941-1.7l-12.9-7.45c-.519-.3-.941-.024-.941.614h0A2.15,2.15,0,0,0,3676.4,8328.715Z" transform="translate(-3638.473 -8304.931)" fill="url(#linear-gradient-4)"/>
          <path id="Path_2232" data-name="Path 2232" d="M3643.065,8309.472l31.1,17.955c.519.3.941.024.941-.614h0a2.151,2.151,0,0,0-.941-1.7l-31.1-17.954c-.52-.3-.941-.025-.941.613h0A2.146,2.146,0,0,0,3643.065,8309.472Z" transform="translate(-3642.124 -8307.037)" fill="url(#linear-gradient-3)"/>
        </g>
        <g id="Group_619" data-name="Group 619" transform="translate(0 6.691)">
          <path id="Path_2233" data-name="Path 2233" d="M3662.606,8284.575l-19.541-11.283a2.145,2.145,0,0,1-.941-1.7h0c0-.638.42-.912.941-.613l19.541,11.283a2.146,2.146,0,0,1,.941,1.7h0C3663.547,8284.6,3663.126,8284.875,3662.606,8284.575Z" transform="translate(-3642.124 -8270.857)" fill="url(#linear-gradient-4)"/>
          <path id="Path_2234" data-name="Path 2234" d="M3702.219,8307.446l-37.736-21.788a2.147,2.147,0,0,1-.94-1.7h0c0-.638.421-.912.94-.613l37.736,21.787a2.149,2.149,0,0,1,.941,1.7h0C3703.16,8307.471,3702.739,8307.746,3702.219,8307.446Z" transform="translate(-3639.778 -8269.503)" fill="url(#linear-gradient-4)"/>
          <path id="Path_2235" data-name="Path 2235" d="M3725.885,8321.109l-23.638-13.647a2.147,2.147,0,0,1-.941-1.7h0c0-.64.421-.913.941-.614l23.638,13.646a2.151,2.151,0,0,1,.939,1.7h0C3726.824,8321.134,3726.4,8321.409,3725.885,8321.109Z" transform="translate(-3635.642 -8267.115)" fill="url(#linear-gradient-4)"/>
        </g>
        <g id="Group_620" data-name="Group 620" transform="translate(0 53.523)">
          <path id="Path_2236" data-name="Path 2236" d="M3705.938,8349.487l19.542,11.282a2.151,2.151,0,0,1,.939,1.7h0c0,.639-.42.914-.939.615l-19.542-11.284a2.145,2.145,0,0,1-.941-1.7h0C3705,8349.463,3705.418,8349.188,3705.938,8349.487Z" transform="translate(-3635.237 -8309.09)" fill="url(#linear-gradient-4)"/>
          <path id="Path_2237" data-name="Path 2237" d="M3668.121,8327.653l37.737,21.788a2.147,2.147,0,0,1,.939,1.7h0c0,.639-.42.914-.939.615l-37.737-21.789a2.146,2.146,0,0,1-.941-1.7h0C3667.18,8327.629,3667.6,8327.354,3668.121,8327.653Z" transform="translate(-3639.379 -8311.481)" fill="url(#linear-gradient-4)"/>
          <path id="Path_2238" data-name="Path 2238" d="M3643.065,8313.188l23.636,13.646a2.155,2.155,0,0,1,.941,1.7h0c0,.64-.422.915-.941.614l-23.636-13.646a2.148,2.148,0,0,1-.941-1.7h0C3642.124,8313.163,3642.545,8312.888,3643.065,8313.188Z" transform="translate(-3642.124 -8313.066)" fill="url(#linear-gradient-4)"/>
        </g>
        <g id="Group_621" data-name="Group 621" transform="translate(0 40.143)">
          <path id="Path_2239" data-name="Path 2239" d="M3690.808,8331.007l-47.743-27.565a2.146,2.146,0,0,1-.941-1.7h0c0-.638.42-.913.941-.613l47.743,27.564a2.151,2.151,0,0,1,.94,1.7h0C3691.748,8331.031,3691.328,8331.307,3690.808,8331.007Z" transform="translate(-3642.124 -8301.007)" fill="url(#linear-gradient-4)"/>
          <path id="Path_2240" data-name="Path 2240" d="M3713.448,8344.078l-20.779-12a2.147,2.147,0,0,1-.939-1.7h0c0-.638.42-.912.939-.613l20.779,12a2.148,2.148,0,0,1,.941,1.7h0C3714.389,8344.1,3713.967,8344.378,3713.448,8344.078Z" transform="translate(-3636.69 -8297.87)" fill="url(#linear-gradient-4)"/>
        </g>
        <g id="Group_622" data-name="Group 622" transform="translate(0 33.452)">
          <path id="Path_2241" data-name="Path 2241" d="M3662.606,8308.694l-19.541-11.281a2.151,2.151,0,0,1-.941-1.7h0c0-.639.42-.914.941-.614l19.541,11.282a2.148,2.148,0,0,1,.941,1.7h0C3663.547,8308.721,3663.126,8309,3662.606,8308.694Z" transform="translate(-3642.124 -8294.978)" fill="url(#linear-gradient-4)"/>
          <path id="Path_2242" data-name="Path 2242" d="M3702.219,8331.565l-37.736-21.786a2.152,2.152,0,0,1-.94-1.7h0c0-.64.421-.915.94-.614l37.736,21.787a2.152,2.152,0,0,1,.941,1.7h0C3703.16,8331.591,3702.739,8331.865,3702.219,8331.565Z" transform="translate(-3639.778 -8293.622)" fill="url(#linear-gradient-8)"/>
          <path id="Path_2243" data-name="Path 2243" d="M3725.885,8345.228l-23.638-13.646a2.15,2.15,0,0,1-.941-1.7h0c0-.638.421-.913.941-.614l23.638,13.647a2.148,2.148,0,0,1,.939,1.7h0C3726.824,8345.253,3726.4,8345.528,3725.885,8345.228Z" transform="translate(-3635.642 -8291.233)" fill="url(#linear-gradient-4)"/>
        </g>
        <g id="Group_623" data-name="Group 623" transform="translate(0 26.762)">
          <path id="Path_2244" data-name="Path 2244" d="M3658.954,8300.557l-15.889-9.175a2.144,2.144,0,0,1-.941-1.7h0c0-.639.42-.914.941-.615l15.889,9.175a2.15,2.15,0,0,1,.941,1.7h0C3659.894,8300.58,3659.473,8300.855,3658.954,8300.557Z" transform="translate(-3642.124 -8288.946)" fill="url(#linear-gradient-4)"/>
          <path id="Path_2245" data-name="Path 2245" d="M3691.812,8319.528l-30.981-17.888a2.149,2.149,0,0,1-.94-1.7h0c0-.639.42-.913.94-.613l30.981,17.886a2.149,2.149,0,0,1,.941,1.7h0C3692.753,8319.553,3692.332,8319.827,3691.812,8319.528Z" transform="translate(-3640.178 -8287.824)" fill="url(#linear-gradient-3)"/>
          <path id="Path_2246" data-name="Path 2246" d="M3723.138,8337.613l-30.981-17.888a2.15,2.15,0,0,1-.941-1.7h0c0-.64.421-.915.941-.615l30.981,17.887a2.15,2.15,0,0,1,.94,1.7h0C3724.078,8337.637,3723.657,8337.912,3723.138,8337.613Z" transform="translate(-3636.747 -8285.843)" fill="url(#linear-gradient-4)"/>
        </g>
      </g>
    </g>
    <path id="Path_2247" data-name="Path 2247" d="M3686.85,8311.048" transform="translate(-3619.66 -8227.399)" fill="none" stroke="#004680" stroke-linecap="round" stroke-linejoin="round" stroke-width="0.598"/>
    <g id="Group_629" data-name="Group 629" transform="translate(66.925 118.467)">
      <g id="Group_628" data-name="Group 628">
        <g id="Group_626" data-name="Group 626" transform="translate(10.231 0.063)">
          <path id="Path_2248" data-name="Path 2248" d="M3705.416,8388.224c-2.049-5.736-1.64-4.813-7.648-8.9a1.566,1.566,0,0,1-.727-1.313c-1.241-11.444-1.642-11.446-.656-11.516,1.56-.108,3.113-.244,4.65-.434a.8.8,0,0,0,.579-.615c1.213-4.738,1-3.829-1.228-8.979-.542-1.254-1.5-2.739-1.5-3.707,0-1.024.895-1.578,1.418-2.308,1.125-1.569,2.264-3.117,3.393-4.671,4.75,4.811,5.558,6.025,6.425,5.788.852-.234.118-.976.91-1.357a1.063,1.063,0,0,0,.453-.818c.228-2.172,1.972-3.959,2.149-6.168.047-.6.181-.865.7-.69,8.2,2.745,7.808,2.106,8.172,3.383,2.25,7.859,2.263,8.445,3.581,9.37,3.969,2.779.819,3.5,7.7.041,6.746,10.183,7.088,10.288,6.819,11.245-1.566,5.589-1.953,5.756-1.572,6.937.748,2.32,1.466,4.756,2.276,5.355,5.427,4.021,5.522,3.494,5.668,4.833,1.236,11.28,1.629,11.438.73,11.515-1.46.127-2.888.362-4.35.485-.474.04-.667.325-.741.98-.6,5.25-1.844,1.563,2.826,11.826.278.613.28.917.022,1.259-4.851,6.4-4.427,6.624-5.2,5.825-1.344-1.395-5.281.388-6.593-1.091-.982-1.107.791-4.51-.026-4.024a3.329,3.329,0,0,1-1.533.333c-.944.047-.686.82-1.39,7.985-8.528-2.709-8.412-2.482-8.739-3.52-3.253-10.3-1.493-6.98-5.723-10.845-.446-.409-.758-.48-1.112-.284-1.448.8-2.919,1.555-4.374,2.32l-7.01-10.7C3705.708,8389.352,3705.84,8389.409,3705.416,8388.224Z" transform="translate(-3695.832 -8342.486)" fill="#4190f5"/>
        </g>
        <path id="Path_2249" data-name="Path 2249" d="M3714.8,8408.486l3.663,7.51,10.44-4.1-4.3-6.846Z" transform="translate(-3683.524 -8335.57)" fill="url(#linear-gradient-28)"/>
        <path id="Path_2250" data-name="Path 2250" d="M3693.738,8349.512l10.19-4.053,3.7,6.914-9.411,6.611Z" transform="translate(-3685.83 -8342.097)" fill="url(#linear-gradient-28)"/>
        <g id="Group_627" data-name="Group 627" transform="translate(0 4.115)">
          <path id="Path_2251" data-name="Path 2251" d="M3696.238,8391.876c-.386-1.082-1.655-4.685-2.469-5.28-5.594-4.09-5.76-3.573-5.906-4.929-.378-3.492-.774-6.989-1.213-10.5-.175-1.4.039-.812,5.206-1.451a.8.8,0,0,0,.581-.615c.289-1.13.537-2.306.731-3.519.154-.965-.4-1.872-1.959-5.459-.544-1.254-1.5-2.739-1.5-3.707,0-1.026.893-1.579,1.417-2.308,1.125-1.569,2.264-3.119,3.393-4.672,4.751,4.812,5.559,6.026,6.426,5.789a14.416,14.416,0,0,0,2.463-.947c.649-.312.6-1.852,1.047-7.4.048-.6.182-.864.7-.691,8.205,2.747,7.809,2.108,8.173,3.384,2.249,7.86,2.263,8.446,3.582,9.369,3.968,2.78.818,3.5,7.7.042,2.251,3.4,4.485,6.752,6.69,10.143.5.77-.187,1.933-1.537,6.778-.261.938,1.485,5.964,2.368,6.617,5.428,4.021,5.523,3.493,5.669,4.833,1.235,11.28,1.629,11.437.73,11.515-1.46.126-2.89.361-4.35.484-.475.041-.668.325-.742.981-.6,5.248-1.844,1.562,2.826,11.825.28.613.282.917.023,1.26-4.851,6.4-4.427,6.624-5.2,5.826-1.345-1.395-2.732-2.676-4.043-4.154-.982-1.107-1.657-1.2-2.576-.961-2.766.726-2.011-.954-2.924,8.317-8.528-2.711-8.411-2.483-8.739-3.519-3.252-10.3-1.493-6.981-5.722-10.848-.447-.408-.759-.479-1.112-.283-1.449.8-2.919,1.556-4.374,2.32l-7.011-10.7C3696.528,8393,3696.66,8393.06,3696.238,8391.876Z" transform="translate(-3686.611 -8346.138)" fill="url(#linear-gradient-30)"/>
        </g>
        <path id="Path_2252" data-name="Path 2252" d="M3703.494,8346.27l9.745-3.828a.19.19,0,0,1,.127,0l7.611,2.5a.189.189,0,0,1,.011.355l-9.666,3.8a.177.177,0,0,1-.126,0l-7.69-2.464A.19.19,0,0,1,3703.494,8346.27Z" transform="translate(-3684.775 -8342.429)" fill="url(#linear-gradient-28)"/>
        <path id="Path_2253" data-name="Path 2253" d="M3720.863,8358.116l10.19-4.052,6.69,10.141-10.189,4.053Z" transform="translate(-3682.86 -8341.154)" fill="url(#linear-gradient-28)"/>
        <path id="Path_2254" data-name="Path 2254" d="M3733.909,8395.147l9.886-3.895a.451.451,0,0,0,.283-.473l-1.2-11.557a.365.365,0,0,0-.5-.3l-9.934,3.92Z" transform="translate(-3681.591 -8338.435)" fill="url(#linear-gradient-28)"/>
        <path id="Path_2255" data-name="Path 2255" d="M3727.329,8413.271l10.081-3.987,4.689-6.262-10.18,4.052Z" transform="translate(-3682.151 -8335.792)" fill="url(#linear-gradient-28)"/>
      </g>
      <ellipse id="Ellipse_359" data-name="Ellipse 359" cx="5.709" cy="9.888" rx="5.709" ry="9.888" transform="matrix(0.917, -0.398, 0.398, 0.917, 16.744, 36.348)" fill="#4190f5"/>
    </g>
    <g id="Group_630" data-name="Group 630" transform="translate(8.543 7.84)">
      <ellipse id="Ellipse_360" data-name="Ellipse 360" cx="1.265" cy="2.191" rx="1.265" ry="2.191" transform="translate(0 1.276) rotate(-30.311)" fill="#fff"/>
      <ellipse id="Ellipse_361" data-name="Ellipse 361" cx="1.265" cy="2.191" rx="1.265" ry="2.191" transform="translate(4.467 3.855) rotate(-30.311)" fill="#fff"/>
      <ellipse id="Ellipse_362" data-name="Ellipse 362" cx="1.265" cy="2.191" rx="1.265" ry="2.191" transform="translate(8.934 6.435) rotate(-30.311)" fill="#fff"/>
    </g>
    <g id="Group_634" data-name="Group 634" transform="translate(112.456 126.519)">
      <g id="Group_633" data-name="Group 633">
        <g id="Group_631" data-name="Group 631" transform="translate(5.084 0.033)">
          <path id="Path_2256" data-name="Path 2256" d="M3736.993,8372.443c-1.019-2.851-.815-2.393-3.8-4.422a.78.78,0,0,1-.36-.652c-.617-5.687-.817-5.688-.326-5.724.775-.053,1.548-.12,2.311-.214a.4.4,0,0,0,.288-.306c.6-2.355.5-1.9-.61-4.462a6.729,6.729,0,0,1-.745-1.842c0-.51.444-.784.7-1.147.559-.779,1.124-1.549,1.686-2.32,2.361,2.389,2.763,2.993,3.193,2.876s.059-.484.453-.676a.528.528,0,0,0,.224-.406c.113-1.079.979-1.968,1.068-3.064.023-.3.09-.43.35-.343,4.078,1.364,3.88,1.047,4.061,1.681,1.118,3.906,1.124,4.2,1.78,4.655,1.972,1.383.406,1.739,3.827.021,3.352,5.062,3.522,5.113,3.389,5.589-.779,2.776-.971,2.861-.781,3.447a7.444,7.444,0,0,0,1.13,2.661c2.7,2,2.744,1.735,2.817,2.4.614,5.6.809,5.683.363,5.722-.726.063-1.436.18-2.162.24-.236.021-.332.163-.368.489-.3,2.606-.917.774,1.4,5.876.139.3.14.456.011.625-2.41,3.179-2.2,3.293-2.582,2.9-.669-.693-2.625.191-3.276-.543-.488-.551.393-2.241-.014-2a1.65,1.65,0,0,1-.762.165c-.468.023-.339.408-.69,3.967-4.238-1.346-4.181-1.232-4.343-1.747-1.617-5.12-.742-3.469-2.844-5.391-.222-.2-.376-.237-.552-.14-.719.4-1.45.772-2.174,1.152l-3.482-5.318C3737.138,8373,3737.2,8373.03,3736.993,8372.443Z" transform="translate(-3732.23 -8349.715)" fill="#4190f5"/>
        </g>
        <path id="Path_2257" data-name="Path 2257" d="M3741.657,8382.512l1.82,3.731,5.188-2.038-2.136-3.4Z" transform="translate(-3726.114 -8346.277)" fill="url(#linear-gradient-35)"/>
        <path id="Path_2258" data-name="Path 2258" d="M3731.19,8353.205l5.063-2.013,1.837,3.435-4.676,3.286Z" transform="translate(-3727.26 -8349.521)" fill="url(#linear-gradient-36)"/>
        <g id="Group_632" data-name="Group 632" transform="translate(0 2.046)">
          <path id="Path_2259" data-name="Path 2259" d="M3732.432,8374.258a9.56,9.56,0,0,0-1.226-2.623c-2.781-2.032-2.862-1.775-2.935-2.45-.188-1.734-.385-3.474-.6-5.217-.086-.7.02-.4,2.587-.722a.4.4,0,0,0,.289-.3c.143-.563.267-1.146.363-1.749.077-.479-.2-.93-.973-2.713a6.707,6.707,0,0,1-.746-1.842c0-.511.445-.784.7-1.147.56-.779,1.125-1.55,1.687-2.321,2.36,2.391,2.762,3,3.193,2.876a7.126,7.126,0,0,0,1.224-.47c.323-.155.3-.92.521-3.676.024-.3.09-.431.35-.344,4.077,1.365,3.88,1.048,4.062,1.682,1.117,3.905,1.124,4.2,1.778,4.655,1.972,1.381.407,1.74,3.827.021,1.119,1.688,2.229,3.354,3.325,5.039.249.383-.093.962-.763,3.369a7.087,7.087,0,0,0,1.176,3.288c2.7,2,2.745,1.735,2.817,2.4.615,5.605.81,5.684.363,5.723-.726.063-1.435.179-2.162.24-.235.02-.331.161-.368.486-.3,2.609-.917.777,1.4,5.877.139.3.14.456.011.625-2.41,3.181-2.2,3.292-2.583,2.9-.668-.693-1.357-1.329-2.009-2.065-.487-.55-.822-.6-1.279-.477-1.375.36-1-.475-1.453,4.133-4.238-1.346-4.18-1.234-4.342-1.749-1.617-5.119-.742-3.468-2.844-5.39-.222-.2-.377-.238-.553-.14-.72.4-1.451.771-2.173,1.152l-3.484-5.319C3732.577,8374.818,3732.642,8374.847,3732.432,8374.258Z" transform="translate(-3727.648 -8351.529)" fill="url(#linear-gradient-30)"/>
        </g>
        <path id="Path_2260" data-name="Path 2260" d="M3736.038,8351.6l4.842-1.9a.089.089,0,0,1,.063,0l3.782,1.24a.094.094,0,0,1,0,.177l-4.8,1.887a.1.1,0,0,1-.062,0l-3.821-1.225A.094.094,0,0,1,3736.038,8351.6Z" transform="translate(-3726.736 -8349.686)" fill="url(#linear-gradient-35)"/>
        <path id="Path_2261" data-name="Path 2261" d="M3744.669,8357.482l5.063-2.015,3.325,5.04-5.063,2.014Z" transform="translate(-3725.784 -8349.052)" fill="url(#linear-gradient-28)"/>
        <path id="Path_2262" data-name="Path 2262" d="M3751.151,8375.884l4.913-1.936a.225.225,0,0,0,.141-.236l-.6-5.741a.18.18,0,0,0-.247-.149l-4.936,1.947Z" transform="translate(-3725.153 -8347.7)" fill="url(#linear-gradient-40)"/>
        <path id="Path_2263" data-name="Path 2263" d="M3747.882,8384.889l5.009-1.98,2.33-3.112-5.058,2.014Z" transform="translate(-3725.432 -8346.388)" fill="url(#linear-gradient-28)"/>
      </g>
      <ellipse id="Ellipse_363" data-name="Ellipse 363" cx="2.837" cy="4.914" rx="2.837" ry="4.914" transform="matrix(0.917, -0.398, 0.398, 0.917, 8.321, 18.064)" fill="#4190f5"/>
    </g>
  </g>
</svg>
