<svg xmlns="http://www.w3.org/2000/svg" width="31.15" height="20.355" viewBox="0 0 31.15 20.355">
  <path id="Back-arrow" d="M186.192,1798.618H163.181l5.186-5.187a1.844,1.844,0,0,0-2.607-2.608l-8.333,8.334a1.814,1.814,0,0,0-.228.278c-.02.03-.033.063-.051.093a1.754,1.754,0,0,0-.119.224c-.017.04-.025.083-.039.125a1.754,1.754,0,0,0-.067.22,1.646,1.646,0,0,0,.068.953c.014.04.021.082.037.121a1.887,1.887,0,0,0,.12.225c.018.03.03.063.05.092a1.852,1.852,0,0,0,.228.278l8.334,8.334a1.844,1.844,0,0,0,2.607-2.607l-5.186-5.186h23.011a1.844,1.844,0,1,0,0-3.687Z" transform="translate(-156.886 -1790.283)" fill="#50a0ff"/>
</svg>
