<svg xmlns="http://www.w3.org/2000/svg" width="16.398" height="16.871" viewBox="0 0 16.398 16.871">
  <g id="Download_document" data-name="Download document" transform="translate(0 16.871) rotate(-90)">
    <path id="Path_13" data-name="Path 13" d="M4.013,16.4H7.336a1.336,1.336,0,0,0,0-2.673H4.013a1.343,1.343,0,0,1-1.341-1.341V4.014A1.343,1.343,0,0,1,4.013,2.673H7.336A1.336,1.336,0,1,0,7.336,0H4.013A4.018,4.018,0,0,0,0,4.014v8.371A4.018,4.018,0,0,0,4.013,16.4Z" transform="translate(0 0)" fill="#fff"/>
    <path id="Path_14" data-name="Path 14" d="M3.761,8.762a1.1,1.1,0,0,0,1.881-.72l.016-.02,0-2.08H9.967a1.336,1.336,0,1,0,0-2.672H5.648c0-.012,0-2.224,0-2.237h0a1.1,1.1,0,0,0-1.88-.71C.044,4.041,0,3.932,0,4.543S.04,5.041,3.761,8.762Z" transform="translate(5.568 3.656)" fill="#fff"/>
  </g>
</svg>
