<svg xmlns="http://www.w3.org/2000/svg" xmlns:xlink="http://www.w3.org/1999/xlink" width="202.74" height="233.02" viewBox="0 0 202.74 233.02">
  <defs>
    <linearGradient id="linear-gradient" x1="0.609" y1="1.113" x2="0.521" y2="0.37" gradientUnits="objectBoundingBox">
      <stop offset="0" stop-color="#feffff"/>
      <stop offset="0.296" stop-color="#e5ffff"/>
      <stop offset="1" stop-color="#bfbafb"/>
    </linearGradient>
  </defs>
  <g id="Privacy" transform="translate(1.18 1.18)">
    <g id="Group_645" data-name="Group 645" transform="translate(58.099 20.79)">
      <path id="Path_2264" data-name="Path 2264" d="M3110.543,8297.243l-82.324-48.769c-1.812-1.045-1.585-2.873.507-4.08l3.015-2.069a7.851,7.851,0,0,1,7.069-.293l82.324,48.886c1.812,1.046,1.585,2.873-.507,4.082l-3.015,1.951A7.857,7.857,0,0,1,3110.543,8297.243Z" transform="translate(-3025.027 -8100.076)" fill="#c9cfe5" opacity="0.15"/>
      <g id="Group_644" data-name="Group 644">
        <path id="Path_2265" data-name="Path 2265" d="M3118.367,8162.306l-82.892-47.857a2.075,2.075,0,0,0-2.435-.068l-.013-.015-7.395,4.748,6.106,8.624.572,1.229v114.552a6.992,6.992,0,0,0,3.166,5.466l55.675,32.145,16.423,9.48,1.88,4.037s3.7,7.878,3.849,7.807,7.2-4.5,7.2-4.5l0-.009c.636-.3,1.044-1.01,2.01-2.359v-128.1C3121.541,8165.76,3120.113,8163.318,3118.367,8162.306Z" transform="translate(-3025.176 -8114.021)" fill="url(#linear-gradient)"/>
        <g id="product_ui" data-name="product ui" transform="translate(0 4.457)">
          <g id="Group_643" data-name="Group 643">
            <path id="Path_2266" data-name="Path 2266" d="M3025.221,8206.1v42.288a7,7,0,0,0,3.164,5.467L3084.062,8286l27.216,15.712c1.745,1,3.175.2,3.175-1.808V8171.8a7,7,0,0,0-3.175-5.465l-82.892-47.856c-1.745-1.014-3.164-.2-3.164,1.807v81.252" transform="translate(-3025.221 -8118.038)" fill="#f9fbfc"/>
            <g id="Group_636" data-name="Group 636" transform="translate(4.683 16.398)">
              <path id="Path_2267" data-name="Path 2267" d="M3030.888,8136.844l40.073,23.137c.8.461,1.446-.028,1.446-1.093h0a3.463,3.463,0,0,0-1.446-2.762l-40.073-23.136c-.8-.462-1.446.027-1.446,1.093h0A3.458,3.458,0,0,0,3030.888,8136.844Z" transform="translate(-3029.442 -8132.817)" fill="#cfd9e6"/>
              <path id="Path_2268" data-name="Path 2268" d="M3030.888,8144.485l21.305,12.3c.8.461,1.446-.028,1.446-1.093h0a3.463,3.463,0,0,0-1.446-2.762l-21.305-12.3c-.8-.462-1.446.027-1.446,1.093h0A3.46,3.46,0,0,0,3030.888,8144.485Z" transform="translate(-3029.442 -8131.98)" fill="#cfd9e6"/>
            </g>
            <g id="Group_637" data-name="Group 637" transform="translate(7.742 44.101)">
              <path id="Path_2269" data-name="Path 2269" d="M3033.341,8160.966l66.415,38.558c.631.363,1.142-.023,1.142-.864h0a2.731,2.731,0,0,0-1.142-2.181l-66.415-38.557c-.63-.364-1.142.022-1.142.863h0A2.732,2.732,0,0,0,3033.341,8160.966Z" transform="translate(-3032.199 -8157.785)" fill="#cfd9e6"/>
            </g>
            <g id="Group_638" data-name="Group 638" transform="translate(7.742 55.061)">
              <path id="Path_2270" data-name="Path 2270" d="M3033.341,8170.844l66.415,38.558c.631.363,1.142-.023,1.142-.864h0a2.734,2.734,0,0,0-1.142-2.182l-66.415-38.556c-.63-.364-1.142.022-1.142.863h0A2.732,2.732,0,0,0,3033.341,8170.844Z" transform="translate(-3032.199 -8167.663)" fill="#cfd9e6"/>
            </g>
            <g id="Group_639" data-name="Group 639" transform="translate(7.742 66.02)">
              <path id="Path_2271" data-name="Path 2271" d="M3033.341,8180.723l66.415,38.557c.631.363,1.142-.024,1.142-.864h0a2.731,2.731,0,0,0-1.142-2.182l-66.415-38.556c-.63-.365-1.142.022-1.142.863h0A2.737,2.737,0,0,0,3033.341,8180.723Z" transform="translate(-3032.199 -8177.54)" fill="#cfd9e6"/>
            </g>
            <g id="Group_640" data-name="Group 640" transform="translate(7.742 76.979)">
              <path id="Path_2272" data-name="Path 2272" d="M3033.341,8190.6l66.415,38.555c.631.365,1.142-.022,1.142-.863h0a2.731,2.731,0,0,0-1.142-2.181l-66.415-38.557c-.63-.364-1.142.023-1.142.863h0A2.737,2.737,0,0,0,3033.341,8190.6Z" transform="translate(-3032.199 -8187.418)" fill="#cfd9e6"/>
            </g>
            <g id="Group_641" data-name="Group 641" transform="translate(7.742 87.94)">
              <path id="Path_2273" data-name="Path 2273" d="M3033.341,8200.479l66.415,38.555c.631.364,1.142-.022,1.142-.863h0a2.729,2.729,0,0,0-1.142-2.181l-66.415-38.557c-.63-.364-1.142.022-1.142.863h0A2.739,2.739,0,0,0,3033.341,8200.479Z" transform="translate(-3032.199 -8197.296)" fill="#cfd9e6"/>
            </g>
            <g id="Group_642" data-name="Group 642" transform="translate(7.742 98.9)">
              <path id="Path_2274" data-name="Path 2274" d="M3033.341,8210.355l30.472,17.619c.631.364,1.142-.023,1.142-.864h0a2.733,2.733,0,0,0-1.142-2.182l-30.472-17.618c-.63-.364-1.142.022-1.142.863h0A2.735,2.735,0,0,0,3033.341,8210.355Z" transform="translate(-3032.199 -8207.174)" fill="#cfd9e6"/>
            </g>
          </g>
        </g>
      </g>
    </g>
    <ellipse id="Ellipse_364" data-name="Ellipse 364" cx="39.898" cy="69.109" rx="39.898" ry="69.109" transform="translate(26.725 73.366) rotate(-30.311)" fill="none" stroke="#cf82ff" stroke-miterlimit="10" stroke-width="2.875" opacity="0.4"/>
    <ellipse id="Ellipse_365" data-name="Ellipse 365" cx="57.664" cy="99.881" rx="57.664" ry="99.881" transform="translate(0 58.205) rotate(-30.311)" fill="none" stroke="#cf82ff" stroke-miterlimit="10" stroke-width="1.725" opacity="0.2"/>
    <g id="lock" transform="translate(74.137 67.6)">
      <path id="Path_2275" data-name="Path 2275" d="M3041.592,8182.942l8.781-5.415,0,0a3.7,3.7,0,0,1,3.628.382l28.755,16.869c3.138,1.842,5.657,6.74,5.629,10.94l-.176,25.126c-.015,2.254-.766,3.841-1.938,4.552l.008.012c-.089.049-8.518,5.274-8.984,5.515-.013.007-.031-.179-.034-.178-.026.01-2.417-3.842-5.946-9.554l-19.619-11.509c-3.138-1.841-5.657-6.738-5.629-10.939l.128-18.319C3043.4,8185.881,3041.592,8182.942,3041.592,8182.942Z" transform="translate(-3039.466 -8153.908)" fill="#c172f2"/>
      <path id="Path_2276" data-name="Path 2276" d="M3045.3,8223.059l28.755,16.868c3.137,1.843,5.7-.072,5.734-4.271l.175-25.128c.029-4.2-2.491-9.1-5.629-10.94l-28.755-16.867c-3.138-1.842-5.705.072-5.735,4.272l-.174,25.127C3039.647,8216.319,3042.167,8221.217,3045.3,8223.059Z" transform="translate(-3039.676 -8153.382)" fill="#d5a7f2"/>
      <path id="Path_2277" data-name="Path 2277" d="M3054.067,8202.2c.018-2.681,1.92-3.746,4.246-2.382a9.322,9.322,0,0,1,4.178,7.325c-.012,1.8-.872,2.861-2.135,2.963l-.071,10.183-4.212-2.472.071-10.183A9.179,9.179,0,0,1,3054.067,8202.2Z" transform="translate(-3038.1 -8151.498)" fill="#970feb"/>
      <g id="Group_646" data-name="Group 646" transform="translate(9.558 25.837)">
        <path id="Path_2278" data-name="Path 2278" d="M3068.409,8191.218c.1-.058.22-.1.328-.152a6.924,6.924,0,0,1,5.694.1c.055.028.119.051.173.082,1.7,1,1.679,2.6-.044,3.577-.048.026-.1.046-.154.07a6.931,6.931,0,0,1-5.7.064c-.115-.057-.239-.1-.346-.167C3066.666,8193.8,3066.686,8192.2,3068.409,8191.218Z" transform="translate(-3046.23 -8178.29)" fill="#970feb"/>
        <path id="Path_2279" data-name="Path 2279" d="M3049.6,8180.21c.062-.035.134-.06.2-.092a6.928,6.928,0,0,1,5.7-.021c.1.049.208.09.3.146,1.7,1,1.679,2.6-.044,3.576-.089.051-.191.087-.284.132a6.931,6.931,0,0,1-5.7-.06c-.07-.037-.149-.064-.216-.1C3047.853,8182.789,3047.873,8181.188,3049.6,8180.21Z" transform="translate(-3048.291 -8179.495)" fill="#970feb"/>
      </g>
      <path id="Path_2280" data-name="Path 2280" d="M3063.209,8157.914c8.338,4.327,13.292,14.72,13.233,23.189l-.1,13.821-.025,3.729a6.931,6.931,0,0,1-5.7.064l.026-3.9.119-17.047c.034-4.869-3.375-10.845-7.607-13.327s-7.69-.535-7.723,4.333l-.1,13.866-.027,3.854a6.931,6.931,0,0,1-5.7-.06l.027-3.772.12-17.215C3049.827,8156.985,3055.646,8153.988,3063.209,8157.914Z" transform="translate(-3038.586 -8156.21)" fill="#323d80"/>
    </g>
    <path id="Path_2281" data-name="Path 2281" d="M3089.782,8269.436c-.59-.511-1.2-.972-1.768-1.542a16.707,16.707,0,0,0-3.989-3.038,11.483,11.483,0,0,1-1.6-1.061,7.487,7.487,0,0,1-2.23-3.327c-.524-1.354-.992-2.721-1.588-4.06-.407-.918-1-1.8-1.5-2.7a6.458,6.458,0,0,1-1.089-3.808,7.034,7.034,0,0,1,.4-1.6,9.139,9.139,0,0,0,.6-3.88,12.717,12.717,0,0,1,.044-1.358c.083-1.437.739-2.176,1.874-2.127a8.035,8.035,0,0,0,4.571-1.149c.9-.532,2.036-.1,3.265,1.022.429.393.857.789,1.279,1.2a13.776,13.776,0,0,0,2.9,2.215c.61.338,1.223.72,1.831,1.133a6.561,6.561,0,0,1,2.254,2.862,7.455,7.455,0,0,1,.333.8,31.29,31.29,0,0,0,3.176,6.926,5.437,5.437,0,0,1,.8,4.483,24.236,24.236,0,0,0-.781,2.909,13.724,13.724,0,0,0-.057,2.219c-.005,1.1-.112,2.127-.812,2.54a2.7,2.7,0,0,1-1.5.384,6.156,6.156,0,0,0-3.78.95,2.137,2.137,0,0,1-2.3.115c-.1-.051-.208-.118-.312-.179Z" transform="translate(-2961.561 -8079.479)" fill="#03c1ff" opacity="0.3"/>
    <ellipse id="Ellipse_366" data-name="Ellipse 366" cx="5.665" cy="9.813" rx="5.665" ry="9.813" transform="translate(115.943 169.662) rotate(-30.311)" opacity="0.3" stroke="#fff" stroke-linecap="round" stroke-linejoin="round" stroke-width="1.725" fill="#03c1ff"/>
  </g>
</svg>
