<svg xmlns="http://www.w3.org/2000/svg" xmlns:xlink="http://www.w3.org/1999/xlink" width="259.41" height="192.12" viewBox="0 0 259.41 192.12">
  <defs>
    <linearGradient id="linear-gradient" y1="0.5" x2="1" y2="0.5" gradientUnits="objectBoundingBox">
      <stop offset="0" stop-color="#feffff"/>
      <stop offset="0.296" stop-color="#e5ffff"/>
      <stop offset="1" stop-color="#bfbafb"/>
    </linearGradient>
    <linearGradient id="linear-gradient-2" x1="0.5" y1="0.416" x2="0.5" y2="0.994" gradientUnits="objectBoundingBox">
      <stop offset="0" stop-color="#2bc0ff"/>
      <stop offset="1" stop-color="#2bc0ff" stop-opacity="0"/>
    </linearGradient>
  </defs>
  <g id="Programable_Documents" data-name="Programable Documents" transform="translate(0 1.226)">
    <g id="content" transform="translate(0 6.533)">
      <path id="Path_2066" data-name="Path 2066" d="M3161.7,8094.587l102.185,59c3.968,2.292,9.968,2.54,13.4.557l138.222-79.8c3.434-1.982,3-5.447-.963-7.737l-102.186-59c-3.966-2.291-9.966-2.538-13.4-.557l-138.222,79.8C3157.3,8088.833,3157.736,8092.3,3161.7,8094.587Z" transform="translate(-3158.421 -7971.12)" fill="#c9cfe5" opacity="0.15"/>
      <path id="Path_2067" data-name="Path 2067" d="M3417.83,8035.466l-6.36-.438-99.107-57.221c-3.966-2.289-9.967-2.539-13.4-.556l-133.678,77.179-6.861.646v5.209h0v.489l.02,0c.164,1.409,1.262,2.859,3.259,4.014l102.185,59c3.968,2.289,9.968,2.538,13.4.554l138.222-79.8a3.922,3.922,0,0,0,2.3-3.474h.013Z" transform="translate(-3158.421 -7970.543)" fill="url(#linear-gradient)"/>
      <path id="Path_2068" data-name="Path 2068" d="M3161.7,8060.593l102.185,59c3.968,2.29,9.968,2.538,13.4.555l138.222-79.8c3.434-1.984,3-5.448-.963-7.737l-102.186-59c-3.966-2.29-9.966-2.538-13.4-.556l-138.222,79.8C3157.3,8054.838,3157.736,8058.3,3161.7,8060.593Z" transform="translate(-3158.421 -7971.713)" fill="#fff"/>
      <g id="Group_573" data-name="Group 573" transform="translate(100.084 17.11)">
        <g id="Group_566" data-name="Group 566" transform="translate(20.771 20.775)">
          <path id="Path_2069" data-name="Path 2069" d="M3274.134,8015.864l16.557,9.56a4.584,4.584,0,0,0,4.124.171l.134-.078c1.057-.61.924-1.676-.3-2.382l-16.556-9.558a4.583,4.583,0,0,0-4.123-.171l-.134.078C3272.781,8014.093,3272.914,8015.16,3274.134,8015.864Z" transform="translate(-3247.326 -7998.1)" fill="#004680" opacity="0.3"/>
          <path id="Path_2070" data-name="Path 2070" d="M3253.956,8004.214l16.557,9.559a4.578,4.578,0,0,0,4.123.171l.134-.077c1.057-.61.924-1.675-.3-2.381l-16.556-9.56a4.583,4.583,0,0,0-4.123-.171l-.135.078C3252.6,8002.443,3252.736,8003.509,3253.956,8004.214Z" transform="translate(-3252.947 -8001.343)" fill="#004680" opacity="0.3"/>
          <path id="Path_2071" data-name="Path 2071" d="M3307.75,8035.337l4.149,2.395a4.584,4.584,0,0,0,4.123.171l.135-.077c1.057-.61.924-1.677-.3-2.381l-4.148-2.395a4.584,4.584,0,0,0-4.123-.171l-.134.077C3306.4,8033.567,3306.53,8034.633,3307.75,8035.337Z" transform="translate(-3237.963 -7992.676)" fill="#004680" opacity="0.3"/>
          <path id="Path_2072" data-name="Path 2072" d="M3293.775,8027.27l9.112,5.259a4.581,4.581,0,0,0,4.123.172l.134-.078c1.058-.609.925-1.677-.3-2.38l-9.112-5.262a4.581,4.581,0,0,0-4.124-.17l-.134.076C3292.422,8025.5,3292.555,8026.563,3293.775,8027.27Z" transform="translate(-3241.855 -7994.922)" fill="#004680" opacity="0.3"/>
        </g>
        <g id="Group_567" data-name="Group 567" transform="translate(38.387)">
          <path id="Path_2073" data-name="Path 2073" d="M3309.441,8012.044l5.313,3.068a4.578,4.578,0,0,0,4.124.171l.134-.077c1.057-.611.924-1.676-.3-2.383l-5.312-3.066a4.581,4.581,0,0,0-4.124-.17l-.135.077C3308.088,8010.275,3308.22,8011.34,3309.441,8012.044Z" transform="translate(-3255.108 -7978.388)" fill="#004680" opacity="0.3"/>
          <path id="Path_2074" data-name="Path 2074" d="M3267.734,7987.966l23.734,13.7a4.584,4.584,0,0,0,4.123.171l.134-.078c1.057-.609.924-1.676-.3-2.38l-23.732-13.7a4.584,4.584,0,0,0-4.123-.171l-.135.078C3266.381,7986.2,3266.514,7987.261,3267.734,7987.966Z" transform="translate(-3266.725 -7985.095)" fill="#004680" opacity="0.3"/>
          <path id="Path_2075" data-name="Path 2075" d="M3293.566,8002.879l10.952,6.323a4.578,4.578,0,0,0,4.123.171l.134-.078c1.057-.61.925-1.676-.3-2.381l-10.952-6.322a4.584,4.584,0,0,0-4.124-.171l-.134.078C3292.213,8001.108,3292.346,8002.175,3293.566,8002.879Z" transform="translate(-3259.53 -7980.941)" fill="#004680" opacity="0.3"/>
        </g>
        <g id="Group_568" data-name="Group 568" transform="translate(32.486 5.795)">
          <path id="Path_2076" data-name="Path 2076" d="M3263.119,7992.5l34.027,19.646a4.584,4.584,0,0,0,4.124.171l.134-.078c1.057-.609.924-1.676-.3-2.38l-34.027-19.646a4.581,4.581,0,0,0-4.123-.17l-.135.075C3261.766,7990.727,3261.9,7991.792,3263.119,7992.5Z" transform="translate(-3262.109 -7989.628)" fill="#004680" opacity="0.3"/>
          <path id="Path_2077" data-name="Path 2077" d="M3297.084,8012.107l13.159,7.6a4.581,4.581,0,0,0,4.123.172l.135-.078c1.057-.609.925-1.676-.3-2.381l-13.159-7.6a4.58,4.58,0,0,0-4.123-.17l-.134.076C3295.731,8010.338,3295.864,8011.4,3297.084,8012.107Z" transform="translate(-3252.649 -7984.166)" fill="#004680" opacity="0.3"/>
        </g>
        <g id="Group_569" data-name="Group 569" transform="translate(6.2 22.677)">
          <path id="Path_2078" data-name="Path 2078" d="M3297.679,8037.526l8.443,4.874a4.584,4.584,0,0,0,4.124.171l.134-.078c1.057-.609.926-1.676-.3-2.38l-8.444-4.874a4.584,4.584,0,0,0-4.124-.171l-.134.077C3296.326,8035.756,3296.459,8036.822,3297.679,8037.526Z" transform="translate(-3226.197 -7993.968)" fill="#004680" opacity="0.3"/>
          <path id="Path_2079" data-name="Path 2079" d="M3242.559,8005.7l32.788,18.93a4.582,4.582,0,0,0,4.124.17l.134-.076c1.058-.61.925-1.677-.3-2.381l-32.787-18.931a4.584,4.584,0,0,0-4.123-.171l-.135.078C3241.206,8003.932,3241.339,8005,3242.559,8005.7Z" transform="translate(-3241.55 -8002.832)" fill="#004680" opacity="0.3"/>
          <path id="Path_2080" data-name="Path 2080" d="M3276.7,8025.414l15.895,9.176a4.581,4.581,0,0,0,4.125.172l.135-.078c1.056-.61.924-1.676-.3-2.382l-15.9-9.175a4.586,4.586,0,0,0-4.123-.172l-.134.077C3275.346,8023.642,3275.479,8024.708,3276.7,8025.414Z" transform="translate(-3232.04 -7997.342)" fill="#004680" opacity="0.3"/>
        </g>
        <g id="Group_570" data-name="Group 570" transform="translate(0 29.413)" opacity="0.3">
          <path id="Path_2081" data-name="Path 2081" d="M3237.71,8010.972l46.392,26.784a4.583,4.583,0,0,0,4.125.17l.135-.077c1.056-.611.925-1.676-.3-2.38l-46.392-26.785a4.579,4.579,0,0,0-4.124-.171l-.134.076C3236.357,8009.2,3236.49,8010.266,3237.71,8010.972Z" transform="translate(-3236.701 -8008.101)" fill="#004680"/>
          <path id="Path_2082" data-name="Path 2082" d="M3282.6,8036.887l18.813,10.861a4.585,4.585,0,0,0,4.124.172l.134-.078c1.057-.61.924-1.677-.3-2.381l-18.811-10.861a4.584,4.584,0,0,0-4.123-.171l-.134.078C3281.246,8035.118,3281.379,8036.183,3282.6,8036.887Z" transform="translate(-3224.197 -8000.881)" fill="#004680"/>
        </g>
        <g id="Group_571" data-name="Group 571" transform="translate(21.018 10.529)" opacity="0.3">
          <path id="Path_2083" data-name="Path 2083" d="M3283.935,8013.4l20.212,11.67a4.584,4.584,0,0,0,4.124.171l.134-.078c1.057-.609.924-1.676-.3-2.38l-20.212-11.67a4.583,4.583,0,0,0-4.123-.171l-.135.077C3282.582,8011.626,3282.715,8012.692,3283.935,8013.4Z" transform="translate(-3244.843 -7988.539)" fill="#004680"/>
          <path id="Path_2084" data-name="Path 2084" d="M3254.15,7996.2l29.482,17.023a4.583,4.583,0,0,0,4.123.169l.134-.077c1.057-.611.924-1.676-.3-2.381l-29.481-17.021a4.584,4.584,0,0,0-4.125-.171l-.135.077C3252.8,7994.431,3252.929,7995.5,3254.15,7996.2Z" transform="translate(-3253.14 -7993.33)" fill="#004680"/>
        </g>
        <g id="Group_572" data-name="Group 572" transform="translate(95.615 43.457)">
          <path id="Path_2085" data-name="Path 2085" d="M3332.755,8031.111a2.287,2.287,0,0,0-2.079-.124,15.639,15.639,0,0,1-13.31-.416c-3.888-2.245-3.908-5.886-.045-8.116a15.554,15.554,0,0,1,14.057.026,6,6,0,0,1,2.655,2.724,1.725,1.725,0,0,0,1.782.634c.793-.107,1.28-.566,1.088-1.024a7.791,7.791,0,0,0-3.443-3.536c-5.043-2.912-13.223-2.926-18.233-.033s-4.986,7.617.056,10.527a18.414,18.414,0,0,0,8.516,2.188,19.616,19.616,0,0,0,8.752-1.651C3333.182,8032.013,3333.272,8031.477,3332.755,8031.111Z" transform="translate(-3311.485 -8019.085)" fill="#50a0ff"/>
          <path id="Path_2086" data-name="Path 2086" d="M3321.374,8023.515c0-.541-.766-.981-1.7-.984s-1.7.438-1.693.978l.02,3.786a.858.858,0,0,0,.5.694,2.45,2.45,0,0,0,1.2.288l15.366.028c.938,0,1.7-.436,1.693-.977s-.766-.981-1.7-.984l-13.667-.024Z" transform="translate(-3309.676 -8018.125)" fill="#76d6ff"/>
        </g>
      </g>
    </g>
    <g id="Group_576" data-name="Group 576" transform="translate(46.129)">
      <path id="Path_2087" data-name="Path 2087" stroke="#2bc0ff" d="M3240.694,8081.352,3197.3,8056.3c-3.143-1.813-2.748-4.983.881-7.08l41.291-23.837c3.628-2.1,9.117-2.323,12.26-.51l43.393,25.054c3.143,1.813,2.748,4.984-.881,7.077l-41.291,23.84C3249.325,8082.939,3243.836,8083.167,3240.694,8081.352Z" fill="none" transform="translate(-3194.311 -7950.714)" stroke-linecap="round" stroke-linejoin="round" stroke-width="2.042" opacity="0.1"/>
      <path id="Path_2088" data-name="Path 2088" d="M3240.232,7981.639l-45.731,9.655v79.62h103.8v-79.442Z" transform="translate(-3194.501 -7962.415)" opacity="0.5" fill="url(#linear-gradient-2)"/>
      <path id="Path_2089" data-name="Path 2089" stroke="#2bc0ff" d="M3240.694,8037.752,3197.3,8012.7c-3.143-1.813-2.748-4.984.881-7.079l41.291-23.838c3.628-2.095,9.117-2.322,12.26-.509l43.393,25.053c3.143,1.813,2.748,4.983-.881,7.08l-41.291,23.837C3249.325,8039.339,3243.836,8039.567,3240.694,8037.752Z" fill="none" transform="translate(-3194.311 -7962.857)" stroke-linecap="round" stroke-linejoin="round" stroke-width="2.042" opacity="0.4"/>
      <path id="Path_2090" data-name="Path 2090" stroke="#2bc0ff" d="M3240.694,8052.75,3197.3,8027.7c-3.143-1.813-2.748-4.981.881-7.077l41.291-23.839c3.628-2.1,9.117-2.323,12.26-.51l43.393,25.054c3.143,1.815,2.748,4.984-.881,7.079l-41.291,23.84C3249.325,8054.336,3243.836,8054.564,3240.694,8052.75Z" fill="none" transform="translate(-3194.311 -7958.68)" stroke-linecap="round" stroke-linejoin="round" stroke-width="2.042" opacity="0.2"/>
      <path id="Path_2091" data-name="Path 2091" stroke="#2bc0ff" d="M3240.694,8067.577l-43.392-25.053c-3.143-1.813-2.748-4.983.881-7.078l41.291-23.839c3.628-2.1,9.117-2.322,12.26-.508l43.393,25.052c3.143,1.815,2.748,4.983-.881,7.079l-41.291,23.839C3249.325,8069.165,3243.836,8069.39,3240.694,8067.577Z" fill="none" transform="translate(-3194.311 -7954.55)" stroke-linecap="round" stroke-linejoin="round" stroke-width="2.042" opacity="0.1"/>
      <path id="Path_2092" data-name="Path 2092" d="M3240.694,8024.306l-43.392-25.051c-3.143-1.814-2.748-4.983.881-7.079l41.291-23.839c3.628-2.1,9.117-2.323,12.26-.509l43.393,25.053c3.143,1.815,2.748,4.984-.881,7.078l-41.291,23.84C3249.325,8025.894,3243.836,8026.121,3240.694,8024.306Z" transform="translate(-3194.311 -7966.603)" fill="#fff" stroke="#2bc0ff" stroke-linecap="round" stroke-linejoin="round" stroke-width="2.45"/>
      <g id="Group_575" data-name="Group 575" transform="translate(8.573 4.363)">
        <g id="Group_574" data-name="Group 574">
          <path id="Path_2093" data-name="Path 2093" d="M3248.489,7997.636l-2.087,1.2,4.074,2.354,1.945-1.124,2.171,1.093v-.014l-1.973,1.322,1.983,1.143-2.125,1.227-2-1.157-2.044,1.181-2.078-1.2-2.13,1.231,4.088,2.36-4.121,2.378-2.026-1.169,2-1.154-2.084-1.2-1.974,1.141-2.084-1.2,4.067-2.349-2.067-1.193,2.129-1.229,2,1.152,2.013-1.162-6.2-3.583-1.962,1.133-4.162-2.4,6.169-3.562,4.1,2.365,2.056-1.187-2-1.155,2.1-1.213,6.2,3.577,2.01-1.161,4.141,2.392-2,1.152-2.026-1.169-4.181,2.414c-.7-.442-1.324-.836-1.951-1.231.615-.392,1.234-.781,1.862-1.178l-1.987-1.147-2.047,1.182Z" transform="translate(-3192.119 -7963.987)" fill="#004680"/>
          <path id="Path_2094" data-name="Path 2094" d="M3238.41,7970.015l14.55,8.4-14.471,8.356-14.55-8.4Zm10.367,8.4-10.375-5.991-10.29,5.941,10.376,5.991Z" transform="translate(-3194.874 -7970.015)" fill="#004680"/>
          <path id="Path_2095" data-name="Path 2095" d="M3230.169,7991.564l-14.412,8.32-14.551-8.4,14.412-8.318Zm-14.533-6.015-10.271,5.93,10.369,5.987,10.271-5.931Z" transform="translate(-3201.206 -7966.353)" fill="#004680"/>
          <path id="Path_2096" data-name="Path 2096" d="M3261.334,7999.967l-14.5-8.373,14.46-8.348,14.5,8.372Zm-.014-2.418,10.3-5.951-10.324-5.96-10.3,5.95Z" transform="translate(-3188.497 -7966.329)" fill="#004680"/>
          <path id="Path_2097" data-name="Path 2097" d="M3227.28,7983.808l2.162-1.085-2.1-1.209,2.011-1.162,4.145,2.394-2.018,1.165,2.167,1.252,0-.028-2.124,1.228,2.086,1.2-2,1.154c-.68-.391-1.359-.783-2.052-1.182l-2.048,1.182,2.031,1.173,2.07-1.194,2.063,1.233,0-.024-2.069,1.193,2.066,1.193-2.084,1.2,4.183,2.416,2.009-1.159,2.038,1.176-4.108,2.372-2.02-1.166-2.089,1.206-6.269-3.619,4.135-2.387-10.436-6.024,2.077-1.2,2.055,1.185,2.089-1.2,2.053,1.184,2.009-1.159c-.712-.466-1.375-.9-2.037-1.331Z" transform="translate(-3196.241 -7967.135)" fill="#004680"/>
          <path id="Path_2098" data-name="Path 2098" d="M3239.778,7986.617l2.242,1.12,4.1-2.365-2.029-1.173,2.066-1.192-2.044-1.181,4.144-2.394,2.025,1.171-2,1.156,2.073,1.2-2.1,1.212,4.211,2.432c-.578.334-1.041.624-1.547.888-.445.229-.417.415.01.641.508.27.979.561,1.506.865l-6.26,3.613-2.018-1.165-2.051,1.184,2.018,1.165-2.061,1.19-4.122-2.382-2.059,1.19-2.175-1.256,4.145-2.392q1.053.609,2.1,1.215l1.98-1.143-2.081-1.2-2,1.155-2.065-1.194V7989l4.023-2.382Z" transform="translate(-3192.154 -7967.391)" fill="#004680"/>
          <path id="Path_2099" data-name="Path 2099" d="M3232.06,8006.6l-2.26,1.183-4.128-2.385,6.2-3.58-2.06-1.188,4.125-2.38,2.02,1.165-2,1.152,2.117,1.222,2-1.152,2.056,1.187-4.082,2.357,2.168,1.252c-1.414.816-2.75,1.587-4.092,2.359h.026q-1.065-.595-2.133-1.191l1.863-1.181-1.987-1.146-2.047,1.183Z" transform="translate(-3194.391 -7962.152)" fill="#004680"/>
          <path id="Path_2100" data-name="Path 2100" d="M3224.135,8002.1l-4.118-2.378-2.084,1.2-2.09-1.207,6.2-3.579-2.042-1.179,4.121-2.38,2.043,1.18-2.024,1.17,2.05,1.182,0-.025-2,1.271,2.033,1.175-2.052,1.185,2.029,1.17-2.1,1.213Z" transform="translate(-3197.13 -7963.729)" fill="#004680"/>
          <path id="Path_2101" data-name="Path 2101" d="M3217.405,7983.1l4.006-2.312-1.967-1.136,2.062-1.19,4.086,2.361-1.971,1.138,4.112,2.373v-.023c-.614.422-1.226.846-1.92,1.324l-4.219-2.436-2.135,1.233-2.052-1.346Z" transform="translate(-3196.694 -7967.662)" fill="#004680"/>
          <path id="Path_2102" data-name="Path 2102" d="M3250.4,7980.334l4.167,2.317,0-.008-1.947,1.355,1.956,1.129-2.031,1.174-4.112-2.374,2-1.153-2.11-1.219,2.116-1.223Z" transform="translate(-3188.083 -7967.141)" fill="#004680"/>
          <path id="Path_2103" data-name="Path 2103" d="M3233.822,8007.1l4-2.311,4.217,2.434-3.992,2.3-4.228-2.441Z" transform="translate(-3192.122 -7960.329)" fill="#004680"/>
          <path id="Path_2104" data-name="Path 2104" d="M3222.717,8000.023l2.156,1.244,2.037-1.176,2.06,1.19-2.023,1.167-2.019-1.165-2.037,1.177-2.081-1.2,1.943-1.235Z" transform="translate(-3195.746 -7961.656)" fill="#004680"/>
          <path id="Path_2105" data-name="Path 2105" d="M3250.068,7999.6l4.026-2.324,2.134,1.23-4.139,2.391c-.7-.455-1.363-.883-2.021-1.312Z" transform="translate(-3187.596 -7962.422)" fill="#004680"/>
          <path id="Path_2106" data-name="Path 2106" d="M3230.468,7984.367l2.021-1.167,4.122,2.38-2.019,1.166h.04l-4.168-2.406Z" transform="translate(-3193.057 -7966.341)" fill="#004680"/>
          <path id="Path_2107" data-name="Path 2107" d="M3236.684,7987.151l-4.128,2.383-2.069-1.193,0,.024,4.143-2.392h-.04q1.047.6,2.1,1.2Z" transform="translate(-3193.051 -7965.57)" fill="#004680"/>
          <path id="Path_2108" data-name="Path 2108" d="M3223.936,7995.6l2.065-1.191,4.145,2.392,0-.021-1.941,1.262-4.269-2.465Z" transform="translate(-3194.876 -7963.22)" fill="#004680"/>
          <path id="Path_2109" data-name="Path 2109" d="M3228.793,7996.52l2.124-1.1,2.006,1.158-2,1.153-2.135-1.233Z" transform="translate(-3193.523 -7962.938)" fill="#004680"/>
          <path id="Path_2110" data-name="Path 2110" d="M3218.3,7982.306l-2.053,1.3-2.073-1.2,1.981-1.144c.742.366,1.442.712,2.143,1.055Z" transform="translate(-3197.592 -7966.88)" fill="#004680"/>
          <path id="Path_2111" data-name="Path 2111" d="M3238.889,7985.567l-1.879-1.217,1.993-1.15,1.981,1.142c-.731.424-1.428.826-2.126,1.227Z" transform="translate(-3191.234 -7966.343)" fill="#004680"/>
          <path id="Path_2112" data-name="Path 2112" d="M3253.205,7982.369l2.136-1.024,2,1.154-2.051,1.184c-.7-.445-1.394-.882-2.084-1.32Z" transform="translate(-3186.722 -7966.859)" fill="#004680"/>
          <path id="Path_2113" data-name="Path 2113" d="M3250.418,7980.841l-2.031-1.171,2.009-1.162,2.011,1.163-2.028,1.171Z" transform="translate(-3188.064 -7967.648)" fill="#004680"/>
          <path id="Path_2114" data-name="Path 2114" d="M3234.711,8006.833l-2.024,1.3-2.055-1.187c.738-.427,1.438-.831,2.139-1.234h-.024q.986.57,1.964,1.139Z" transform="translate(-3193.01 -7960.072)" fill="#004680"/>
          <path id="Path_2115" data-name="Path 2115" d="M3236.629,7980.906l-6.2-3.578,6.16-3.558,6.2,3.578Z" transform="translate(-3193.065 -7968.968)" fill="#004680"/>
          <path id="Path_2116" data-name="Path 2116" d="M3213.836,7986.911l6.2,3.58-6.14,3.545-6.2-3.579Z" transform="translate(-3199.399 -7965.309)" fill="#004680"/>
          <path id="Path_2117" data-name="Path 2117" d="M3259.51,7994.124l-6.163-3.558,6.186-3.571,6.162,3.559Z" transform="translate(-3186.683 -7965.285)" fill="#004680"/>
        </g>
      </g>
    </g>
  </g>
</svg>
