<svg xmlns="http://www.w3.org/2000/svg" width="16.984" height="16.824" viewBox="0 0 16.984 16.824">
  <g id="Search" transform="translate(-2031.612 -850.786)">
    <path id="Path_29" data-name="Path 29" d="M2043.112,864.026l0,0a7.179,7.179,0,0,0,1.889-1.906l0,0a7.27,7.27,0,0,0-11.164-9.208C2027.5,859.251,2036.016,868.962,2043.112,864.026Zm-7.765-3.177a4.584,4.584,0,1,1,7.458-5.319C2045.985,860.342,2038.96,865.524,2035.347,860.849Z" transform="translate(0 0)" fill="#caccd4"/>
    <path id="Path_30" data-name="Path 30" d="M2068.228,885.055a7.457,7.457,0,0,1-1.889,1.906c2.676,2.675,2.725,2.892,3.45,2.892a1.341,1.341,0,0,0,1.341-1.341C2071.131,887.8,2070.923,887.754,2068.228,885.055Z" transform="translate(-22.535 -22.243)" fill="#caccd4"/>
  </g>
</svg>
