<svg xmlns="http://www.w3.org/2000/svg" xmlns:xlink="http://www.w3.org/1999/xlink" width="186.619" height="217.708" viewBox="0 0 186.619 217.708">
  <defs>
    <linearGradient id="linear-gradient" x1="98.792" y1="0.5" x2="99.792" y2="0.5" gradientUnits="objectBoundingBox">
      <stop offset="0" stop-color="#7ab4f4"/>
      <stop offset="1" stop-color="#dfedfa"/>
    </linearGradient>
    <linearGradient id="linear-gradient-2" x1="98.902" y1="0.5" x2="99.902" y2="0.5" xlink:href="#linear-gradient"/>
    <linearGradient id="linear-gradient-3" x1="252.129" y1="0.5" x2="253.129" y2="0.5" gradientUnits="objectBoundingBox">
      <stop offset="0" stop-color="#3282ed"/>
      <stop offset="1" stop-color="#60a2f0"/>
    </linearGradient>
    <linearGradient id="linear-gradient-4" x1="235.223" y1="0.5" x2="236.223" y2="0.5" xlink:href="#linear-gradient-3"/>
  </defs>
  <g id="Security" transform="translate(0 0)">
    <g id="Group_598" data-name="Group 598">
      <path id="Path_2159" data-name="Path 2159" d="M2909.043,8439.212l-18.98-10.957m22.479,12.978-.376-.217m-50.7-29.274-40.037-23.115c-2.194-1.268-2.451-3.173-.575-4.256l64.412-37.187c1.877-1.085,5.178-.937,7.372.33l107.1,61.835c2.194,1.267,2.452,3.173.575,4.257l-64.412,37.188c-1.877,1.085-5.178.936-7.372-.333l-14.562-8.405" transform="translate(-2818.387 -8233.81)" fill="#c9cfe5" fill-rule="evenodd" opacity="0.15"/>
      <g id="notebook">
        <g id="MacBook_Pro" data-name="MacBook Pro">
          <g id="body">
            <path id="Path_2160" data-name="Path 2160" d="M2876.51,8348.567a8.1,8.1,0,0,1-1.2-3.954v-86.256c0-2.518,3.342-3.918,5.536-2.65l107.1,61.833a8.757,8.757,0,0,1,3.974,6.854v86.422a3.368,3.368,0,0,1-3.612,3.558" transform="translate(-2805.303 -8255.232)" fill="#b8cae8" fill-rule="evenodd"/>
            <path id="Path_2161" data-name="Path 2161" d="M3000.972,8389.746v3.607a2.1,2.1,0,0,1-1.246,2l-64.412,37.187c-1.877,1.085-5.178.937-7.372-.331l-107.1-61.834c-2.194-1.266-3.329-7.189-.712-8.5" transform="translate(-2818.617 -8230.19)" fill="#b8cae8" fill-rule="evenodd"/>
            <path id="Path_2162" data-name="Path 2162" d="M2876.5,8348.97a8.1,8.1,0,0,1-1.2-3.953v-86.423c0-2.518,1.778-3.532,3.972-2.265l107.1,61.833a8.758,8.758,0,0,1,3.974,6.854v86.423c0,2-1.122,3.049-2.683,2.765" transform="translate(-2805.306 -8255.102)" fill="#fff" fill-rule="evenodd"/>
            <path id="Path_2163" data-name="Path 2163" d="M2986.039,8354.352v-31.924a1.753,1.753,0,0,0-.8-1.373l-106.213-61.322c-.439-.254-.795-.051-.795.454v83.665a1.749,1.749,0,0,0,.795,1.371l106.213,61.323c.44.252.8.051.8-.453v-47.117" transform="translate(-2804.617 -8254.199)" fill="#fff" fill-rule="evenodd"/>
            <path id="Path_2164" data-name="Path 2164" d="M2909.043,8423.831l-18.98-10.957m22.479,12.977-.376-.218m-50.7-29.273-40.037-23.115c-2.194-1.267-2.451-3.172-.575-4.256l64.412-37.187c1.877-1.084,5.178-.935,7.372.331l107.1,61.834c2.194,1.268,2.452,3.174.575,4.257l-64.412,37.188c-1.877,1.083-5.178.934-7.372-.333l-14.562-8.406" transform="translate(-2818.387 -8237.423)" fill="#fff" fill-rule="evenodd"/>
            <path id="Path_2165" data-name="Path 2165" d="M2854.825,8381.213l35.311,20.386a3.614,3.614,0,0,0,3.248-.134l16.218-9.364c.962-.555,1.066-1.4.233-1.875l-35.311-20.387a3.609,3.609,0,0,0-3.248.134l-16.217,9.364C2854.1,8379.891,2853.993,8380.73,2854.825,8381.213Z" transform="translate(-2810.246 -8228.395)" fill="#b8cae8" fill-rule="evenodd" opacity="0.2"/>
            <path id="Path_2166" data-name="Path 2166" d="M2854.606,8385.85l-.673-.389c-.8-.46-1.177-1.042-1.083-1.523a4.207,4.207,0,0,1,.663.012,4.946,4.946,0,0,1,1.973.614l24.9,14.374c.8.459,1.175,1.04,1.083,1.522a4.229,4.229,0,0,1-.665-.012,4.947,4.947,0,0,1-1.973-.613l-18.285-10.559" transform="translate(-2810.582 -8225.011)" fill="#fff"/>
            <path id="Path_2167" data-name="Path 2167" d="M2948.146,8413.5l-5.118-2.967c-.3-.174-.3-.454-.006-.623l1.557-.892a1.193,1.193,0,0,1,1.082.007l5.121,2.966c.3.174.3.454.008.625l-1.56.892A1.2,1.2,0,0,1,2948.146,8413.5Zm.659-7.855-7.121-4.12c-.3-.173-.3-.452-.006-.622l4.672-2.681a1.2,1.2,0,0,1,1.082,0l12.649,7.311c.3.174.305.453.008.623l-4.685,2.682a1.2,1.2,0,0,1-1.084-.006l-3.7-2.143m10.92-1.989-9.167-5.295c-.3-.173-.3-.452-.006-.622l4.681-2.686a1.2,1.2,0,0,1,1.083.007l9.177,5.294c.3.174.306.452.009.624l-4.691,2.685A1.2,1.2,0,0,1,2961.537,8404.7Zm7.225-4.137-4.756-2.741c-.3-.175-.305-.454-.008-.626l4.69-2.686a1.211,1.211,0,0,1,1.087,0l4.762,2.742c.3.174.305.453.007.624l-4.7,2.689A1.2,1.2,0,0,1,2968.762,8400.564Zm-7.159-4.129-4.749-2.737c-.3-.174-.3-.453-.008-.623l4.684-2.687a1.2,1.2,0,0,1,1.085.006l4.754,2.736c.3.174.3.454.007.624l-4.69,2.687A1.2,1.2,0,0,1,2961.6,8396.436Zm-9.341-5.385-2.547-1.469c-.3-.174-.3-.452-.007-.622l4.677-2.687a1.2,1.2,0,0,1,1.083.006l4.746,2.733c.3.172.3.452.007.622l-4.682,2.686a1.2,1.2,0,0,1-1.083,0m-.946-.544-.125-.073m-6.065-3.5-4.732-2.729c-.3-.173-.3-.452-.006-.622l4.67-2.686a1.208,1.208,0,0,1,1.082,0l4.737,2.728c.3.172.305.453.007.623l-4.676,2.686A1.19,1.19,0,0,1,2947.318,8388.2Zm-7.123-4.107-4.724-2.725c-.3-.172-.3-.449-.006-.621l4.664-2.685a1.2,1.2,0,0,1,1.079,0l4.729,2.724c.3.173.3.451.008.622l-4.67,2.685A1.191,1.191,0,0,1,2940.2,8384.093Zm-7.112-4.1-4.716-2.719c-.3-.174-.3-.451-.007-.622l4.658-2.683a1.189,1.189,0,0,1,1.078,0l4.721,2.717c.3.174.3.452.007.623l-4.663,2.686A1.2,1.2,0,0,1,2933.084,8379.992Zm-7.1-4.094-4.708-2.716c-.3-.172-.3-.449-.006-.62l4.65-2.683a1.2,1.2,0,0,1,1.077,0l4.713,2.715c.3.172.3.45.006.62l-4.656,2.684A1.19,1.19,0,0,1,2925.985,8375.9Zm-7.088-4.086-4.7-2.711c-.3-.172-.3-.449-.006-.619l4.644-2.683a1.183,1.183,0,0,1,1.074,0l4.706,2.708c.3.174.3.451.006.622l-4.649,2.682A1.19,1.19,0,0,1,2918.9,8371.813Zm-7.074-4.08-4.692-2.705c-.3-.172-.3-.449-.006-.619l4.638-2.681a1.178,1.178,0,0,1,1.073,0l4.7,2.7c.3.173.3.45.006.62l-4.643,2.682A1.184,1.184,0,0,1,2911.823,8367.732Zm-5.992-4.071a1.179,1.179,0,0,1-1.071,0l-4.685-2.7c-.3-.172-.3-.448-.006-.619l4.632-2.681a1.179,1.179,0,0,1,1.072,0l4.688,2.7c.3.171.3.448.006.618Zm-7.052-4.066a1.188,1.188,0,0,1-1.071,0l-4.676-2.7c-.3-.173-.3-.448,0-.617l4.624-2.681a1.18,1.18,0,0,1,1.07,0l4.682,2.7c.3.171.3.448,0,.618Zm-7.041-4.059a1.177,1.177,0,0,1-1.068,0l-4.669-2.691c-.3-.172-.3-.448-.005-.618l4.618-2.68a1.183,1.183,0,0,1,1.068,0l4.673,2.69c.3.173.3.449.006.619Zm-7.029-4.052a1.177,1.177,0,0,1-1.067,0l-4.66-2.687a.326.326,0,0,1-.006-.617l4.612-2.679a1.189,1.189,0,0,1,1.067,0l4.666,2.688c.3.171.3.447.006.616Zm-7.018-4.046a1.178,1.178,0,0,1-1.064,0l-7.218-4.162a.326.326,0,0,1,0-.616l4.6-2.676a1.17,1.17,0,0,1,1.065,0l7.225,4.159a.326.326,0,0,1,.006.617Zm98.178,49.022-4.756-2.743c-.3-.174-.3-.452-.008-.623l2.519-1.434a1.209,1.209,0,0,1,1.086.006l4.762,2.742c.3.173.306.455.007.624l-2.524,1.436A1.2,1.2,0,0,1,2975.869,8396.461Zm-7.159-4.128-4.749-2.738c-.3-.174-.3-.453-.008-.623l2.513-1.434a1.209,1.209,0,0,1,1.085,0l4.754,2.739c.3.173.3.452.008.623l-2.518,1.434A1.2,1.2,0,0,1,2968.71,8392.333Zm-7.148-4.122-4.74-2.732c-.3-.174-.3-.454-.006-.624l2.506-1.432a1.2,1.2,0,0,1,1.083,0l4.745,2.734c.3.172.305.45.007.622l-2.511,1.433A1.2,1.2,0,0,1,2961.562,8388.211Zm-7.135-4.115-4.733-2.729c-.3-.172-.3-.449-.006-.621l2.5-1.432a1.2,1.2,0,0,1,1.082,0l4.738,2.729c.3.173.3.45.006.623l-2.5,1.43A1.188,1.188,0,0,1,2954.427,8384.1Zm-7.124-4.105-4.725-2.724c-.3-.174-.3-.453-.006-.622l2.492-1.431a1.194,1.194,0,0,1,1.079,0l4.729,2.725c.3.172.3.45.008.621l-2.5,1.431A1.2,1.2,0,0,1,2947.3,8379.99Zm-7.111-4.1-4.716-2.72c-.3-.172-.3-.45-.008-.62l2.486-1.431a1.194,1.194,0,0,1,1.078,0l4.722,2.719c.3.172.3.451.006.621l-2.491,1.431A1.193,1.193,0,0,1,2940.192,8375.889Zm-7.1-4.094-4.708-2.715c-.3-.172-.3-.449-.006-.621l2.478-1.427a1.189,1.189,0,0,1,1.077,0l4.713,2.715c.3.172.3.449.008.62l-2.485,1.43A1.188,1.188,0,0,1,2933.093,8371.795Zm-7.088-4.087-4.7-2.711c-.3-.171-.3-.448-.006-.618l2.472-1.43a1.193,1.193,0,0,1,1.076,0l4.7,2.71c.3.171.3.449.006.619l-2.477,1.43A1.189,1.189,0,0,1,2926.005,8367.708Zm-7.074-4.079-4.692-2.706c-.3-.172-.3-.448-.007-.618l2.466-1.429a1.187,1.187,0,0,1,1.073,0l4.7,2.7c.3.174.3.45.006.62l-2.471,1.429A1.19,1.19,0,0,1,2918.931,8363.629Zm-5.991-4.071a1.172,1.172,0,0,1-1.072,0l-4.685-2.7c-.3-.171-.3-.448,0-.618l2.458-1.429a1.187,1.187,0,0,1,1.072,0l4.69,2.7c.3.171.3.447.006.618Zm-7.053-4.066a1.174,1.174,0,0,1-1.07,0l-4.676-2.7c-.3-.172-.3-.449-.006-.619l2.452-1.425a1.185,1.185,0,0,1,1.071,0l4.681,2.7c.3.171.3.446.006.617Zm-7.042-4.058a1.18,1.18,0,0,1-1.068,0l-4.669-2.691c-.3-.171-.3-.448,0-.617l2.446-1.427a1.192,1.192,0,0,1,1.068,0l4.674,2.693c.3.171.3.447,0,.617Zm-7.028-4.054a1.183,1.183,0,0,1-1.067,0l-4.66-2.688c-.3-.17-.3-.445-.005-.615l2.439-1.424a1.181,1.181,0,0,1,1.067,0l4.665,2.687a.326.326,0,0,1,.007.617Zm-7.018-4.046a1.181,1.181,0,0,1-1.064,0l-7.217-4.163a.325.325,0,0,1,0-.615l2.431-1.423a1.167,1.167,0,0,1,1.063,0l7.226,4.16c.3.172.3.446.005.616Zm-6.927,6.477c.3.171.3.447.006.617l-4.608,2.675a1.175,1.175,0,0,1-1.064,0l-9.879-5.706c-.3-.17-.3-.446,0-.615l4.6-2.675a1.173,1.173,0,0,1,1.063,0ZM2874.36,8356c.3.171.3.447,0,.615l-4.606,2.674a1.166,1.166,0,0,1-1.064,0l-13.444-7.779c-.294-.17-.3-.446,0-.614l4.592-2.672a1.167,1.167,0,0,1,1.062,0Zm-15.845-1.011a.326.326,0,0,1,0,.616l-4.592,2.669a1.167,1.167,0,0,1-1.061,0l-4.63-2.683a.325.325,0,0,1,0-.614l4.587-2.668a1.165,1.165,0,0,1,1.06,0Zm1.284,1.355a1.173,1.173,0,0,1,1.062,0l4.643,2.688c.295.171.3.447,0,.615l-4.6,2.67a1.171,1.171,0,0,1-1.062,0l-4.638-2.687a.325.325,0,0,1-.005-.615Zm6.991,4.048a1.17,1.17,0,0,1,1.063,0l5.989,3.467c.295.17.3.447.005.615l-4.607,2.672a1.179,1.179,0,0,1-1.063,0l-5.981-3.467c-.3-.171-.3-.447,0-.616Zm12.425-3.244-4.656-2.69a.325.325,0,0,1,0-.615l4.608-2.677a1.178,1.178,0,0,1,1.066,0l4.663,2.69a.327.327,0,0,1,.005.618l-4.615,2.676A1.181,1.181,0,0,1,2879.215,8357.15Zm-8.173,2.883,4.607-2.673a1.169,1.169,0,0,1,1.064,0l4.66,2.692a.326.326,0,0,1,0,.617l-4.612,2.673a1.18,1.18,0,0,1-1.065,0l-4.654-2.692C2870.752,8360.479,2870.749,8360.2,2871.042,8360.033Zm4.09,5.189a1.171,1.171,0,0,1,1.065,0l6.8,3.938c.3.172.3.449.006.618l-4.615,2.672a1.178,1.178,0,0,1-1.066,0l-6.8-3.94a.326.326,0,0,1-.005-.617Zm18.082-5.947a1.183,1.183,0,0,1,1.07,0l4.677,2.7c.3.172.3.448.006.618l-4.627,2.679a1.176,1.176,0,0,1-1.069,0l-4.672-2.7a.327.327,0,0,1-.007-.618Zm-6.977,1.931-4.665-2.693a.327.327,0,0,1,0-.618l4.616-2.676a1.184,1.184,0,0,1,1.067,0l4.67,2.694a.326.326,0,0,1,0,.618l-4.621,2.676A1.178,1.178,0,0,1,2886.238,8361.206Zm2.167,3.525-4.619,2.676a1.179,1.179,0,0,1-1.066,0l-4.663-2.7c-.295-.173-.3-.448,0-.618l4.613-2.673a1.171,1.171,0,0,1,1.067,0l4.668,2.7A.326.326,0,0,1,2888.405,8364.731Zm-3.332,3.419,4.621-2.674a1.174,1.174,0,0,1,1.068,0l4.675,2.7c.3.171.3.448.006.619l-4.626,2.674a1.18,1.18,0,0,1-1.068,0l-4.67-2.7C2884.783,8368.6,2884.781,8368.32,2885.073,8368.15Zm-.779,2.377a1.174,1.174,0,0,1,1.068,0l29.993,17.36c.3.172.3.45.007.62l-4.645,2.675a1.187,1.187,0,0,1-1.074,0l-29.959-17.363c-.295-.173-.3-.448,0-.619Zm38.245,5.05,4.71,2.716c.3.173.3.45.006.621l-4.653,2.681a1.2,1.2,0,0,1-1.077,0l-4.7-2.719c-.3-.171-.3-.45-.007-.62l4.649-2.68A1.18,1.18,0,0,1,2922.539,8375.577Zm-5.91,5.464-4.646,2.679a1.187,1.187,0,0,1-1.073,0l-4.695-2.716c-.3-.173-.3-.451-.006-.62l4.64-2.676a1.187,1.187,0,0,1,1.073,0l4.7,2.716C2916.92,8380.594,2916.923,8380.873,2916.629,8381.041Zm-1.172-9.55,4.7,2.712c.3.171.3.449.008.62l-4.648,2.681a1.183,1.183,0,0,1-1.074,0l-4.7-2.713c-.3-.171-.3-.447-.007-.619l4.642-2.68A1.187,1.187,0,0,1,2915.457,8371.491Zm-5.9,5.464-4.638,2.677a1.184,1.184,0,0,1-1.072,0l-4.686-2.712c-.3-.172-.3-.448-.006-.618l4.633-2.677a1.185,1.185,0,0,1,1.072,0l4.691,2.711C2909.846,8376.508,2909.849,8376.784,2909.555,8376.955Zm-2.24-9.545a1.187,1.187,0,0,1,1.072,0l4.695,2.709c.3.172.3.449.006.619l-4.64,2.68a1.184,1.184,0,0,1-1.073,0l-4.688-2.707c-.3-.172-.3-.449-.005-.619Zm-7,1.93-4.681-2.7c-.3-.171-.3-.45-.005-.618l4.628-2.678a1.182,1.182,0,0,1,1.071,0l4.686,2.7c.3.171.3.449.006.619l-4.634,2.68A1.184,1.184,0,0,1,2900.317,8369.34Zm2.176,3.532-4.632,2.677a1.179,1.179,0,0,1-1.071,0l-4.677-2.707c-.3-.172-.3-.448-.007-.619l4.627-2.674a1.177,1.177,0,0,1,1.07,0l4.684,2.707C2902.784,8372.427,2902.787,8372.7,2902.493,8372.872Zm10.787,11.6,4.646-2.677a1.183,1.183,0,0,1,1.075,0l4.707,2.721c.3.172.3.449.006.62l-4.652,2.679a1.193,1.193,0,0,1-1.076-.007l-4.7-2.721C2912.988,8384.916,2912.985,8384.64,2913.28,8384.47Zm4.454,4.8,6.765,3.915c.3.172.3.452.006.62l-4.653,2.677a1.186,1.186,0,0,1-1.075-.006l-6.759-3.916c-.3-.174-.3-.451-.006-.619l4.646-2.677A1.184,1.184,0,0,1,2917.734,8389.268Zm19-5.5,4.726,2.725c.3.174.3.452.007.622l-4.668,2.682a1.2,1.2,0,0,1-1.078,0l-4.721-2.728c-.3-.172-.3-.45-.007-.621l4.661-2.682A1.194,1.194,0,0,1,2936.738,8383.768Zm-12.831-.8c-.3-.173-.3-.45-.006-.621l4.654-2.681a1.2,1.2,0,0,1,1.077,0l4.718,2.721c.3.175.3.453.007.622l-4.659,2.682a1.186,1.186,0,0,1-1.078,0Zm6.9,6.273-4.658,2.68a1.179,1.179,0,0,1-1.076-.007l-4.71-2.724c-.3-.173-.3-.451-.007-.621l4.653-2.679a1.188,1.188,0,0,1,1.076.006l4.716,2.724C2931.1,8388.791,2931.108,8389.069,2930.812,8389.238Zm1.3.753a1.2,1.2,0,0,1,1.079,0l4.723,2.729c.3.175.3.453.006.623l-4.665,2.68a1.186,1.186,0,0,1-1.078-.007l-4.718-2.729c-.3-.174-.3-.452-.006-.622Zm-5.232,4.571,5.1,2.95c.3.174.3.452.008.621l-4.66,2.677a1.191,1.191,0,0,1-1.078-.006l-5.091-2.95c-.3-.175-.3-.452-.006-.622l4.654-2.675A1.18,1.18,0,0,1,2926.882,8394.563Zm11.233-3.391c-.3-.173-.3-.451-.007-.622l4.667-2.682a1.194,1.194,0,0,1,1.081,0l4.734,2.73c.3.173.3.451.007.622l-4.674,2.683a1.2,1.2,0,0,1-1.08,0Zm7.114,3.491,4.675-2.683a1.193,1.193,0,0,1,1.082.006l4.743,2.734c.3.172.3.453.006.623l-4.68,2.684a1.2,1.2,0,0,1-1.082-.006l-4.737-2.736C2944.936,8395.112,2944.932,8394.833,2945.229,8394.663Zm-5.936,5.475-4.726-2.735c-.3-.172-.3-.452-.007-.622l4.667-2.68a1.2,1.2,0,0,1,1.081.007l4.73,2.733c.3.173.3.452.008.622l-4.671,2.681A1.191,1.191,0,0,1,2939.293,8400.138Zm-8.088.51,5.1,2.957c.3.174.3.452.007.622l-1.556.893a1.2,1.2,0,0,1-1.08-.007l-5.1-2.957c-.3-.173-.3-.451-.008-.622l1.553-.891A1.2,1.2,0,0,1,2931.2,8400.647Zm10.551,2.339,5.116,2.959c.3.174.3.454.006.624l-1.343.771a1.206,1.206,0,0,1-1.082-.008l-5.112-2.961c-.3-.174-.3-.453-.007-.622l1.342-.771A1.2,1.2,0,0,1,2941.755,8402.986Zm-3.381,1.938,5.111,2.961c.3.173.3.453.007.623l-1.449.831a1.2,1.2,0,0,1-1.082-.008l-5.11-2.961c-.3-.174-.3-.452-.006-.622l1.448-.831A1.2,1.2,0,0,1,2938.374,8404.925Z" transform="translate(-2811.713 -8236.03)" fill="#364e78" fill-rule="evenodd"/>
          </g>
        </g>
      </g>
      <path id="Path_2168" data-name="Path 2168" d="M2910.41,8385.446l-31.207-18.02a5.729,5.729,0,0,1-1.112-9.088h0a5.732,5.732,0,0,1,6.844-.839l31.207,18.019a5.73,5.73,0,0,1,1.112,9.089h0A5.732,5.732,0,0,1,2910.41,8385.446Z" transform="translate(-2805.063 -8231.398)" fill="#101214" opacity="0.3"/>
      <g id="Group_596" data-name="Group 596" transform="translate(74.912 13.765)">
        <path id="Path_2169" data-name="Path 2169" d="M2979.049,8318.99l-95.254-52.319a1.559,1.559,0,0,0-1.708-.071v0l-2.387,1.665,1.339,2.3v65.725a4.655,4.655,0,0,0,2.238,3.672l93.909,51.579,1.027,2.079,2.435-1.687h0a1.463,1.463,0,0,0,.64-1.357v-67.91A4.65,4.65,0,0,0,2979.049,8318.99Z" transform="translate(-2879.185 -8266.379)" fill="#dce7f2"/>
        <path id="Path_2170" data-name="Path 2170" d="M2979.013,8324v67.909c0,1.348-1,1.894-2.238,1.214l-95.255-52.32a4.646,4.646,0,0,1-2.238-3.672v-67.908c0-1.349,1-1.893,2.238-1.215l95.255,52.32A4.648,4.648,0,0,1,2979.013,8324Z" transform="translate(-2879.283 -8266.063)" fill="#fff"/>
        <line id="Line_241" data-name="Line 241" x2="99.731" y2="54.778" transform="translate(0.014 9.629)" fill="#fff"/>
        <g id="Group_593" data-name="Group 593" transform="translate(0 9.777)" opacity="0.2">
          <g id="Group_592" data-name="Group 592">
            <path id="Path_2171" data-name="Path 2171" d="M2904.912,8288.367l-.014,63.734-23.378-12.841a4.648,4.648,0,0,1-2.238-3.672l.014-61.292Z" transform="translate(-2879.283 -8274.297)" fill="#b8cae8"/>
          </g>
        </g>
        <path id="Path_2172" data-name="Path 2172" d="M2966.591,8334.67l-60.7-33.341a.846.846,0,0,0-1.03.034l-1.613,1,1.279,1.575v24.914a3.063,3.063,0,0,0,1.364,2.479l57.634,31.656c1.229,1.577,2.215,2.854,2.215,2.854l1.718-1.087a.59.59,0,0,0,.116-.072l.01-.008h0a1.212,1.212,0,0,0,.374-.982v-26.545A3.068,3.068,0,0,0,2966.591,8334.67Z" transform="translate(-2873.656 -8258.209)" fill="#cfd9e6"/>
        <g id="Group_594" data-name="Group 594" transform="translate(29.096 44.082)">
          <path id="Path_2173" data-name="Path 2173" d="M2964.913,8365.581l-60.7-33.342a3.071,3.071,0,0,1-1.364-2.479v-26.545c0-.957.611-1.395,1.364-.98l60.7,33.341a3.068,3.068,0,0,1,1.363,2.479V8364.6C2966.277,8365.555,2965.666,8365.993,2964.913,8365.581Z" transform="translate(-2902.846 -8302.078)" fill="#fff"/>
        </g>
        <g id="Group_595" data-name="Group 595" transform="translate(30.869 76.442)">
          <path id="Path_2174" data-name="Path 2174" d="M2948.728,8354.6l-43.956-24.141a1.11,1.11,0,0,1-.49-.894v-.866c0-.345.22-.5.49-.354l43.956,24.144a1.1,1.1,0,0,1,.492.893v.864C2949.22,8354.588,2949,8354.745,2948.728,8354.6Z" transform="translate(-2904.282 -8328.285)" fill="#cfd9e6"/>
          <path id="Path_2175" data-name="Path 2175" d="M2934.129,8350.864l-29.444-16.172a.906.906,0,0,1-.4-.731v-1.092c0-.282.18-.412.4-.289l29.444,16.173a.9.9,0,0,1,.4.731v1.09C2934.531,8350.857,2934.351,8350.986,2934.129,8350.864Z" transform="translate(-2904.282 -8327.286)" fill="#cfd9e6"/>
        </g>
        <path id="Path_2176" data-name="Path 2176" d="M2964.818,8330.853l-58.844-32.319a4.627,4.627,0,0,1-2.056-3.737h0c0-1.439.921-2.1,2.056-1.477l58.844,32.319a4.621,4.621,0,0,1,2.056,3.736h0C2966.874,8330.814,2965.954,8331.477,2964.818,8330.853Z" transform="translate(-2873.498 -8260.108)" fill="#cfd9e6"/>
        <path id="Path_2177" data-name="Path 2177" d="M2922.254,8305.364l-15.492-8.508a1.3,1.3,0,0,1-.578-1.051h0c0-.4.258-.587.578-.414l15.492,8.51a1.3,1.3,0,0,1,.577,1.049h0C2922.831,8305.354,2922.573,8305.54,2922.254,8305.364Z" transform="translate(-2872.966 -8259.583)" fill="#fff"/>
        <path id="Path_2178" data-name="Path 2178" d="M2932.3,8310.884l-10.917-6a1.3,1.3,0,0,1-.576-1.048h0c0-.4.258-.592.576-.415l10.917,6a1.3,1.3,0,0,1,.578,1.049h0C2932.88,8310.874,2932.621,8311.06,2932.3,8310.884Z" transform="translate(-2869.532 -8257.696)" fill="#fff"/>
        <path id="Path_2179" data-name="Path 2179" d="M2954.052,8323.316l-.567-.931,0,0a1.538,1.538,0,0,0-.143-1.722c-.462-.758-1.215-1.169-1.677-.92s-.462,1.071,0,1.83a1.711,1.711,0,0,0,1.5.982l0,0,.567.931c.088.144.23.223.318.175S2954.14,8323.459,2954.052,8323.316Zm-2.073-1.918c-.288-.473-.288-.983,0-1.138s.754.1,1.042.572.288.981,0,1.139S2952.267,8321.869,2951.979,8321.4Z" transform="translate(-2862.368 -8253.867)" fill="#fff"/>
        <path id="Path_2180" data-name="Path 2180" d="M2897.85,8308.437l-14.915-8.191a1.249,1.249,0,0,1-.555-1.008h0c0-.388.248-.566.555-.4l14.915,8.192a1.246,1.246,0,0,1,.554,1.008h0C2898.4,8308.427,2898.156,8308.605,2897.85,8308.437Z" transform="translate(-2878.556 -8258.772)" fill="#cfd9e6"/>
        <path id="Path_2181" data-name="Path 2181" d="M2894.791,8310.872l-11.874-6.521a1.21,1.21,0,0,1-.537-.977v-.046c0-.375.241-.549.537-.387l11.874,6.523a1.2,1.2,0,0,1,.537.976v.045C2895.329,8310.862,2895.089,8311.035,2894.791,8310.872Z" transform="translate(-2878.556 -8257.81)" fill="#cfd9e6"/>
        <path id="Path_2182" data-name="Path 2182" d="M2895.62,8315.438l-12.685-6.968a1.246,1.246,0,0,1-.555-1.008h0c0-.391.248-.567.555-.4l12.685,6.968a1.248,1.248,0,0,1,.554,1.008h0C2896.174,8315.428,2895.926,8315.605,2895.62,8315.438Z" transform="translate(-2878.556 -8256.84)" fill="#cfd9e6"/>
        <path id="Path_2183" data-name="Path 2183" d="M2891.761,8317.438l-8.913-4.895a1.055,1.055,0,0,1-.468-.851v-.218c0-.329.21-.481.468-.338l8.913,4.895a1.053,1.053,0,0,1,.468.853v.217C2892.229,8317.43,2892.021,8317.58,2891.761,8317.438Z" transform="translate(-2878.556 -8255.883)" fill="#cfd9e6"/>
        <path id="Path_2184" data-name="Path 2184" d="M2889.427,8320.273l-6.64-3.646a.918.918,0,0,1-.407-.742v-.371c0-.287.183-.417.407-.294l6.64,3.647a.914.914,0,0,1,.408.74v.373C2889.835,8320.268,2889.652,8320.4,2889.427,8320.273Z" transform="translate(-2878.556 -8254.922)" fill="#cfd9e6"/>
        <path id="Path_2185" data-name="Path 2185" d="M2894.057,8326.92l-11.155-6.127a1.173,1.173,0,0,1-.521-.948v-.082c0-.366.233-.533.521-.375l11.155,6.125a1.175,1.175,0,0,1,.521.948v.084C2894.578,8326.91,2894.345,8327.078,2894.057,8326.92Z" transform="translate(-2878.556 -8253.946)" fill="#cfd9e6"/>
      </g>
      <g id="Group_597" data-name="Group 597" transform="translate(80.052 35.72)">
        <path id="Path_2186" data-name="Path 2186" d="M2895.377,8295.333c-.4-.275-.75-.147-.79.286-.252,2.711-2.33,3.665-4.837,2.218a10.726,10.726,0,0,1-4.862-8.385c0-3.076,2.181-4.318,4.862-2.771a9.072,9.072,0,0,1,2.541,2.289c.341.438.786.571.994.3a1.178,1.178,0,0,0-.237-1.276,11.794,11.794,0,0,0-3.3-2.972c-3.477-2.006-6.305-.394-6.305,3.595a13.914,13.914,0,0,0,6.305,10.876,4.642,4.642,0,0,0,4.242.567,3.947,3.947,0,0,0,2.031-3.448A1.568,1.568,0,0,0,2895.377,8295.333Z" transform="translate(-2883.445 -8284.161)" fill="#cfd9e6"/>
        <path id="Path_2187" data-name="Path 2187" d="M2887.5,8289.332c-.325-.56-.851-.863-1.176-.681s-.323.79,0,1.35l2.269,3.911a1.691,1.691,0,0,0,.586.616.589.589,0,0,0,.588.062l5.312-3.03c.325-.185.325-.787,0-1.348s-.849-.863-1.174-.677l-4.726,2.693Z" transform="translate(-2882.827 -8283.117)" fill="#cfd9e6" opacity="0.3"/>
      </g>
    </g>
    <g id="Group_601" data-name="Group 601" transform="translate(59.199 41.572)">
      <path id="Path_2188" data-name="Path 2188" d="M2901.078,8386.675l3.024-6.65c-22.7-29.009-27.537-57.585-28.38-72.227-2.561-3.034-5.957-7.1-5.957-7.1l6.48-4.5c4.011,1.276,6.769,2.575,9.26,1.237l-.854-3.992,6.479-4.506s3.37-.846,15.453,6.13l1.927,1.118c12.083,6.978,15.479,11.729,15.479,11.729a45.009,45.009,0,0,0,14.886,24.449s3.193,51.546-32.572,53.081l-.1.206c-.618-.741-.365-3.443-.961-4.184Z" transform="translate(-2865.805 -8288.899)" fill="#4190f5"/>
      <path id="Path_2189" data-name="Path 2189" d="M2869.8,8299.84c8.02,2.557,13.057-.879,14.887-7.26,0,0,3.369-.847,15.452,6.13l1.926,1.118c12.083,6.977,15.48,11.73,15.48,11.73a45.013,45.013,0,0,0,14.887,24.448s4.447,48.275-31.32,49.811l.007,0C2865.352,8342.979,2869.8,8299.84,2869.8,8299.84Z" transform="translate(-2865.839 -8288.041)" fill="url(#linear-gradient)"/>
      <path id="Path_2190" data-name="Path 2190" d="M2878.76,8294.8s3.369-.843,15.45,6.125l1.929,1.121c12.083,6.979,15.478,11.728,15.478,11.728a45.041,45.041,0,0,0,14.891,24.455s3.644,39.558-22.2,48.189c31.638-4.979,25.839-50.572,25.839-50.572a44.992,44.992,0,0,1-14.883-24.447s-2.687-4.752-14.769-11.728l-1.929-1.12c-12.083-6.978-16.159-6.133-16.159-6.133Z" transform="translate(-2863.693 -8288.081)" fill="#4190f5" opacity="0.3"/>
      <path id="Path_2191" data-name="Path 2191" d="M2866.7,8301.077c5.829,1.851,10.075.553,12.67-2.744a35.875,35.875,0,0,1-6.19-1.766Z" transform="translate(-2866.524 -8287.097)" fill="#4190f5" opacity="0.3"/>
      <path id="Path_2192" data-name="Path 2192" d="M2866.558,8306.394a100.856,100.856,0,0,0,.767,12.047c.135,1.128.291,2.306.475,3.518a126.077,126.077,0,0,0,5.275,21.541q1.022,3.034,2.27,6.19.7,1.777,1.489,3.6c1.283,2.992,2.736,6.055,4.368,9.16.333.646.68,1.29,1.035,1.943.32.595.653,1.19.993,1.792a138.553,138.553,0,0,0,7.8,12.282q.924,1.308,1.893,2.616,2.425,3.245,5.133,6.5c19.393-.83,26.966-15.408,29.83-28.575.319-1.46.582-2.907.794-4.311a78.33,78.33,0,0,0,.695-16.925c-.163-.136-.326-.27-.481-.413q-.81-.69-1.575-1.425c-.546-.517-1.078-1.049-1.588-1.587a45.291,45.291,0,0,1-6.1-8.075c-.66-1.114-1.262-2.249-1.815-3.383a42.3,42.3,0,0,1-2.417-6.112c-.368-1.155-.666-2.312-.914-3.452,0,0-3.3-4.61-14.933-11.411-.178-.106-.362-.211-.547-.317l-1.928-1.12c-.227-.135-.454-.264-.682-.391-11.528-6.552-14.77-5.735-14.77-5.735-1.829,6.381-6.863,9.813-14.89,7.259C2866.736,8301.607,2866.558,8303.317,2866.558,8306.394Z" transform="translate(-2866.558 -8287.627)" opacity="0.3" fill="url(#linear-gradient-2)"/>
      <g id="Group_599" data-name="Group 599" transform="translate(7.042 20.368)">
        <path id="Path_2193" data-name="Path 2193" d="M2872.261,8320.834a122.1,122.1,0,0,0,24.66,54.368c.048-.008.1-.009.145-.018v-37.3C2888.109,8333.038,2882.013,8330,2872.261,8320.834Z" transform="translate(-2872.261 -8301.769)" fill="url(#linear-gradient-3)"/>
        <path id="Path_2194" data-name="Path 2194" d="M2893.472,8306.029a68.047,68.047,0,0,1,11.276,7.814,58.32,58.32,0,0,0,14,23.9,71.946,71.946,0,0,1-1.563,15.383c-9.751-2.1-15.847-6.092-24.806-11.59v-36.141Z" transform="translate(-2867.537 -8305.393)" fill="url(#linear-gradient-4)"/>
      </g>
      <g id="Group_600" data-name="Group 600" transform="translate(0.767 12.459)" opacity="0.2">
        <path id="Path_2195" data-name="Path 2195" d="M2874.879,8347.208c1.283,2.992,2.737,6.055,4.368,9.16l44.529-28.1a45.292,45.292,0,0,1-6.1-8.075Z" transform="translate(-2865.371 -8294.008)" fill="#fff"/>
        <path id="Path_2196" data-name="Path 2196" d="M2871.835,8339.229q1.022,3.032,2.27,6.19l42.471-26.8a42.253,42.253,0,0,1-2.417-6.112Z" transform="translate(-2866.086 -8295.813)" fill="#fff"/>
        <path id="Path_2197" data-name="Path 2197" d="M2886.375,8366.981q.924,1.308,1.893,2.616l34.963-22.073c.32-1.46.582-2.907.794-4.311Z" transform="translate(-2862.672 -8288.603)" fill="#fff"/>
        <path id="Path_2198" data-name="Path 2198" d="M2879.254,8356.475c.32.595.653,1.191.993,1.792l45.664-28.822q-.809-.691-1.574-1.425Z" transform="translate(-2864.344 -8292.171)" fill="#fff"/>
        <path id="Path_2199" data-name="Path 2199" d="M2867.179,8317.344c.135,1.128.291,2.306.474,3.517l31.752-20.045c-.178-.106-.362-.211-.547-.317l-1.928-1.12c-.227-.135-.454-.264-.682-.391Z" transform="translate(-2867.179 -8298.987)" fill="#fff"/>
      </g>
    </g>
  </g>
</svg>
