<svg id="Smart_Contract" data-name="Smart Contract" xmlns="http://www.w3.org/2000/svg" xmlns:xlink="http://www.w3.org/1999/xlink" width="230.563" height="156.162" viewBox="0 0 230.563 156.162">
  <defs>
    <linearGradient id="linear-gradient" x1="-11.192" y1="1.623" x2="-10.145" y2="1.148" gradientUnits="objectBoundingBox">
      <stop offset="0" stop-color="#feffff"/>
      <stop offset="0.296" stop-color="#e5ffff"/>
      <stop offset="1" stop-color="#bfbafb"/>
    </linearGradient>
    <linearGradient id="linear-gradient-2" x1="-10.876" y1="1.733" x2="-10.438" y2="1.484" gradientUnits="objectBoundingBox">
      <stop offset="0" stop-color="#feffff"/>
      <stop offset="0.296" stop-color="#e5ffff"/>
      <stop offset="1" stop-color="#d3cefb"/>
    </linearGradient>
  </defs>
  <g id="checklist" transform="translate(0 0)">
    <g id="Group_579" data-name="Group 579">
      <path id="Path_2118" data-name="Path 2118" d="M3549.248,8051.482l91.432,50.055c2.368,1.295,5.95,1.438,8,.314l127.786-69.956c2.05-1.123,1.794-3.086-.575-4.382l-91.43-50.054c-2.369-1.3-5.951-1.437-8-.315L3548.674,8047.1C3546.623,8048.224,3546.881,8050.185,3549.248,8051.482Z" transform="translate(-3547.29 -7946.447)" fill="#c9cfe5" opacity="0.15"/>
      <path id="Path_2119" data-name="Path 2119" d="M3547.291,8032.172h6.043v1.132l123.126-67.405c2.052-1.124,5.633-.981,8,.313l87.683,48v-1.052h5.7v5.563h0a2.237,2.237,0,0,1-1.378,1.921L3648.682,8090.6c-2.052,1.122-5.634.981-8-.314l-91.432-50.054c-1.307-.717-1.968-1.635-1.956-2.5h0Z" transform="translate(-3547.289 -7959.577)" fill="url(#linear-gradient)"/>
      <path id="Path_2120" data-name="Path 2120" d="M3549.248,8035.526l91.432,50.054c2.368,1.3,5.95,1.438,8,.314l127.786-69.956c2.05-1.124,1.794-3.085-.575-4.381l-91.43-50.055c-2.369-1.3-5.951-1.437-8-.314l-127.786,69.957C3546.623,8032.268,3546.881,8034.229,3549.248,8035.526Z" transform="translate(-3547.29 -7960.431)" fill="url(#linear-gradient-2)"/>
      <path id="Path_2121" data-name="Path 2121" d="M3557.558,8034.205l83.242,45.571c2.646,1.449,6.651,1.605,8.943.352L3769.43,8014.6c2.292-1.255,2-3.446-.642-4.9l-83.242-45.571c-2.648-1.448-6.651-1.605-8.943-.352l-119.687,65.524C3554.624,8030.564,3554.911,8032.756,3557.558,8034.205Z" transform="translate(-3545.827 -7959.975)" fill="#efefef"/>
      <path id="Path_2122" data-name="Path 2122" d="M3561.331,8031.783l83.243,45.57c2.647,1.449,6.651,1.606,8.943.351l115.417-63.185c2.292-1.255,2-3.447-.641-4.9l-83.243-45.571c-2.646-1.45-6.651-1.608-8.944-.353l-115.417,63.187C3558.4,8028.14,3558.684,8030.332,3561.331,8031.783Z" transform="translate(-3545.145 -7959.991)" fill="#fff"/>
      <g id="Group_578" data-name="Group 578" transform="translate(142.544 3.394)">
        <path id="Path_2123" data-name="Path 2123" d="M3668,7973.023a1.652,1.652,0,0,0,1.041,1.418l48.484,26.542a5.844,5.844,0,0,0,5.056,0l9.178-5.024a1.667,1.667,0,0,0,1.053-1.445v-2.659a1.641,1.641,0,0,0-1.037-1.434l-13.613-7.452a4.468,4.468,0,0,0,1.436-3.16h.012v-2.735h-.011c0-1.676-1.164-3.346-3.489-4.62-4.679-2.561-12.273-2.548-16.982.03l-.06.032-15.778-8.638a5.863,5.863,0,0,0-5.063.009l-9.178,5.024a1.721,1.721,0,0,0-1.05,1.343h0v0c0,.028,0,.055,0,.082Zm34.3,5.49a4.032,4.032,0,0,1,1.1-.868l.06-.033a9.626,9.626,0,0,1,8.306-.015.919.919,0,1,1-.026,1.781l-.059.033a9.655,9.655,0,0,1-8.247-.019A4.118,4.118,0,0,1,3702.293,7978.514Z" transform="translate(-3667.993 -7963.304)" fill="#abb0b8"/>
        <path id="Path_2124" data-name="Path 2124" d="M3678.226,7963.883l-9.178,5.024c-1.4.768-1.4,2-.008,2.769l48.484,26.543a5.855,5.855,0,0,0,5.056,0l9.178-5.025c1.4-.769,1.411-2.009.017-2.772l-15.779-8.637.06-.032c4.708-2.579,4.724-6.74.054-9.3s-12.273-2.548-16.982.03l-.06.032-15.778-8.638A5.863,5.863,0,0,0,3678.226,7963.883Zm33.445,15.529a9.655,9.655,0,0,1-8.247-.019c-2.267-1.241-2.277-3.255-.034-4.516l.06-.031a9.623,9.623,0,0,1,8.306-.015c2.288,1.252,2.276,3.287-.026,4.547Z" transform="translate(-3667.994 -7963.304)" fill="#c7d0db"/>
      </g>
    </g>
    <g id="content" transform="translate(45.502 28.016)">
      <g id="Group_590" data-name="Group 590">
        <g id="Group_580" data-name="Group 580" transform="translate(58.668 3.886)">
          <path id="Path_2125" data-name="Path 2125" d="M3655,8000.62l11.685,6.746a3.234,3.234,0,0,0,2.911.12l.095-.055c.746-.431.653-1.183-.209-1.68L3657.8,7999a3.241,3.241,0,0,0-2.911-.122l-.094.057C3654.047,7999.368,3654.14,8000.121,3655,8000.62Z" transform="translate(-3632.098 -7985.426)" fill="#c2d6ec"/>
          <path id="Path_2126" data-name="Path 2126" d="M3636.211,7989.469l15.667,9.4a3.239,3.239,0,0,0,2.911.12l.095-.056c.746-.43.653-1.182-.209-1.681l-15.667-9.4a3.24,3.24,0,0,0-2.911-.121l-.094.055C3635.256,7988.219,3635.349,7988.972,3636.211,7989.469Z" transform="translate(-3635.498 -7987.444)" fill="#c2d6ec"/>
          <path id="Path_2127" data-name="Path 2127" d="M3680.69,8015.5l2.927,1.691a3.233,3.233,0,0,0,2.911.12l.094-.055c.747-.431.652-1.183-.209-1.681l-2.927-1.69a3.234,3.234,0,0,0-2.911-.12l-.094.054C3679.735,8014.25,3679.828,8015,3680.69,8015.5Z" transform="translate(-3627.45 -7982.732)" fill="#c2d6ec"/>
          <path id="Path_2128" data-name="Path 2128" d="M3670.011,8009.334l6.431,3.713a3.239,3.239,0,0,0,2.91.12l.1-.054c.745-.432.652-1.184-.208-1.681l-6.432-3.715a3.24,3.24,0,0,0-2.911-.12l-.094.056C3669.056,8008.083,3669.15,8008.835,3670.011,8009.334Z" transform="translate(-3629.383 -7983.849)" fill="#c2d6ec"/>
        </g>
        <g id="Group_581" data-name="Group 581" transform="translate(52.365 7.883)">
          <path id="Path_2129" data-name="Path 2129" d="M3672.994,8017.172l5.959,3.44a3.234,3.234,0,0,0,2.911.121l.094-.055c.746-.431.653-1.183-.209-1.68l-5.959-3.44a3.228,3.228,0,0,0-2.91-.121l-.1.055C3672.04,8015.923,3672.133,8016.676,3672.994,8017.172Z" transform="translate(-3622.54 -7986.429)" fill="#c2d6ec"/>
          <path id="Path_2130" data-name="Path 2130" d="M3630.874,7992.854l23.142,13.36a3.237,3.237,0,0,0,2.911.122l.094-.055c.747-.432.652-1.184-.209-1.681l-23.141-13.362a3.24,3.24,0,0,0-2.911-.119l-.094.055C3629.919,7991.6,3630.012,7992.356,3630.874,7992.854Z" transform="translate(-3630.161 -7990.828)" fill="#c2d6ec"/>
          <path id="Path_2131" data-name="Path 2131" d="M3656.962,8007.917l11.219,6.476a3.231,3.231,0,0,0,2.911.122l.094-.055c.747-.432.652-1.184-.209-1.681l-11.219-6.479a3.239,3.239,0,0,0-2.911-.119l-.094.055C3656.007,8006.666,3656.1,8007.418,3656.962,8007.917Z" transform="translate(-3625.441 -7988.103)" fill="#c2d6ec"/>
        </g>
        <g id="Group_582" data-name="Group 582" transform="translate(47.022 11.624)">
          <path id="Path_2132" data-name="Path 2132" d="M3626.349,7996.022l33.713,19.919a3.24,3.24,0,0,0,2.909.12l.1-.056c.745-.43.652-1.183-.209-1.679l-33.712-19.918a3.228,3.228,0,0,0-2.909-.122l-.1.055C3625.395,7994.772,3625.488,7995.524,3626.349,7996.022Z" transform="translate(-3625.637 -7993.996)" fill="#c2d6ec"/>
          <path id="Path_2133" data-name="Path 2133" d="M3661.471,8016.685l13.277,7.666a3.235,3.235,0,0,0,2.91.119l.1-.054c.745-.431.652-1.184-.209-1.681l-13.278-7.665a3.235,3.235,0,0,0-2.91-.122l-.094.056C3660.516,8015.435,3660.609,8016.188,3661.471,8016.685Z" transform="translate(-3619.282 -7990.258)" fill="#c2d6ec"/>
        </g>
        <g id="Group_583" data-name="Group 583" transform="translate(14.66 34.247)">
          <path id="Path_2134" data-name="Path 2134" d="M3637.7,8037.552l5.96,3.439a3.231,3.231,0,0,0,2.91.121l.1-.055c.745-.431.652-1.184-.209-1.681l-5.96-3.439a3.231,3.231,0,0,0-2.91-.121l-.1.055C3636.742,8036.3,3636.835,8037.055,3637.7,8037.552Z" transform="translate(-3591.222 -8009.104)" fill="#c2d6ec"/>
          <path id="Path_2135" data-name="Path 2135" d="M3614.365,8024.08l11.685,6.747a3.237,3.237,0,0,0,2.911.121l.094-.056c.746-.43.653-1.183-.209-1.68l-11.685-6.747a3.238,3.238,0,0,0-2.911-.121l-.094.055C3613.41,8022.83,3613.5,8023.583,3614.365,8024.08Z" transform="translate(-3595.443 -8011.542)" fill="#c2d6ec"/>
          <path id="Path_2136" data-name="Path 2136" d="M3598.946,8015.178l11.685,6.746a3.231,3.231,0,0,0,2.911.12l.094-.054c.746-.432.653-1.184-.209-1.681l-11.685-6.747a3.24,3.24,0,0,0-2.911-.12l-.095.054C3597.991,8013.928,3598.084,8014.68,3598.946,8015.178Z" transform="translate(-3598.233 -8013.152)" fill="#c2d6ec"/>
          <path id="Path_2137" data-name="Path 2137" d="M3630.09,8033.159l2.04,1.178a3.238,3.238,0,0,0,2.91.12l.094-.055c.747-.431.653-1.184-.208-1.68l-2.039-1.178a3.232,3.232,0,0,0-2.91-.12l-.1.054C3629.136,8031.91,3629.229,8032.662,3630.09,8033.159Z" transform="translate(-3592.598 -8009.899)" fill="#c2d6ec"/>
        </g>
        <g id="Group_584" data-name="Group 584" transform="translate(29.597 21.029)">
          <path id="Path_2138" data-name="Path 2138" d="M3653.714,8028.3l5.959,3.441a3.234,3.234,0,0,0,2.911.12l.095-.055c.746-.43.653-1.183-.209-1.681l-5.959-3.44a3.242,3.242,0,0,0-2.911-.12l-.094.055C3652.759,8027.053,3652.853,8027.805,3653.714,8028.3Z" transform="translate(-3603.26 -7997.56)" fill="#c2d6ec"/>
          <path id="Path_2139" data-name="Path 2139" d="M3611.594,8003.984l23.141,13.361a3.231,3.231,0,0,0,2.91.12l.1-.054c.745-.431.652-1.184-.209-1.681l-23.142-13.361a3.237,3.237,0,0,0-2.911-.12l-.094.054C3610.639,8002.735,3610.732,8003.487,3611.594,8003.984Z" transform="translate(-3610.881 -8001.959)" fill="#c2d6ec"/>
          <path id="Path_2140" data-name="Path 2140" d="M3637.682,8019.047l11.219,6.478a3.235,3.235,0,0,0,2.91.121l.1-.055c.746-.431.652-1.184-.208-1.681l-11.219-6.478a3.236,3.236,0,0,0-2.911-.12l-.095.054C3636.727,8017.8,3636.82,8018.55,3637.682,8019.047Z" transform="translate(-3606.161 -7999.234)" fill="#c2d6ec"/>
        </g>
        <g id="Group_585" data-name="Group 585" transform="translate(25.221 25.783)">
          <path id="Path_2141" data-name="Path 2141" d="M3607.888,8008.011l32.745,18.9a3.231,3.231,0,0,0,2.909.12l.1-.054c.745-.432.652-1.184-.209-1.681l-32.745-18.9a3.228,3.228,0,0,0-2.91-.12l-.1.054C3606.934,8006.762,3607.027,8007.514,3607.888,8008.011Z" transform="translate(-3607.176 -8005.985)" fill="#c2d6ec"/>
          <path id="Path_2142" data-name="Path 2142" d="M3642.19,8027.815l13.278,7.666a3.229,3.229,0,0,0,2.91.121l.1-.055c.745-.431.652-1.184-.209-1.681l-13.278-7.665a3.226,3.226,0,0,0-2.91-.12l-.1.054C3641.236,8026.566,3641.33,8027.319,3642.19,8027.815Z" transform="translate(-3600.969 -8002.403)" fill="#c2d6ec"/>
        </g>
        <g id="Group_586" data-name="Group 586" transform="translate(4.375 35.59)">
          <path id="Path_2143" data-name="Path 2143" d="M3632.357,8040.634l5.959,3.439a3.232,3.232,0,0,0,2.911.122l.094-.055c.746-.431.653-1.184-.209-1.681l-5.959-3.441a3.235,3.235,0,0,0-2.91-.12l-.1.056C3631.4,8039.384,3631.5,8040.136,3632.357,8040.634Z" transform="translate(-3581.903 -8009.89)" fill="#c2d6ec"/>
          <path id="Path_2144" data-name="Path 2144" d="M3590.237,8016.314l23.142,13.362a3.237,3.237,0,0,0,2.911.12l.095-.055c.746-.431.652-1.183-.209-1.681l-23.142-13.36a3.234,3.234,0,0,0-2.911-.121l-.094.055C3589.282,8015.064,3589.375,8015.818,3590.237,8016.314Z" transform="translate(-3589.524 -8014.289)" fill="#c2d6ec"/>
          <path id="Path_2145" data-name="Path 2145" d="M3616.325,8031.377l11.219,6.476a3.231,3.231,0,0,0,2.911.122l.094-.055c.747-.431.652-1.183-.209-1.681l-11.219-6.477a3.234,3.234,0,0,0-2.911-.121l-.094.055C3615.37,8030.126,3615.464,8030.88,3616.325,8031.377Z" transform="translate(-3584.804 -8011.564)" fill="#c2d6ec"/>
        </g>
        <g id="Group_587" data-name="Group 587" transform="translate(0 40.344)">
          <path id="Path_2146" data-name="Path 2146" d="M3586.532,8020.34l32.744,18.907a3.244,3.244,0,0,0,2.91.12l.1-.056c.745-.43.652-1.182-.209-1.681l-32.745-18.9a3.232,3.232,0,0,0-2.91-.121l-.094.056C3585.577,8019.092,3585.67,8019.844,3586.532,8020.34Z" transform="translate(-3585.819 -8018.315)" fill="#c2d6ec"/>
          <path id="Path_2147" data-name="Path 2147" d="M3620.834,8040.146l13.277,7.667a3.24,3.24,0,0,0,2.91.12l.1-.056c.746-.43.652-1.183-.209-1.679l-13.277-7.667a3.234,3.234,0,0,0-2.911-.121l-.094.056C3619.879,8038.9,3619.972,8039.647,3620.834,8040.146Z" transform="translate(-3579.613 -8014.731)" fill="#c2d6ec"/>
        </g>
        <g id="Group_588" data-name="Group 588" transform="translate(14.798 26.994)">
          <path id="Path_2148" data-name="Path 2148" d="M3613.513,8017.38l7.827,4.519a3.237,3.237,0,0,0,2.911.121l.094-.055c.746-.432.652-1.184-.209-1.681l-7.827-4.518a3.231,3.231,0,0,0-2.911-.122l-.094.055C3612.558,8016.13,3612.653,8016.883,3613.513,8017.38Z" transform="translate(-3595.736 -8005.501)" fill="#c2d6ec"/>
          <path id="Path_2149" data-name="Path 2149" d="M3599.063,8009.037l9.351,5.4a3.237,3.237,0,0,0,2.911.121l.094-.055c.746-.432.652-1.184-.209-1.68l-9.351-5.4a3.243,3.243,0,0,0-2.911-.12l-.094.057C3598.108,8007.787,3598.2,8008.54,3599.063,8009.037Z" transform="translate(-3598.35 -8007.011)" fill="#c2d6ec"/>
          <path id="Path_2150" data-name="Path 2150" d="M3625.691,8024.5l26.413,15.249a3.229,3.229,0,0,0,2.91.12l.094-.054c.746-.432.653-1.184-.209-1.681l-26.412-15.25a3.237,3.237,0,0,0-2.911-.12l-.094.055C3624.736,8023.249,3624.829,8024,3625.691,8024.5Z" transform="translate(-3593.532 -8004.213)" fill="#c2d6ec"/>
        </g>
        <g id="Group_589" data-name="Group 589" transform="translate(91.451)">
          <path id="Path_2151" data-name="Path 2151" d="M3688.56,7998.458a2.722,2.722,0,0,0-2.473-.147c-4.7,2.215-11.509,2-15.833-.5-4.625-2.67-4.647-7-.052-9.654s12.1-2.64,16.721.031a7.128,7.128,0,0,1,3.156,3.24,2.061,2.061,0,0,0,2.122.756c.942-.129,1.522-.674,1.294-1.22a9.273,9.273,0,0,0-4.1-4.207c-6-3.464-15.728-3.479-21.689-.038s-5.931,9.058.067,12.521a21.885,21.885,0,0,0,10.13,2.6,23.288,23.288,0,0,0,10.41-1.962C3689.067,7999.531,3689.175,7998.893,3688.56,7998.458Z" transform="translate(-3663.259 -7984.153)" fill="#50a0ff"/>
          <path id="Path_2152" data-name="Path 2152" d="M3675.659,7989.759c0-.644-.911-1.168-2.027-1.169s-2.017.518-2.014,1.163l.025,4.5a1.016,1.016,0,0,0,.6.824,2.9,2.9,0,0,0,1.43.345l18.277.033c1.116,0,2.018-.519,2.015-1.163s-.912-1.167-2.027-1.169l-16.257-.031Z" transform="translate(-3661.746 -7983.349)" fill="#76d6ff"/>
        </g>
      </g>
    </g>
  </g>
  <path id="Path_2153" data-name="Path 2153" d="M3673.514,8009.707c0-.066-.018-.134-.022-.2a4.609,4.609,0,0,0-.054-.471c-.015-.084-.041-.17-.062-.254-.038-.155-.076-.312-.128-.465-.031-.088-.073-.174-.11-.262-.062-.15-.122-.3-.2-.446-.05-.093-.111-.185-.167-.276-.083-.14-.162-.277-.259-.415-.072-.1-.159-.2-.24-.3-.1-.125-.193-.249-.3-.372s-.222-.219-.335-.329-.209-.212-.328-.315c-.149-.13-.317-.253-.482-.379-.1-.078-.193-.158-.3-.234-.282-.2-.582-.392-.9-.578a14.528,14.528,0,0,0-2.1-.988q-.556-.211-1.14-.387a19.789,19.789,0,0,0-2.416-.563,22.818,22.818,0,0,0-3.818-.312,19.5,19.5,0,0,0-9.5,2.285c-2.626,1.518-3.948,3.5-3.958,5.484,0,.024,0,.05,0,.073v4.77c0,.02,0,.038,0,.058,0,.041.01.082.01.124l-35.857,20.142,0,0a1.563,1.563,0,0,0-.7,1.477,5.036,5.036,0,0,0,2.285,3.941,1.621,1.621,0,0,0,1.6.169l0,.007,1.3-.728,6.676,3.854,2.283-1.317v-2.226l-1.528-.884.006-1.132,4.388-.008.779-.448,2.245,1.3,2.724-1.573V8035.3l-4.575-2.642,22.133-12.439c.042.025.077.052.12.077,5.222,3.016,13.714,3,18.969-.035,2.638-1.523,3.958-3.516,3.958-5.506h.006v-5.053Zm-18.4,2.667c.117-.081.24-.16.371-.235a10.244,10.244,0,0,1,9.27-.016c.121.068.234.141.343.215-.118.081-.24.16-.372.237a8.007,8.007,0,0,1-2.173.834,10.977,10.977,0,0,1-2.468.283,9.449,9.449,0,0,1-4.629-1.1C3655.334,8012.522,3655.225,8012.447,3655.115,8012.374Z" transform="translate(-3535.915 -7952.878)" fill="#484a52" opacity="0.1"/>
  <g id="key" transform="translate(73.291 37.313)">
    <path id="Path_2154" data-name="Path 2154" d="M3641.1,8004.638c0,.02,0,.038,0,.057-.011,1.981,1.288,3.963,3.9,5.469,5.222,3.016,13.714,3,18.969-.033,2.638-1.524,3.957-3.518,3.958-5.506h.006v-5.054h-.012c-.065-1.923-1.359-3.83-3.893-5.294a20.966,20.966,0,0,0-18.969.034c-2.626,1.519-3.948,3.5-3.958,5.484,0,.023,0,.049,0,.073Zm18.032-2.2a10.242,10.242,0,0,1-9.271.018c-.12-.07-.235-.144-.345-.217.118-.081.242-.159.374-.235a10.248,10.248,0,0,1,9.27-.018c.122.07.235.144.345.217C3659.383,8002.284,3659.26,8002.363,3659.128,8002.438Z" transform="translate(-3603.608 -7992.026)" fill="#ffb80d"/>
    <path id="Path_2155" data-name="Path 2155" d="M3644.993,8005.265c5.222,3.014,13.714,3,18.969-.035s5.282-7.937.059-10.953a20.966,20.966,0,0,0-18.969.034c-2.626,1.519-3.948,3.5-3.958,5.484S3642.383,8003.756,3644.993,8005.265Zm4.864-2.81c-2.552-1.473-2.539-3.871.03-5.352a10.239,10.239,0,0,1,9.27-.018c2.552,1.473,2.539,3.87-.029,5.352A10.239,10.239,0,0,1,3649.858,8002.456Z" transform="translate(-3603.608 -7992.026)" fill="#ffcc57"/>
    <path id="Path_2156" data-name="Path 2156" d="M3647.179,8002.607a1.6,1.6,0,0,1,1.643.146,5.035,5.035,0,0,1,2.284,3.94,1.589,1.589,0,0,1-.661,1.462v0l-36.505,20.515-3.2-5.6Z" transform="translate(-3609.1 -7990.141)" fill="#ffb80d"/>
    <ellipse id="Ellipse_355" data-name="Ellipse 355" cx="1.86" cy="3.221" rx="1.86" ry="3.221" transform="translate(0 33.893) rotate(-30.311)" fill="#ffcc57"/>
    <path id="Path_2157" data-name="Path 2157" d="M3625.365,8016.78l6.769,3.909v2.226l-2.724,1.573-2.246-1.3-.779.45-4.388.008-.006,1.133,1.528.881v2.227l-2.282,1.318-6.769-3.908v-2.226Z" transform="translate(-3608.425 -7987.547)" fill="#ffb80d"/>
    <path id="Path_2158" data-name="Path 2158" d="M3614.467,8023.073l6.769,3.907,2.282-1.318-2.246-1.3.71-.409.014-2.534,4.388-.008.779-.45,2.246,1.3,2.724-1.571-6.769-3.909Z" transform="translate(-3608.425 -7987.547)" fill="#ffcc57"/>
  </g>
</svg>
