<svg xmlns="http://www.w3.org/2000/svg" xmlns:xlink="http://www.w3.org/1999/xlink" width="205" height="205" viewBox="0 0 205 205">
  <defs>
    <filter id="Ellipse_367" x="0" y="0" width="205" height="205" filterUnits="userSpaceOnUse">
      <feOffset dy="12" input="SourceAlpha"/>
      <feGaussianBlur stdDeviation="17.5" result="blur"/>
      <feFlood flood-opacity="0.161"/>
      <feComposite operator="in" in2="blur"/>
      <feComposite in="SourceGraphic"/>
    </filter>
  </defs>
  <g id="Verify-scroll-down" transform="translate(-862.5 -654.5)">
    <g transform="matrix(1, 0, 0, 1, 862.5, 654.5)" filter="url(#Ellipse_367)">
      <circle id="Ellipse_367-2" data-name="Ellipse 367" cx="50" cy="50" r="50" transform="translate(52.5 40.5)" fill="#fff"/>
    </g>
    <path id="Path_2284" data-name="Path 2284" d="M164.131,1800.431h22.835l-6.315-6.315a2.245,2.245,0,0,1,3.175-3.175l10.146,10.147a2.215,2.215,0,0,1,.278.339c.024.036.04.077.062.113a2.122,2.122,0,0,1,.145.272c.021.049.03.1.047.152a2.13,2.13,0,0,1,.081.268,2,2,0,0,1-.082,1.16c-.017.048-.026.1-.045.147a2.264,2.264,0,0,1-.146.274c-.022.037-.037.076-.061.112a2.3,2.3,0,0,1-.277.339l-10.147,10.147a2.245,2.245,0,0,1-3.175-3.174l6.315-6.315H164.131a2.245,2.245,0,0,1,0-4.49Z" transform="translate(2767.629 566.534) rotate(90)" fill="#52a1ff"/>
  </g>
</svg>
