<svg xmlns="http://www.w3.org/2000/svg" xmlns:xlink="http://www.w3.org/1999/xlink" width="1920" height="1087" viewBox="0 0 1920 1087">
  <defs>
    <clipPath id="clip-path">
      <rect id="Rectangle_364" data-name="Rectangle 364" width="1920" height="1087" fill="#fff" stroke="#707070" stroke-width="1"/>
    </clipPath>
    <clipPath id="clip-path-2">
      <path id="Shape_536" data-name="Shape 536" d="M1300.616,179.12q11.389.929,22.8.929,11.3,0,22.665-.929Zm212.709,0c-77.469,49.056-153.809,68.64-228.459,58.443q-73.353-10.006-144.694-58.443h-11.915q76.707,54.822,155.99,65.71a287.674,287.674,0,0,0,39.167,2.668q99.683-.036,202.523-68.378Zm92.335,0c-110.02,98.183-218.254,140.354-323.143,125.654q-116.174-16.3-227.181-125.654h-9.284q114.765,115.719,235.807,132.92a300.159,300.159,0,0,0,41.553,2.883c95.379,0,193.145-45.482,292.189-135.8Zm74.255,0c-136.463,146.62-270.726,211.448-399.972,192.841-99.965-14.39-197.317-78.98-291.061-192.841h-8.288c96.018,118.268,195.927,185.288,298.692,200.083v.024a311.344,311.344,0,0,0,44.128,3.145c118.8-.024,241.295-68.164,365.372-203.252Zm66.154,0c-2.142,2.6-4.285,5.17-6.427,7.743-158,189.386-313.614,274.251-462.518,252.236-119.717-17.7-235.676-104.9-346.146-259.98h-7.762c112.519,159.485,230.845,249.139,353.231,267.246a319.935,319.935,0,0,0,46.948,3.431c136.256,0,277.379-86.438,420.213-257.621q5.384-6.433,10.75-13.056Zm61.757,0q-34.731,46.209-69.556,86.295c-158.621,182.477-314.8,263.506-464.21,240.8-137.91-20.918-270.8-130.776-396.044-327.1h-7.4c127.085,200.7,262.231,313.014,402.754,334.362a335.725,335.725,0,0,0,50.048,3.764c135.767,0,276.383-82.673,418.728-246.423q36.874-42.421,73.635-91.7Zm59.333,0q-65.009,92.775-130.411,164.87c-159.278,175.567-316.095,252.713-466.07,229.317-155.144-24.206-303.9-156.746-442.54-394.187h-7.2c140.372,241.825,291.306,376.818,449.043,401.429a346.446,346.446,0,0,0,53.412,4.146c135.26,0,275.331-78.909,417.131-235.2q67.32-74.191,134.3-170.373Zm57.941,0q-94.5,142.7-190.025,243.445c-160.03,168.658-317.5,241.944-468.081,217.785-163.187-26.184-319.271-167.562-463.909-420.227q-11.474-20.013-22.835-41h-6.991q12.545,23.229,25.165,45.292c145.615,254.357,303.014,396.736,467.837,423.158v.024a362.17,362.17,0,0,0,57.134,4.551c134.7,0,274.128-75.121,415.364-223.956q97.287-102.567,193.821-249.068Zm57.4,0C1900.1,309.4,1816.753,417.157,1733.233,501.164c-160.82,161.749-319.045,231.1-470.318,206.159-162.454-26.8-317.861-163.2-461.879-405.432q-34.083-57.323-67.451-122.771h-6.841q34.478,67.9,69.688,127.155c145,243.874,301.68,381.226,465.751,408.291a374.6,374.6,0,0,0,61.212,5c134.075,0,272.831-71.309,413.41-212.687,84.835-85.318,169.446-194.985,253.022-327.762Zm57.416,0c-101.6,167.109-205.023,301.388-308.709,400.667C1569.481,734.6,1410.428,800.026,1258.442,774.248,1096.758,746.825,942.1,615.382,798.78,383.611Q742.2,292.087,687.6,179.12h-6.728q55.592,115.5,113.384,208.97c144.281,233.343,300.2,365.716,463.42,393.4v-.024a390.411,390.411,0,0,0,65.723,5.551c133.38,0,271.422-67.52,411.267-201.418,105.021-100.542,209.721-236.774,312.524-406.48Zm58.017,0c-120.864,205.4-244.734,366.335-368.981,479.266-162.7,147.906-322.691,209.375-475.467,182.715-160.82-28.042-314.629-154.482-457.2-375.841q-79.244-123.009-154.5-286.14h-6.653q76.2,165.716,156.7,290.762c143.51,222.812,298.56,350.158,460.864,378.462a412.558,412.558,0,0,0,70.7,6.123c132.629,0,269.843-63.732,408.918-190.148,125.619-114.17,250.767-277.11,372.8-485.2Zm59.126,0c-2.293,3.931-4.586,7.862-6.879,11.841-209.721,363.262-536.435,782.56-902.183,716.946-159.842-28.685-312.75-150.146-454.456-361.046Q691.289,394.725,595.769,179.12h-6.6Q685.556,397.3,789.158,551.6C931.8,763.884,1085.9,886.2,1247.184,915.126a429.416,429.416,0,0,0,76.209,6.766c131.764,0,268.114-59.944,406.305-178.855,143.586-123.557,286.626-307.868,425.118-547.763q4.708-8.148,9.4-16.153Zm68.034,0q-37.269,53.571-74.875,115.48c-211.263,347.656-540.325,747.823-908.291,679.993-158.771-29.257-310.663-145.738-451.448-346.155C706.615,509.074,625.989,358.833,549.216,179.12h-6.54C620.125,360.882,701.5,512.743,786.188,633.3,927.895,835.026,1080.933,952.293,1241.1,981.812a453.378,453.378,0,0,0,82.3,7.529c130.843,0,266.178-56.156,403.411-167.586,144.544-117.386,288.524-293.24,427.975-522.7q39.242-64.578,78.013-119.936Zm883.126,49.247a.175.175,0,0,0-.056-.119q-14.377-25.517-28.586-49.127h-7.292q17.873,29.484,35.877,61.731c.019.048.056.1.075.143ZM2313.288,179.12q-80.316,90.273-163.018,219.12c-213.01,332.051-544.685,713.133-915.095,642.969-157.587-29.853-308.352-141.283-448.085-331.217C687.051,574,591.578,396.286,501.8,179.12h-6.484c90.436,219.286,186.661,398.689,287.566,535.827,140.654,191.173,292.546,303.365,451.449,333.48a479.018,479.018,0,0,0,89.065,8.363c129.828,0,264.035-52.368,400.2-156.341,145.6-111.168,290.648-278.611,431.132-497.611q84.911-132.408,167.529-223.718Zm794.87,156.34c-35.84-60.206-70.815-112.049-105.509-156.34h-8.119q56.241,71.047,113.628,168.491a3.4,3.4,0,0,1,.207.357V335.794C3108.289,335.675,3108.214,335.556,3108.157,335.46ZM2444.507,179.12q-4.792,3.324-9.622,6.838c-91.6,66.5-187.356,172.78-284.578,315.921-214.927,316.422-549.478,678.4-922.63,605.825C1071.4,1077.327,921.918,970.948,783.332,791.5,666.434,640.184,555.813,434.859,453.217,179.12H446.77c103.235,257.955,214.645,464.995,332.446,617.5,139.488,180.571,290.065,287.664,447.577,318.3a505.646,505.646,0,0,0,96.62,9.316c128.663,0,261.668-48.6,396.608-145.119,146.761-104.974,293-263.935,434.647-472.476q155.5-228.9,302.826-327.524ZM3108.5,443.2c-.113-.167-.225-.357-.338-.524-62.508-99.16-122.386-174.352-182.583-229.46q-20.269-18.548-40.745-34.094h-10.788c77.506,56.918,154.486,147.811,234.115,275.3.132.191.244.357.357.548Zm.132,107.4c-.15-.238-.3-.477-.47-.715-62.433-93.251-122.236-163.964-182.357-215.808-79.949-68.9-162.68-105.212-245.937-107.9-78.991-2.549-161.271,24.945-244.49,81.7-91.733,62.565-187.619,162.7-284.991,297.623C1933.275,906.31,1595.53,1249.13,1219.313,1174.1c-308.54-61.54-582.837-396.069-816.144-994.985h-6.39C631.251,782.3,907.39,1119.283,1218.43,1181.3a535.662,535.662,0,0,0,104.983,10.364c127.4,0,259.036-44.839,392.642-133.945,148.059-98.731,295.628-249.235,438.556-447.293,180.647-250.307,353.946-377.1,515.235-377.1,3.308,0,6.6.048,9.885.143,146.837,4.741,283.243,108.976,428.426,327.738.169.238.338.477.489.715Zm.132,107.332c-.188-.286-.395-.572-.6-.858-62.358-87.3-122.085-153.553-182.132-202.156-79.78-64.566-162.342-98.66-245.392-101.352-79.085-2.573-161.44,23.087-244.753,76.264-91.865,58.634-187.9,152.6-285.442,279.3-219.494,285.115-560.829,608.732-940.41,531.229-316.6-64.637-596.895-399.833-833.529-996.533v16.2c236.446,590.839,516.382,922.961,832.608,987.527v.024a570.643,570.643,0,0,0,114.3,11.531c125.976,0,256.1-41.1,388.207-122.842,149.524-92.489,298.541-234.487,442.935-422.038,184.613-239.824,361.482-358.735,525.91-353.374,146.574,4.765,282.754,102.448,427.693,307.13a8.721,8.721,0,0,1,.62.882Zm-.6,106.332C3045.875,682.9,2986.241,621.1,2926.27,575.737c-79.611-60.206-161.985-92.108-244.847-94.8-79.16-2.6-161.59,21.276-245,70.856-92.015,54.726-188.221,142.522-285.931,260.957-222.182,269.391-567.52,573.685-950.84,493.752C887.3,1241.363,610.5,929.278,376.5,378.655v15.32c233.8,545.333,510.273,854.679,822.234,919.721a608.081,608.081,0,0,0,124.7,12.842c124.4,0,252.834-37.405,383.283-111.835,151.122-86.223,301.774-219.692,447.765-396.665,184.932-224.194,362.121-335.2,526.793-329.811,146.292,4.765,282.229,95.92,426.885,286.545.263.333.508.667.751,1V765.242C3108.665,764.908,3108.4,764.575,3108.157,764.265Zm.883,108.285c-.3-.381-.583-.739-.883-1.072-56.043-68.068-109.7-121.079-163.582-161.8-71.191-53.749-144.506-86.509-217.953-97.373-84.93-12.556-173.524,3.526-263.321,47.769-100.341,49.437-205.549,135.684-312.712,256.311-225.207,253.5-575.018,538.424-962.455,456.132-307.656-65.352-580.6-354.28-811.634-859.063v14.51c230.9,500.042,503.47,786.491,810.675,851.748a654.358,654.358,0,0,0,136.275,14.271c122.649,0,249.207-33.76,377.814-100.995,152.907-79.933,305.363-204.8,453.14-371.148,457.143-514.575,762.206-274.99,953.753-40.288.3.357.6.715.9,1.1Zm.132,107.213q-.508-.608-1.015-1.144C3052.1,915.793,2998.4,866.808,2944.481,829.212c-71.154-49.6-144.469-79.838-217.878-89.845-84.892-11.579-173.449,3.24-263.246,44.077-100.322,45.625-205.53,125.225-312.693,236.56-323.086,335.7-669.477,484.293-975.348,418.417C872.885,1373.283,604.263,1107.514,376.5,648.26v13.652c227.632,455.084,495.915,718.661,797.858,783.7a706.4,706.4,0,0,0,149.111,15.82c120.695,0,245.185-30.187,371.706-90.321,154.9-73.619,309.367-189.862,459.135-345.464,457.143-475,762.262-253.9,953.847-37.286l1.034,1.167ZM2726.566,866.4c-84.855-10.626-173.374,2.978-263.134,40.384-100.322,41.837-205.511,114.789-312.674,216.832-129.227,123.1-262.025,218.667-394.465,285.211a64.731,64.731,0,0,1,12.949,1.978c129.922-67.116,259.074-161.463,384.975-281.351,454.85-433.188,759.2-234.892,951.009-37.286.395-2.74.771-5.456,1.128-8.219C2977.277,951.888,2856.169,882.628,2726.566,866.4ZM1161.146,1504.25C864.5,1439.8,600.636,1197.239,376.5,783.039V795.9c224.023,410.531,487.533,651.188,783.669,715.516a766.8,766.8,0,0,0,163.319,17.44c117.612,0,238.814-26.3,362.065-78.671a101.023,101.023,0,0,1,8.983-12.413C1511.352,1517.425,1330.047,1540.94,1161.146,1504.25ZM376.5,917.794v12.079c130.655,217.619,276.026,384.133,432.448,495.372,135.73,96.515,281.42,152.671,433.688,167.229l29.074-3.622C980.424,1572.056,663.934,1400.848,376.5,917.794Zm1217.15,630.889,27.026-3.383c10.863-1.453,20.861-6.743,29.074-14.938Q1622.066,1540.19,1593.65,1548.683Zm1132.9-555.221c-84.817-9.649-173.318,2.692-263.04,36.691-100.3,38.025-205.493,104.33-312.637,197.081-81.227,70.332-194.31,156.388-328.63,227.03,1.2,2.12,2.33,4.336,3.4,6.6,111.016-58.4,221.186-134.707,328.48-227.6,437.409-378.677,735.669-226.577,928.532-54.631.846-2.216,1.654-4.432,2.462-6.647C2963.9,1064.414,2849.008,1007.376,2726.547,993.463ZM376.5,1052.525v11.365c130.693,195.914,276.083,345.846,432.561,445.959,72.958,46.7,148.829,82.888,227.031,108.4l12.893-1.62C823.739,1546.515,591.972,1378.381,376.5,1052.525Zm1774.484,278.349c-71.21,55.465-166.946,121.842-279.992,180.237a44.539,44.539,0,0,0,13.682,1.168c90.981-47.841,181.117-106.474,269.336-175.186,407.978-317.851,694.942-220.287,888.238-80.148,1.259-1.882,2.518-3.788,3.758-5.718C2851.376,1109.729,2562.213,1010.5,2150.984,1330.874ZM376.5,1187.28v10.626c130.73,174.209,276.158,307.511,432.673,396.522q40.228,22.872,81.6,41.956l10.675-1.334C723.774,1554.688,545.138,1413.9,376.5,1187.28ZM2151.115,1434.49c-25.166,17.416-53.375,36.047-84.328,55.155l16.482-2.073q35.492-22.372,70.609-46.7c363.681-251.808,631.213-210.328,821.99-110.144,1.936-1.6,3.872-3.216,5.77-4.884C2789.45,1223.613,2519.175,1179.632,2151.115,1434.49ZM376.5,1322.011v9.911c116.823,136.256,245.373,243.9,383.1,320.829l10.055-1.239C636.063,1577.893,503.453,1471.228,376.5,1322.011Zm1919.779,139,24.338-3.049c197.674-85.127,362.647-91.656,498.978-62.255l3.853-.477c5.789-.524,11.54-1.215,17.253-2.12C2694.748,1357.177,2514.984,1361.418,2296.279,1461.007ZM376.5,1456.694v9.339c78.6,78.742,163.338,146.739,252.8,202.99l9.867-1.239C550.005,1612.3,461.975,1542.775,376.5,1456.694Zm0,134.684v8.72q55.536,46.316,114.173,86.223l10.167-1.263A1479.515,1479.515,0,0,1,376.5,1591.378Z" transform="translate(-376.5 -179.12)" fill="#d01414" opacity="0.102"/>
    </clipPath>
  </defs>
  <g id="Mask_Group_6" data-name="Mask Group 6" clip-path="url(#clip-path)">
    <g id="Group_734" data-name="Group 734" transform="translate(-60)">
      <g id="verify-header-bg" transform="translate(-374.5 -192.12)">
        <g id="Mask_Group_5" data-name="Mask Group 5" transform="translate(163.277 178.949)" opacity="0.1" clip-path="url(#clip-path-2)">
          <path id="Path_2285" data-name="Path 2285" d="M2789.8,963.89q-.647,7.356-1.594,14.608c-.316,2.442-.648,4.841-1,7.262a366.257,366.257,0,0,1-17.766,70.512c-.714,1.958-1.428,3.915-2.175,5.873a344.252,344.252,0,0,1-32.377,64.134c-1.1,1.705-2.208,3.389-3.321,5.052a305.963,305.963,0,0,1-53.547,60.872c-1.677,1.473-3.387,2.9-5.1,4.315-34.8,28.731-75.463,48.2-119.413,55.1-5.047.8-10.128,1.41-15.242,1.873l-3.4.421-440.825,55-21.5,2.694-188.185,23.469-14.561,1.831c-159.594,19.912-384.522,47.885-418,52.158l-284.419,35.488-25.686,3.2L970.609,1449.1l-11.39,1.431-118.948,14.839-9.431,1.179-107.01,13.366-8.883,1.095-106.4,13.281-8.717,1.095L486.349,1509.55l-8.983,1.115L376.5,1523.252V179.12H2789.8v1.726l.05,41.781.017,11.156.116,83.752V328.29l.116,84.131.017,10.4.1,84.488.017,10,.1,84.825.017,9.661.116,85.141v9.3l.116,85.5.017,8.924.1,85.793.017,8.63.017,13.513c0,.4,0,.779.017,1.179A378.328,378.328,0,0,1,2789.8,963.89Z" transform="translate(-108.328 -178.848)" fill="#d01414"/>
        </g>
      </g>
    </g>
  </g>
</svg>
