<svg xmlns="http://www.w3.org/2000/svg" xmlns:xlink="http://www.w3.org/1999/xlink" width="808.04" height="431.01" viewBox="0 0 808.04 431.01">
  <defs>
    <linearGradient id="linear-gradient" x1="0.5" y1="0.936" x2="0.5" y2="0.036" gradientUnits="objectBoundingBox">
      <stop offset="0" stop-color="#fff"/>
      <stop offset="1" stop-color="#c5e8ff"/>
    </linearGradient>
  </defs>
  <path id="Shape_536" data-name="Shape 536" d="M524.76,384.68c-49.65,16.94-140.05,41.81-242.69,41.81-90.65,0-190.85-19.42-280.84-80.85l-.95,1.38c75.99,51.88,167.43,79.09,271.77,80.89q5.58.105,11.12.1c98.63,0,185.67-22.48,242.13-41.74,135.91-46.36,225.88-23.65,281.73-2.54l.59-1.57C751.53,360.95,661.18,338.14,524.76,384.68Zm-.05-23.87C431.24,399.09,193.13,471.15,1.29,313.95l-1.06,1.3a419.8,419.8,0,0,0,132.72,73.62c43.33,14.58,90.12,22.48,139.1,23.49q5.58.12,11.12.12c98.66,0,185.71-26.99,242.18-50.11,135.87-55.64,225.8-28.39,281.63-3.05l.7-1.53C751.56,332.32,661.18,304.93,524.71,360.81Zm-.04-23.86C431.21,381.61,193.15,465.68,1.34,282.27L.18,283.48c39.81,38.07,84.47,66.97,132.74,85.92,43.33,17.01,90.14,26.23,139.13,27.42,3.72.08,7.43.13,11.12.13,98.68,0,185.75-31.49,242.22-58.48,135.83-64.91,225.74-33.12,281.55-3.57l.78-1.48C751.59,303.69,661.18,271.72,524.67,336.95Zm-.04-23.86C431.2,364.12,193.17,460.2,1.39,250.59L.15,251.72c39.8,43.51,84.46,76.55,132.73,98.2,43.35,19.45,90.16,29.99,139.16,31.35q5.46.15,10.96.15c40.02,0,81.54-6,123.56-17.88a574.982,574.982,0,0,0,118.88-48.98c135.78-74.17,225.67-37.84,281.46-4.07l.87-1.44C751.62,275.06,661.18,238.51,524.63,313.09Zm-.03-23.86C431.18,346.64,193.18,454.72,1.42,218.9L.11,219.96c39.81,48.95,84.47,86.12,132.74,110.48a329.267,329.267,0,0,0,139.19,35.28q5.46.165,10.96.17c40.03,0,81.56-6.76,123.59-20.12,40.17-12.78,80.17-31.32,118.89-55.11,135.75-83.43,225.6-42.57,281.38-4.59l.95-1.38C751.64,246.44,661.18,205.29,524.6,289.23Zm168.02-77.7c-24.76-2.22-50.59.62-76.79,8.45-29.28,8.76-59.98,24.03-91.26,45.39-49.6,33.86-139.91,83.59-242.45,83.59-90.59,0-190.73-38.85-280.67-161.75l-1.36.99c39.8,54.38,84.46,95.69,132.73,122.77a303.594,303.594,0,0,0,139.22,39.2c3.63.12,7.29.19,10.96.19,40.05,0,81.58-7.51,123.62-22.36,40.17-14.2,80.17-34.8,118.89-61.25,135.72-92.68,225.56-47.29,281.32-5.09l1.02-1.34C768.52,230.56,731.9,215.05,692.62,211.53Zm.01-29.26c-24.77-2.44-50.61.69-76.82,9.3-29.28,9.63-59.99,26.43-91.27,49.93-95.87,72.02-198.46,103.15-288.9,87.65C146.77,313.93,67.99,255.51,1.47,155.51l-1.4.93C66.85,256.84,146,315.5,235.34,330.81a281.226,281.226,0,0,0,47.69,4.01c34.61,0,70.28-6.14,106.55-18.4,45.86-15.49,91.6-40.25,135.97-73.57,135.69-101.94,225.5-52.02,281.25-5.61l1.08-1.29C768.54,203.21,731.92,186.15,692.63,182.27Zm63.61-8.56c-20.78-11.43-42.18-18.39-63.61-20.69-24.77-2.67-50.63.74-76.84,10.15-29.29,10.5-60,28.83-91.28,54.47C430.18,294.95,329.06,329.17,239.77,314,149.23,298.61,69.06,234.63,1.49,123.82l-1.44.87C67.88,235.92,148.43,300.17,239.48,315.65a258.283,258.283,0,0,0,43.54,3.64c35.23,0,71.57-6.95,108.51-20.8,45.22-16.95,90.31-43.72,134.04-79.55,135.66-111.19,225.46-56.74,281.2-6.11l1.13-1.24C790.12,195.43,773.22,183.04,756.24,173.71Zm.03-27.52c-20.78-12.38-42.18-19.92-63.62-22.43-24.8-2.89-50.66.81-76.88,11-29.29,11.38-60,31.24-91.29,59.02-65.75,58.38-167.86,123.99-280.97,105.04-92.07-15.42-173.49-84.97-242-206.7l-1.47.82c68.78,122.2,150.6,192.03,243.2,207.54l-.02-.01a240.093,240.093,0,0,0,39.8,3.3c35.8,0,72.75-7.78,110.29-23.26,44.64-18.4,89.15-47.16,132.29-85.47,135.64-120.44,225.42-61.46,281.15-6.62l1.18-1.19C790.15,169.73,773.25,156.3,756.27,146.19Zm-5.34-30.85c-23.23-13.86-47.29-21.21-71.47-21.83-23.12-.6-47.18,4.9-71.53,16.32-26.86,12.6-54.95,32.81-83.47,60.09-64.86,62.04-165.68,132.11-277.58,113.7-93.44-15.37-176-90.46-245.36-223.2L.03,61.2C69.65,194.42,152.61,269.81,246.61,285.28l-.01-.01a224.428,224.428,0,0,0,36.42,2.97c36.32,0,73.81-8.62,111.89-25.76,44.12-19.85,88.1-50.59,130.72-91.34,53.98-51.63,105.71-77.19,153.78-75.95,43.62,1.12,84.08,22.99,127.32,68.82l1.22-1.15C788.34,142.08,769.69,126.53,750.93,115.34Zm-.07-27.82c-23.29-14.87-47.4-22.72-71.64-23.34-23.09-.6-47.13,5.32-71.45,17.56-26.82,13.5-54.86,35.14-83.33,64.32-64.08,65.66-163.72,140.18-274.53,122.33C155.23,253.14,71.66,172.5,1.53,28.71l-1.51.74C70.4,173.76,154.39,254.71,249.64,270.05l-.02-.01a208.728,208.728,0,0,0,33.39,2.66c36.78,0,74.76-9.46,113.33-28.29,43.65-21.29,87.15-53.99,129.3-97.18C579.54,92,631.17,64.62,679.17,65.85c43.7,1.12,84.22,24.55,127.54,73.74l1.26-1.1C788.33,116.18,769.65,99.51,750.86,87.52Zm-.07-27.83C727.45,43.82,703.3,35.46,679,34.84c-23.07-.59-47.08,5.74-71.38,18.82-26.78,14.4-54.77,37.46-83.2,68.53-63.37,69.27-161.97,148.22-271.8,130.94C157.51,238.17,73.55,153.11,3.03.28,2.53-.81,2.03-1.9,1.53-3L0-2.3C.39-1.44.79-.58,1.19.28c70.82,153.8,155.32,239.43,251.16,254.51a196.677,196.677,0,0,0,30.66,2.38c37.19,0,75.62-10.32,114.62-30.84,43.22-22.74,86.3-57.39,128.03-103C578.4,65.69,628.98,36.48,676.07,36.48c.96,0,1.92.01,2.88.04,43.76,1.11,84.35,26.11,127.74,78.66l1.3-1.07C788.32,90.29,769.61,72.49,750.79,59.69Zm-.06-27.83C727.34,14.98,703.14,6.12,678.79,5.5c-23.04-.58-47.04,6.18-71.31,20.08-26.74,15.31-54.7,39.78-83.08,72.75C461.66,171.2,363.99,254.55,255.06,237.84c-45.62-7-89.26-31.5-129.72-72.82C86.75,125.61,50.5,70.3,17.34.28H15.47C48.82,70.81,85.29,126.52,124.14,166.2c40.72,41.58,84.67,66.25,130.65,73.3A186.388,186.388,0,0,0,283,241.64c37.57,0,76.39-11.19,115.79-33.42,42.84-24.17,85.53-60.78,126.89-108.8C579.42,37.01,630.92,5.98,678.75,7.18c43.82,1.11,84.47,27.67,127.93,83.59L808,89.74C788.31,64.39,769.57,45.46,750.73,31.86Zm-.06-27.83q-2.55-1.95-5.11-3.75h-2.81c21.1,14.58,42.15,36.43,63.91,66.08l1.35-.99C788.3,38.5,769.54,18.43,750.67,4.03ZM602.91.28c-25.36,16.32-51.75,41.26-78.52,74.18-62.18,76.47-159.01,164.22-267.14,148.06-46.01-6.87-90.02-32.53-130.81-76.27C92.74,110.12,60.82,61.19,31.17.28H29.3C59.13,61.68,91.26,111,125.21,147.39c41.06,44.03,85.4,69.86,131.79,76.8l-.01-.01A175.491,175.491,0,0,0,283,226.11c37.9,0,77.08-12.06,116.83-36,42.5-25.6,84.85-64.16,125.86-114.59Q566.955,24.79,606.26.28Zm173.06,0h-2.29a387.549,387.549,0,0,1,32.96,41.67l1.39-.96A391.23,391.23,0,0,0,775.97.28ZM568.86.28A453.394,453.394,0,0,0,524.37,50.6C462.7,130.65,366.63,222.81,259.22,207.19c-46.36-6.74-90.7-33.56-131.8-79.72C98.41,94.89,70.71,52.31,44.63.28H42.76c26.25,52.51,54.16,95.46,83.41,128.31,41.37,46.46,86.04,73.46,132.79,80.26a168.054,168.054,0,0,0,24.03,1.73c38.2,0,77.7-12.93,117.76-38.59,42.2-27.03,84.24-67.53,124.94-120.37Q548.82,21.605,571.34.28ZM796.8.28h-2.08q5.925,8.19,11.92,17.27l1.4-.93Q802.37,8.04,796.8.28ZM544.92.28q-10.23,12.33-20.56,26.45c-61.22,83.65-156.6,180.2-263.37,165.1-46.67-6.61-91.3-34.58-132.67-83.14C103.81,79.92,80.24,43.67,57.8.28H55.92c22.62,43.86,46.39,80.47,71.12,109.5,41.64,48.88,86.62,77.05,133.7,83.71A157.822,157.822,0,0,0,283,195.05c38.47,0,78.26-13.8,118.61-41.19,41.92-28.45,83.67-70.89,124.1-126.14Q536.465,13.035,547.11.28Zm-18.75,0c-.6.86-1.21,1.72-1.81,2.58-40.08,57.5-81.45,101.75-122.96,131.51-47.5,34.06-94.2,48.21-138.81,42.08-46.94-6.46-91.85-35.58-133.46-86.55Q98.935,52.925,70.75.28H68.84q28.41,53.2,58.98,90.68c41.89,51.3,87.15,80.62,134.53,87.15A151.678,151.678,0,0,0,283,179.52c38.72,0,78.77-14.68,119.37-43.79,41.67-29.87,83.17-74.25,123.36-131.91q1.245-1.785,2.49-3.54Zm-16.45,0c-35.26,49.66-71.4,88.61-107.67,115.99-47.21,35.65-93.64,50.72-138.01,44.78-47.2-6.31-92.35-36.58-134.19-89.96Q106.09,40.775,83.54.28H81.63q22.785,41.085,46.9,71.85c42.12,53.73,87.64,84.21,135.29,90.59l-.02-.01a143.444,143.444,0,0,0,19.2,1.28c38.94,0,79.23-15.55,120.06-46.38C439.7,89.94,476.19,50.54,511.77.28Zm-16.15,0c-29.91,40.85-60.37,73.66-90.92,97.89-46.95,37.24-93.14,53.21-137.3,47.47-47.43-6.16-92.79-37.58-134.84-93.36A524.439,524.439,0,0,1,96.3.28H94.35a528.986,528.986,0,0,0,34.82,53.01c42.32,56.15,88.07,87.79,135.96,94.02l-.02-.01a141.089,141.089,0,0,0,17.9,1.17c39.14,0,79.65-16.43,120.69-48.98C434.6,74.97,465.42,41.71,495.65.28ZM477.6.28c-24.58,32.35-49.47,59.05-74.41,79.79-46.71,38.84-92.69,55.71-136.65,50.15-47.63-6.03-93.2-38.59-135.42-96.77Q119.975,18.09,109.09.28h-1.98q11.175,18.36,22.64,34.16c42.5,58.56,88.45,91.35,136.56,97.44a133.247,133.247,0,0,0,16.7,1.05c39.32,0,80.03-17.29,121.26-51.57C429.56,60.33,454.79,33.2,479.69.28Zm-15.97,0q-28.815,36.315-57.95,61.69c-46.51,40.43-92.28,58.2-136.07,52.81-47.82-5.89-93.56-39.59-135.96-100.17Q126.805,7.68,122.02.28h-2q5.1,7.92,10.26,15.29c42.68,60.99,88.81,94.93,137.13,100.88l-.02-.01a127.427,127.427,0,0,0,15.62.96c39.49,0,80.37-18.17,121.77-54.16Q434.4,37.485,463.76.28Zm-16.08,0a436.064,436.064,0,0,1-41.43,43.6c-46.31,42.02-91.9,60.68-135.52,55.45C221.76,93.73,176.93,60.41,135.26.28h-2.05C175.35,61.42,220.81,95.29,268.38,101a123.392,123.392,0,0,0,14.63.87c39.63,0,80.68-19.04,122.24-56.75A438.638,438.638,0,0,0,447.73.28Zm-16.37,0q-12.3,13.845-24.65,25.51C358.4,69.4,312.97,88.95,269.5,83.88c-42.06-4.9-82.52-32.99-120.53-83.6h-2.1C185.39,51.9,226.5,80.55,269.31,85.55l-.03-.01a119.046,119.046,0,0,0,13.74.8c39.77,0,80.97-19.91,122.66-59.33Q418.58,14.83,431.42.28Zm-16.93,0Q408.575,4.1,404.9,7.71c-45.97,45.2-91.24,65.62-134.58,60.7C233.25,64.2,197.42,41.34,163.41.28h-2.17c34.55,42.07,71.05,65.5,108.87,69.8a113.449,113.449,0,0,0,12.9.73c39.9,0,81.24-20.78,123.06-61.9q4.245-4.185,8.5-8.63Zm-17.93,0c-42.08,39.36-83.5,57.06-123.27,52.66C239.32,49.43,208.5,31.78,178.93.28h-2.26c30.16,32.51,61.69,50.73,94.2,54.33a111.458,111.458,0,0,0,12.12.67c36.95,0,75.13-18.45,113.79-55Zm-16.91,0h-2.67c-35.09,28.29-69.6,40.77-102.98,37.18-25.8-2.78-51.01-15.23-75.42-37.18h-2.49c25.11,22.98,51.09,35.99,77.73,38.86l-.02-.01a106.851,106.851,0,0,0,11.45.62C313.77,39.75,345.38,26.52,377.41.28Zm-22.43,0h-3.1c-27.01,17.14-53.59,24.42-79.48,21.7Q244.245,19.025,217.1.28h-2.98c18.91,13.46,38.4,21.31,58.1,23.38l-.02-.01a102.719,102.719,0,0,0,10.81.57C306.57,24.22,330.62,16.21,354.98.28Z" transform="translate(0 3)" fill="url(#linear-gradient)"/>
</svg>
