<svg xmlns="http://www.w3.org/2000/svg" width="47.275" height="54.104" viewBox="0 0 47.275 54.104">
  <g id="Shield" transform="translate(0.655 0.656)">
    <path id="Path_129" data-name="Path 129" d="M3324.359,1850.827v.061c-.092,12.938-.613,21.36-3.721,27.955-3.094,6.57-8.749,11.327-19.094,16.929-.056.028-.111.061-.167.089-20.9-11.282-22.8-19.087-22.981-45.034.192.008.39.011.592.011,5.847,0,15.521-3.1,22.389-7.77C3308.487,1847.9,3318.594,1851.051,3324.359,1850.827Z" transform="translate(-3278.396 -1843.069)" fill="#fff"/>
    <path id="Path_130" data-name="Path 130" d="M3324.18,1850.766c-.092,12.938-.613,21.36-3.72,27.955-3.094,6.57-8.749,11.327-19.094,16.929-.033-.05-.028-.078.013-.078-18.312-12.693-21.435-17.28-21.616-43.228,5.769.224,15.22-3.5,22.329-8.333l.526.354C3309.209,1848.846,3318.294,1850.7,3324.18,1850.766Z" transform="translate(-3278.217 -1842.946)" fill="#7db7ff"/>
    <path id="Path_131" data-name="Path 131" d="M3322.1,1854.127q.024-1.6.035-3.3c-5.767.226-15.873-2.927-22.981-7.758h0a41.755,41.755,0,0,1-3.717,2.24" transform="translate(-3276.173 -1843.069)" fill="none" stroke="#1676ee" stroke-linecap="round" stroke-linejoin="round" stroke-width="1.314"/>
    <path id="Path_132" data-name="Path 132" d="M3318.961,1856.012q.017-.643.033-1.3" transform="translate(-3273.104 -1841.55)" fill="none" stroke="#1676ee" stroke-linecap="round" stroke-linejoin="round" stroke-width="1.314"/>
    <path id="Path_133" data-name="Path 133" d="M3294.438,1846.447c-5.793,2.587-11.989,4.1-16.042,3.938.181,25.949,2.084,33.752,22.982,45.034h0c16.318-8.81,21.055-15.5,22.433-30.362" transform="translate(-3278.396 -1842.628)" fill="none" stroke="#1676ee" stroke-linecap="round" stroke-linejoin="round" stroke-width="1.314"/>
    <path id="Path_134" data-name="Path 134" d="M3320.2,1853.817c0,.149,0,.3-.007.441-.184,10.646-.879,17.319-3.323,22.509-2.434,5.17-6.844,9.228-15.44,14.106-.159.088-.322.181-.486.273-8.915-5-13.441-9.114-15.922-14.379s-3.157-12.047-3.331-22.95a52.689,52.689,0,0,0,19.253-6.882c.468.28.947.557,1.433.823a53.526,53.526,0,0,0,5.4,2.6.027.027,0,0,1,.018.007A48.789,48.789,0,0,0,3320.2,1853.817Z" transform="translate(-3277.966 -1842.565)" fill="#fff"/>
    <path id="Path_135" data-name="Path 135" d="M3319.992,1854.176c-.184,10.646-.879,17.319-3.324,22.509-2.434,5.169-6.844,9.228-15.44,14.106a47.656,47.656,0,0,1-10.5-7.688,21.594,21.594,0,0,1-4.158-5.935c-2.459-5.218-3.136-11.955-3.307-22.776a52.206,52.206,0,0,0,18.913-6.716c.068-.035.131-.073.2-.113a51.848,51.848,0,0,0,5.2,2.714.027.027,0,0,1,.018.007,54.833,54.833,0,0,0,9.142,3.207C3317.845,1853.772,3318.935,1854,3319.992,1854.176Z" transform="translate(-3277.761 -1842.483)" fill="#ddecfe"/>
    <path id="Path_136" data-name="Path 136" d="M3319.13,1853.452c-.184,10.646-.879,17.319-3.323,22.509-2.434,5.169-6.844,9.228-15.44,14.106a47.642,47.642,0,0,1-10.5-7.688c9.213-1.141,23.111-4.316,29-29.268C3319.978,1853.391,3318.073,1853.275,3319.13,1853.452Z" transform="translate(-3276.9 -1841.759)" fill="#b8d9ff"/>
    <path id="Path_137" data-name="Path 137" d="M3283.21,1869.3c-.051-.2-.1-.406-.149-.611" transform="translate(-3277.787 -1839.727)" fill="none" stroke="#1676ee" stroke-linecap="round" stroke-linejoin="round" stroke-width="1.314"/>
    <path id="Path_138" data-name="Path 138" d="M3282.444,1867.022a122.143,122.143,0,0,1-.75-13.205,52.726,52.726,0,0,0,19.254-6.881,52.753,52.753,0,0,0,19.255,6.883c-.174,10.9-.854,17.689-3.331,22.949s-7.008,9.38-15.924,14.38c-8.915-5-13.445-9.116-15.923-14.38q-.305-.648-.575-1.328" transform="translate(-3277.966 -1842.564)" fill="none" stroke="#1676ee" stroke-linecap="round" stroke-linejoin="round" stroke-width="1.314"/>
    <path id="Path_139" data-name="Path 139" d="M3297,1869.161l1.154,1.117,12.169-12.169a2.064,2.064,0,0,1,2.919,2.92l-13.61,13.61a2.064,2.064,0,0,1-2.9.018l-6.4-6.2a2.064,2.064,0,0,1,2.883-2.954" transform="translate(-3276.92 -1841.185)" fill="#fff" stroke="#1676ee" stroke-linecap="round" stroke-linejoin="round" stroke-width="1.314"/>
    <line id="Line_54" data-name="Line 54" x2="0.607" y2="0.587" transform="translate(17.947 25.913)" fill="#fff" stroke="#1676ee" stroke-linecap="round" stroke-linejoin="round" stroke-width="1.314"/>
  </g>
</svg>
