<svg xmlns="http://www.w3.org/2000/svg" width="88.572" height="88.771" viewBox="0 0 88.572 88.771">
  <g id="Group_505" data-name="Group 505" transform="translate(-773 -323.546)">
    <g id="Group_107" data-name="Group 107" transform="translate(773 323.546)">
      <path id="Path_1" data-name="Path 1" d="M1082.306,569.28a44.385,44.385,0,1,1,23.217-82.221,5.084,5.084,0,1,1-5.325,8.661,34.221,34.221,0,1,0,16.152,32.649,5.084,5.084,0,0,1,10.116,1.019,44.39,44.39,0,0,1-44.161,39.891Z" transform="translate(-1037.921 -480.509)" fill="#dee0e2"/>
      <path id="Path_2" data-name="Path 2" d="M1104.76,560.019a5.828,5.828,0,0,1-4.134-1.712l-15.96-15.959a5.846,5.846,0,0,1,8.268-8.268L1104.76,545.9l33.266-33.266a5.847,5.847,0,0,1,8.268,8.268l-37.4,37.4A5.828,5.828,0,0,1,1104.76,560.019Z" transform="translate(-1060.06 -495.463)" fill="#dee0e2"/>
    </g>
  </g>
</svg>
