<svg xmlns="http://www.w3.org/2000/svg" width="43.952" height="55.28" viewBox="0 0 43.952 55.28">
  <g id="Like" transform="translate(0.72 0.72)">
    <line id="Line_55" data-name="Line 55" y1="1.91" transform="translate(29.206 9.067)" fill="#fff" stroke="#1676ee" stroke-linecap="round" stroke-linejoin="round" stroke-width="1.439"/>
    <line id="Line_56" data-name="Line 56" y1="0.033" transform="translate(29.206 12.685)" fill="#fff" stroke="#1676ee" stroke-linecap="round" stroke-linejoin="round" stroke-width="1.439"/>
    <g id="Group_149" data-name="Group 149" transform="translate(0.563 7.626)">
      <g id="Group_147" data-name="Group 147" transform="translate(0 46.062)">
        <line id="Line_57" data-name="Line 57" x1="0.349" y1="0.001" stroke-width="1.439" stroke="#91c2ff" stroke-linecap="round" stroke-linejoin="round" fill="none"/>
        <line id="Line_58" data-name="Line 58" x1="30.974" y1="0.093" transform="translate(2.326 0.008)" fill="none" stroke="#91c2ff" stroke-linecap="round" stroke-linejoin="round" stroke-width="1.439"/>
        <line id="Line_59" data-name="Line 59" x1="5.056" y1="0.038" transform="translate(34.871 0.106)" fill="none" stroke="#91c2ff" stroke-linecap="round" stroke-linejoin="round" stroke-width="1.439"/>
        <line id="Line_60" data-name="Line 60" x1="0.566" y1="0.002" transform="translate(41.381 0.149)" fill="none" stroke="#91c2ff" stroke-linecap="round" stroke-linejoin="round" stroke-width="1.439"/>
      </g>
      <rect id="Rectangle_22" data-name="Rectangle 22" width="45.758" height="24.699" rx="2.964" transform="translate(7.273 45.758) rotate(-89.809)" fill="#fff"/>
      <path id="Rectangle_23" data-name="Rectangle 23" d="M2.963,0H42.792a2.966,2.966,0,0,1,2.966,2.966V21.737A2.963,2.963,0,0,1,42.8,24.7H2.963A2.963,2.963,0,0,1,0,21.737V2.963A2.963,2.963,0,0,1,2.963,0Z" transform="translate(7.273 45.758) rotate(-89.809)" fill="#c2ddff"/>
      <rect id="Rectangle_24" data-name="Rectangle 24" width="36.861" height="24.7" transform="translate(7.29 40.515) rotate(-89.809)" fill="#fff"/>
      <g id="Group_148" data-name="Group 148" transform="translate(10.558 9.099)">
        <path id="Rectangle_25" data-name="Rectangle 25" d="M5.78,0h7.044a4.045,4.045,0,0,1,4.045,4.045v17.42a4.045,4.045,0,0,1-4.045,4.045H4.045A4.045,4.045,0,0,1,0,21.465V5.78A5.78,5.78,0,0,1,5.78,0Z" transform="translate(0.648 1.501)" fill="#c2ddff"/>
        <path id="Path_140" data-name="Path 140" d="M3299.719,1785.977v-2.935a1.263,1.263,0,0,1,1.263-1.263h15.637a1.263,1.263,0,0,1,1.263,1.263v22.983a1.263,1.263,0,0,1-1.263,1.263h-15.637a1.263,1.263,0,0,1-1.263-1.263V1791.5" transform="translate(-3299.719 -1781.779)" fill="#fff" stroke="#91c2ff" stroke-linecap="round" stroke-linejoin="round" stroke-width="1.439"/>
        <line id="Line_61" data-name="Line 61" y1="0.247" transform="translate(0 6.067)" fill="#fff" stroke="#91c2ff" stroke-linecap="round" stroke-linejoin="round" stroke-width="1.439"/>
        <circle id="Ellipse_116" data-name="Ellipse 116" cx="3.002" cy="3.002" r="3.002" transform="translate(6.08 5.59)" stroke-width="1.439" stroke="#91c2ff" stroke-linecap="round" stroke-linejoin="round" fill="#fff"/>
        <line id="Line_62" data-name="Line 62" x2="8.106" transform="translate(5.029 16.398)" fill="#fff" stroke="#91c2ff" stroke-linecap="round" stroke-linejoin="round" stroke-width="1.439"/>
        <line id="Line_63" data-name="Line 63" x2="3.23" transform="translate(7.467 19.1)" fill="#fff" stroke="#91c2ff" stroke-linecap="round" stroke-linejoin="round" stroke-width="1.439"/>
      </g>
      <path id="Path_141" data-name="Path 141" d="M3296.856,1790.88l.045-14a3.294,3.294,0,0,1,3.305-3.282l18.112.06a3.3,3.3,0,0,1,3.283,3.3l-.131,39.172a3.293,3.293,0,0,1-3.3,3.282l-18.113-.06a3.294,3.294,0,0,1-3.282-3.305l.067-20" transform="translate(-3289.488 -1773.588)" fill="none" stroke="#1676ee" stroke-linecap="round" stroke-linejoin="round" stroke-width="1.439"/>
      <line id="Line_64" data-name="Line 64" y1="0.14" transform="translate(7.377 14.42)" fill="none" stroke="#1676ee" stroke-linecap="round" stroke-linejoin="round" stroke-width="1.439"/>
      <circle id="Ellipse_117" data-name="Ellipse 117" cx="1.112" cy="1.112" r="1.112" transform="translate(18.721 41.987)" stroke-width="1.439" stroke="#1676ee" stroke-linecap="round" stroke-linejoin="round" fill="none"/>
      <line id="Line_65" data-name="Line 65" x2="2.45" y2="0.008" transform="translate(29.43 3.886)" fill="none" stroke="#1676ee" stroke-linecap="round" stroke-linejoin="round" stroke-width="1.439"/>
      <line id="Line_66" data-name="Line 66" x2="17.75" y2="0.059" transform="translate(9.731 3.821)" fill="none" stroke="#1676ee" stroke-linecap="round" stroke-linejoin="round" stroke-width="1.439"/>
      <line id="Line_67" data-name="Line 67" x1="18.667" y1="0.062" transform="translate(7.522 40.357)" fill="none" stroke="#1676ee" stroke-linecap="round" stroke-linejoin="round" stroke-width="1.439"/>
      <line id="Line_68" data-name="Line 68" x1="3.522" y1="0.012" transform="translate(28.236 40.426)" fill="none" stroke="#1676ee" stroke-linecap="round" stroke-linejoin="round" stroke-width="1.439"/>
      <line id="Line_69" data-name="Line 69" x2="2.867" y2="0.01" transform="translate(18.851 1.945)" fill="none" stroke="#1676ee" stroke-linecap="round" stroke-linejoin="round" stroke-width="1.439"/>
      <line id="Line_70" data-name="Line 70" x2="0.19" y2="0.001" transform="translate(16.97 1.938)" fill="none" stroke="#1676ee" stroke-linecap="round" stroke-linejoin="round" stroke-width="1.439"/>
    </g>
    <path id="Path_142" data-name="Path 142" stroke="#91c2ff" d="M3293.6,1789.712a13.511,13.511,0,0,1,14.6-22.038" fill="none" transform="translate(-3289.708 -1766.725)" stroke-linecap="round" stroke-linejoin="round" stroke-width="1.439" stroke-dasharray="0.48 3.359"/>
    <circle id="Ellipse_118" data-name="Ellipse 118" cx="1.777" cy="1.777" r="1.777" transform="translate(1.046 3.344)" stroke-width="1.439" stroke="#91c2ff" stroke-linecap="round" stroke-linejoin="round" fill="#fff"/>
    <path id="Path_143" data-name="Path 143" d="M3313.965,1768.7a9.915,9.915,0,1,1-4.475,8.29,9.871,9.871,0,0,1,4.475-8.29" transform="translate(-3287.513 -1766.685)" fill="#6badff"/>
    <path id="Path_144" data-name="Path 144" d="M3315.6,1767.574c.085-.023.171-.048.256-.073a9.933,9.933,0,0,1,8.755,1.52" transform="translate(-3286.834 -1766.685)" fill="none" stroke="#1676ee" stroke-linecap="round" stroke-linejoin="round" stroke-width="1.439"/>
    <path id="Path_145" data-name="Path 145" d="M3329.208,1775.3a10.068,10.068,0,0,1,.107,1.461,9.912,9.912,0,1,1-16.237-7.634" transform="translate(-3287.513 -1766.458)" fill="none" stroke="#1676ee" stroke-linecap="round" stroke-linejoin="round" stroke-width="1.439"/>
    <path id="Path_146" data-name="Path 146" d="M3325.734,1770.9c.115.162.222.329.327.5" transform="translate(-3285.709 -1766.261)" fill="none" stroke="#1676ee" stroke-linecap="round" stroke-linejoin="round" stroke-width="1.439"/>
    <path id="Path_147" data-name="Path 147" d="M3322.51,1779.338c-1.024.785-2.122,1.473-3.192,2.2a.316.316,0,0,1-.275.033c-2.873-1.794-6.089-3.609-5.183-7.3a2.686,2.686,0,0,1,3.783-1.848,5.434,5.434,0,0,1,1.071.649c.39.291.5.307.871,0,2.068-1.72,4.546-.788,4.928,1.476A4.763,4.763,0,0,1,3322.51,1779.338Z" transform="translate(-3287.045 -1766.121)" fill="#fff" stroke="#1676ee" stroke-linecap="round" stroke-linejoin="round" stroke-width="1.439"/>
    <path id="Path_148" data-name="Path 148" d="M3318.37,1773.083l.065.048a6.424,6.424,0,0,1,1.3,1.316" transform="translate(-3286.527 -1766.019)" fill="#fff" stroke="#1676ee" stroke-linecap="round" stroke-linejoin="round" stroke-width="1.439"/>
  </g>
</svg>
