<svg xmlns="http://www.w3.org/2000/svg" xmlns:xlink="http://www.w3.org/1999/xlink" width="56.573" height="57.677" viewBox="0 0 56.573 57.677">
  <defs>
    <clipPath id="clip-path">
      <rect width="56.574" height="57.677" fill="none"/>
    </clipPath>
    <clipPath id="clip-path-2">
      <path id="Path_128" data-name="Path 128" d="M3332.357,2002c.719.164-.411,1.148-.573,1.867a1.334,1.334,0,0,1-1.6,1c-3.186-.724-10.379-.955-13.961.345a1.329,1.329,0,0,1-1.708-.8c-.252-.692-.295-1.72-.582-2.4-1.555-3.686-2.549-24.22-2.549-24.22s25.323-.288,25.323.288S3331.839,2001.886,3332.357,2002Z" transform="translate(-3311.386 -1977.732)" fill="none"/>
    </clipPath>
  </defs>
  <g id="Piggybank" transform="translate(0)" clip-path="url(#clip-path)">
    <g id="Group_141" data-name="Group 141" transform="translate(0.865 56.613)">
      <line id="Line_43" data-name="Line 43" x1="0.345" stroke-width="1.73" stroke="#91c2ff" stroke-linecap="round" stroke-linejoin="round" fill="none"/>
      <line id="Line_44" data-name="Line 44" x1="8.324" transform="translate(1.709)" fill="none" stroke="#91c2ff" stroke-linecap="round" stroke-linejoin="round" stroke-width="1.73"/>
      <line id="Line_45" data-name="Line 45" x1="0.323" transform="translate(11.504)" fill="none" stroke="#91c2ff" stroke-linecap="round" stroke-linejoin="round" stroke-width="1.73"/>
      <line id="Line_46" data-name="Line 46" x1="25.726" transform="translate(13.657)" fill="none" stroke="#91c2ff" stroke-linecap="round" stroke-linejoin="round" stroke-width="1.73"/>
      <line id="Line_47" data-name="Line 47" x1="10.562" transform="translate(40.837)" fill="none" stroke="#91c2ff" stroke-linecap="round" stroke-linejoin="round" stroke-width="1.73"/>
      <line id="Line_48" data-name="Line 48" x1="0.523" transform="translate(52.743)" fill="none" stroke="#91c2ff" stroke-linecap="round" stroke-linejoin="round" stroke-width="1.73"/>
      <line id="Line_49" data-name="Line 49" x1="0.098" transform="translate(54.746)" fill="none" stroke="#91c2ff" stroke-linecap="round" stroke-linejoin="round" stroke-width="1.73"/>
    </g>
    <path id="Path_110" data-name="Path 110" d="M3348.492,2010.368a5.63,5.63,0,0,0-.048-.77c-.34-2.5-2.432-.732-4.42-1.886a3.615,3.615,0,0,1-1.071-.969c-2.227-2.91-5.059-5.019-2.659-9.816.1-.2.211-.408.331-.618l.005-.008a.694.694,0,0,0-.688-1.008.605.605,0,0,0-.063.009c-4.293.628-3.951,2.426-6.644,2.389-3.431-.043-10.657.005-16.627-.014a12.863,12.863,0,0,0-11.159,19.722,57.466,57.466,0,0,1,6.889,14.941c.184.659.5.812,1.26.831.552.015,1.34-.037,2.489-.014a1.077,1.077,0,0,0,1.154-.869c.34-1.088.714-2.164,1.048-3.252a1.388,1.388,0,0,1,1.524-1.126c2.337.078,4.677.118,7.016.2a2.406,2.406,0,0,1,2.253,1.589c.034.081.066.165.095.25.259.792.53,1.583.774,2.377a1.239,1.239,0,0,0,1.3.99h.055c3.353-.081,3.52.276,3.971-1.287.679-2.351,1.367-4.7,2.029-7.053,1.117-3.971,4.334-2.659,10.607-8.731C3348.683,2015.5,3348.51,2014.491,3348.492,2010.368Zm-11.706-1.173a1.676,1.676,0,0,1-.452-.061,2.008,2.008,0,0,1-1.5-1.919,1.969,1.969,0,0,1,1.92-1.917,1.939,1.939,0,0,1,1.931,1.494,1.757,1.757,0,0,1,.052.429A1.97,1.97,0,0,1,3336.786,2009.194Z" transform="translate(-3295.122 -1976.507)" fill="#fff"/>
    <path id="Path_111" data-name="Path 111" d="M3348.4,2010.216c0-.294-.552-1.914-.584-2.135-1.127-.058-2.062.106-3.516-.052-.2-.022-.245-.313-.368-.469a3.639,3.639,0,0,1-1.071-.97c-2.227-2.908-5.059-5.018-2.659-9.816-3.23.74-3.162,2.237-5.619,2.2-3.431-.043-10.657.007-16.627-.014a12.855,12.855,0,0,0-11.459,19.217c.1.17.2.34.3.507a58.042,58.042,0,0,1,6.71,14.333c.552.014,1.34-.037,2.489-.015a1.076,1.076,0,0,0,1.153-.869c.34-1.088.714-2.164,1.048-3.252a1.388,1.388,0,0,1,1.524-1.125c2.337.078,4.677.119,7.016.2a2.4,2.4,0,0,1,2.253,1.588c.613,1.886.647,2.845,2.167,3.617,3.538,0,3.612.146,4.025-1.287.679-2.35,1.367-4.7,2.028-7.053a4.453,4.453,0,0,1,1.629-2.511c1.387-1.079,3.523-1.713,6.569-4.106a31.067,31.067,0,0,0,2.409-2.112C3348.588,2015.35,3348.417,2014.34,3348.4,2010.216Z" transform="translate(-3295.028 -1976.404)" fill="#ddecfe"/>
    <path id="Path_112" data-name="Path 112" d="M3336.692,2006.568a1.929,1.929,0,0,1-3.309,1.392,1.932,1.932,0,0,1-.594-1.4,1.969,1.969,0,0,1,1.92-1.917,1.937,1.937,0,0,1,1.966,1.7A1.462,1.462,0,0,1,3336.692,2006.568Z" transform="translate(-3293.077 -1975.855)" fill="#fff"/>
    <path id="Path_113" data-name="Path 113" d="M3336.655,2006.493a1.929,1.929,0,0,1-3.309,1.392,1.358,1.358,0,0,1-.018-.247,1.968,1.968,0,0,1,1.921-1.916,1.946,1.946,0,0,1,1.39.543A1.433,1.433,0,0,1,3336.655,2006.493Z" transform="translate(-3293.039 -1975.78)" fill="#ddecfe"/>
    <path id="Path_114" data-name="Path 114" d="M3338.183,2020.1a.344.344,0,0,1,.334.594h0c-1.518,1.176-1.421,1.822-3.657,9.564-.415,1.438-.493,1.287-4.026,1.287-.937-.069-1.708-1.662-2.167-3.617a2.4,2.4,0,0,0-2.253-1.588c-2.339-.083-4.679-.124-7.016-.2a1.388,1.388,0,0,0-1.524,1.125c-.334,1.088-.708,2.164-1.048,3.252a1.076,1.076,0,0,1-1.154.869c-1.149-.022-1.937.029-2.489.015a47.467,47.467,0,0,0-3.585-8.865,1.478,1.478,0,0,1,1.94-2.024C3318.451,2023.77,3329.193,2023.5,3338.183,2020.1Z" transform="translate(-3294.706 -1974.779)" fill="#c4dfff"/>
    <path id="Path_115" data-name="Path 115" d="M3325.033,2028.056c-1.74-.05-3.48-.089-5.219-.147a1.392,1.392,0,0,0-1.526,1.125c-.332,1.089-.708,2.165-1.047,3.253a1.073,1.073,0,0,1-1.154.868c-2.731-.053-3.431.322-3.75-.816a57.491,57.491,0,0,0-6.889-14.94,12.866,12.866,0,0,1,11.16-19.725l.755,0m9.372,30.433-.065,0m12.709-27.873c-.031,2.661,1.934,4.37,3.573,6.508,2.4,3.131,5.524-.582,5.542,3.625.017,4.125.189,5.134-.582,5.879-6.272,6.072-9.49,4.761-10.605,8.731-.662,2.354-1.351,4.7-2.031,7.053-.452,1.564-.618,1.2-3.971,1.288a1.251,1.251,0,0,1-1.353-.99c-.245-.8-.516-1.586-.774-2.379a2.651,2.651,0,0,0-1.017-1.431m-4.028-30.843c3.67-.005,7.061-.013,9.1.014,2.693.035,2.35-1.762,6.644-2.391l.064-.007a.693.693,0,0,1,.686,1.007l0,.008c-.066.117-.129.232-.191.347m-20.948,1.026h.44m15.318,8.381a1.912,1.912,0,0,0-.41,1.153,2,2,0,0,0,1.953,1.979,1.969,1.969,0,0,0,1.95-1.973,1.934,1.934,0,0,0-1.583-1.889" transform="translate(-3295.122 -1976.507)" fill="none" stroke="#1676ee" stroke-linecap="round" stroke-linejoin="round" stroke-width="1.73"/>
    <path id="Path_116" data-name="Path 116" d="M3328.781,2000.671c.673.091,1.279.2,1.8.313a1.334,1.334,0,1,1-.592,2.6c-3.186-.724-10.378-.955-13.961.346a1.333,1.333,0,1,1-.91-2.506,26.1,26.1,0,0,1,8.087-1.083" transform="translate(-3294.37 -1976.155)" fill="#96c5ff" stroke="#1676ee" stroke-linecap="round" stroke-linejoin="round" stroke-width="1.73"/>
    <line id="Line_50" data-name="Line 50" x2="0.065" y2="0.006" transform="translate(30.509 24.145)" fill="#96c5ff" stroke="#1676ee" stroke-linecap="round" stroke-linejoin="round" stroke-width="1.73"/>
    <path id="Path_117" data-name="Path 117" d="M3304.127,2007.346q-1.094-.175-2.179-.4a3.539,3.539,0,0,1-1.262-.444,1.269,1.269,0,0,1-.615-1.125,1.073,1.073,0,0,1,1.18-.886,1.326,1.326,0,0,1,1.081,1.088,1.759,1.759,0,0,1-.511,1.5,2.84,2.84,0,0,1-3.354.345,1.76,1.76,0,0,1-.777-1.7" transform="translate(-3295.526 -1975.866)" fill="none" stroke="#1676ee" stroke-linecap="round" stroke-linejoin="round" stroke-width="1.73"/>
    <g id="Group_146" data-name="Group 146" transform="translate(16.816)">
      <g id="Group_145" data-name="Group 145" clip-path="url(#clip-path-2)">
        <g id="Group_144" data-name="Group 144" transform="translate(3.521 2.892)">
          <g id="Group_143" data-name="Group 143" transform="translate(0 8.58)">
            <circle id="Ellipse_115" data-name="Ellipse 115" cx="8.472" cy="8.472" r="8.472" fill="#fff"/>
            <path id="Path_118" data-name="Path 118" d="M3316.243,1996.649c0-.043,0-.087,0-.13a6.825,6.825,0,0,1,.362-2.2" transform="translate(-3314.569 -1988.047)" fill="none" stroke="#91c2ff" stroke-linecap="round" stroke-linejoin="round" stroke-width="1.73"/>
            <path id="Path_119" data-name="Path 119" d="M3316.747,1998.872a6.625,6.625,0,0,1-.266-.765" transform="translate(-3314.552 -1987.783)" fill="none" stroke="#91c2ff" stroke-linecap="round" stroke-linejoin="round" stroke-width="1.73"/>
            <path id="Path_120" data-name="Path 120" d="M3318.774,2001.455c-.147-.113-.29-.231-.427-.355" transform="translate(-3314.421 -1987.574)" fill="none" stroke="#91c2ff" stroke-linecap="round" stroke-linejoin="round" stroke-width="1.73"/>
            <path id="Path_121" data-name="Path 121" d="M3328.664,1998.942a6.826,6.826,0,0,1-3.837,3.623" transform="translate(-3313.969 -1987.724)" fill="none" stroke="#91c2ff" stroke-linecap="round" stroke-linejoin="round" stroke-width="1.73"/>
            <path id="Path_122" data-name="Path 122" d="M3324.377,1990.273a6.807,6.807,0,0,1,4.669,4.785" transform="translate(-3314.001 -1988.329)" fill="none" stroke="#91c2ff" stroke-linecap="round" stroke-linejoin="round" stroke-width="1.73"/>
            <path id="Path_123" data-name="Path 123" d="M3320.795,1990.293a6.747,6.747,0,0,1,.908-.2" transform="translate(-3314.251 -1988.342)" fill="none" stroke="#91c2ff" stroke-linecap="round" stroke-linejoin="round" stroke-width="1.73"/>
            <g id="Group_142" data-name="Group 142" transform="translate(6.678 4.239)">
              <path id="Path_124" data-name="Path 124" d="M3322.482,2000.92v-.753a3.444,3.444,0,0,1-1.342-.3.381.381,0,0,1-.2-.473l0-.006a.377.377,0,0,1,.512-.216,2.883,2.883,0,0,0,1.187.262c.764,0,1.281-.442,1.281-1.055,0-.592-.42-.957-1.217-1.281-1.1-.431-1.776-.926-1.776-1.863a1.765,1.765,0,0,1,1.626-1.732v-.754a.333.333,0,0,1,.333-.333h0a.332.332,0,0,1,.333.333v.711a3.03,3.03,0,0,1,1.073.215.375.375,0,0,1,.205.483h0a.38.38,0,0,1-.5.214,2.6,2.6,0,0,0-1-.192c-.829,0-1.141.5-1.141.926,0,.56.4.839,1.335,1.226,1.108.453,1.667,1.012,1.667,1.97a1.872,1.872,0,0,1-1.7,1.83v.785a.334.334,0,0,1-.333.334h-.01A.334.334,0,0,1,3322.482,2000.92Z" transform="translate(-3320.92 -1992.419)" fill="#1676ee"/>
            </g>
            <path id="Path_125" data-name="Path 125" d="M3329.958,1991.661a8.472,8.472,0,1,1-15.28,5.044c0-.217.007-.432.023-.645" transform="translate(-3314.677 -1988.232)" fill="none" stroke="#1676ee" stroke-linecap="round" stroke-linejoin="round" stroke-width="1.73"/>
            <path id="Path_126" data-name="Path 126" d="M3327.257,1989.971l.1.077" transform="translate(-3313.8 -1988.35)" fill="none" stroke="#1676ee" stroke-linecap="round" stroke-linejoin="round" stroke-width="1.73"/>
            <path id="Path_127" data-name="Path 127" d="M3316.9,1991.047a8.479,8.479,0,0,1,9.883-1.7" transform="translate(-3314.523 -1988.456)" fill="none" stroke="#1676ee" stroke-linecap="round" stroke-linejoin="round" stroke-width="1.73"/>
          </g>
          <line id="Line_51" data-name="Line 51" y1="1.405" transform="translate(14.644 1.685)" fill="none" stroke="#91c2ff" stroke-linecap="round" stroke-linejoin="round" stroke-width="1.73"/>
          <line id="Line_52" data-name="Line 52" y1="2.697" transform="translate(14.644 5.955)" fill="none" stroke="#91c2ff" stroke-linecap="round" stroke-linejoin="round" stroke-width="1.73"/>
          <line id="Line_53" data-name="Line 53" y1="6.685" transform="translate(12.552)" fill="none" stroke="#91c2ff" stroke-linecap="round" stroke-linejoin="round" stroke-width="1.73"/>
        </g>
      </g>
    </g>
  </g>
</svg>
