<svg xmlns="http://www.w3.org/2000/svg" xmlns:xlink="http://www.w3.org/1999/xlink" width="283.8" height="103.151" viewBox="0 0 283.8 103.151">
  <defs>
    <clipPath id="clip-path">
      <path id="Intersection_3" data-name="Intersection 3" d="M13.992,81.807a20.949,20.949,0,0,1-7.429-3.715A17.02,17.02,0,0,1,1.734,71.9,20.305,20.305,0,0,1,0,63.234,20.8,20.8,0,0,1,2.064,53.41a17.141,17.141,0,0,1,5.325-6.15,20.517,20.517,0,0,1,7.306-3.178,36.45,36.45,0,0,1,8.007-.908H40.285a24.845,24.845,0,0,0-1.4-8.915,15.855,15.855,0,0,0-3.8-5.9,14.49,14.49,0,0,0-5.572-3.3,21.911,21.911,0,0,0-6.81-1.032,30.528,30.528,0,0,0-5.077.454,42.048,42.048,0,0,0-4.416.949v-6.6l.637-.185q1.511-.423,3.738-.93a26.814,26.814,0,0,1,5.944-.619,25.181,25.181,0,0,1,10.649,2.064,20.469,20.469,0,0,1,7.388,5.655A23.587,23.587,0,0,1,45.9,33.144a37.255,37.255,0,0,1,1.486,10.03H65.463V18.244h6.769V50.025H22.619a27.7,27.7,0,0,0-5.366.537,15.423,15.423,0,0,0-4.994,1.9,10.7,10.7,0,0,0-3.715,3.8A12.08,12.08,0,0,0,7.1,62.491,13.532,13.532,0,0,0,8.379,68.6a11.628,11.628,0,0,0,3.509,4.21,15.115,15.115,0,0,0,5.2,2.435,24.483,24.483,0,0,0,6.274.784,46.32,46.32,0,0,0,6.935-.537,31.576,31.576,0,0,0,8.337-2.765l2.724,5.2a21.72,21.72,0,0,1-4.912,2.642A36.521,36.521,0,0,1,31.452,82.1a37.407,37.407,0,0,1-4.458.743l-.88.082q-1.478.125-2.5.125A34.953,34.953,0,0,1,13.992,81.807Zm64.6-21.381A18.3,18.3,0,0,0,84.9,59.56a6.376,6.376,0,0,0,3.385-2.807A11.455,11.455,0,0,0,89.608,51.8l.059-.958q.147-2.715.147-6.348V22.371H96.5V34.093a12.445,12.445,0,0,0,1.527,6.645q1.461,2.328,5.3,2.431l.354,0h2.889q2.724,0,4.623-.165a7.613,7.613,0,0,0,3.013-.784,3.585,3.585,0,0,0,1.61-1.816,8.732,8.732,0,0,0,.5-3.261V22.371h6.769V34.093q0,2.063.165,3.756a7.569,7.569,0,0,0,.784,2.848,4.505,4.505,0,0,0,1.775,1.816,6.328,6.328,0,0,0,3.137.66,50.4,50.4,0,0,1,4.334-9.2,40.944,40.944,0,0,1,6.6-8.42,32.706,32.706,0,0,1,8.709-6.109,23.972,23.972,0,0,1,10.566-2.353q8.338,0,12.919,4.953t4.582,14.034v7.1h19.151V18.244h6.769V50.025h-70.5a16.259,16.259,0,0,1-4.21-.454,8.382,8.382,0,0,1-2.683-1.2,6.168,6.168,0,0,1-1.651-1.734q-.62-.991-1.114-1.981a7.231,7.231,0,0,1-1.981,2.765,8.862,8.862,0,0,1-3.137,1.61,21.59,21.59,0,0,1-4.581.784q-2.683.206-6.315.206h-2.724a7.88,7.88,0,0,1-4.54-1.238A8.462,8.462,0,0,1,96.419,45.9a57.216,57.216,0,0,1-.743,10.03,15.087,15.087,0,0,1-2.683,6.6,10.758,10.758,0,0,1-5.407,3.632,30.067,30.067,0,0,1-9,1.114ZM150.7,25.756a26.075,26.075,0,0,0-6.274,4.458,29.644,29.644,0,0,0-4.912,6.15,39.585,39.585,0,0,0-3.3,6.81h33.68V37.643a22.966,22.966,0,0,0-.619-5.49,11.461,11.461,0,0,0-2.022-4.334,9.187,9.187,0,0,0-3.674-2.807,13.686,13.686,0,0,0-5.489-.991A16.134,16.134,0,0,0,150.7,25.756ZM67.9,65.586a4.385,4.385,0,1,1,3.1,1.279A4.22,4.22,0,0,1,67.9,65.586Zm-10.731,0a4.384,4.384,0,1,1,3.1,1.279A4.22,4.22,0,0,1,57.166,65.586ZM200.474,7.471a4.216,4.216,0,0,1-1.28-3.1,4.216,4.216,0,0,1,1.28-3.1,4.384,4.384,0,0,1,6.191,0,4.216,4.216,0,0,1,1.28,3.1,4.216,4.216,0,0,1-1.28,3.1,4.384,4.384,0,0,1-6.191,0Zm-10.732,0a4.221,4.221,0,0,1-1.28-3.1,4.221,4.221,0,0,1,1.28-3.1,4.385,4.385,0,0,1,6.191,0,4.217,4.217,0,0,1,1.28,3.1,4.217,4.217,0,0,1-1.28,3.1,4.385,4.385,0,0,1-6.191,0Z"/>
    </clipPath>
    <clipPath id="clip-path-2">
      <path id="Intersection_4" data-name="Intersection 4" d="M9.641,86.388A9.6,9.6,0,0,1,0,76.825V9.564A9.6,9.6,0,0,1,9.641,0H53.2a6.644,6.644,0,0,1,6.67,6.616V79.773a6.644,6.644,0,0,1-6.67,6.616Zm-4.5-75.494V75.829a5.182,5.182,0,0,0,5.2,5.16H54.729L13.488,77.931a4.582,4.582,0,0,1-4.259-4.554V13.35a4.583,4.583,0,0,1,4.259-4.556L54.729,5.738H10.346A5.181,5.181,0,0,0,5.144,10.894Zm7.1,32.8a3.4,3.4,0,1,0,3.4-3.373A3.387,3.387,0,0,0,12.248,43.7Zm25.385-3.955a.54.54,0,0,0,.623.117.532.532,0,0,0,.3-.55c-.25-1.98-.675-5.32-.955-7.325,2.047-.176,5.424-.51,7.423-.712a.534.534,0,0,0,.219-.993c-1.723-1.015-4.635-2.73-6.387-3.761,1.394-2.082,2.769-4.132,4.172-6.23a.534.534,0,0,0-.028-.63.544.544,0,0,0-.613-.169c-2.383.894-4.71,1.765-7.053,2.647-.631-1.948-1.683-5.192-2.311-7.121a.541.541,0,0,0-1.028,0c-.627,1.931-1.683,5.186-2.311,7.121l-7.056-2.647a.54.54,0,0,0-.612.166.53.53,0,0,0-.025.629c1.132,1.692,3.038,4.537,4.171,6.233-1.758,1.034-4.664,2.749-6.386,3.761a.534.534,0,0,0,.223.993c2,.2,5.375.536,7.416.712L26.4,39.278a.535.535,0,0,0,.3.553.541.541,0,0,0,.623-.109c1.406-1.427,3.782-3.847,5.189-5.31C33.925,35.88,36.253,38.307,37.633,39.744Z" fill="#c00"/>
    </clipPath>
  </defs>
  <g id="Group_676" data-name="Group 676" transform="translate(-2914.427 -213.46)">
    <g id="Group_730" data-name="Group 730" transform="translate(2990.282 213.46)">
      <g id="Group_729" data-name="Group 729" transform="translate(0 0)" clip-path="url(#clip-path)">
        <rect id="Rectangle_360" data-name="Rectangle 360" width="219.41" height="94.511" transform="translate(-5.732 -5.733)"/>
      </g>
    </g>
    <g id="Group_732" data-name="Group 732" transform="translate(2914.427 230.223)">
      <g id="Group_731" data-name="Group 731" transform="translate(0 0)" clip-path="url(#clip-path-2)">
        <rect id="Rectangle_362" data-name="Rectangle 362" width="68.427" height="94.942" transform="translate(-4.276 -4.276)" fill="#c00"/>
      </g>
    </g>
    <path id="Path_162" data-name="Path 162" d="M3044.451,271.917v1.6H3037.6v18.051h-1.871V273.513H3028.9v-1.6Zm12.355,11.942-3.8-10.071-3.935,10.071Zm-2.669-11.942,7.7,19.647h-2.009l-2.394-6.109H3048.5l-2.367,6.109h-1.981l7.9-19.647Zm10.841,15.712a4.155,4.155,0,0,0,1.362,1.623,5.681,5.681,0,0,0,2.051.867,11.708,11.708,0,0,0,2.531.261,7.159,7.159,0,0,0,1.678-.22,5.843,5.843,0,0,0,1.692-.7,4.325,4.325,0,0,0,1.308-1.238,3.153,3.153,0,0,0,.522-1.83,2.682,2.682,0,0,0-.372-1.431,3.387,3.387,0,0,0-.963-1.018,5.689,5.689,0,0,0-1.308-.674,12.971,12.971,0,0,0-1.4-.426l-4.375-1.073a13.026,13.026,0,0,1-1.664-.55,4.73,4.73,0,0,1-1.418-.88,4.2,4.2,0,0,1-.977-1.348,4.613,4.613,0,0,1-.372-1.954,6.229,6.229,0,0,1,.275-1.679,4.632,4.632,0,0,1,1.032-1.816,6.005,6.005,0,0,1,2.077-1.445,8.329,8.329,0,0,1,3.385-.592,9.879,9.879,0,0,1,2.779.385,6.844,6.844,0,0,1,2.312,1.156,5.568,5.568,0,0,1,2.174,4.568h-1.872a4.563,4.563,0,0,0-.509-1.967,4.41,4.41,0,0,0-1.184-1.4,5.179,5.179,0,0,0-1.678-.853,6.819,6.819,0,0,0-2-.289,8.216,8.216,0,0,0-1.857.206,4.65,4.65,0,0,0-1.568.66,3.409,3.409,0,0,0-1.087,1.2,3.751,3.751,0,0,0-.413,1.844,2.839,2.839,0,0,0,.234,1.2,2.519,2.519,0,0,0,.646.867,3.411,3.411,0,0,0,.949.578,7.229,7.229,0,0,0,1.142.358l4.788,1.183a13.831,13.831,0,0,1,1.967.674,6.517,6.517,0,0,1,1.624.991,4.194,4.194,0,0,1,1.1,1.445,4.871,4.871,0,0,1,.4,2.064,7.679,7.679,0,0,1-.069.881,4.438,4.438,0,0,1-.33,1.169,5.963,5.963,0,0,1-.743,1.252,4.678,4.678,0,0,1-1.321,1.142,7.679,7.679,0,0,1-2.077.826,12.142,12.142,0,0,1-2.972.316,12.378,12.378,0,0,1-3.219-.4,6.933,6.933,0,0,1-2.532-1.225,5.368,5.368,0,0,1-1.609-2.119,6.937,6.937,0,0,1-.482-3.109h1.871a5.542,5.542,0,0,0,.468,2.532Zm24.847-6.384a5.017,5.017,0,0,0,1.624-.261,4.051,4.051,0,0,0,1.349-.757,3.707,3.707,0,0,0,.921-1.2,3.61,3.61,0,0,0,.344-1.61,3.866,3.866,0,0,0-1.046-2.862,4.342,4.342,0,0,0-3.192-1.046h-6.989v7.732Zm.138-9.328a8.53,8.53,0,0,1,2.3.3,5.554,5.554,0,0,1,1.9.922,4.443,4.443,0,0,1,1.293,1.6,5.143,5.143,0,0,1,.481,2.3,5.514,5.514,0,0,1-.963,3.247,4.391,4.391,0,0,1-2.861,1.761v.055a4.358,4.358,0,0,1,1.6.509,3.211,3.211,0,0,1,1.032.949,3.909,3.909,0,0,1,.578,1.335,9.773,9.773,0,0,1,.234,1.637q.027.5.055,1.211t.11,1.445a8.9,8.9,0,0,0,.262,1.376,2.623,2.623,0,0,0,.481,1h-2.064a2.4,2.4,0,0,1-.261-.674,5.826,5.826,0,0,1-.138-.826c-.028-.284-.05-.564-.069-.839s-.036-.514-.055-.715q-.055-1.046-.179-2.077a5.683,5.683,0,0,0-.523-1.844,3.247,3.247,0,0,0-1.156-1.307,3.487,3.487,0,0,0-2.078-.44h-7.1v8.723h-1.871V271.917Zm22.921,0v1.6h-11.695v7.1h10.952v1.6h-10.952v7.76h11.833v1.6h-13.7V271.917Zm16.317,0v1.6h-11.694v7.1h10.952v1.6h-10.952v7.76h11.832v1.6h-13.7V271.917Zm4.623,0v8.53h11.667v-8.53h1.871v19.647h-1.871v-9.521h-11.667v9.521h-1.871V271.917Zm18.188,16.73h2.311v2.917h-2.311v-2.917Zm16.758-16.73v14.171a9.985,9.985,0,0,1-.3,2.614,4.252,4.252,0,0,1-.977,1.816,4.157,4.157,0,0,1-1.761,1.073,8.678,8.678,0,0,1-2.683.358,5.894,5.894,0,0,1-2.752-.564,4.408,4.408,0,0,1-1.678-1.486,5.653,5.653,0,0,1-.826-2.133,13.909,13.909,0,0,1-.22-2.5h1.872q.026.633.082,1.513a5.193,5.193,0,0,0,.386,1.679,3.217,3.217,0,0,0,1.087,1.362,3.666,3.666,0,0,0,2.215.564,4.9,4.9,0,0,0,1.816-.289,2.407,2.407,0,0,0,1.128-.908,4.064,4.064,0,0,0,.578-1.582,13.879,13.879,0,0,0,.165-2.311V271.917Zm5.215,12.974a8.406,8.406,0,0,0,1.32,2.779,6.644,6.644,0,0,0,2.3,1.967,7.925,7.925,0,0,0,6.7,0,6.707,6.707,0,0,0,2.284-1.967,8.5,8.5,0,0,0,1.321-2.779,11.894,11.894,0,0,0,0-6.315,8.523,8.523,0,0,0-1.321-2.766,6.707,6.707,0,0,0-2.284-1.967,7.924,7.924,0,0,0-6.7,0,6.644,6.644,0,0,0-2.3,1.967,8.424,8.424,0,0,0-1.32,2.766,11.894,11.894,0,0,0,0,6.315Zm-1.72-7.031A9.675,9.675,0,0,1,3174,274.6a8.34,8.34,0,0,1,2.9-2.256,10.2,10.2,0,0,1,8.1,0,8.384,8.384,0,0,1,2.889,2.256,9.684,9.684,0,0,1,1.733,3.261,13.308,13.308,0,0,1,0,7.76,9.533,9.533,0,0,1-1.733,3.247,8.46,8.46,0,0,1-2.889,2.243,10.2,10.2,0,0,1-8.1,0,8.415,8.415,0,0,1-2.9-2.243,9.524,9.524,0,0,1-1.733-3.247,13.3,13.3,0,0,1,0-7.76Z" transform="translate(6.819 24.663)"/>
  </g>
</svg>
