<?xml version="1.0" encoding="UTF-8"?>
<svg width="230px" height="63px" viewBox="0 0 230 63" version="1.1" xmlns="http://www.w3.org/2000/svg" xmlns:xlink="http://www.w3.org/1999/xlink">
    <!-- Generator: Sketch 56.3 (81716) - https://sketch.com -->
    <title>logo</title>
    <desc>Created with Sketch.</desc>
    <defs>
        <filter x="-9.3%" y="-42.6%" width="118.6%" height="185.1%" filterUnits="objectBoundingBox" id="filter-1">
            <feOffset dx="0" dy="2" in="SourceAlpha" result="shadowOffsetOuter1"></feOffset>
            <feGaussianBlur stdDeviation="4" in="shadowOffsetOuter1" result="shadowBlurOuter1"></feGaussianBlur>
            <feColorMatrix values="0 0 0 0 1   0 0 0 0 1   0 0 0 0 1  0 0 0 0.5 0" type="matrix" in="shadowBlurOuter1" result="shadowMatrixOuter1"></feColorMatrix>
            <feMerge>
                <feMergeNode in="shadowMatrixOuter1"></feMergeNode>
                <feMergeNode in="SourceGraphic"></feMergeNode>
            </feMerge>
        </filter>
    </defs>
    <g id="Page-1" stroke="none" stroke-width="1" fill="none" fill-rule="evenodd">
        <g id="logo" filter="url(#filter-1)" transform="translate(8.000000, 6.000000)" fill-rule="nonzero">
            <g id="Group_107">
                <path d="M23.389,46.779 C13.4812908,46.7759906 4.65039555,40.5307839 1.34614594,31.1902997 C-1.95810367,21.8498155 0.981268757,11.4408094 8.68313224,5.20831318 C16.3849957,-1.02418309 27.1781526,-1.72780421 35.624,3.452 C36.4523173,3.9471834 36.9502917,4.8496 36.9276165,5.81438081 C36.9049412,6.77916163 36.3651211,7.65718694 35.5144546,8.11290918 C34.6637882,8.56863141 33.6337572,8.53161264 32.818,8.016 C25.9674705,3.81437497 17.1633781,4.65296856 11.2292524,10.0723375 C5.29512676,15.4917064 3.66327298,24.1837911 7.22774069,31.3864279 C10.7922084,38.5890647 18.6926509,42.5637711 26.6006244,41.1329105 C34.5085979,39.7020498 40.5153745,33.2109854 41.33,25.216 C41.4821836,23.7472785 42.7940845,22.6786094 44.2632345,22.8265992 C45.7323845,22.9745889 46.8047948,24.2834335 46.661,25.753 C45.4446084,37.6919668 35.3907724,46.773729 23.39,46.774 L23.389,46.779 Z" id="Path_1" fill="#070FF3"></path>
                <path d="M23.555,34.0220079 C22.7378552,34.0238473 21.9536684,33.6999519 21.376,33.122 L12.966,24.712 C11.7820463,23.5056064 11.7911289,21.5705815 12.9863552,20.3753552 C14.1815815,19.1801289 16.1166064,19.1710463 17.323,20.355 L23.555,26.586 L41.085,9.056 C41.8608237,8.26547177 43.0012791,7.95222498 44.0720563,8.23555069 C45.1428336,8.5188764 45.9791236,9.35516641 46.2624493,10.4259437 C46.545775,11.4967209 46.2325282,12.6371763 45.442,13.413 L25.733,33.122 C25.1555763,33.699706 24.3717985,34.0235811 23.555,34.0220079 L23.555,34.0220079 Z" id="Path_2" fill="#F4D708"></path>
            </g>
            <g id="Group_708" transform="translate(66.184000, 7.617000)">
                <path d="M0.816,15.777 C0.681944033,11.7876494 2.18273083,7.91655599 4.9708413,5.06010207 C7.75895177,2.20364816 11.5925732,0.609573955 15.584,0.647 C23.603,0.647 27.733,5.555 28.879,10.258 L23.562,11.936 C22.862,9.156 20.615,6.087 15.584,6.087 C11.249,6.087 6.665,9.194 6.665,15.78 C6.665,21.957 11.003,25.354 15.665,25.354 C19.4316118,25.5236261 22.8128493,23.0602777 23.806,19.423 L29.082,21.023 C27.977,25.481 23.806,30.88 15.664,30.88 C7.566,30.873 0.816,25.024 0.816,15.777 Z" id="Path_2368" fill="#070FF3"></path>
                <path d="M45.299,15.532 C44.760211,15.4225936 44.2117847,15.3676505 43.662,15.368 C40.882,15.368 38.467,16.719 38.467,21.054 L38.467,30.26 L33.027,30.26 L33.027,10.133 L38.307,10.133 L38.307,13.121 C39.531,10.461 42.315,9.97 44.03,9.97 C44.4541237,9.97562182 44.8776799,10.0029911 45.299,10.052 L45.299,15.532 Z" id="Path_2369" fill="#F4D708"></path>
                <path d="M68.543,20.198 C68.4752535,26.0111323 63.7196376,30.6750786 57.9062879,30.6296781 C52.0929381,30.5842776 47.4107459,25.8466249 47.4337149,20.0331435 C47.4568535,14.2196622 52.176473,9.51929318 57.99,9.52 C60.829548,9.45705013 63.5697426,10.5660345 65.5662406,12.5861809 C67.5627385,14.6063273 68.6393807,17.3593901 68.543,20.198 L68.543,20.198 Z M63.103,20.198 C63.103,16.392 60.647,14.471 57.99,14.471 C55.333,14.471 52.877,16.391 52.877,20.198 C52.877,23.96 55.329,25.921 57.99,25.921 C60.651,25.921 63.103,24.001 63.103,20.198 Z" id="Path_2370" fill="#070FF3"></path>
                <path d="M78.29,30.26 L72.85,30.26 L72.85,10.133 L78.126,10.133 L78.126,12.633 C79.4012079,10.6794644 81.6022167,9.53158978 83.934,9.604 C88.924,9.604 91.216,13.165 91.216,17.582 L91.216,30.263 L85.776,30.263 L85.776,18.523 C85.776,16.272 84.671,14.512 82.055,14.512 C79.681,14.512 78.29,16.354 78.29,18.687 L78.29,30.26 Z" id="Path_2371" fill="#F4D708"></path>
                <path d="M99.454,0.152994088 C101.300866,0.154232642 102.79922,1.64830242 102.805762,3.49515774 C102.812261,5.34201305 101.324494,6.84662559 99.4776828,6.86089908 C97.6308712,6.87517258 96.1200263,5.39373548 96.098,3.547 C96.0862144,2.64988453 96.4347758,1.78553177 97.0656055,1.14755921 C97.6964351,0.509586655 98.5568087,0.151315676 99.454,0.152994088 L99.454,0.152994088 Z M96.754,30.259 L96.754,10.133 L102.198,10.133 L102.198,30.26 L96.754,30.259 Z" id="Path_2372" fill="#070FF3"></path>
                <path d="M111.937,20.198 C111.937,23.837 114.307,25.884 117.091,25.884 C119.235405,25.9651547 121.151971,24.5553052 121.713,22.484 L126.498,24.084 C125.317347,28.2557833 121.422353,31.0676153 117.091,30.875 C114.250745,30.9272181 111.512475,29.8166743 109.51096,27.800809 C107.509445,25.7849437 106.418492,23.0388094 106.491,20.199 C106.3892,17.3790897 107.447855,14.6407286 109.420038,12.6226232 C111.392222,10.6045179 114.105494,9.48312394 116.927,9.52 C122.408,9.52 125.515,12.92 126.375,16.311 L121.508,17.948 C121.03206,15.8914826 119.159016,14.4654821 117.05,14.554 C114.267,14.553 111.937,16.555 111.937,20.198 Z" id="Path_2373" fill="#F4D708"></path>
                <path d="M135.222,18.684 L140.171,17.947 C141.317,17.783 141.685,17.21 141.685,16.515 C141.685,15.082 140.58,13.899 138.291,13.899 C136.325669,13.7407188 134.603784,15.2047908 134.444,17.17 L129.618,16.147 C129.945,12.999 132.848,9.52 138.247,9.52 C144.628,9.52 147.002,13.12 147.002,17.17 L147.002,27.07 C147.008228,28.1388182 147.090435,29.2058413 147.248,30.263 L142.258,30.263 C142.119806,29.4655293 142.052875,28.6573398 142.058,27.848 C140.744579,29.8183284 138.492068,30.9531289 136.127,30.836 C131.833,30.836 129.212995,27.93 129.212995,24.782 C129.209,21.177 131.869,19.175 135.222,18.684 Z M141.685,22.119 L141.685,21.219 L137.145,21.911 C135.759077,21.9339005 134.646992,23.062889 134.645,24.449 C134.649457,25.1172546 134.937015,25.7522912 135.436297,26.1964782 C135.935578,26.6406651 136.599769,26.8523546 137.264,26.779 C139.557,26.781 141.685,25.679 141.685,22.12 L141.685,22.119 Z" id="Path_2374" fill="#070FF3"></path>
            </g>
        </g>
    </g>
</svg>