<svg xmlns="http://www.w3.org/2000/svg" width="213.432" height="46.779" viewBox="0 0 213.432 46.779">
  <g id="Group_183" data-name="Group 183" transform="translate(-773 -323.546)">
    <g id="Group_107" data-name="Group 107" transform="translate(773 323.546)">
      <path id="Path_1" data-name="Path 1" d="M1061.31,527.288a23.389,23.389,0,1,1,12.235-43.327,2.679,2.679,0,1,1-2.806,4.564,18.033,18.033,0,1,0,8.512,17.2,2.679,2.679,0,0,1,5.331.537,23.392,23.392,0,0,1-23.271,21.021Z" transform="translate(-1037.921 -480.509)" fill="#50a0ff"/>
      <path id="Path_2" data-name="Path 2" d="M1094.445,536.8a3.071,3.071,0,0,1-2.179-.9l-8.41-8.41a3.081,3.081,0,0,1,4.357-4.357l6.232,6.231,17.53-17.53a3.081,3.081,0,1,1,4.357,4.357l-19.709,19.709A3.071,3.071,0,0,1,1094.445,536.8Z" transform="translate(-1070.89 -502.778)" fill="#76d6ff"/>
    </g>
    <g id="Group_708" data-name="Group 708" transform="translate(771.184 51.163)">
      <path id="Path_2368" data-name="Path 2368" d="M68.816,295.43A14.639,14.639,0,0,1,83.584,280.3c8.019,0,12.149,4.908,13.295,9.611l-5.317,1.678c-.7-2.78-2.947-5.849-7.978-5.849-4.335,0-8.919,3.107-8.919,9.693,0,6.177,4.338,9.574,9,9.574a8.063,8.063,0,0,0,8.141-5.931l5.276,1.6c-1.105,4.458-5.276,9.857-13.418,9.857C75.566,310.526,68.816,304.677,68.816,295.43Z" transform="translate(0 0.347)" fill="#fff"/>
      <path id="Path_2369" data-name="Path 2369" d="M90.532,288.594a8.2,8.2,0,0,0-1.637-.164c-2.78,0-5.195,1.351-5.195,5.686v9.206H78.26V283.195h5.28v2.988c1.224-2.66,4.008-3.151,5.723-3.151a12.406,12.406,0,0,1,1.269.082Z" transform="translate(22.767 6.938)" fill="#fff"/>
      <path id="Path_2370" data-name="Path 2370" d="M103.593,293.578A10.555,10.555,0,1,1,93.04,282.9,10.33,10.33,0,0,1,103.593,293.578Zm-5.44,0c0-3.806-2.456-5.727-5.113-5.727s-5.113,1.92-5.113,5.727c0,3.762,2.452,5.723,5.113,5.723S98.153,297.381,98.153,293.578Z" transform="translate(32.95 6.62)" fill="#fff"/>
      <path id="Path_2371" data-name="Path 2371" d="M95.376,303.582h-5.44V283.455h5.276v2.5a6.688,6.688,0,0,1,5.808-3.029c4.99,0,7.282,3.561,7.282,7.978v12.681h-5.44v-11.74c0-2.251-1.105-4.011-3.721-4.011-2.374,0-3.765,1.842-3.765,4.175Z" transform="translate(50.914 6.678)" fill="#fff"/>
      <path id="Path_2372" data-name="Path 2372" d="M100.108,280.153a3.354,3.354,0,1,1-3.356,3.394A3.35,3.35,0,0,1,100.108,280.153Zm-2.7,30.106V290.133h5.444v20.127Z" transform="translate(67.346 0)" fill="#fff"/>
      <path id="Path_2373" data-name="Path 2373" d="M105.243,293.578c0,3.639,2.37,5.686,5.154,5.686a4.608,4.608,0,0,0,4.622-3.4l4.785,1.6a9.345,9.345,0,0,1-9.407,6.791,10.412,10.412,0,0,1-10.6-10.676A10.308,10.308,0,0,1,110.233,282.9c5.481,0,8.588,3.4,9.448,6.791l-4.867,1.637a4.387,4.387,0,0,0-4.458-3.394C107.573,287.933,105.243,289.935,105.243,293.578Z" transform="translate(74.694 6.62)" fill="#fff"/>
      <path id="Path_2374" data-name="Path 2374" d="M112.473,292.064l4.949-.737c1.146-.164,1.514-.737,1.514-1.432,0-1.433-1.105-2.616-3.394-2.616a3.572,3.572,0,0,0-3.847,3.271l-4.826-1.023c.327-3.148,3.23-6.627,8.629-6.627,6.381,0,8.755,3.6,8.755,7.65v9.9a22.551,22.551,0,0,0,.246,3.193h-4.99a13.638,13.638,0,0,1-.2-2.415,6.728,6.728,0,0,1-5.931,2.988c-4.294,0-6.914-2.906-6.914-6.054C106.46,294.557,109.12,292.555,112.473,292.064Zm6.463,3.435v-.9l-4.54.692a2.542,2.542,0,0,0-2.5,2.538,2.36,2.36,0,0,0,2.619,2.33C116.808,300.161,118.936,299.059,118.936,295.5Z" transform="translate(90.749 6.62)" fill="#fff"/>
    </g>
  </g>
</svg>
