<svg xmlns="http://www.w3.org/2000/svg" xmlns:xlink="http://www.w3.org/1999/xlink" width="179" height="179" viewBox="0 0 179 179">
  <defs>
    <filter id="Ellipse_368" x="0" y="0" width="179" height="179" filterUnits="userSpaceOnUse">
      <feOffset dy="3" input="SourceAlpha"/>
      <feGaussianBlur stdDeviation="4.5" result="blur"/>
      <feFlood flood-color="#263748" flood-opacity="0.102"/>
      <feComposite operator="in" in2="blur"/>
      <feComposite in="SourceGraphic"/>
    </filter>
  </defs>
  <g id="Verified" transform="translate(-870.5 -127.5)">
    <g transform="matrix(1, 0, 0, 1, 870.5, 127.5)" filter="url(#Ellipse_368)">
      <circle id="Ellipse_368-2" data-name="Ellipse 368" cx="76" cy="76" r="76" transform="translate(13.5 10.5)" fill="#fff"/>
    </g>
    <g id="Group_652" data-name="Group 652" transform="translate(919.588 175.55)">
      <path id="Path_1" data-name="Path 1" d="M1077.716,560.1a39.795,39.795,0,1,1,20.816-73.717,4.558,4.558,0,0,1-4.775,7.766,30.681,30.681,0,1,0,14.482,29.272,4.558,4.558,0,0,1,9.07.913,39.8,39.8,0,0,1-39.593,35.766Z" transform="translate(-1037.921 -480.509)" fill="#50a0ff"/>
      <path id="Path_2" data-name="Path 2" d="M1102.5,554.942a5.226,5.226,0,0,1-3.707-1.535L1084.489,539.1a5.242,5.242,0,0,1,7.413-7.413l10.6,10.6,29.826-29.826a5.242,5.242,0,0,1,7.413,7.413l-33.533,33.532A5.226,5.226,0,0,1,1102.5,554.942Z" transform="translate(-1062.428 -497.062)" fill="#76d6ff"/>
    </g>
  </g>
</svg>
