<svg xmlns="http://www.w3.org/2000/svg" xmlns:xlink="http://www.w3.org/1999/xlink" width="105" height="105" viewBox="0 0 105 105">
  <defs>
    <filter id="Ellipse_368" x="0" y="0" width="105" height="105" filterUnits="userSpaceOnUse">
      <feOffset dy="3" input="SourceAlpha"/>
      <feGaussianBlur stdDeviation="4.5" result="blur"/>
      <feFlood flood-color="#263748" flood-opacity="0.102"/>
      <feComposite operator="in" in2="blur"/>
      <feComposite in="SourceGraphic"/>
    </filter>
  </defs>
  <g id="Group_724" data-name="Group 724" transform="translate(-103.267 -92.267)">
    <g transform="matrix(1, 0, 0, 1, 103.27, 92.27)" filter="url(#Ellipse_368)">
      <circle id="Ellipse_368-2" data-name="Ellipse 368" cx="39" cy="39" r="39" transform="translate(13.5 10.5)" fill="#4bdf69"/>
    </g>
    <g id="Group_652" data-name="Group 652" transform="translate(139.951 129.268)">
      <path id="Path_2" data-name="Path 2" d="M1098.31,547.024a4.044,4.044,0,0,1-2.869-1.188l-10.3-10.3a4.056,4.056,0,0,1,5.737-5.736l7.431,7.43,16.117-16.116a4.056,4.056,0,0,1,5.736,5.737l-18.985,18.985A4.044,4.044,0,0,1,1098.31,547.024Z" transform="translate(-1083.954 -519.926)" fill="#fff"/>
    </g>
  </g>
</svg>
