<svg id="Calendar-grey" xmlns="http://www.w3.org/2000/svg" width="20.266" height="22.5" viewBox="0 0 20.266 22.5">
  <path id="Path_17" data-name="Path 17" d="M1105.135,2273.443c.819.039,2.318,0,6.364.024.278,0,.378-.057.362-.354-.027-.517,0-1.037-.01-1.556-.005-.26.091-.357.357-.349q.8.025,1.594,0c.255-.008.331.09.325.332-.012.519.009,1.038-.008,1.556-.009.274.066.384.361.372.568-.023,1.138-.011,1.708-.006a2.336,2.336,0,0,1,2.447,2.538q0,7.609,0,15.218a2.258,2.258,0,0,1-1.309,2.251,2.731,2.731,0,0,1-1.1.227q-7.722.022-15.445.007a2.251,2.251,0,0,1-2.407-2.43q-.006-7.7,0-15.408a2.268,2.268,0,0,1,2.367-2.4c.594-.009,1.189-.015,1.783,0,.273.009.35-.083.341-.346-.017-.518,0-1.037-.009-1.556-.006-.252.064-.368.342-.358,1.724.059,1.952-.168,1.941.355C1105.126,2272.179,1105.135,2272.8,1105.135,2273.443Zm-4.118,4.513c-.317,0-.412.1-.412.411q.012,6.337,0,12.676c0,.337.113.431.44.431q7.457-.012,14.915,0c.34,0,.427-.115.427-.44q-.013-6.319,0-12.638c0-.361-.117-.442-.457-.44C1113.687,2277.967,1103.338,2277.967,1101.016,2277.957Z" transform="translate(-1098.37 -2271.207)" fill="#caccd4"/>
  <path id="Path_18" data-name="Path 18" d="M1216.887,2463.919c-.009-.224.078-.32.308-.316.542.008,1.085.006,1.627,0,.217,0,.322.071.317.308-.012.555-.013,1.111,0,1.665.011.44-.163.264-1.938.307-.254.006-.333-.093-.316-.337C1216.9,2465.374,1216.892,2464.065,1216.887,2463.919Z" transform="translate(-1207.887 -2448.998)" fill="#caccd4"/>
  <path id="Path_19" data-name="Path 19" d="M1159.764,2465.481c.017.269-.071.394-.36.386-.529-.015-1.058-.011-1.587,0-.246,0-.336-.1-.333-.338q.012-.794,0-1.588c0-.259.106-.359.363-.354.516.011,1.033.012,1.55,0,.284-.007.383.113.367.385C1159.756,2464.112,1159.755,2465.325,1159.764,2465.481Z" transform="translate(-1152.996 -2448.98)" fill="#caccd4"/>
  <path id="Path_20" data-name="Path 20" d="M1278.238,2464.8c0,1.431.236,1.038-1.915,1.1-.265.008-.361-.1-.357-.359.008-.531.006-1.062,0-1.593,0-.218.082-.328.311-.326q.834.007,1.669,0c.212,0,.294.1.291.3,0,.291,0,.582,0,.872Z" transform="translate(-1262.484 -2449.02)" fill="#caccd4"/>
  <path id="Path_21" data-name="Path 21" d="M1217.23,2407.393v-2.171h2.2v2.171Z" transform="translate(-1208.207 -2395.049)" fill="#caccd4"/>
  <path id="Path_22" data-name="Path 22" d="M1159.76,2405c0,.689.011,1.32-.012,1.949a.379.379,0,0,1-.265.257c-.58.024-1.161.023-1.741,0a.348.348,0,0,1-.243-.238c-.022-.58-.017-1.161-.005-1.741,0-.077.088-.216.137-.218C1158.332,2404.993,1159.034,2405,1159.76,2405Z" transform="translate(-1152.996 -2394.841)" fill="#caccd4"/>
  <path id="Path_23" data-name="Path 23" d="M1278.216,2404.939c0,.691.009,1.333-.011,1.975a.346.346,0,0,1-.242.235c-.581.021-1.164.023-1.744,0a.383.383,0,0,1-.257-.271c-.025-.555-.021-1.113,0-1.669,0-.092.119-.256.187-.257C1276.823,2404.932,1277.5,2404.939,1278.216,2404.939Z" transform="translate(-1262.464 -2394.786)" fill="#caccd4"/>
</svg>
