<svg id="Calendar" xmlns="http://www.w3.org/2000/svg" width="19.663" height="21.83" viewBox="0 0 19.663 21.83">
  <path id="Path_17" data-name="Path 17" d="M1104.933,2273.376c.794.037,2.25,0,6.175.023.27,0,.366-.055.351-.343-.026-.5,0-1.006-.01-1.509-.005-.252.089-.347.347-.339q.772.024,1.546,0c.247-.007.321.087.316.322-.012.5.008,1.007-.008,1.509-.009.266.064.372.351.361.552-.022,1.1-.011,1.657-.006a2.267,2.267,0,0,1,2.375,2.463q0,7.382,0,14.764a2.191,2.191,0,0,1-1.27,2.184,2.648,2.648,0,0,1-1.068.22q-7.492.021-14.985.007a2.184,2.184,0,0,1-2.335-2.358q-.005-7.474,0-14.949a2.2,2.2,0,0,1,2.3-2.331c.577-.009,1.154-.015,1.73,0,.265.009.339-.081.331-.335-.017-.5,0-1.006-.008-1.509-.006-.245.063-.357.332-.347,1.673.058,1.893-.163,1.883.345C1104.925,2272.15,1104.933,2272.749,1104.933,2273.376Zm-4,4.379c-.307,0-.4.094-.4.4q.012,6.149,0,12.3c0,.327.11.419.427.418q7.235-.012,14.471,0c.33,0,.415-.112.414-.427q-.013-6.131,0-12.262c0-.351-.114-.429-.443-.427C1113.231,2277.766,1103.19,2277.765,1100.938,2277.755Z" transform="translate(-1098.37 -2271.207)" fill="#1ca3ff"/>
  <path id="Path_18" data-name="Path 18" d="M1216.887,2463.91c-.008-.218.076-.311.3-.307.526.008,1.053.006,1.579,0,.211,0,.312.069.308.3-.011.538-.013,1.078,0,1.616.011.427-.158.256-1.88.3-.246.006-.323-.09-.307-.327C1216.9,2465.321,1216.892,2464.051,1216.887,2463.91Z" transform="translate(-1208.155 -2449.433)" fill="#1ca3ff"/>
  <path id="Path_19" data-name="Path 19" d="M1159.7,2465.424c.016.261-.069.383-.35.375-.513-.014-1.027-.01-1.54,0-.239,0-.326-.1-.323-.328q.012-.771,0-1.541c0-.251.1-.349.352-.344.5.01,1,.012,1.5,0,.275-.007.371.11.356.373C1159.688,2464.1,1159.687,2465.273,1159.7,2465.424Z" transform="translate(-1153.13 -2449.415)" fill="#1ca3ff"/>
  <path id="Path_20" data-name="Path 20" d="M1278.17,2464.768c0,1.389.229,1.007-1.858,1.07-.257.008-.351-.1-.347-.349.008-.515.006-1.031,0-1.546,0-.212.08-.319.3-.317q.81.007,1.619,0c.205,0,.285.1.282.294,0,.282,0,.564,0,.846Z" transform="translate(-1262.885 -2449.455)" fill="#1ca3ff"/>
  <path id="Path_21" data-name="Path 21" d="M1217.23,2407.329v-2.107h2.135v2.107Z" transform="translate(-1208.476 -2395.352)" fill="#1ca3ff"/>
  <path id="Path_22" data-name="Path 22" d="M1159.692,2405c0,.669.011,1.28-.012,1.891a.368.368,0,0,1-.257.25c-.562.023-1.127.022-1.689,0a.338.338,0,0,1-.236-.231c-.021-.563-.016-1.126-.005-1.689,0-.074.085-.21.133-.211C1158.307,2404.993,1158.988,2405,1159.692,2405Z" transform="translate(-1153.13 -2395.143)" fill="#1ca3ff"/>
  <path id="Path_23" data-name="Path 23" d="M1278.148,2404.939c0,.67.009,1.294-.011,1.916a.336.336,0,0,1-.235.229c-.564.021-1.129.023-1.692,0a.371.371,0,0,1-.249-.263c-.025-.539-.021-1.08,0-1.619,0-.089.116-.248.181-.25C1276.8,2404.932,1277.455,2404.939,1278.148,2404.939Z" transform="translate(-1262.865 -2395.088)" fill="#1ca3ff"/>
</svg>
