<svg xmlns="http://www.w3.org/2000/svg" width="13.329" height="13" viewBox="0 0 13.329 13">
  <g id="Edit" transform="translate(-2215.589 -266.898)">
    <path id="Path_20" data-name="Path 20" d="M2223.021,279.591l.01.009,6.929-6.927-2.747-2.747-6.93,6.927.01.01Z" transform="translate(-3.223 -2.078)" fill="#1ca3ff"/>
    <path id="Path_21" data-name="Path 21" d="M2245.534,267.061l2.543,2.543A1.941,1.941,0,0,0,2245.534,267.061Z" transform="translate(-20.554)" fill="#1ca3ff"/>
    <path id="Path_22" data-name="Path 22" d="M2228.133,297.809h-9.521c.06-.015.119-.034.177-.053l-2.48-2.48a1.366,1.366,0,0,0-.062.2l-.586,2.314a.5.5,0,0,0,.058.377.774.774,0,0,0-.129.429.784.784,0,0,0,.784.784h11.76a.784.784,0,1,0,0-1.568Z" transform="translate(0 -19.479)" fill="#1ca3ff"/>
  </g>
</svg>
