<svg xmlns="http://www.w3.org/2000/svg" width="18.021" height="18.063" viewBox="0 0 18.021 18.063">
  <g id="Group_247" data-name="Group 247" transform="translate(-2387.63 -844.053)">
    <rect id="Rectangle_8" data-name="Rectangle 8" width="8.518" height="8.518" rx="2" transform="translate(2387.63 844.054)" fill="#fff"/>
    <path id="Path_8" data-name="Path 8" d="M2417.815,852.571h4.332a2.094,2.094,0,0,0,2.093-2.093v-4.332a2.094,2.094,0,0,0-2.093-2.093h-4.332a2.094,2.094,0,0,0-2.093,2.093v4.332A2.094,2.094,0,0,0,2417.815,852.571Zm-.906-6.425a.908.908,0,0,1,.906-.906h4.332a.908.908,0,0,1,.906.906v4.332a.906.906,0,0,1-.906.906h-4.332a.906.906,0,0,1-.906-.906Z" transform="translate(-18.589)" fill="#fff"/>
    <rect id="Rectangle_9" data-name="Rectangle 9" width="8.518" height="8.518" rx="2" transform="translate(2387.63 853.598)" fill="#fff"/>
    <rect id="Rectangle_10" data-name="Rectangle 10" width="8.518" height="8.518" rx="2" transform="translate(2397.133 853.598)" fill="#fff"/>
    <path id="Path_9" data-name="Path 9" d="M2422.662,853.236h.931v.931a.553.553,0,0,0,1.106,0v-.931h.931a.553.553,0,0,0,0-1.106h-.931V851.2a.553.553,0,1,0-1.106,0v.931h-.931a.553.553,0,1,0,0,1.106Z" transform="translate(-22.815 -4.363)" fill="#fff"/>
  </g>
</svg>
