<svg xmlns="http://www.w3.org/2000/svg" xmlns:xlink="http://www.w3.org/1999/xlink" width="1938" height="86" viewBox="0 0 1938 86">
  <defs>
    <linearGradient id="linear-gradient" x1="0.014" y1="0.135" x2="1.171" y2="1.177" gradientUnits="objectBoundingBox">
      <stop offset="0" stop-color="#041865"/>
      <stop offset="1" stop-color="#50a0ff"/>
    </linearGradient>
    <linearGradient id="linear-gradient-2" x1="-0.046" y1="0.817" x2="1.085" y2="0.718" xlink:href="#linear-gradient"/>
    <clipPath id="clip-path">
      <rect id="Rectangle_128" data-name="Rectangle 128" width="1938" height="86" transform="translate(-9)" fill="url(#linear-gradient)"/>
    </clipPath>
  </defs>
  <g id="header-bg" transform="translate(9)">
    <rect id="Rectangle_45" data-name="Rectangle 45" width="1938" height="86" transform="translate(-9)" fill="url(#linear-gradient-2)"/>
    <g id="Mask_Group_2" data-name="Mask Group 2" clip-path="url(#clip-path)">
      <path id="Shape_536" data-name="Shape 536" d="M2743.384,4598.76c-134.745-2.327-252.818-37.472-350.941-104.456l1.224-1.793c116.2,79.329,245.594,104.4,362.655,104.4,132.539,0,249.278-32.115,313.385-53.986,176.164-60.1,292.84-30.643,365.274-3.257l-.768,2.029c-72.122-27.27-188.3-56.594-363.8,3.281-72.9,24.874-185.3,53.9-312.666,53.9Q2750.593,4598.884,2743.384,4598.76Zm0-20.08c-63.246-1.31-123.68-11.515-179.621-30.332a542.46,542.46,0,0,1-171.393-95.069l1.377-1.678c247.719,202.99,555.2,109.939,675.9,60.509,176.222-72.166,292.937-36.794,365.4-3.909l-.9,1.976c-72.094-32.718-188.233-67.908-363.68,3.941-72.917,29.861-185.331,64.71-312.726,64.712Q2750.591,4578.831,2743.382,4578.68Zm0-20.078c-63.263-1.532-123.711-13.442-179.667-35.4-62.33-24.464-120-61.79-171.4-110.943l1.5-1.567c247.682,236.834,555.105,128.274,675.784,70.606,176.277-84.236,293.031-42.945,365.516-4.559l-1.015,1.917c-72.071-38.167-188.17-79.214-363.566,4.6-72.927,34.85-185.36,75.522-312.781,75.522Q2750.59,4558.775,2743.377,4558.6Zm0-20.08c-63.278-1.749-123.743-15.366-179.71-40.476-62.335-27.963-120.005-70.628-171.406-126.808l1.6-1.464c247.653,270.674,555.025,146.61,675.682,80.707,176.322-96.31,293.112-49.1,365.621-5.21l-1.125,1.855c-72.048-43.611-188.114-90.516-363.458,5.259-50,27.31-101.644,48.587-153.505,63.244-54.268,15.337-107.877,23.088-159.563,23.088Q2750.412,4538.717,2743.373,4538.522Zm0-20.078a425.332,425.332,0,0,1-179.753-45.55c-62.337-31.463-120.005-79.466-171.4-142.673l1.684-1.367c247.631,304.516,554.955,164.953,675.592,90.814,176.371-108.392,293.191-55.257,365.719-5.862l-1.222,1.792c-72.03-49.056-188.061-101.813-363.361,5.917-50,30.729-101.652,54.672-153.52,71.165-54.278,17.259-107.9,25.981-159.6,25.984Q2750.409,4518.664,2743.37,4518.444Zm0-20.081c-63.311-2.188-123.8-19.22-179.791-50.625-62.336-34.963-120-88.3-171.4-158.529l1.753-1.282c116.143,158.709,245.461,208.874,362.44,208.874,132.414,0,249.031-64.213,313.074-107.947,40.392-27.585,80.045-47.3,117.856-58.606,33.821-10.11,67.183-13.78,99.157-10.915,50.726,4.551,98.006,24.572,148.793,63.007l-1.31,1.728c-72.012-54.5-188.015-113.108-363.273,6.577-50,34.148-101.659,60.756-153.532,79.084-54.287,19.183-107.919,28.875-159.629,28.878Q2750.408,4498.608,2743.366,4498.363Zm-47.39-25c-115.365-19.769-217.587-95.525-303.824-225.162l1.807-1.2c85.893,129.12,187.631,204.559,302.383,224.225,116.785,20.012,249.271-20.183,373.063-113.184,40.395-30.348,80.052-52.041,117.868-64.477,33.835-11.125,67.207-15.168,99.2-12.011,50.741,5.008,98.029,27.034,148.822,69.321l-1.389,1.667c-72-59.94-187.974-124.4-363.193,7.234-57.289,43.037-116.362,75-175.581,95.01-46.837,15.824-92.9,23.763-137.586,23.763A364.031,364.031,0,0,1,2695.977,4473.365Zm5.349-19.571c-117.576-19.977-221.6-102.944-309.2-246.595l1.852-1.13c87.25,143.092,190.778,225.719,307.707,245.586,115.3,19.588,245.884-24.6,367.682-124.426,40.4-33.109,80.056-56.779,117.877-70.346,33.847-12.144,67.233-16.552,99.233-13.108,27.675,2.979,55.311,11.97,82.137,26.721,21.924,12.056,43.746,28.056,66.709,48.913l-1.458,1.606c-71.981-65.378-187.939-135.692-363.122,7.892-56.46,46.273-114.692,80.836-173.084,102.727-47.7,17.881-94.626,26.858-140.126,26.861A335.107,335.107,0,0,1,2701.325,4453.794Zm4.833-19.6c-119.575-20.032-225.236-110.2-314.048-268l1.892-1.063c88.473,157.2,193.618,247,312.515,266.922,146.056,24.469,277.923-60.256,362.822-135.642,40.4-35.869,80.057-61.513,117.882-76.215,33.856-13.158,67.254-17.937,99.268-14.2,27.687,3.23,55.33,12.972,82.162,28.956,21.925,13.062,43.745,30.4,66.709,52.992l-1.523,1.547c-71.967-70.818-187.9-146.983-363.058,8.548-55.709,49.467-113.183,86.6-170.826,110.37-48.479,19.99-96.184,30.031-142.423,30.031A310.329,310.329,0,0,1,2706.158,4434.2Zm4.353-19.629C2589.132,4394.6,2482,4297.243,2392.095,4125.2l1.922-1c89.574,171.4,196.177,268.377,316.847,288.229,144.5,23.773,274.681-66.721,358.443-146.825,36.833-35.222,73.1-61.33,107.787-77.6,31.447-14.748,62.518-21.842,92.361-21.071,31.233.8,62.288,10.286,92.3,28.189,24.226,14.452,48.311,34.521,73.631,61.355l-1.577,1.488c-55.844-59.181-108.087-87.419-164.411-88.864-62.081-1.6-128.878,31.4-198.591,98.071-55.035,52.629-111.825,92.316-168.795,117.956-49.173,22.132-97.593,33.256-144.489,33.258A289.057,289.057,0,0,1,2710.511,4414.567Zm3.912-19.667c-123-19.81-231.452-124.343-322.343-310.693l1.951-.951c90.561,185.679,198.473,289.811,320.739,309.5,143.093,23.043,271.766-73.186,354.511-157.972,36.769-37.674,72.971-65.618,107.6-83.054,31.41-15.813,62.453-23.447,92.264-22.682,31.309.8,62.433,10.942,92.511,30.14,24.265,15.49,48.389,37.018,73.751,65.816l-1.629,1.434c-55.938-63.52-108.27-93.776-164.691-95.222-61.984-1.592-128.66,33.77-198.258,105.082-54.429,55.773-110.607,98-166.969,125.5-49.8,24.306-98.854,36.526-146.348,36.526A270.413,270.413,0,0,1,2714.423,4394.9Zm3.515-19.705c-124.461-19.578-234.1-131.273-325.869-331.981l1.974-.9c91.449,200,200.536,311.28,324.232,330.74,141.822,22.313,269.146-79.632,350.983-169.081,36.706-40.121,72.854-69.9,107.435-88.5,31.375-16.88,62.391-25.059,92.172-24.3,31.38.8,62.57,11.594,92.707,32.086,24.3,16.527,48.464,39.516,73.862,70.28l-1.671,1.382c-56.029-67.865-108.444-100.143-164.952-101.58q-1.859-.045-3.721-.047c-60.808,0-126.131,37.709-194.231,112.143-53.887,58.9-109.511,103.649-165.328,133.013-50.365,26.5-99.988,39.825-148.015,39.827A254.1,254.1,0,0,1,2717.938,4375.195Zm3.156-19.74c-59.379-9.111-116.148-40.956-168.727-94.653-58.05-59.284-111.985-146.282-160.309-258.577l1.994-.859c48.217,112.05,102,198.825,159.865,257.917,52.246,53.355,108.6,84.99,167.506,94.027,140.674,21.582,266.788-86.057,347.813-180.156,36.65-42.565,72.745-74.172,107.279-93.945,31.344-17.947,62.333-26.67,92.088-25.918,31.446.791,62.7,12.241,92.889,34.029,24.337,17.565,48.531,42.014,73.964,74.747l-1.714,1.331c-56.111-72.215-108.6-106.513-165.192-107.937-61.766-1.549-128.275,38.519-197.669,119.108-53.4,62.017-108.528,109.287-163.855,140.5-50.87,28.7-101,43.149-149.513,43.149A239.886,239.886,0,0,1,2721.094,4355.455Zm2.836-19.775c-59.9-8.952-117.161-42.315-170.184-99.162-58.586-62.812-112.988-155.43-161.7-275.282l2.011-.816c48.609,119.605,102.868,212,161.274,274.619,52.679,56.48,109.512,89.619,168.918,98.5,139.636,20.865,264.667-92.457,344.964-191.2,36.6-45,72.642-78.443,107.131-99.384,31.315-19.012,62.244-28.276,92.013-27.54,31.507.783,62.816,12.884,93.057,35.969,24.367,18.6,48.592,44.513,74.055,79.214l-1.749,1.282c-56.189-76.571-108.752-112.888-165.417-114.3-61.688-1.547-128.1,40.9-197.407,126.125-52.96,65.125-107.643,114.911-162.53,147.973-51.324,30.917-101.92,46.486-150.86,46.486A227.082,227.082,0,0,1,2723.93,4335.68Zm2.552-19.806c-60.375-8.78-118.073-43.65-171.493-103.64-59.068-66.334-113.893-164.572-162.946-291.983l2.024-.781c48.961,127.168,103.647,225.183,162.542,291.322,53.071,59.6,110.33,94.231,170.186,102.936,138.712,20.17,262.76-98.828,342.4-202.21,36.551-47.444,72.55-82.709,107-104.817,31.289-20.082,62.249-29.9,91.943-29.167,31.564.772,62.924,13.526,93.211,37.908,24.4,19.639,48.647,47.011,74.14,83.68l-1.783,1.238c-56.26-80.929-108.887-119.268-165.622-120.657-61.65-1.514-127.946,43.289-197.168,133.141-52.565,68.233-106.847,120.53-161.337,155.436-51.729,33.138-102.745,49.832-152.071,49.833A215.117,215.117,0,0,1,2726.483,4315.874Zm2.3-19.834c-60.8-8.6-118.9-44.971-172.672-108.1-59.5-69.85-114.706-173.7-164.073-308.676l2.039-.747c49.278,134.731,104.348,238.361,163.685,308.016,53.423,62.712,111.066,98.832,171.327,107.356,137.871,19.514,261.039-105.171,340.1-213.193,36.507-49.882,72.463-86.976,106.871-110.25,31.264-21.148,62.2-31.5,91.881-30.794,31.616.761,63.026,14.165,93.353,39.843,24.423,20.676,48.7,49.511,74.216,88.149l-1.81,1.2c-56.327-85.292-109.014-125.653-165.811-127.02-29.213-.716-59.729,9.532-90.614,30.421-34.2,23.136-69.979,60.055-106.334,109.735-52.212,71.342-106.132,126.146-160.263,162.892-52.1,35.362-103.488,53.183-153.163,53.185A204.417,204.417,0,0,1,2728.781,4296.04Zm2.074-19.859c-61.185-8.417-119.638-46.283-173.738-112.542-59.9-73.361-115.44-182.826-165.087-325.357l2.05-.714c49.563,142.29,104.982,251.535,164.718,324.7,53.742,65.821,111.729,103.424,172.352,111.764,57.6,7.925,117.9-10.355,179.24-54.333,53.607-38.436,107.026-95.572,158.778-169.822,36.465-52.317,72.382-91.236,106.755-115.677,31.241-22.217,62.158-33.123,91.822-32.424,31.666.749,63.119,14.8,93.487,41.778,24.444,21.712,48.743,52.007,74.283,92.616l-1.836,1.157c-56.388-89.655-109.13-132.037-165.983-133.381-29.227-.7-59.664,10.083-90.516,32.021-34.17,24.3-69.91,63.04-106.232,115.151-51.892,74.452-105.486,131.763-159.293,170.343C2859.23,4259.05,2807.5,4278,2757.508,4278A195.075,195.075,0,0,1,2730.855,4276.181Zm1.875-19.88c-61.532-8.233-120.309-47.59-174.7-116.979-60.251-76.866-116.1-191.939-166-342.023l2.06-.685c49.822,149.847,105.554,264.7,165.652,341.369,54.031,68.929,112.33,108.013,173.279,116.167,57.3,7.667,117.256-11.792,178.221-57.83,53.32-40.265,106.451-99.906,157.916-177.266,36.427-54.752,72.309-95.5,106.647-121.106,31.22-23.283,62.065-34.738,91.773-34.052,31.71.736,63.2,15.442,93.607,43.71,24.466,22.749,48.784,54.507,74.347,97.085l-1.86,1.117c-56.444-94.018-109.239-138.424-166.145-139.744-29.174-.68-59.6,10.636-90.424,33.622-34.14,25.459-69.848,66.024-106.137,120.569-51.6,77.564-104.9,137.382-158.416,177.795-52.722,39.814-104.759,59.9-155.037,59.9A186.655,186.655,0,0,1,2732.73,4256.3Zm1.7-19.9c-61.845-8.045-120.917-48.893-175.572-121.407-60.573-80.369-116.7-201.045-166.834-358.673l2.068-.658c50.055,157.4,106.074,277.854,166.5,358.025,54.289,72.032,112.872,112.6,174.117,120.563,57.025,7.418,116.668-13.209,177.3-61.3,53.059-42.093,105.927-104.238,157.138-184.712,36.391-57.187,72.24-99.759,106.547-126.532,31.2-24.351,62.073-36.36,91.725-35.681,31.754.721,63.286,16.078,93.72,45.642,24.486,23.786,48.823,57,74.406,101.554l-1.882,1.081c-56.5-98.386-109.337-144.813-166.291-146.108-29.163-.662-59.545,11.188-90.343,35.222-34.112,26.621-69.792,69.01-106.049,125.986-51.342,80.68-104.374,143.005-157.623,185.249-52.994,42.04-105.3,63.248-155.844,63.248A178.463,178.463,0,0,1,2734.428,4236.4Zm1.541-19.916c-62.133-7.862-121.469-50.2-176.362-125.837-60.866-83.868-117.251-210.14-167.589-375.309l2.075-.633c50.268,164.939,106.546,291,167.27,374.667,54.526,75.132,113.365,117.175,174.878,124.959,56.766,7.183,116.133-14.606,176.456-64.758,52.825-43.917,105.457-108.571,156.435-192.165,36.358-59.622,72.174-104.018,106.452-131.957,31.184-25.418,62.022-37.973,91.683-37.311,31.795.707,63.36,16.714,93.823,47.573,24.5,24.823,48.858,59.5,74.458,106.021l-1.9,1.047c-25.5-46.341-49.741-80.865-74.1-105.544-30.477-30.873-60.678-46.223-92.328-46.928-29.119-.647-59.49,11.74-90.263,36.823-34.088,27.785-69.742,71.995-105.972,131.406-51.1,83.8-103.891,148.632-156.9,192.7-53.236,44.262-105.8,66.6-156.576,66.6A171.49,171.49,0,0,1,2735.969,4216.484Zm1.4-19.933c-62.394-7.681-121.971-51.508-177.082-130.266-61.131-87.364-117.746-219.226-168.274-391.926l2.083-.61c50.462,172.474,106.974,304.124,167.97,391.293,54.741,78.233,113.812,121.755,175.567,129.355,56.536,6.96,115.649-15.984,175.7-68.191,52.609-45.742,105.025-112.9,155.792-199.621,36.329-62.055,72.116-108.277,106.368-137.382,31.167-26.484,61.984-39.59,91.644-38.939,16.665.363,33.347,5.079,49.581,14.013,14.827,8.16,29.745,20.1,44.339,35.493,24.519,25.857,48.889,62,74.5,110.487l-1.918,1.014c-25.522-48.313-49.782-84.3-74.161-110.009-30.5-32.166-60.723-48.138-92.392-48.827-29.133-.646-59.442,12.291-90.192,38.422-34.065,28.947-69.7,74.982-105.9,136.825-50.888,86.921-103.455,154.266-156.243,200.162-53.456,46.478-106.257,69.939-157.243,69.942A164.775,164.775,0,0,1,2737.37,4196.552Zm1.276-19.946c-62.63-7.5-122.43-52.82-177.737-134.7-61.373-90.857-118.2-228.306-168.9-408.53l2.089-.587c50.636,180,107.364,317.239,168.609,407.9,54.938,81.332,114.219,126.334,176.2,133.756,56.33,6.746,115.2-17.345,175-71.608,52.415-47.564,104.636-117.237,155.211-207.083,36.3-64.489,72.063-112.536,106.29-142.806,31.152-27.552,61.971-41.193,91.608-40.568,16.685.357,33.386,5.245,49.636,14.532,14.839,8.479,29.766,20.9,44.372,36.9,24.533,26.893,48.917,64.5,74.548,114.954l-1.935.982c-25.54-50.282-49.817-87.727-74.216-114.473-30.522-33.46-60.763-50.054-92.45-50.729-29.108-.629-59.4,12.845-90.127,40.023-34.044,30.11-69.652,77.969-105.834,142.246-50.69,90.048-103.057,159.9-155.644,207.625-53.659,48.693-106.666,73.277-157.851,73.28A158.49,158.49,0,0,1,2738.646,4176.606Zm1.164-19.958c-62.847-7.326-122.847-54.136-178.333-139.129-61.594-94.349-118.612-237.377-169.469-425.115l2.094-.567c50.8,187.519,107.722,330.338,169.192,424.5,55.117,84.429,114.591,130.913,176.768,138.161,56.136,6.545,114.8-18.692,174.362-75.006,52.238-49.388,104.28-121.574,154.68-214.552,36.275-66.922,72.01-116.794,106.213-148.23,31.138-28.618,61.93-42.821,91.576-42.2,16.7.351,33.422,5.413,49.688,15.051,14.849,8.8,29.788,21.689,44.4,38.316,24.545,27.929,48.944,66.991,74.589,119.419l-1.949.952c-25.559-52.251-49.853-91.157-74.27-118.939-30.543-34.752-60.8-51.968-92.5-52.63-29.078-.6-59.351,13.4-90.062,41.625-34.027,31.273-69.615,80.956-105.775,147.666-50.51,93.182-102.691,165.55-155.1,215.095-53.843,50.9-107.043,76.61-158.407,76.612A152.7,152.7,0,0,1,2739.81,4156.647Zm1.066-19.967c-63.046-7.157-123.23-55.46-178.881-143.569-61.8-97.838-118.989-246.442-169.99-441.686l2.1-.549c50.944,195.027,108.048,343.427,169.724,441.077,55.281,87.526,114.931,135.492,177.292,142.571,55.963,6.357,114.425-20.021,173.78-78.389,52.077-51.209,103.955-125.91,154.2-222.028,36.251-69.356,71.964-121.052,106.145-153.654,30.509-29.1,60.71-43.842,89.792-43.842.587,0,1.17.007,1.755.019,16.722.341,33.458,5.581,49.739,15.569,14.858,9.117,29.806,22.482,44.427,39.727,24.558,28.963,48.968,69.487,74.625,123.884l-1.962.925c-25.576-54.222-49.885-94.589-74.317-123.406-30.563-36.044-60.837-53.881-92.554-54.53-29.012-.6-59.31,13.948-90,43.224-34.011,32.437-69.58,83.944-105.72,153.088-50.346,96.318-102.358,171.2-154.6,222.57-54.01,53.109-107.386,79.936-158.912,79.938A147.35,147.35,0,0,1,2740.876,4136.68Zm.977-19.977c-63.229-6.991-123.583-56.791-179.384-148.014-61.98-101.326-119.333-255.5-170.466-458.24l2.1-.532c51.08,202.529,108.348,356.5,170.214,457.64,55.433,90.622,115.244,140.075,177.771,146.99,55.786,6.167,114.082-21.338,173.246-81.759,51.929-53.028,103.657-130.246,153.751-229.508,36.229-71.79,71.92-125.311,106.082-159.076,31.112-30.752,61.908-46.036,91.52-45.451,16.739.336,33.488,5.749,49.783,16.09,14.867,9.435,29.823,23.275,44.452,41.138,24.569,30,48.99,71.98,74.659,128.346l-1.975.9c-25.591-56.192-49.916-98.02-74.363-127.872-30.155-36.819-61.31-55.807-92.6-56.434-29.016-.563-59.271,14.5-89.952,44.826-33.994,33.6-69.547,86.93-105.671,158.51-50.193,99.46-102.052,176.86-154.136,230.05-54.164,55.313-107.7,83.258-159.377,83.258A142.431,142.431,0,0,1,2741.854,4116.7Zm.9-19.984c-63.4-6.831-123.906-58.128-179.846-152.464-62.149-104.813-119.65-264.553-170.9-474.783l2.107-.514c51.2,210.021,108.622,369.562,170.664,474.189,55.572,93.717,115.529,144.659,178.211,151.413,55.646,6,113.767-22.64,172.757-85.111,51.792-54.851,103.383-134.588,153.342-237,36.209-74.224,71.88-129.57,106.023-164.5,31.1-31.818,61.9-47.652,91.5-47.077,16.755.328,33.519,5.916,49.826,16.609,14.876,9.752,29.84,24.068,44.476,42.547,24.578,31.034,49.008,74.477,74.688,132.812l-1.985.873c-25.6-58.164-49.941-101.451-74.4-132.339-30.173-38.095-61.341-57.721-92.643-58.334-28.983-.565-59.236,15.052-89.9,46.424-33.98,34.765-69.517,89.918-105.624,163.934-50.055,102.609-101.773,182.527-153.715,237.537-54.3,57.508-107.99,86.57-159.8,86.571A137.936,137.936,0,0,1,2742.751,4096.719Zm.825-19.992c-30.829-3.238-61.262-17.432-90.452-42.186-30.846-26.156-61.064-64.759-89.816-114.734-62.307-108.3-119.943-273.6-171.308-491.31l2.112-.5c51.316,217.507,108.875,382.61,171.077,490.727,55.7,96.813,115.793,149.246,178.614,155.845,55.513,5.826,113.478-23.93,172.306-88.453,51.667-56.67,103.132-138.93,152.969-244.493,36.189-76.657,71.842-133.827,105.967-169.922,30.568-32.333,60.836-48.716,89.985-48.716q.745,0,1.489.015c16.77.32,33.547,6.085,49.868,17.13,14.882,10.071,29.852,24.861,44.493,43.958,24.589,32.069,49.028,76.971,74.718,137.275l-2,.849c-25.618-60.133-49.968-104.882-74.445-136.8-30.187-39.371-61.369-59.638-92.681-60.237-28.973-.583-59.2,15.6-89.854,48.022-33.968,35.929-69.491,92.906-105.583,169.358-49.928,105.758-101.514,188.2-153.326,245.027-54.431,59.7-108.255,89.875-160.2,89.878A132.944,132.944,0,0,1,2743.576,4076.727Z" transform="matrix(0.788, -0.616, 0.616, 0.788, -4396.501, -1518.287)" fill="#fff" opacity="0.102"/>
    </g>
  </g>
</svg>
