<svg xmlns="http://www.w3.org/2000/svg" width="20.565" height="20.566" viewBox="0 0 20.565 20.566">
  <path id="help" d="M1868.067,1473.234a10.283,10.283,0,1,1-10.283,10.283A10.28,10.28,0,0,1,1868.067,1473.234Zm0,1.469a8.866,8.866,0,0,0-4.143,1.033l2.227,2.226a5.885,5.885,0,0,1,3.833,0l2.226-2.226A8.864,8.864,0,0,0,1868.067,1474.7Zm-7.781,12.957,2.227-2.226a5.87,5.87,0,0,1,0-3.833l-2.227-2.227a8.824,8.824,0,0,0,0,8.286Zm7.781,4.671a8.86,8.86,0,0,0,4.143-1.033l-2.226-2.226a5.872,5.872,0,0,1-3.833,0l-2.227,2.226A8.862,8.862,0,0,0,1868.067,1492.331Zm0-4.407a4.407,4.407,0,1,0-4.407-4.407A4.408,4.408,0,0,0,1868.067,1487.924Zm5.554-2.49,2.226,2.226a8.824,8.824,0,0,0,0-8.286l-2.226,2.227a5.87,5.87,0,0,1,0,3.833Z" transform="translate(-1857.784 -1473.234)" fill="#fff"/>
</svg>
