<svg xmlns="http://www.w3.org/2000/svg" width="193.439" height="144.33" viewBox="0 0 193.439 144.33">
  <g id="issue-document" transform="translate(-56.314 -1563.747)">
    <g id="Group_301" data-name="Group 301">
      <path id="Path_60" data-name="Path 60" d="M201.163,1599.391c-4-10.429-9.953-18.573-16.7-22.643-6.1-3.674-13.657-4.082-20.789-4.451a59.755,59.755,0,0,0-26.383,4.305,52.8,52.8,0,0,0-20.569,5.589c-9.734,5.036-17.513,13.57-20.592,23.582a43.715,43.715,0,0,0-1.764,10.971,52.4,52.4,0,0,0-4.212,15.715c-1.851,17.572,4.475,36.3,16.039,50.411,6.827,8.333,18.366,11.906,29.6,13.123,25.85,8.129,39.189-2.515,51.213-10.83a65.637,65.637,0,0,0,13.526-12.081c7.8-9.492,13.558-22.481,16.307-34.125,2.151-9.109,2.329-20.365-3.421-28.36A45.626,45.626,0,0,0,201.163,1599.391Z" fill="#fff"/>
      <path id="Path_61" data-name="Path 61" d="M209.746,1580.532a3.331,3.331,0,1,0-3.33-3.331A3.331,3.331,0,0,0,209.746,1580.532Z" fill="#fff"/>
      <path id="Path_62" data-name="Path 62" d="M92.072,1571.8a2.24,2.24,0,1,0-2.24,2.24A2.24,2.24,0,0,0,92.072,1571.8Z" fill="#fff"/>
      <path id="Path_63" data-name="Path 63" d="M74.006,1666.592a5.6,5.6,0,1,0,5.6,5.6A5.6,5.6,0,0,0,74.006,1666.592Z" fill="#fff"/>
      <path id="Path_64" data-name="Path 64" d="M93.682,1681.315a3.85,3.85,0,1,0,3.849,3.849A3.849,3.849,0,0,0,93.682,1681.315Z" fill="#fff"/>
      <path id="Path_65" data-name="Path 65" d="M226.839,1677.794a2.881,2.881,0,1,0,2.881,2.881A2.881,2.881,0,0,0,226.839,1677.794Z" fill="#fff"/>
    </g>
    <g id="Group_302" data-name="Group 302">
      <path id="Path_66" data-name="Path 66" d="M112.638,1684.008c-17.052-11.7-16.851-38.72-17.955-54.858-.535-7.827-.878-15.833,1.442-23.377,3.08-10.012,10.859-18.546,20.593-23.582s21.279-6.667,32.272-5.25c14.96,1.929,28.447,9.147,41.51,16.226,8.586,4.652,17.259,9.57,22.912,17.43,5.75,7.995,5.572,19.251,3.421,28.36-2.749,11.644-8.5,24.633-16.307,34.125A65.637,65.637,0,0,1,187,1685.163c-12.841,8.88-27.18,20.418-56.656,8.909C122.539,1691.025,119.52,1688.728,112.638,1684.008Z" fill="#50a0ff" opacity="0.1"/>
      <path id="Path_67" data-name="Path 67" d="M171.094,1691.585c11.105-4.4,18.162-10.265,24.8-22.072,20.6-36.618,7.787-81.174-11.44-92.765-6.094-3.674-13.656-4.082-20.788-4.451a59.543,59.543,0,0,0-36.446,9.553c-19.113,12.158-34.771,28.753-37.073,50.609-1.852,17.571,4.474,36.3,16.038,50.411,8.033,9.805,22.593,13.033,35.5,13.57A72.117,72.117,0,0,0,171.094,1691.585Z" fill="#50a0ff" opacity="0.1"/>
      <circle id="Ellipse_52" data-name="Ellipse 52" cx="3.33" cy="3.33" r="3.33" transform="translate(206.415 1573.871)" fill="#50a0ff" opacity="0.1"/>
      <circle id="Ellipse_53" data-name="Ellipse 53" cx="2.24" cy="2.24" r="2.24" transform="translate(87.591 1569.562)" fill="#50a0ff" opacity="0.1"/>
      <circle id="Ellipse_54" data-name="Ellipse 54" cx="5.601" cy="5.601" r="5.601" transform="translate(68.405 1666.592)" fill="#50a0ff" opacity="0.1"/>
      <circle id="Ellipse_55" data-name="Ellipse 55" cx="3.85" cy="3.85" r="3.85" transform="translate(89.832 1681.315)" fill="#50a0ff" opacity="0.1"/>
      <circle id="Ellipse_56" data-name="Ellipse 56" cx="2.881" cy="2.881" r="2.881" transform="translate(223.959 1677.794)" fill="#50a0ff" opacity="0.1"/>
    </g>
    <path id="Path_68" data-name="Path 68" d="M136.528,1609.735l.912,45.423,31.509-1.825,1.857-34.148-12.382-11.511Z" fill="#fff"/>
    <g id="Group_303" data-name="Group 303">
      <path id="Path_69" data-name="Path 69" d="M171.339,1617.184q-4.41-4.738-8.779-9.509a5.12,5.12,0,0,0-3.9-1.79q-11.625-.016-23.239,0c-2.641.009-4.291,1.9-4.291,4.85-.01,7.11,0,43.17,0,45.96,0,3.19,1.67,5.02,4.61,5.02H168.6c2.94,0,4.59-1.8,4.59-5.02.009-11.63,0-22.991.009-34.63A6.781,6.781,0,0,0,171.339,1617.184Zm-11.52,22.3h-6.21v6.21a1.449,1.449,0,0,1-2.9,0v-6.21h-6.2a1.451,1.451,0,0,1,0-2.9h6.2v-6.2a1.449,1.449,0,1,1,2.9,0v6.2h6.21a1.451,1.451,0,1,1,0,2.9Zm7.13-17.441h-5.38a4.66,4.66,0,0,1-4.649-4.65v-5.659a2,2,0,0,1,4,0v5.659a.648.648,0,0,0,.649.65h5.38a2,2,0,1,1,0,4Z" fill="#76d6ff" fill-rule="evenodd"/>
    </g>
    <g id="Group_304" data-name="Group 304">
      <path id="Path_70" data-name="Path 70" d="M124.869,1610.934a1.664,1.664,0,0,1,2.31.491l2.261,3.5v-6.33c-.98-.24-1.971-.5-2.951-.75a4.285,4.285,0,0,0-3.54.51q-8.144,5.265-16.25,10.539c-1.849,1.2-2.139,3.27-.81,5.33,3.22,4.98,19.571,30.19,20.83,32.141a4.245,4.245,0,0,0,2.721,2.08v-15.39l-1.741,1.129a1.042,1.042,0,1,1-1.13-1.75l2.871-1.859v-4.84l-5.081,3.29a1.046,1.046,0,0,1-1.439-.31,1.034,1.034,0,0,1,.31-1.44l6.21-4.031v-4.85l-8.431,5.461a1.037,1.037,0,1,1-1.13-1.74l9.561-6.19v-7.051a3.819,3.819,0,0,1-2.491-1.679l-2.57-3.96A1.665,1.665,0,0,1,124.869,1610.934Z" fill="#50a0ff" fill-rule="evenodd"/>
    </g>
    <g id="Group_305" data-name="Group 305">
      <path id="Path_71" data-name="Path 71" d="M193.119,1631.463c-.659-3.36-1.29-6.711-1.929-10.07a4.034,4.034,0,0,0-1.94-2.848q-8.16-4.955-16.341-9.871c-1.86-1.11-3.86-.55-5.179,1.424-.091.123-.181.266-.281.417q2.535,2.62,5.091,5.221a9.014,9.014,0,0,1,2.659,6.586c-.009,2.772-.009,5.524-.009,8.277l8.319,5.021a.963.963,0,0,1,.32,1.366,1.092,1.092,0,0,1-1.44.3l-7.2-4.347v4.575l5.02,3.028a.963.963,0,0,1,.319,1.366,1.092,1.092,0,0,1-1.44.3l-3.9-2.354v4.575l1.719,1.034a.956.956,0,0,1,.321,1.358,1.073,1.073,0,0,1-1.44.3l-.6-.36v8.4a7.643,7.643,0,0,1-2.031,5.5,3.91,3.91,0,0,0,3.591-2.059c5.21-7.755,10.279-15.347,15.489-23.111A5.153,5.153,0,0,0,193.119,1631.463Zm-2.96.892a1.723,1.723,0,0,1-2.3.493l-3.79-2.287a3.583,3.583,0,0,1-1.19-5.078l2.53-3.777a1.722,1.722,0,0,1,2.3-.484,1.538,1.538,0,0,1,.52,2.182l-2.54,3.778a.5.5,0,0,0,.169.712l3.78,2.278A1.536,1.536,0,0,1,190.159,1632.355Z" fill="#50a0ff" fill-rule="evenodd"/>
    </g>
    <circle id="Ellipse_57" data-name="Ellipse 57" cx="2.273" cy="2.273" r="2.273" transform="translate(199.213 1702.531)" stroke-width="2" stroke="#ff4f92" stroke-linecap="round" stroke-linejoin="round" fill="none"/>
    <circle id="Ellipse_58" data-name="Ellipse 58" cx="2.273" cy="2.273" r="2.273" transform="translate(103.916 1700.259)" fill="none" stroke="#76d6ff" stroke-miterlimit="10" stroke-width="2"/>
    <circle id="Ellipse_59" data-name="Ellipse 59" cx="2.273" cy="2.273" r="2.273" transform="translate(71.733 1587.433)" fill="none" stroke="#76d6ff" stroke-miterlimit="10" stroke-width="2"/>
    <circle id="Ellipse_60" data-name="Ellipse 60" cx="3.174" cy="3.174" r="3.174" transform="translate(234.088 1601.327)" fill="none" stroke="#76d6ff" stroke-miterlimit="10" stroke-width="2"/>
    <line id="Line_4" data-name="Line 4" x1="4.401" y2="4.401" transform="translate(243.938 1639.832)" fill="none" stroke="#76d6ff" stroke-linecap="round" stroke-linejoin="round" stroke-width="2"/>
    <line id="Line_5" data-name="Line 5" x1="4.401" y1="4.401" transform="translate(243.938 1639.832)" fill="none" stroke="#76d6ff" stroke-linecap="round" stroke-linejoin="round" stroke-width="2"/>
    <line id="Line_6" data-name="Line 6" x1="4.401" y2="4.401" transform="translate(178.135 1565.161)" fill="none" stroke="#ff4f92" stroke-linecap="round" stroke-linejoin="round" stroke-width="2"/>
    <line id="Line_7" data-name="Line 7" x1="4.401" y1="4.401" transform="translate(178.135 1565.161)" fill="none" stroke="#ff4f92" stroke-linecap="round" stroke-linejoin="round" stroke-width="2"/>
    <line id="Line_8" data-name="Line 8" x1="4.401" y2="4.401" transform="translate(103.989 1596.926)" fill="none" stroke="#76d6ff" stroke-linecap="round" stroke-linejoin="round" stroke-width="2"/>
    <line id="Line_9" data-name="Line 9" x1="4.401" y1="4.401" transform="translate(103.989 1596.926)" fill="none" stroke="#76d6ff" stroke-linecap="round" stroke-linejoin="round" stroke-width="2"/>
    <rect id="Rectangle_92" data-name="Rectangle 92" width="4.859" height="4.859" transform="translate(57.665 1630.344) rotate(-27.734)" stroke-width="2" stroke="#ff4f92" stroke-linecap="round" stroke-linejoin="round" fill="none"/>
    <rect id="Rectangle_93" data-name="Rectangle 93" width="4.859" height="4.859" transform="translate(139.778 1668.853) rotate(-27.734)" stroke-width="2" stroke="#50a0ff" stroke-linecap="round" stroke-linejoin="round" fill="none"/>
  </g>
</svg>
