<svg xmlns="http://www.w3.org/2000/svg" xmlns:xlink="http://www.w3.org/1999/xlink" width="1925.911" height="1586.148" viewBox="0 0 1925.911 1586.148">
  <defs>
    <linearGradient id="linear-gradient" x1="0.014" y1="0.135" x2="1.171" y2="1.177" gradientUnits="objectBoundingBox">
      <stop offset="0" stop-color="#041865"/>
      <stop offset="1" stop-color="#50a0ff"/>
    </linearGradient>
    <linearGradient id="linear-gradient-2" x1="3.901" y1="-0.685" x2="0.126" y2="0.628" xlink:href="#linear-gradient"/>
    <linearGradient id="linear-gradient-3" x1="4.113" y1="-0.801" x2="0.164" y2="0.639" xlink:href="#linear-gradient"/>
    <linearGradient id="linear-gradient-4" x1="4.362" y1="-0.943" x2="0.199" y2="0.653" xlink:href="#linear-gradient"/>
    <linearGradient id="linear-gradient-5" x1="4.658" y1="-1.221" x2="0.233" y2="0.659" xlink:href="#linear-gradient"/>
    <linearGradient id="linear-gradient-6" x1="5.034" y1="-1.561" x2="0.259" y2="0.662" xlink:href="#linear-gradient"/>
    <linearGradient id="linear-gradient-7" x1="5.572" y1="-2.045" x2="0.29" y2="0.66" xlink:href="#linear-gradient"/>
    <linearGradient id="linear-gradient-8" x1="6.012" y1="-2.568" x2="0.318" y2="0.658" xlink:href="#linear-gradient"/>
    <linearGradient id="linear-gradient-9" x1="5.84" y1="-2.651" x2="0.315" y2="0.668" xlink:href="#linear-gradient"/>
    <linearGradient id="linear-gradient-10" x1="5.375" y1="-2.511" x2="0.385" y2="0.63" xlink:href="#linear-gradient"/>
    <linearGradient id="linear-gradient-11" x1="5.498" y1="-2.694" x2="0.365" y2="0.638" xlink:href="#linear-gradient"/>
    <linearGradient id="linear-gradient-12" x1="5.728" y1="-2.92" x2="0.324" y2="0.656" xlink:href="#linear-gradient"/>
    <linearGradient id="linear-gradient-13" x1="5.728" y1="-3.087" x2="0.312" y2="0.66" xlink:href="#linear-gradient"/>
    <linearGradient id="linear-gradient-14" x1="5.582" y1="-3.323" x2="0.307" y2="0.648" xlink:href="#linear-gradient"/>
    <linearGradient id="linear-gradient-15" x1="5.588" y1="-2.758" x2="0.32" y2="0.583" xlink:href="#linear-gradient"/>
    <linearGradient id="linear-gradient-16" x1="4.917" y1="-2.118" x2="0.42" y2="0.496" xlink:href="#linear-gradient"/>
    <linearGradient id="linear-gradient-17" x1="4.556" y1="-1.978" x2="0.432" y2="0.454" xlink:href="#linear-gradient"/>
    <linearGradient id="linear-gradient-18" x1="4.544" y1="-2.049" x2="0.456" y2="0.408" xlink:href="#linear-gradient"/>
    <linearGradient id="linear-gradient-19" x1="4.437" y1="-2.096" x2="0.463" y2="0.388" xlink:href="#linear-gradient"/>
    <linearGradient id="linear-gradient-20" x1="4.283" y1="-1.957" x2="0.478" y2="0.395" xlink:href="#linear-gradient"/>
    <linearGradient id="linear-gradient-21" x1="4.21" y1="-1.867" x2="0.493" y2="0.401" xlink:href="#linear-gradient"/>
    <linearGradient id="linear-gradient-22" x1="4.1" y1="-1.755" x2="0.474" y2="0.425" xlink:href="#linear-gradient"/>
    <linearGradient id="linear-gradient-23" x1="4.022" y1="-1.663" x2="0.448" y2="0.451" xlink:href="#linear-gradient"/>
  </defs>
  <g id="login-bg" transform="translate(0 -215.852)">
    <rect id="Rectangle_119" data-name="Rectangle 119" width="1920" height="1586" transform="translate(0 216)" fill="url(#linear-gradient)"/>
    <g id="login-bg-2" data-name="login-bg" transform="translate(-3374.21 -133.263)" opacity="0.2">
      <g id="Group_328" data-name="Group 328" transform="translate(3374.21 349.115)">
        <path id="Path_117" data-name="Path 117" d="M3834.874,861.418c-46.182,65.087-122.666,113.179-221.218,139.033-62.872,16.506-95.66,41.651-122.023,61.876-15.49,11.871-28.865,22.134-45.184,28.661-23.065,9.218-47.129,12.074-72.239,10.368v-4.549c24.62,1.723,48.126-1.049,70.566-10.011,15.741-6.291,28.9-16.369,44.133-28.056,26.667-20.461,59.845-45.909,123.613-62.65,199.117-52.269,296.893-189.023,261.532-365.817-2.486-12.429-4.938-25.215-7.323-37.557-9.6-49.885-19.529-101.461-34.852-149.673a508.128,508.128,0,0,1-20.055-93.919h4.584a499.811,499.811,0,0,0,19.785,92.551c15.386,48.481,25.347,100.192,34.969,150.2,2.384,12.328,4.821,25.093,7.323,37.524C3895.888,716.429,3880.8,796.652,3834.874,861.418Z" transform="translate(-3374.21 -349.109)" fill="url(#linear-gradient-2)"/>
        <path id="Path_118" data-name="Path 118" d="M3945.416,696.476c-.643,64.986-20.647,125.676-59.422,180.364-30.674,43.237-73.018,80.135-125.828,109.7a598.991,598.991,0,0,1-53.943,26.532c-18.7,8.2-34.074,14.22-49.851,19.513-6.308,2.132-12.378,4.363-18.061,6.477-39.637,14.729-62.414,32.807-80.625,48.6-5.684,4.9-10.943,9.723-16.016,14.374-14.644,13.376-27.276,24.958-43.086,32.941-14.814,7.491-30.9,12.343-49.123,14.83a193.353,193.353,0,0,1-25.773,1.691,276.581,276.581,0,0,1-49.478-4.889v-4.583c25.9,4.787,50.915,6.546,74.64,3.314,17.739-2.418,33.347-7.119,47.7-14.389,15.253-7.711,27.682-19.076,42.073-32.249,5.107-4.666,10.365-9.5,16.1-14.456,18.533-16.048,41.665-34.414,82-49.395,5.733-2.132,11.855-4.4,18.231-6.546,15.623-5.257,30.893-11.228,49.462-19.344q27.418-11.845,53.536-26.363c52.236-29.222,94.071-65.7,124.357-108.36,38.251-53.928,57.97-113.754,58.594-177.81a337.108,337.108,0,0,0-1.927-38.5c-1.05-10.046-2.064-20.311-3.045-30.218-4.7-47.382-9.537-96.373-20.19-144.634a494.692,494.692,0,0,1-10.991-91.939q-.606-20.523.287-42.006h4.5q-.888,21.459-.288,41.886a491.541,491.541,0,0,0,10.891,91.095c10.7,48.515,15.574,97.641,20.275,145.158.98,9.909,2,20.157,3.027,30.183A341.55,341.55,0,0,1,3945.416,696.476Z" transform="translate(-3374.21 -349.109)" fill="url(#linear-gradient-3)"/>
        <path id="Path_119" data-name="Path 119" d="M4004.079,522.554c5.6,47.737,5.073,93.278,4.563,137.327-.1,8.541-.2,17.1-.253,25.671a336.15,336.15,0,0,1-1.978,36.424c-6.982,60.824-31.623,120.009-73.221,175.948-32.467,43.611-76.383,82.067-130.479,114.263-18.464,11.007-37.945,21.052-54.552,29.424l-1.184.607c-15.777,7.949-30.675,15.473-47.889,22.49-4.818,1.961-9.657,4.026-14.307,6.022l-4.718,2.011c-39.517,16.81-58.475,36.729-75.2,54.315-4.547,4.785-8.81,9.454-12.935,13.985-13.834,15.151-25.788,28.257-41.212,37.9-13.544,8.489-28.882,14.71-46.841,19.005-40.042,9.556-83.959,5.024-129.666-4.074v-4.6c45.486,9.116,89.116,13.733,128.6,4.3,17.485-4.194,32.385-10.214,45.522-18.43,14.9-9.319,26.652-22.222,40.263-37.135,4.144-4.534,8.421-9.233,12.988-14.018,17.044-17.926,36.321-38.2,76.7-55.381l4.7-2.012c4.7-2.012,9.522-4.077,14.391-6.054,17.064-6.95,31.877-14.426,47.553-22.355l1.2-.592c16.539-8.354,35.917-18.332,54.265-29.256,53.588-31.91,97.063-69.957,129.176-113.093,41.125-55.279,65.477-113.754,72.36-173.751a327.729,327.729,0,0,0,1.943-35.968q.1-12.86.273-25.687c.505-43.917,1.029-89.3-4.551-136.754a494.8,494.8,0,0,1-1.858-89.673,692.287,692.287,0,0,1,11.176-84.282h4.583a691.125,691.125,0,0,0-11.262,84.585A490.221,490.221,0,0,0,4004.079,522.554Z" transform="translate(-3374.21 -349.109)" fill="url(#linear-gradient-4)"/>
        <path id="Path_120" data-name="Path 120" d="M4127.859,349.124c-15.4,46.488-26.125,88.306-32.653,127.283a520.208,520.208,0,0,0-7.22,86.63c.337,45.691-5.26,84.584-11.178,125.761-1.167,8.135-2.368,16.521-3.518,24.875-1.437,10.636-3.162,22.1-5.918,33.854-13.206,56.5-42.461,114.2-87,171.487-34.26,44.068-79.733,84.06-135.147,118.861-14.763,9.282-30.589,18.3-45.911,27q-4.616,2.638-9.217,5.276c-3.753,2.132-7.44,4.278-11.093,6.411-12.192,7.118-23.725,13.832-37.252,20.258-3.366,1.622-6.764,3.245-10.13,4.887-3.314,1.589-6.593,3.179-9.824,4.718-37.084,17.635-52.861,38.115-66.778,56.159-1.014,1.317-2.013,2.619-3.026,3.921-3.333,4.28-6.529,8.508-9.64,12.615-12.514,16.574-24.334,32.231-39.485,43.782-12.4,9.436-26.97,17.012-44.592,23.15-47.805,16.656-99.481,13.9-172.617,3.465-3.79-.541-7.595-1.133-11.449-1.809v-4.564c4.074.71,8.1,1.336,12.089,1.911,72.443,10.332,123.562,13.105,170.488-3.247,17.181-6,31.351-13.342,43.341-22.492,14.644-11.161,25.771-25.871,38.641-42.916,3.11-4.111,6.323-8.353,9.671-12.666,1-1.285,2-2.587,3.011-3.889,14.22-18.451,30.352-39.367,68.4-57.478,3.213-1.539,6.493-3.128,9.791-4.7,3.382-1.64,6.783-3.281,10.165-4.9,13.357-6.341,24.805-13.023,36.93-20.089,3.671-2.132,7.356-4.28,11.11-6.443q4.615-2.615,9.232-5.261c15.27-8.69,31.064-17.688,45.759-26.9,54.941-34.531,100.023-74.168,134-117.813,44.1-56.784,73.085-113.908,86.157-169.761,2.705-11.567,4.4-22.9,5.851-33.431,1.134-8.372,2.333-16.775,3.5-24.893,5.9-41.022,11.448-79.746,11.144-125.116a522.007,522.007,0,0,1,7.271-87.393c6.51-38.807,17.129-80.391,32.349-126.538Z" transform="translate(-3374.21 -349.109)" fill="url(#linear-gradient-5)"/>
        <path id="Path_121" data-name="Path 121" d="M4253.585,349.13q-7.128,12.733-12.987,26.128c-23.5,53.791-40.669,100.852-52.438,143.871a570.356,570.356,0,0,0-16.283,84.415c-4.754,42.766-15,76.466-25.857,112.146-2.586,8.489-5.259,17.267-7.846,26.177l-.609,2.046c-2.756,9.47-5.58,19.245-9.248,29.17-19.211,51.931-53.117,108.125-100.736,167.023-35.967,44.44-83.011,85.971-139.811,123.444-10.6,7-21.815,13.951-32.655,20.664-7.626,4.718-15.507,9.6-23.1,14.457-5.159,3.314-10.18,6.7-15.052,9.96-10.1,6.8-20.563,13.849-32.552,20.328-6.764,3.668-13.985,7.559-20.883,11.161-35.648,18.635-48.667,40.026-60.168,58.913-1.42,2.318-2.807,4.616-4.227,6.867q-3.2,5.124-6.274,10.129c-11.768,19.041-22.879,37.033-37.878,50.815-11.432,10.5-24.875,19.174-42.308,27.293-47.771,22.271-102.7,24.486-170.471,20.984-21.6-1.115-44.306-4.632-68-9.132v-4.583c23.842,4.534,46.654,8.1,68.248,9.218,67.1,3.465,121.4,1.3,168.323-20.563,17-7.931,30.083-16.352,41.16-26.532,14.543-13.359,25.484-31.1,37.084-49.87q3.094-5.023,6.307-10.161c1.405-2.234,2.791-4.5,4.194-6.816,11.787-19.379,25.162-41.344,61.927-60.553,6.864-3.585,14.067-7.475,20.832-11.146,11.787-6.375,21.679-13.038,32.18-20.106,4.887-3.262,9.926-6.678,15.134-9.992,7.61-4.87,15.506-9.774,23.135-14.509,10.821-6.7,22-13.631,32.552-20.58,56.428-37.236,103.118-78.448,138.8-122.531C4071.4,878.757,4105.047,823,4124.089,771.513c3.6-9.757,6.426-19.465,9.147-28.849l.608-2.065c2.6-8.927,5.276-17.722,7.863-26.226,10.806-35.462,21-68.976,25.7-111.336a573.638,573.638,0,0,1,16.4-85.109c11.837-43.241,29.068-90.488,52.657-144.465,3.855-8.792,7.847-16.841,11.957-24.349Z" transform="translate(-3374.21 -349.115)" fill="url(#linear-gradient-6)"/>
        <path id="Path_122" data-name="Path 122" d="M4406.065,349.124c-20.53,17.707-41.279,37.542-59.423,71.92-28.139,53.316-49.581,99.362-65.561,140.792a657.97,657.97,0,0,0-25.349,82.2c-9.451,39.739-23.911,68.385-39.231,98.688-4.429,8.792-9.03,17.872-13.528,27.31-1.252,2.638-2.5,5.325-3.771,8.032-3.094,6.661-6.291,13.528-9.992,20.563-24.69,46.773-63.178,101.461-114.432,162.557-37.507,44.66-86.124,87.728-144.48,128.026-8.166,5.646-16.739,11.311-25.01,16.792-10.417,6.882-21.188,14-31.35,21.187-5.87,4.16-11.448,8.474-16.861,12.634-9.233,7.119-18.805,14.475-30,21.239-6.341,3.837-13.477,8-21.814,12.733-34.8,19.732-45.319,42.292-54.585,62.212-1.487,3.2-2.909,6.223-4.413,9.267-1.016,2.046-2.031,4.109-3.045,6.136-10.874,22.051-21.17,42.886-36.137,59.356-10.4,11.448-23.116,21.442-40.026,31.434-50.628,29.966-105.755,42.547-168.524,38.489-33.061-2.132-68.977-7-106.991-12.158q-8.6-1.167-17.333-2.335v-4.549q9.028,1.194,17.94,2.42c37.946,5.141,73.778,9.994,106.687,12.123,61.822,4.009,116.1-8.386,165.921-37.86,16.5-9.774,28.9-19.5,39-30.592,14.544-16,24.69-36.56,35.443-58.321,1-2.029,2.012-4.075,3.027-6.155,1.487-2.978,2.891-5.986,4.364-9.165,9.553-20.529,20.394-43.78,56.445-64.225,8.3-4.7,15.406-8.863,21.712-12.667,10.975-6.627,20.428-13.917,29.576-20.967,5.446-4.178,11.062-8.506,17.014-12.716,10.213-7.221,21.017-14.374,31.451-21.275,8.269-5.477,16.811-11.127,24.942-16.739,58.019-40.079,106.348-82.878,143.6-127.232,51.033-60.844,89.352-115.259,113.888-161.762,3.653-6.916,6.832-13.748,9.911-20.345,1.251-2.721,2.5-5.428,3.769-8.066,4.532-9.5,9.132-18.6,13.579-27.393,15.187-30.083,29.542-58.509,38.861-97.724a664.251,664.251,0,0,1,25.55-82.777c16.031-41.6,37.559-87.8,65.765-141.249,17.365-32.926,36.981-52.694,56.529-69.84Z" transform="translate(-3374.21 -349.109)" fill="url(#linear-gradient-7)"/>
        <path id="Path_123" data-name="Path 123" d="M4589.437,349.124c-.643.846-1.285,1.642-1.892,2.4-17.977,22.2-37.744,33.906-58.7,46.3-25.906,15.321-52.675,31.182-76.18,69.025-33.5,53.943-58.509,97.69-78.681,137.667-11.483,22.776-22.761,48.938-34.447,80.017-13.934,37.033-32.3,61.115-51.727,86.6-6.562,8.59-13.326,17.487-20.107,27.09-2.6,3.688-5.142,7.493-7.847,11.551-3.095,4.65-6.308,9.451-9.809,14.374-28.8,40.466-68.3,89.216-128.075,158.11-39.4,45.353-88.188,88.728-149.147,132.626-6.6,4.752-13.445,9.537-20.074,14.171-12.361,8.606-25.127,17.536-36.915,26.667-6.256,4.868-12.074,9.96-17.721,14.879-8.657,7.576-17.621,15.423-28.392,22.575-7.17,4.787-14.543,9.319-22.744,14.306-34.328,20.886-42.106,43.748-49.615,65.867-1.334,3.906-2.6,7.61-4.007,11.3l-.084.254c-9.807,25.735-19.058,50.037-34.091,69.788-9.487,12.427-21.475,23.742-37.76,35.579-41.631,30.269-91.314,47.01-166.125,56-38.588,4.65-80.964-.641-125.793-6.274-18.078-2.249-36.578-4.564-55.3-6.274v-4.532c18.94,1.709,37.625,4.06,55.837,6.341,44.573,5.582,86.68,10.839,124.712,6.274,74-8.91,123.037-25.4,164.01-55.178,15.929-11.582,27.614-22.59,36.83-34.666,14.627-19.227,23.775-43.256,33.448-68.653l.1-.255c1.389-3.636,2.621-7.287,3.942-11.159,7.422-21.816,15.826-46.52,51.541-68.266,8.15-4.972,15.49-9.47,22.592-14.206,10.52-7,19.378-14.729,27.935-22.2,5.681-4.972,11.549-10.112,17.924-15.05,11.854-9.214,24.69-18.16,37.084-26.818,6.612-4.635,13.46-9.4,20-14.12,60.691-43.7,109.225-86.85,148.4-131.933,59.678-68.773,99.093-117.424,127.809-157.756,3.465-4.868,6.645-9.654,9.723-14.289,2.721-4.058,5.274-7.9,7.914-11.634,6.814-9.656,13.612-18.583,20.189-27.207,19.246-25.23,37.4-49.056,51.1-85.464,11.753-31.233,23.083-57.545,34.667-80.46,20.224-40.109,45.285-83.957,78.852-138.02,24.1-38.773,51.356-54.922,77.738-70.513,20.425-12.109,39.753-23.524,57.1-44.83Z" transform="translate(-3374.21 -349.109)" fill="url(#linear-gradient-8)"/>
        <path id="Path_124" data-name="Path 124" d="M4743.743,349.124q-4.059,9.692-7.171,19.024c-6.238,18.635-14.9,33.4-27.259,46.435-19.683,20.75-41.7,29.222-65.036,38.2-28.967,11.142-58.932,22.675-85.581,59.845-39.792,55.465-68.116,96.978-91.807,134.569-16.572,26.278-30.911,53.641-43.561,77.82-18.161,34.666-40.229,54.588-63.6,75.673-8.861,8.017-18.026,16.285-27.327,25.653-4.261,4.314-8.505,9.013-13,13.986-2.741,3.025-5.565,6.154-8.524,9.333q-12.2,13.114-25.889,27.751c-34.072,36.458-72.714,77.8-115.8,125.911-40.483,45.167-90.808,90.046-153.848,137.244-5.446,4.075-11.11,8.235-16.589,12.226-13.833,10.112-28.12,20.58-41.007,31.453-6.494,5.5-12.394,11.313-18.094,16.925-8.235,8.117-16.773,16.506-27.293,24.149-6.813,4.919-14.086,9.656-21.137,14.2l-2.537,1.638c-34.09,22.1-39.654,46.353-45.031,69.788-1.03,4.533-2.03,8.81-3.211,13.09-7.493,26.955-15.39,52.912-29.187,74.555-8.609,13.494-19.888,26.109-35.479,39.724-41.7,36.372-92.245,59.05-163.926,73.525-40.8,8.234-85.834,4.175-133.522-.12-24-2.163-48.819-4.4-73.83-5.073a286.028,286.028,0,0,0-30.285.83v-4.515a288.42,288.42,0,0,1,30.42-.83c25.146.7,50.021,2.925,74.1,5.107,47.348,4.261,92.042,8.271,132.222.188,70.869-14.323,120.787-36.68,161.847-72.512,15.268-13.323,26.278-25.634,34.649-38.739,13.476-21.121,21.237-46.758,28.661-73.358,1.15-4.16,2.13-8.4,3.146-12.884,5.326-23.184,11.365-49.462,46.976-72.561l2.537-1.642c6.984-4.53,14.223-9.214,20.935-14.068,10.25-7.44,18.653-15.709,26.771-23.708,5.764-5.667,11.716-11.533,18.362-17.149,12.987-10.973,27.36-21.474,41.246-31.654,5.462-4.008,11.125-8.134,16.553-12.211,62.8-47.008,112.909-91.7,153.189-136.632,43.138-48.145,81.777-89.505,115.868-125.98q13.673-14.636,25.891-27.75c2.942-3.145,5.748-6.274,8.47-9.284,4.532-5.005,8.81-9.74,13.139-14.12,9.385-9.454,18.6-17.789,27.531-25.84,23.046-20.8,44.828-40.464,62.617-74.42,12.683-24.232,27.073-51.711,43.729-78.141,23.744-37.677,52.119-79.241,91.958-134.791,27.447-38.251,58.052-50.02,87.645-61.419,22.829-8.792,44.389-17.094,63.362-37.082,11.9-12.549,20.258-26.787,26.262-44.778q2.892-8.627,6.563-17.588Z" transform="translate(-3374.21 -349.109)" fill="url(#linear-gradient-9)"/>
        <path id="Path_125" data-name="Path 125" d="M4901.767,349.124c-18.01,29.019-32.451,56.6-41.024,81.644-6.8,19.836-16.217,34.733-29.678,46.892-21.238,19.174-45.4,24.4-70.989,29.948-32.178,6.967-65.459,14.169-95.355,50.779-35.309,43.207-72.477,88.947-104.944,131.461-14.626,19.125-27.919,38.876-40.752,57.985-4.144,6.138-8.051,11.954-11.94,17.635-22.287,32.638-47.991,48.771-75.214,65.85-11.23,7.067-22.846,14.355-34.8,23.116-6.409,4.684-12.954,10.229-19.9,16.08-1.792,1.524-3.6,3.061-5.462,4.616-35.461,29.713-91.178,79.731-155.3,149.266-41.734,45.186-92.093,90.251-158.55,141.842-4.6,3.585-9.3,7.172-14,10.756-15.018,11.463-30.559,23.319-44.2,35.8-6.663,6.088-12.547,12.563-18.229,18.838-7.88,8.675-16.065,17.669-26.429,25.8-6.444,5.058-13.428,9.81-20.173,14.409-1.49,1.015-2.959,2.011-4.433,3.01-34.022,23.351-37.42,49.071-40.7,73.914-.66,5.09-1.285,9.891-2.181,14.661-5.04,26.97-11.465,55.228-24.2,79.1-7.78,14.6-18.349,28.529-33.212,43.85-42.071,43.341-91.973,71.411-161.746,91.009-42.782,12.042-90.249,9.285-140.522,6.36-23.858-1.37-48.532-2.807-73.372-2.638-18.6.117-38.117,2.334-61.436,7q-9.741,1.951-18.8,4.177v-4.65q8.673-2.108,17.923-3.942c23.606-4.718,43.391-6.967,62.263-7.1,24.976-.154,49.75,1.284,73.7,2.67,49.866,2.876,96.961,5.616,139.033-6.206,68.961-19.379,118.236-47.093,159.716-89.827,14.577-15,24.893-28.612,32.468-42.832,12.463-23.338,18.771-51.187,23.758-77.805.863-4.65,1.489-9.383,2.148-14.407,3.247-24.636,6.916-52.555,42.613-77.058,1.471-1,2.959-2.012,4.43-3.012,6.7-4.564,13.613-9.282,19.938-14.238,10.078-7.9,18.111-16.741,25.873-25.279,5.766-6.341,11.718-12.919,18.534-19.144,13.8-12.615,29.408-24.535,44.507-36.051,4.7-3.568,9.385-7.153,13.984-10.74,66.237-51.422,116.444-96.335,157.975-141.316,64.292-69.72,120.18-119.878,155.725-149.673,1.86-1.556,3.687-3.076,5.462-4.6,7-5.9,13.613-11.5,20.157-16.286,12.092-8.859,23.758-16.183,35.071-23.283,26.8-16.843,52.117-32.74,73.9-64.6,3.871-5.667,7.76-11.467,11.9-17.62,12.869-19.144,26.194-38.946,40.907-58.189,32.5-42.561,69.7-88.337,105.027-131.578,30.912-37.826,64.969-45.2,97.894-52.32,24.977-5.411,48.583-10.535,68.925-28.9,12.868-11.634,21.9-25.923,28.442-45,8.455-24.706,22.508-51.762,39.994-80.188Z" transform="translate(-3374.21 -349.109)" fill="url(#linear-gradient-10)"/>
        <path id="Path_126" data-name="Path 126" d="M5071.7,349.124c-38.961,52.2-72.1,102.325-86.783,144.26-7.254,20.734-17.755,36.188-32.1,47.314-22.727,17.605-48.938,19.634-76.687,21.748-35.476,2.738-72.156,5.547-105.4,41.683-14.56,15.843-29.035,31.485-43.02,46.6-26.414,28.578-51.356,55.567-75.081,81.744-13.731,15.167-26.7,31-39.25,46.3-7.829,9.556-15.219,18.567-22.541,27.109-26.4,30.843-55.751,43.457-86.833,56.835-13.579,5.832-27.615,11.886-42.275,19.732-9.318,4.972-18.99,11.347-29.238,18.111-38.419,25.35-98.89,71.041-168.9,144.9-42.294,44.594-92.635,89.744-163.219,146.442q-5.96,4.8-12.073,9.622c-16.014,12.683-32.552,25.807-46.773,39.791a248.519,248.519,0,0,0-18.2,20.662c-7.593,9.319-15.42,18.941-25.737,27.58-6.274,5.259-13.139,10.165-19.8,14.9-1.911,1.37-3.821,2.721-5.7,4.091-34.125,24.64-35.359,51.882-36.526,78.228-.253,5.562-.49,10.838-1.032,16.065-2.57,24.553-7.085,56.241-19.208,83.6-7,15.809-16.844,31.064-30.946,47.974-41.634,50-92.33,84.483-159.531,108.512-44.592,15.963-94.358,14.541-147.034,13.053-23.894-.675-48.616-1.37-73.438-.423-19.313.744-39.367,3.839-63.093,9.757-25.332,6.326-47.5,14.054-67.081,23.437v-4.987c19.379-9.116,41.209-16.641,66.016-22.829,24.012-5.986,44.357-9.116,63.971-9.877,24.993-.964,49.784-.254,73.762.423,52.235,1.471,101.6,2.875,145.393-12.8,66.406-23.742,116.478-57.8,157.586-107.158,13.815-16.59,23.439-31.487,30.286-46.909,11.871-26.786,16.3-58.037,18.839-82.268.524-5.092.759-10.281,1.013-15.777,1.168-26.143,2.5-55.77,38.386-81.693,1.894-1.353,3.8-2.723,5.732-4.092,6.578-4.684,13.376-9.539,19.514-14.68,9.994-8.369,17.688-17.823,25.146-26.97a251.963,251.963,0,0,1,18.536-21.038c14.389-14.152,31.029-27.344,47.127-40.109,4.059-3.213,8.065-6.409,12.059-9.588,70.412-56.581,120.618-101.613,162.76-146.019,70.293-74.186,131.068-120.113,169.691-145.579,10.334-6.816,20.091-13.259,29.576-18.332,14.83-7.931,28.967-14.018,42.63-19.885,31.909-13.731,59.473-25.585,85.195-55.634,7.287-8.507,14.643-17.5,22.457-27.041,12.58-15.336,25.6-31.214,39.416-46.467,23.725-26.2,48.684-53.184,75.1-81.762,13.982-15.118,28.458-30.759,43.018-46.6,34.446-37.437,72.021-40.329,108.378-43.121,27.056-2.08,52.606-4.04,74.251-20.815,13.647-10.569,23.656-25.365,30.607-45.251,14.609-41.736,47.094-91.23,85.43-142.774Z" transform="translate(-3374.21 -349.109)" fill="url(#linear-gradient-11)"/>
        <path id="Path_127" data-name="Path 127" d="M5249.3,349.124C5188.85,423.343,5129.682,498.356,5109.069,556c-7.8,21.863-19.109,37.49-34.5,47.737-24.146,16.046-52.3,14.879-82.131,13.663-38.859-1.591-79.039-3.247-115.684,32.466-39.519,38.523-77.6,74.508-114.413,109.309l-16.826,15.912c-13.241,12.529-26.025,25.7-38.368,38.418-11.28,11.653-21.949,22.644-32.57,32.79-30.438,29.253-63.462,38.52-98.45,48.329-15.914,4.481-32.367,9.1-49.717,15.794-10.854,4.194-22.338,9.942-33.11,15.539-42.292,22-108.291,64.243-182.51,140.592-52.3,53.757-111.606,104.352-167.9,151.039-3.45,2.858-6.966,5.751-10.468,8.643-16.893,13.849-34.361,28.17-49.005,43.611-6.814,7.187-12.53,14.948-18.042,22.438-7.324,9.945-14.882,20.224-25.146,29.407-6.206,5.531-13.072,10.62-19.716,15.54-2.251,1.676-4.517,3.333-6.714,5.005-34.312,25.957-33.382,54.807-32.451,82.709.186,6,.39,11.685.219,17.3-1.1,36.594-5.614,64.6-14.2,88.136-6.241,17.079-15.356,33.634-28.682,52.1-41.48,57.494-91.482,97.536-157.33,126-46.269,19.989-98.165,19.954-153.155,19.888-24.065-.019-48.939-.034-73.9,1.657-20.074,1.387-40.637,5.361-64.734,12.514-35.425,10.535-66.388,24.636-92.008,41.935q-12.249,8.272-23.352,16.472v-5.6q9.966-7.255,20.832-14.612c26.009-17.551,57.377-31.857,93.244-42.527,24.434-7.254,45.3-11.279,65.711-12.683,25.128-1.708,50.071-1.691,74.2-1.657,54.5.034,105.958.083,151.363-19.533,65.068-28.122,114.479-67.691,155.47-124.49,13.071-18.145,22-34.345,28.087-51.018,8.421-23.066,12.852-50.629,13.936-86.717.167-5.5-.019-11.093-.221-17.027-.914-27.682-1.945-59.084,34.243-86.445,2.215-1.676,4.482-3.348,6.748-5.039,6.58-4.855,13.359-9.876,19.4-15.27,9.928-8.861,17.35-18.956,24.52-28.7,5.6-7.628,11.4-15.507,18.415-22.9,14.831-15.623,32.4-30.049,49.4-43.981q5.276-4.34,10.467-8.624c56.193-46.6,115.4-97.132,167.564-150.72,74.623-76.774,141.063-119.284,183.642-141.436,10.907-5.665,22.491-11.5,33.566-15.76,17.536-6.764,34.108-11.414,50.122-15.912,35.917-10.078,66.93-18.789,96.557-47.266,10.568-10.078,21.205-21.036,32.45-32.653,12.378-12.765,25.2-25.972,38.5-38.572l16.826-15.911c36.813-34.784,74.861-70.754,114.362-109.256,38.032-37.069,81.051-35.31,119-33.736,29.085,1.2,56.549,2.317,79.46-12.921,14.576-9.689,25.282-24.569,32.772-45.487,20.58-57.6,78.768-131.782,138.646-205.375Z" transform="translate(-3374.21 -349.109)" fill="url(#linear-gradient-12)"/>
        <path id="Path_128" data-name="Path 128" d="M5300.119,438.894v7.44c-30.54,40.349-55.211,78.262-66.88,110.254-8.388,23.016-20.461,38.743-36.93,48.126-25.467,14.526-55.552,10.247-87.394,5.751-42.292-6-86.021-12.194-126.131,23.116-53.386,46.993-105.216,89.926-144.4,122.074-13.289,10.905-26.278,22.421-38.841,33.583-14.254,12.649-27.7,24.6-41.208,35.374-34.566,27.751-71.346,33.8-110.256,40.214-18.195,3.01-37,6.1-56.953,11.482-10.434,2.79-21.848,6.815-37,12.985-46.436,18.975-118.168,58-196.107,136.3-54.839,55.007-117.407,108.477-172.616,155.656q-4.569,3.906-9.233,7.848c-17.656,14.947-35.9,30.421-50.884,47.245-6.848,7.728-12.429,16.1-17.839,24.2-7.052,10.584-14.357,21.525-24.622,31.248a249.664,249.664,0,0,1-19.785,16.269c-2.537,1.945-5.073,3.888-7.559,5.851-34.582,27.293-31.453,57.8-28.426,87.305.661,6.394,1.285,12.446,1.522,18.432,1.386,36.747-1.624,67.032-9.214,92.635-5.4,18.16-14.037,36.541-26.416,56.226-41.024,65.187-90.317,110.776-155.116,143.464-47.788,24.1-101.8,25.434-158.989,26.838-24.3.592-49.446,1.2-74.623,3.634-20.816,2.012-41.92,6.867-66.391,15.255-35.241,12.107-66.66,28.12-93.378,47.652q-42.079,30.717-70.243,59.761v-6.478c18.38-18.464,40.989-37.507,67.588-56.935,27.075-19.768,58.9-36.019,94.578-48.263,24.808-8.5,46.217-13.425,67.4-15.471,25.35-2.454,50.561-3.061,74.962-3.67,56.649-1.388,110.188-2.706,157.061-26.346,64.039-32.315,112.756-77.381,153.324-141.842,12.175-19.328,20.647-37.337,25.923-55.112,7.458-25.111,10.4-54.939,9.013-91.179-.22-5.851-.829-11.818-1.472-18.144-3.01-29.287-6.425-62.483,30.1-91.315,2.5-1.977,5.054-3.922,7.61-5.885a236.808,236.808,0,0,0,19.428-15.961c9.893-9.369,17.045-20.089,23.979-30.491,5.5-8.218,11.163-16.722,18.212-24.672,15.186-17.06,33.568-32.635,51.339-47.7q4.641-3.929,9.217-7.828c55.143-47.112,117.643-100.532,172.346-155.423,78.48-78.816,150.771-118.151,197.6-137.258,15.336-6.258,26.9-10.332,37.522-13.19,20.19-5.428,39.1-8.541,57.392-11.568,39.993-6.576,74.525-12.26,108.175-39.282,13.426-10.7,26.836-22.609,41.058-35.224,12.581-11.178,25.619-22.742,38.978-33.719,39.146-32.129,90.944-75.028,144.26-121.954,41.666-36.68,88.456-30.049,129.735-24.2,31.063,4.4,60.4,8.556,84.535-5.193,15.5-8.825,26.919-23.791,34.934-45.759C5241.305,521.331,5267.687,481.323,5300.119,438.894Z" transform="translate(-3374.21 -287.077)" fill="url(#linear-gradient-13)"/>
        <path id="Path_129" data-name="Path 129" d="M5247.022,582.193v4.6c-22.641,4.092-48.04-1.71-74.591-7.8-45.773-10.484-93.106-21.325-136.716,13.579-47.282,37.828-98.792,76.736-157.521,118.929-13.562,9.723-26.9,20.087-39.821,30.083-17.029,13.188-33.129,25.653-49.379,36.644-38.707,26.312-79.241,29.219-122.177,32.314-20.427,1.456-41.53,2.978-64.055,6.935a321.475,321.475,0,0,0-40.889,10.45c-50.7,16.046-128.229,51.98-209.752,132.017-46.978,46.08-98.942,91.585-149.2,135.619q-14.027,12.276-28.1,24.638c-2.7,2.384-5.428,4.786-8.185,7.17-18.364,16.029-37.338,32.6-52.557,50.8-6.882,8.234-12.327,17.215-17.6,25.888-6.816,11.247-13.851,22.881-24.131,33.144a227.118,227.118,0,0,1-19.972,17.047c-2.757,2.182-5.58,4.4-8.3,6.612-34.919,28.68-29.559,60.91-24.4,92.059,1.116,6.764,2.182,13.139,2.807,19.447,3.771,37.473,2.384,69.245-4.228,97.147-4.6,19.533-12.513,39.267-24.13,60.337-40.3,73-88.9,124.137-152.935,160.951-49.361,28.358-105.621,31.081-165.195,33.939-24.418,1.165-49.68,2.384-74.946,5.443-21.78,2.74-43.409,8.455-68.046,18.011a377.919,377.919,0,0,0-73.948,38.268h-8A382.055,382.055,0,0,1,3531.356,1744c25.01-9.689,46.976-15.49,69.13-18.28,25.448-3.079,50.779-4.3,75.284-5.481,59.015-2.839,114.75-5.529,163.182-33.345,63.276-36.39,111.318-86.97,151.208-159.226,11.431-20.7,19.195-40.06,23.708-59.186,6.479-27.411,7.83-58.7,4.126-95.661-.607-6.155-1.657-12.463-2.773-19.159-5.124-30.912-10.924-65.949,25.991-96.271,2.756-2.249,5.6-4.5,8.37-6.677a220.742,220.742,0,0,0,19.583-16.709c9.892-9.874,16.791-21.254,23.454-32.265,5.361-8.842,10.907-17.957,17.993-26.464,15.457-18.466,34.563-35.155,53.063-51.287,2.723-2.4,5.462-4.785,8.167-7.17q14.079-12.379,28.106-24.657c50.222-43.981,102.136-89.453,149.027-135.45,82.132-80.644,160.376-116.9,211.546-133.081a321.171,321.171,0,0,1,41.465-10.587c22.743-4.006,43.982-5.53,64.511-7,44.137-3.161,82.269-5.9,119.978-31.553,16.132-10.909,32.163-23.319,49.141-36.475,12.938-10.028,26.329-20.394,39.942-30.169,58.661-42.157,110.135-81.015,157.331-118.794,45.319-36.254,95.916-24.689,140.54-14.457C5199.828,580.622,5225.04,586.386,5247.022,582.193Z" transform="translate(-3321.114 -200.364)" fill="url(#linear-gradient-14)"/>
        <path id="Path_130" data-name="Path 130" d="M5106.513,598.149V602.7c-35.714-8.081-71.463-9.079-105.283,15.642-52.388,38.3-108.208,76.163-170.673,115.785-13.951,8.844-27.784,18.3-41.16,27.428-19.665,13.427-38.25,26.124-57.156,37.048-42.85,24.927-87.221,24.724-134.181,24.538-22.645-.1-46.012-.2-71.041,2.266a332.427,332.427,0,0,0-44.793,7.914c-55.027,13.207-138.427,46.08-223.4,127.754-39.671,38.083-82.487,76.165-123.9,112.978-19.075,16.925-38.775,34.446-58.1,51.9-2.418,2.183-4.87,4.381-7.322,6.6-19.007,17.064-38.656,34.7-54.062,54.214-6.9,8.761-12.19,18.332-17.314,27.616-6.58,11.9-13.377,24.214-23.693,35.019-6.188,6.512-13.308,12.279-20.207,17.859-2.975,2.418-6.038,4.887-8.962,7.371-35.326,30.083-27.733,64.057-20.411,96.912,1.59,7.085,3.077,13.767,4.109,20.361,5.952,37.726,6.206,71.919.777,101.645-3.82,20.936-10.991,42.006-21.9,64.446-39.317,80.879-87.207,137.547-150.7,178.4-23.959,15.405-49.6,24.452-76.5,30.149h-26.246c35.766-5.073,69.568-14.171,100.313-33.938,62.752-40.38,110.134-96.489,149.094-176.574,10.722-22.069,17.756-42.766,21.493-63.3,5.344-29.2,5.073-62.9-.778-100.14-1.014-6.443-2.5-13.072-4.056-20.072-7.273-32.569-15.508-69.484,21.882-101.31,2.959-2.518,6.052-5.021,9.028-7.441,6.8-5.5,13.815-11.194,19.787-17.483,9.924-10.383,16.283-21.9,23.013-34.093,5.208-9.417,10.6-19.174,17.739-28.206,15.642-19.817,35.443-37.607,54.586-54.789q3.678-3.295,7.323-6.578c19.327-17.466,39.044-34.985,58.1-51.931,41.379-36.795,84.179-74.827,123.784-112.875,85.682-82.369,169.913-115.545,225.461-128.872a339.332,339.332,0,0,1,45.405-8.014c25.263-2.487,48.767-2.386,71.5-2.283,48.362.2,90.115.372,131.915-23.928,18.77-10.856,37.287-23.505,56.9-36.881,13.393-9.165,27.259-18.618,41.26-27.5,62.4-39.571,118.134-77.381,170.42-115.633C5033.224,589.358,5070.612,590.271,5106.513,598.149Z" transform="translate(-3180.603 -180.42)" fill="url(#linear-gradient-15)"/>
        <path id="Path_131" data-name="Path 131" d="M5026.659,632.224V637.6c-56.633,38-116.526,74.692-183.053,112.131-14.458,8.151-28.866,16.891-42.8,25.346-22.219,13.461-43.173,26.2-64.647,36.881-47.011,23.573-95.239,20.292-146.307,16.827-24.79-1.676-50.427-3.416-77.889-2.454a354.721,354.721,0,0,0-48.716,5.361c-85.145,14.9-167.125,57.6-237.064,123.5-32.789,30.895-67.556,61.991-101.156,92.059-28.139,25.2-57.24,51.221-85.549,77.446-2.181,2.031-4.4,4.043-6.594,6.089-19.6,18.075-39.892,36.761-55.431,57.6-6.918,9.248-12.059,19.413-17.013,29.253-6.358,12.6-12.918,25.585-23.269,36.967-6.221,6.815-13.478,12.85-20.5,18.686-3.179,2.638-6.477,5.359-9.588,8.1-35.747,31.487-25.45,68.875-16.37,101.85,2.013,7.356,3.941,14.34,5.377,21.172,8.118,38.587,10.045,74.3,5.769,106.16-3.012,22.372-9.437,44.8-19.651,68.554-28.984,67.49-63.193,119.639-105.705,160.462h-6.561c43.662-40.89,78.616-93.531,108.14-162.235,10.028-23.387,16.353-45.421,19.312-67.387,4.211-31.334,2.3-66.543-5.7-104.625-1.421-6.712-3.314-13.611-5.327-20.918-9.436-34.243-20.124-73.069,17.739-106.414,3.164-2.79,6.476-5.53,9.689-8.184,6.9-5.732,14.036-11.651,20.039-18.265,9.943-10.905,16.082-23.065,22.56-35.949,5.073-10.012,10.3-20.36,17.433-29.933,15.811-21.171,36.238-39.991,55.989-58.2l6.595-6.089c28.342-26.245,57.444-52.3,85.618-77.5,33.581-30.049,68.3-61.13,101.069-91.972a508.223,508.223,0,0,1,118-83.605c39.5-20.071,80.322-33.888,121.363-41.056a360.454,360.454,0,0,1,49.325-5.428c27.717-.964,53.471.778,78.379,2.469,52.625,3.585,98.062,6.661,143.973-16.371,21.307-10.6,42.19-23.284,64.311-36.693,13.967-8.474,28.408-17.25,42.934-25.418,66.728-37.557,126.741-74.337,183.509-112.434C5025.492,632.987,5026.066,632.6,5026.659,632.224Z" transform="translate(-3100.75 -153.483)" fill="url(#linear-gradient-16)"/>
        <path id="Path_132" data-name="Path 132" d="M4983.375,695.874v5.141c-28.9,15.862-58.849,31.571-90.149,47.281-15.083,7.56-30.135,15.743-44.709,23.642-23.556,12.767-47.906,25.974-71.853,36.321-55.262,24.014-109.475,17.215-172.264,9.319-22.709-2.843-46.2-5.783-71.022-7.391-17.333-1.114-36.2.864-52.521,2.809-91.434,10.89-178.148,52.149-250.742,119.284-26.28,24.266-53.707,48.837-80.222,72.6-36.714,32.872-74.659,66.88-111.184,101.511q-2.969,2.813-5.971,5.631c-20.174,19.073-41.041,38.792-56.7,60.91-6.935,9.757-11.89,20.527-16.708,30.946-6.12,13.256-12.446,26.953-22.846,38.893-6.256,7.17-13.663,13.443-20.816,19.514-3.382,2.856-6.883,5.834-10.18,8.826-36.222,32.924-23.522,72.206-12.326,106.872,2.484,7.643,4.818,14.849,6.644,21.934,10.214,39.5,13.833,76.738,10.74,110.66-2.165,23.825-7.865,47.6-17.384,72.661-16.3,42.833-34.5,80.02-55.213,112.369h-5.361c21.188-32.655,39.756-70.348,56.363-113.974,9.383-24.673,14.981-48.043,17.111-71.464,3.027-33.413-.541-70.125-10.619-109.119-1.808-6.95-4.109-14.1-6.562-21.679-11.617-35.97-24.806-76.721,13.58-111.607,3.347-3.027,6.864-6.038,10.28-8.913,7.034-5.969,14.306-12.14,20.343-19.056,9.979-11.448,15.9-24.251,22.152-37.812,4.9-10.6,9.96-21.561,17.113-31.654,15.931-22.492,36.966-42.361,57.292-61.57,2-1.9,3.992-3.754,5.969-5.633,36.56-34.7,74.542-68.7,111.269-101.611,26.515-23.742,53.926-48.3,80.17-72.544a477.719,477.719,0,0,1,123.8-83.384,429.419,429.419,0,0,1,129.464-37.052c16.521-1.977,35.648-3.974,53.352-2.839,24.977,1.6,48.532,4.564,71.31,7.422,62.111,7.8,115.767,14.545,169.9-8.979,23.76-10.263,46.943-22.844,71.479-36.154,14.628-7.914,29.713-16.114,44.847-23.708C4923.241,728.191,4953.851,712.126,4983.375,695.874Z" transform="translate(-3057.464 -109.5)" fill="url(#linear-gradient-17)"/>
        <path id="Path_133" data-name="Path 133" d="M4948.581,749.834v4.955c-14.83,6.715-29.694,13.969-44.067,20.969-25.807,12.566-52.473,25.57-78.835,35.5-55.365,20.918-111.4,11.5-170.742,1.556-29.086-4.889-59.153-9.928-91.414-12.057a415.433,415.433,0,0,0-56.565.254c-97.76,6.915-189.192,46.706-264.443,115.057-19.97,18.128-40.617,36.541-60.589,54.366-44.912,40.077-91.365,81.522-135.518,124.34-1.792,1.759-3.619,3.516-5.428,5.274-20.715,20.04-42.123,40.755-57.9,64.142-6.9,10.248-11.7,21.609-16.354,32.6-5.884,13.936-11.989,28.324-22.455,40.806-6.308,7.523-13.851,14.069-21.156,20.392-3.585,3.094-7.271,6.274-10.755,9.537-36.729,34.38-21.577,75.6-8.2,111.98,2.892,7.88,5.614,15.321,7.83,22.609,12.293,40.464,17.586,79.222,15.728,115.141-1.3,25.313-6.258,50.424-15.136,76.789q-11.564,34.319-24.723,64.275h-4.919q13.568-30.593,25.38-65.713c8.742-25.957,13.612-50.681,14.9-75.59,1.843-35.408-3.382-73.627-15.523-113.584-2.181-7.17-4.9-14.559-7.777-22.389-13.834-37.676-29.526-80.391,9.383-116.815,3.534-3.314,7.271-6.529,10.875-9.656,7.153-6.208,14.575-12.615,20.647-19.869,10.043-11.972,15.725-25.433,21.745-39.688,4.735-11.162,9.622-22.727,16.775-33.348,16.03-23.791,37.625-44.658,58.509-64.867,1.809-1.759,3.621-3.5,5.429-5.257,44.2-42.886,90.688-84.366,135.654-124.477,19.953-17.806,40.6-36.237,60.554-54.347a455.5,455.5,0,0,1,129.567-83.147,432.062,432.062,0,0,1,137.579-33.061,421.625,421.625,0,0,1,57.173-.252c32.5,2.129,62.669,7.2,91.875,12.108,61.263,10.281,114.176,19.159,168.405-1.336,26.161-9.844,52.745-22.795,78.447-35.327C4917.567,764.377,4933.075,756.835,4948.581,749.834Z" transform="translate(-3022.672 -72.213)" fill="url(#linear-gradient-18)"/>
        <path id="Path_134" data-name="Path 134" d="M4930.473,802.813v4.87c-13.02,5.276-26.075,10.229-39.1,14.49-59.541,19.618-119.521,7.153-183.036-6.035-31.2-6.5-63.462-13.207-98.1-16.876a451.512,451.512,0,0,0-60.471-2.3c-104.08,2.959-200.266,41.278-278.138,110.814-13.325,11.9-26.988,24.012-40.21,35.729-53.455,47.382-108.734,96.388-160.615,147.627-1.928,1.926-3.889,3.871-5.85,5.817-20.9,20.715-42.53,42.155-58.119,66.455-6.917,10.756-11.551,22.693-16.016,34.243-5.681,14.612-11.533,29.713-22.067,42.767-6.359,7.88-14.086,14.678-21.542,21.239-3.754,3.315-7.645,6.746-11.264,10.229-37.268,35.868-19.649,79.055-4.092,117.17,3.314,8.1,6.426,15.762,9.015,23.236,14.338,41.5,21.305,81.742,20.7,119.639a299.66,299.66,0,0,1-12.885,80.9q-2.435,8.193-4.988,16.167h-4.735q2.764-8.6,5.413-17.47a295.462,295.462,0,0,0,12.7-79.681c.592-37.353-6.291-77.092-20.461-118.083-2.553-7.354-5.647-14.949-8.929-23.015-16.081-39.417-34.327-84.128,5.141-122.089,3.7-3.585,7.628-7.019,11.415-10.366,7.324-6.444,14.9-13.122,21.02-20.7,10.095-12.5,15.557-26.618,21.359-41.565,4.565-11.754,9.282-23.913,16.435-35.055,15.861-24.724,37.659-46.319,58.747-67.218,1.944-1.945,3.907-3.874,5.833-5.817,51.982-51.339,107.294-100.378,160.816-147.813,13.189-11.7,26.853-23.809,40.18-35.7a437.491,437.491,0,0,1,281.013-111.962,457.546,457.546,0,0,1,61.095,2.317c34.834,3.7,67.217,10.433,98.518,16.944,65.629,13.646,122.311,25.416,180.7,6.188C4903.434,813.483,4917,808.323,4930.473,802.813Z" transform="translate(-3004.563 -42.889)" fill="url(#linear-gradient-19)"/>
        <path id="Path_135" data-name="Path 135" d="M4913.154,855.334v4.414c-49.073,3.314-98.755-8.761-150.653-21.358-33.312-8.1-67.757-16.453-104.707-21.7a492.086,492.086,0,0,0-64.411-4.855c-1.453-.015-2.909-.015-4.328-.015-108.75,0-208.078,36.813-287.523,106.633q-10.8,9.464-21.628,18.958c-61.536,53.958-125.186,109.747-183.9,169.015l-5.242,5.311c-21.476,21.711-43.677,44.185-59.387,69.8-6.9,11.264-11.365,23.794-15.659,35.9-5.463,15.3-11.094,31.1-21.7,44.709-6.409,8.235-14.29,15.305-21.917,22.119-3.939,3.536-8,7.172-11.8,10.924-37.811,37.323-17.669,82.523.1,122.4,3.7,8.3,7.205,16.166,10.146,23.808,16.369,42.564,25.009,84.331,25.686,124.122a303.071,303.071,0,0,1-3.889,53.064h-4.55a298.811,298.811,0,0,0,3.923-53c-.659-39.267-9.2-80.511-25.38-122.583-2.91-7.54-6.375-15.336-10.063-23.59-18.364-41.193-39.164-87.914.862-127.435,3.872-3.82,7.981-7.489,11.956-11.074,7.491-6.681,15.2-13.6,21.375-21.512,10.146-13.053,15.421-27.815,20.984-43.457,4.4-12.346,8.93-25.078,16.082-36.746,15.98-26.075,38.369-48.718,60.031-70.634l5.226-5.295c58.847-59.405,122.549-115.242,184.134-169.253q10.832-9.461,21.63-18.955A427.577,427.577,0,0,1,4439.6,832.385a450.913,450.913,0,0,1,153.814-25.044,498.2,498.2,0,0,1,65,4.887c37.168,5.259,71.73,13.665,105.147,21.782C4817.308,847.065,4865.4,858.75,4913.154,855.334Z" transform="translate(-2987.245 -32.488)" fill="url(#linear-gradient-20)"/>
        <path id="Path_136" data-name="Path 136" d="M4895.824,876.193v4.513c-25.975-5.242-52.3-12.461-79.189-19.817-35.41-9.689-72.036-19.717-111.3-26.5A529.6,529.6,0,0,0,4637,826.968c-116.8-4.921-222.486,30.487-305.583,102.389l-4.16,3.6c-69.365,60-141.064,122.025-206.066,189l-4.378,4.481c-22.12,22.847-45,46.452-60.911,73.508-6.85,11.72-11.145,24.807-15.271,37.441-5.242,16.012-10.653,32.552-21.34,46.756-6.475,8.59-14.526,15.912-22.322,22.979-4.109,3.756-8.371,7.628-12.31,11.6-38.386,38.841-15.71,86.039,4.312,127.687,4.075,8.506,7.948,16.523,11.245,24.335,18.382,43.679,28.7,86.952,30.642,128.618.152,3.027.254,6.037.288,9.064h-4.5c-.05-2.959-.152-5.919-.287-8.863-1.928-41.125-12.125-83.872-30.3-127.061-3.248-7.711-7.085-15.694-11.143-24.131-10.367-21.594-21.088-43.917-24.538-66.558-3.974-26.211,2.927-47.891,21.07-66.254,4.025-4.077,8.337-7.983,12.5-11.769,7.626-6.933,15.525-14.12,21.746-22.372,10.248-13.6,15.306-29.068,20.665-45.438,4.194-12.868,8.558-26.177,15.659-38.335,16.185-27.513,39.266-51.322,61.57-74.337l4.362-4.515c65.154-67.118,136.938-129.21,206.355-189.258l4.176-3.6a418.321,418.321,0,0,1,146.782-82.418c50.981-16.352,105.466-23.439,161.931-21.053a532.3,532.3,0,0,1,68.909,7.473c39.483,6.817,76.211,16.876,111.74,26.6C4844.975,863.982,4870.78,871.035,4895.824,876.193Z" transform="translate(-2969.915 -22.333)" fill="url(#linear-gradient-21)"/>
        <path id="Path_137" data-name="Path 137" d="M4878.563,881.21v4.718c-2.571-.778-5.159-1.554-7.745-2.332-37.507-11.313-76.313-23-117.881-31.336a581.459,581.459,0,0,0-72.274-9.977c-123.342-8.709-233.765,25.249-319.3,98.18-79.072,67.422-149.822,128.789-214.943,197.208l-3.992,4.194c-22.625,23.776-46.012,48.363-61.941,76.669-6.867,12.245-10.957,25.908-14.933,39.132-5.005,16.672-10.2,33.922-20.951,48.667-6.527,8.945-14.763,16.538-22.728,23.875-4.295,3.959-8.725,8.051-12.8,12.279-38.979,40.348-13.716,89.571,8.572,133.015,4.447,8.675,8.658,16.859,12.277,24.824,14.948,32.838,25.381,65.711,31.165,98.146h-4.583c-5.733-31.791-16-64.055-30.692-96.286-3.566-7.864-7.762-16-12.176-24.621-11.516-22.458-23.437-45.674-27.748-69.264-5.007-27.31,1.5-49.87,19.935-68.961,4.177-4.31,8.658-8.455,13.006-12.446,7.794-7.187,15.86-14.611,22.134-23.218,10.3-14.12,15.151-30.251,20.275-47.314,4.026-13.442,8.218-27.361,15.3-40.025,16.216-28.815,39.806-53.588,62.618-77.568l3.992-4.194c65.272-68.587,136.108-130.037,215.282-197.543,86.446-73.713,198-108.039,322.561-99.245a587.693,587.693,0,0,1,72.832,10.06c41.769,8.372,80.678,20.091,118.287,31.419C4874.268,879.908,4876.415,880.569,4878.563,881.21Z" transform="translate(-2952.654 -12.37)" fill="url(#linear-gradient-22)"/>
        <path id="Path_138" data-name="Path 138" d="M4861.33,881.633v4.718c-43-12.784-87.966-23.708-136.938-28.561-129.566-12.8-244.722,19.683-333.044,93.971-73.425,61.737-150.873,128.177-219.664,201.837l-3.653,3.908c-23.1,24.7-46.993,50.255-62.92,79.833-6.867,12.717-10.79,26.987-14.595,40.769-4.785,17.352-9.724,35.31-20.563,50.614-6.578,9.316-15,17.162-23.133,24.756-4.464,4.16-9.08,8.47-13.308,12.952-39.57,41.886-11.683,93.159,12.9,138.409,4.784,8.829,9.335,17.164,13.273,25.249a452.3,452.3,0,0,1,23.776,58.627h-4.651a453.907,453.907,0,0,0-23.182-56.649c-3.891-8-8.4-16.3-13.174-25.079-12.091-22.235-25.789-47.45-31.014-71.985-6.035-28.443.1-51.882,18.787-71.667,4.329-4.583,9-8.944,13.511-13.156,7.965-7.439,16.217-15.133,22.543-24.062,10.382-14.661,15-31.436,19.885-49.192,3.873-14.052,7.863-28.544,14.982-41.736,16.2-30.083,40.3-55.837,63.6-80.761l3.634-3.906c68.976-73.83,146.526-140.388,220.07-202.211,89.267-75.081,205.592-107.937,336.375-95C4773.685,858.129,4818.5,868.968,4861.33,881.633Z" transform="translate(-2935.421 -2.612)" fill="url(#linear-gradient-23)"/>
      </g>
      <path id="Path_139" data-name="Path 139" d="M3613.1,998.271c-99.38,26.091-123.276,72.967-167.5,90.621-22.727,9.081-46.518,11.886-71.393,10.146V349.124h439.848a507.461,507.461,0,0,0,19.988,93.227c19.178,60.42,29.762,125.186,42.224,187.481C3911.358,805.275,3813.6,945.629,3613.1,998.271Z" transform="translate(0 0.006)" fill="#001050"/>
      <path id="Path_140" data-name="Path 140" d="M4860.416,883.079V1587.79h-780.2v-.015a450.879,450.879,0,0,0-23.472-57.631c-24.368-49.986-74.286-114.869-25.788-166.21,11.956-12.63,26.194-23.251,36.238-37.437,19.193-27.107,19.379-62.161,35.021-91.162,16.91-31.4,42.766-58.359,66.914-84.2,67.895-72.714,143.82-138.1,219.848-202.042,94.393-79.361,213.728-106.432,334.72-94.479C4772.431,859.439,4817.632,870.413,4860.416,883.079Z" transform="translate(439.703 347.442)" fill="#03fcf4"/>
    </g>
  </g>
</svg>
