<svg xmlns="http://www.w3.org/2000/svg" width="171.428" height="36.07" viewBox="0 0 171.428 36.07">
  <g id="Logo-header" transform="translate(-775.475 -325.866)">
    <g id="Group_107" data-name="Group 107" transform="translate(775.475 325.866)">
      <path id="Path_1" data-name="Path 1" d="M1055.956,516.579a18.035,18.035,0,1,1,9.434-33.409,2.066,2.066,0,0,1-2.164,3.519,13.9,13.9,0,1,0,6.563,13.266,2.066,2.066,0,0,1,4.11.414,18.036,18.036,0,0,1-17.944,16.209Z" transform="translate(-1037.921 -480.509)" fill="#50a0ff"/>
      <path id="Path_2" data-name="Path 2" d="M1091.814,530.874a2.368,2.368,0,0,1-1.68-.7l-6.485-6.485a2.376,2.376,0,0,1,3.36-3.359l4.8,4.8,13.517-13.517a2.376,2.376,0,0,1,3.36,3.36l-15.2,15.2A2.368,2.368,0,0,1,1091.814,530.874Z" transform="translate(-1073.651 -504.643)" fill="#76d6ff"/>
    </g>
    <g id="Group_334" data-name="Group 334" transform="translate(-1564.268 -825.551)">
      <path id="Path_110" data-name="Path 110" d="M2388.742,1168.2a12.244,12.244,0,0,1,12.352-12.659c6.705,0,10.161,4.105,11.119,8.04l-4.448,1.4c-.582-2.327-2.463-4.893-6.671-4.893-3.627,0-7.459,2.6-7.459,8.108,0,5.167,3.626,8.006,7.527,8.006a6.741,6.741,0,0,0,6.809-4.961l4.413,1.334c-.924,3.729-4.413,8.245-11.222,8.245C2394.387,1180.826,2388.742,1175.933,2388.742,1168.2Z" transform="translate(0 -0.264)" fill="#fff"/>
      <path id="Path_111" data-name="Path 111" d="M2443.263,1173.015a6.837,6.837,0,0,0-1.369-.137c-2.326,0-4.345,1.129-4.345,4.756v7.7H2433V1168.5h4.414v2.5a5.006,5.006,0,0,1,4.79-2.634,10.431,10.431,0,0,1,1.061.068Z" transform="translate(-17.327 -5.284)" fill="#fff"/>
      <path id="Path_112" data-name="Path 112" d="M2470.448,1176.673a8.827,8.827,0,1,1-8.827-8.93A8.641,8.641,0,0,1,2470.448,1176.673Zm-4.55,0c0-3.182-2.053-4.79-4.277-4.79s-4.276,1.608-4.276,4.79c0,3.148,2.053,4.79,4.276,4.79S2465.9,1179.854,2465.9,1176.673Z" transform="translate(-25.078 -5.041)" fill="#fff"/>
      <path id="Path_113" data-name="Path 113" d="M2492.266,1185.134h-4.551V1168.3h4.414v2.087a5.592,5.592,0,0,1,4.858-2.532c4.174,0,6.09,2.977,6.09,6.671v10.606h-4.551v-9.819c0-1.882-.924-3.353-3.113-3.353-1.985,0-3.148,1.54-3.148,3.49Z" transform="translate(-38.75 -5.085)" fill="#fff"/>
      <path id="Path_114" data-name="Path 114" d="M2522.462,1154.867a2.805,2.805,0,1,1-2.805,2.84A2.8,2.8,0,0,1,2522.462,1154.867Zm-2.258,25.181v-16.833h4.551v16.833Z" transform="translate(-51.256 0)" fill="#fff"/>
      <path id="Path_115" data-name="Path 115" d="M2538.491,1176.673c0,3.045,1.984,4.756,4.311,4.756a3.851,3.851,0,0,0,3.866-2.84l4,1.334a7.816,7.816,0,0,1-7.869,5.68,8.71,8.71,0,0,1-8.861-8.93,8.618,8.618,0,0,1,8.724-8.93c4.584,0,7.186,2.84,7.9,5.68l-4.072,1.368a3.67,3.67,0,0,0-3.729-2.839C2540.44,1171.952,2538.491,1173.628,2538.491,1176.673Z" transform="translate(-56.849 -5.041)" fill="#fff"/>
      <path id="Path_116" data-name="Path 116" d="M2570.179,1175.407l4.14-.616c.958-.136,1.266-.616,1.266-1.2,0-1.2-.923-2.189-2.84-2.189a2.987,2.987,0,0,0-3.216,2.737l-4.037-.856c.274-2.634,2.7-5.543,7.219-5.543,5.338,0,7.322,3.011,7.322,6.4v8.279a18.822,18.822,0,0,0,.206,2.669h-4.174a11.381,11.381,0,0,1-.171-2.018,5.625,5.625,0,0,1-4.961,2.5c-3.593,0-5.782-2.429-5.782-5.064C2565.15,1177.494,2567.374,1175.817,2570.179,1175.407Zm5.406,2.874v-.753l-3.8.582a2.125,2.125,0,0,0-2.087,2.121,1.976,1.976,0,0,0,2.19,1.95C2573.806,1182.181,2575.584,1181.258,2575.584,1178.281Z" transform="translate(-69.068 -5.041)" fill="#fff"/>
    </g>
  </g>
</svg>
