<svg xmlns="http://www.w3.org/2000/svg" width="15.761" height="16.186" viewBox="0 0 15.761 16.186">
  <g id="logout" transform="translate(-402.875 -262.8)">
    <path id="Path_13" data-name="Path 13" d="M406.836,278.985h3.279a1.319,1.319,0,0,0,0-2.638h-3.279a1.325,1.325,0,0,1-1.324-1.324v-8.262a1.325,1.325,0,0,1,1.324-1.324h3.279a1.319,1.319,0,1,0,0-2.638h-3.279a3.966,3.966,0,0,0-3.961,3.962v8.262A3.966,3.966,0,0,0,406.836,278.985Z" transform="translate(0)" fill="#fff"/>
    <path id="Path_14" data-name="Path 14" d="M424.447,282.517a1.088,1.088,0,0,1-1.857-.71l-.016-.019,0-2.053h-4.257a1.319,1.319,0,1,1,0-2.638h4.262c0-.012,0-2.2,0-2.208h0a1.088,1.088,0,0,1,1.856-.7c3.669,3.669,3.712,3.561,3.712,4.164S428.119,278.845,424.447,282.517Z" transform="translate(-9.523 -7.461)" fill="#fff"/>
  </g>
</svg>
