<svg xmlns="http://www.w3.org/2000/svg" width="15.966" height="20.432" viewBox="0 0 15.966 20.432">
  <path id="Path_44" data-name="Path 44" d="M301.595,1474.106q-1.673-1.8-3.331-3.608a1.943,1.943,0,0,0-1.48-.679q-4.411-.006-8.819,0a1.627,1.627,0,0,0-1.628,1.84c0,2.7,0,15.623,0,16.682a1.666,1.666,0,0,0,1.749,1.905h12.47c1.116,0,1.741-.683,1.741-1.905,0-4.413,0-7.966,0-12.382A2.573,2.573,0,0,0,301.595,1474.106Zm-4.425,7.062h-2.095v2.091a.757.757,0,1,1-1.514,0v-2.091h-2.095a.759.759,0,1,1,0-1.518h2.095v-2.095a.757.757,0,0,1,1.514,0v2.095h2.095a.759.759,0,1,1,0,1.518Zm2.759-5.218h-2.042a1.769,1.769,0,0,1-1.765-1.765v-2.147a.759.759,0,0,1,1.518,0v2.147a.247.247,0,0,0,.247.247h2.042a.759.759,0,0,1,0,1.518Z" transform="translate(-286.335 -1469.814)" fill="#fff" fill-rule="evenodd"/>
</svg>
