<svg xmlns="http://www.w3.org/2000/svg" width="19.981" height="12.576" viewBox="0 0 19.981 12.576">
  <g id="Preview" transform="translate(0 0)">
    <path id="Path_15" data-name="Path 15" d="M1177.477,1738.252a10.613,10.613,0,0,1,6.81,2.642,16.383,16.383,0,0,1,3.037,3.317.517.517,0,0,1-.014.709,16.2,16.2,0,0,1-4.124,4.079,10.177,10.177,0,0,1-4.941,1.8,9.491,9.491,0,0,1-5.123-1,14.933,14.933,0,0,1-5.461-4.867c-.169-.239-.285-.429-.057-.741a15.36,15.36,0,0,1,5.2-4.725A9.708,9.708,0,0,1,1177.477,1738.252Zm-3.75,6.247a3.759,3.759,0,1,0,7.517.1,3.759,3.759,0,1,0-7.517-.1Z" transform="translate(-1167.477 -1738.252)" fill="#1ca3ff"/>
    <path id="Path_16" data-name="Path 16" d="M1278.313,1795.876a1.294,1.294,0,0,0,1.249.628,1.629,1.629,0,0,0,.842-.445c.512-.546.38-1.268-.281-1.9a2.309,2.309,0,0,1,2.433.656,2.524,2.524,0,0,1-2.9,4.008A2.481,2.481,0,0,1,1278.313,1795.876Z" transform="translate(-1270.702 -1790.234)" fill="#1ca3ff"/>
  </g>
</svg>
