<svg xmlns="http://www.w3.org/2000/svg" width="18.002" height="17.833" viewBox="0 0 18.002 17.833">
  <g id="search-white" transform="translate(-2031.612 -850.786)">
    <path id="Path_29" data-name="Path 29" d="M2043.8,864.82l0,0a7.61,7.61,0,0,0,2-2.02l0,0a7.706,7.706,0,0,0-11.834-9.76C2027.249,859.758,2036.28,870.053,2043.8,864.82Zm-8.231-3.368a4.858,4.858,0,1,1,7.906-5.638C2046.847,860.915,2039.4,866.408,2035.571,861.452Z" transform="translate(0)" fill="#fff"/>
    <path id="Path_30" data-name="Path 30" d="M2068.341,885.055a7.906,7.906,0,0,1-2,2.021c2.836,2.836,2.888,3.066,3.657,3.066a1.422,1.422,0,0,0,1.422-1.421C2071.418,887.966,2071.2,887.916,2068.341,885.055Z" transform="translate(-21.804 -21.522)" fill="#fff"/>
  </g>
</svg>
