<svg xmlns="http://www.w3.org/2000/svg" width="19.152" height="18.617" viewBox="0 0 19.152 18.617">
  <g id="user-add" transform="translate(-1273.745 -263.196)">
    <path id="Path_106" data-name="Path 106" d="M1287.632,292.51h-.88a1.715,1.715,0,0,1,0-3.429h.88c0-.912-.043-1.214.187-1.654a2.066,2.066,0,0,0-2.987-.648,6.124,6.124,0,0,1-6.862-.008,2.045,2.045,0,0,0-2.892.511c-1.406,2.153-1.71,4.324-.865,6.111,1.127,2.381,4.558,2.774,7.182,2.774,1.627,0,4.9-.213,6.523-1.829C1287.568,293.821,1287.632,293.395,1287.632,292.51Z" transform="translate(0 -14.355)" fill="#fff"/>
    <path id="Path_107" data-name="Path 107" d="M1286.35,272.6c6.264-.023,6.073-9.439-.043-9.4C1280.169,263.234,1280.129,272.623,1286.35,272.6Z" transform="translate(-4.921)" fill="#fff"/>
    <path id="Path_108" data-name="Path 108" d="M1312.063,291.4c-.019-.013-.041-.021-.06-.033a.933.933,0,0,0-.1-.055.954.954,0,0,0-.371-.075h-1.643V289.6c0-.006,0-.011,0-.016a.884.884,0,0,0-.557-.849l-.037-.017-.03-.01a.9.9,0,0,0-.649,0l-.04.012-.028.013a.885.885,0,0,0-.564.868v1.644h-1.655a.884.884,0,0,0-.853.557c-.006.013-.012.024-.017.037s-.006.019-.009.029a.95.95,0,0,0-.062.328.937.937,0,0,0,.06.323c0,.012.007.024.011.037l.014.031a.886.886,0,0,0,.867.562h1.643v1.643a.886.886,0,0,0,.558.865l.037.017.029.009a.9.9,0,0,0,.651,0l.037-.011.031-.014a.883.883,0,0,0,.56-.849c0-.006,0-.012,0-.018v-1.643h1.643a.953.953,0,0,0,.533-1.742Z" transform="translate(-19.586 -15.752)" fill="#fff"/>
  </g>
</svg>
