<svg xmlns="http://www.w3.org/2000/svg" width="22.218" height="18.652" viewBox="0 0 22.218 18.652">
  <g id="users" transform="translate(-1363.57 -263.193)">
    <path id="Path_4" data-name="Path 4" d="M1374.68,286.779a6.131,6.131,0,0,1-6.874-.011,2.054,2.054,0,0,0-2.9.511c-1.406,2.158-1.714,4.332-.867,6.124,1.188,2.507,4.849,2.684,6.412,2.76,2.637.128,6.752-.3,7.947-2.657-.266.524,1.64-2.3-.777-6.164A2.067,2.067,0,0,0,1374.68,286.779Z" transform="translate(0 -14.339)" fill="#fff"/>
    <path id="Path_5" data-name="Path 5" d="M1376.186,272.614c6.236-.023,6.109-9.456-.044-9.421S1369.946,272.637,1376.186,272.614Z" transform="translate(-4.915 0)" fill="#fff"/>
    <path id="Path_6" data-name="Path 6" d="M1406.566,282.354a1.284,1.284,0,0,0-1.825-.348,3.661,3.661,0,0,1-2.111.647c-1.916.016-2.1-1.073-3.153-.87-.765.145-1.43,1.232-.841,1.366.565.129,1.116.46,1.648,1.91.964,2.625-.164,2.778,2.32,2.778,1.523,0,3.753-.3,4.444-1.66C1407.728,284.829,1407.023,283.093,1406.566,282.354Z" transform="translate(-21.541 -11.479)" fill="#fff"/>
    <path id="Path_7" data-name="Path 7" d="M1404.766,273.222c3.864-.008,3.793-5.858-.026-5.842C1400.946,267.4,1400.874,273.222,1404.766,273.222Z" transform="translate(-23.681 -2.589)" fill="#fff"/>
  </g>
</svg>
