<svg xmlns="http://www.w3.org/2000/svg" xmlns:xlink="http://www.w3.org/1999/xlink" width="270.5" height="190.275" viewBox="0 0 270.5 190.275">
  <defs>
    <linearGradient id="linear-gradient" x1="29.483" y1="0.419" x2="29.579" y2="0.622" gradientUnits="objectBoundingBox">
      <stop offset="0.018" stop-color="#e6e9ed"/>
      <stop offset="1" stop-color="#9aa5b8"/>
    </linearGradient>
  </defs>
  <g id="Group_668" data-name="Group 668" transform="translate(-505 -2064.496)">
    <g id="Group_648" data-name="Group 648" transform="translate(-3483.623 -7125.295)">
      <g id="Group_646" data-name="Group 646" transform="translate(3988.623 9216.512)">
        <path id="Path_2269" data-name="Path 2269" d="M3997.414,9336.153l95.243,54.989,169.635-89.226-95.405-54.685Z" transform="translate(-3991.792 -9227.588)" fill="#cfd7e3" opacity="0.1"/>
        <g id="Group_645" data-name="Group 645">
          <path id="Path_2270" data-name="Path 2270" d="M4002.591,9288.425c30.078,17.639,88.567,51.637,90.632,52.85.53.253,1.062.5,1.586.717,10.151,4.316,20.219,2.806,30.908-2.094l133.406-67.885-95.444-55.5-136.006,70.5-38.729-23c0,.164-.325-1.267-.318-1.11C3988.513,9275.409,3991.871,9282.09,4002.591,9288.425Z" transform="translate(-3988.623 -9216.512)" fill="#eef1f5"/>
          <g id="Group_643" data-name="Group 643" transform="translate(85.765 96.816)">
            <path id="Path_2271" data-name="Path 2271" d="M4159.325,9384.913c-.811.29-1.6.605-2.437.865a7.2,7.2,0,0,0-3.237,1.881,11.5,11.5,0,0,1-1.557,1.337,3.772,3.772,0,0,1-2.3.57c-.864-.016-1.734-.031-2.587-.106a10.926,10.926,0,0,0-4.059.357c-.491.142-1.009.257-1.508.392a5.983,5.983,0,0,1-4.631-.461c-.087-.047-.181-.092-.262-.144a11.333,11.333,0,0,0-5.437-1.65,12.563,12.563,0,0,1-1.465-.219,3.094,3.094,0,0,1-2.408-1.434,7.751,7.751,0,0,1-.483-1.218,4.006,4.006,0,0,0-1.956-2.235c-.369-.221-.731-.444-1.092-.669-1.159-.723-1.471-1.54-.845-2.462a3.178,3.178,0,0,1,.313-.419,3.229,3.229,0,0,0,1.008-3.526,2.1,2.1,0,0,1-.079-.456c-.144-.9.237-1.705,1.693-2.124a12.056,12.056,0,0,0,5.909-3.416c.762-.858,2.195-1.047,3.765-.96.479.026.959.051,1.433.1a11.68,11.68,0,0,0,4.473-.4c.662-.19,1.357-.352,2.061-.485a5.447,5.447,0,0,1,3.441.406c.555.267,1.106.538,1.635.822a8.912,8.912,0,0,0,3.536,1.056c.711.063,1.418.158,2.115.265a3.454,3.454,0,0,1,2.774,1.542,7.516,7.516,0,0,1,.529,1.34,3.735,3.735,0,0,0,1.8,2c.443.275.853.568,1.29.846,1.154.732,1.41,1.583.632,2.429a4.128,4.128,0,0,0-1.169,4.3A1.505,1.505,0,0,1,4159.325,9384.913Zm-6.986.078c5.506-3.206,5.473-8.394-.072-11.581s-14.568-3.2-20.067-.026-5.462,8.383.088,11.581C4137.853,9388.172,4146.855,9388.185,4152.339,9384.991Z" transform="translate(-4122.745 -9367.916)" fill="#f2a7db"/>
            <path id="Path_2272" data-name="Path 2272" d="M4155.147,9386.623c-4.958,2.858-13.069,2.842-18.054-.037s-5.01-7.547-.042-10.415,13.025-2.855,18.029.036S4160.109,9383.763,4155.147,9386.623Z" transform="translate(-4126.564 -9370.119)" fill="#f2a7db"/>
          </g>
          <path id="Path_2273" data-name="Path 2273" d="M4002.591,9314.582c30.078,17.638,88.567,51.636,90.632,52.849.53.253,1.062.5,1.586.718-8.543-5.012-10.413-13.637-12.44-24.969l-93.743-54.121C3988.513,9301.566,3991.871,9308.246,4002.591,9314.582Z" transform="translate(-3988.623 -9242.668)" fill="url(#linear-gradient)"/>
          <g id="Group_644" data-name="Group 644" transform="translate(88.085 19.804)">
            <path id="Path_2274" data-name="Path 2274" d="M4267.053,9302.941a1.236,1.236,0,0,1-.64-.18l-57.768-35.119a1.235,1.235,0,0,1,1.284-2.109l57.767,35.117a1.235,1.235,0,0,1-.643,2.291Z" transform="translate(-4155.822 -9253.925)" fill="#004680" opacity="0.4"/>
            <path id="Path_2275" data-name="Path 2275" d="M4265.392,9264.219a1.226,1.226,0,0,1-.64-.18l-23.469-14.267a1.235,1.235,0,0,1,1.283-2.111l23.469,14.268a1.235,1.235,0,0,1-.644,2.29Z" transform="translate(-4167.59 -9247.481)" fill="#004680" opacity="0.4"/>
            <path id="Path_2276" data-name="Path 2276" d="M4242.625,9263.124a1.216,1.216,0,0,1-.64-.18l-11.734-7.131a1.235,1.235,0,0,1,1.284-2.111l11.732,7.133a1.234,1.234,0,0,1-.643,2.289Z" transform="translate(-4163.612 -9249.659)" fill="#004680" opacity="0.4"/>
            <path id="Path_2277" data-name="Path 2277" d="M4253.44,9310.395a1.226,1.226,0,0,1-.64-.18l-57.768-35.118a1.235,1.235,0,1,1,1.283-2.11l57.767,35.118a1.235,1.235,0,0,1-.643,2.29Z" transform="translate(-4150.914 -9256.612)" fill="#004680" opacity="0.4"/>
            <path id="Path_2278" data-name="Path 2278" d="M4239.828,9317.85a1.219,1.219,0,0,1-.64-.181l-57.768-35.118a1.235,1.235,0,0,1,1.283-2.111l57.768,35.12a1.235,1.235,0,0,1-.643,2.29Z" transform="translate(-4146.006 -9259.3)" fill="#004680" opacity="0.4"/>
            <path id="Path_2279" data-name="Path 2279" d="M4226.215,9325.3a1.227,1.227,0,0,1-.641-.18L4167.807,9290a1.235,1.235,0,1,1,1.283-2.11l57.768,35.118a1.235,1.235,0,0,1-.643,2.29Z" transform="translate(-4141.098 -9261.987)" fill="#004680" opacity="0.4"/>
            <path id="Path_2280" data-name="Path 2280" d="M4212.6,9332.758a1.226,1.226,0,0,1-.64-.18l-57.768-35.119a1.235,1.235,0,1,1,1.284-2.11l57.767,35.119a1.235,1.235,0,0,1-.643,2.29Z" transform="translate(-4136.19 -9264.675)" fill="#004680" opacity="0.4"/>
            <path id="Path_2281" data-name="Path 2281" d="M4198.987,9340.211a1.226,1.226,0,0,1-.64-.18l-57.768-35.117a1.235,1.235,0,0,1,1.284-2.111l57.768,35.118a1.235,1.235,0,0,1-.643,2.29Z" transform="translate(-4131.281 -9267.362)" fill="#004680" opacity="0.4"/>
            <path id="Path_2282" data-name="Path 2282" d="M4165.335,9334.532a1.228,1.228,0,0,1-.621-.168l-37.728-21.984a1.235,1.235,0,0,1,1.244-2.135l37.728,21.985a1.235,1.235,0,0,1-.624,2.3Z" transform="translate(-4126.374 -9270.051)" fill="#004680" opacity="0.4"/>
          </g>
        </g>
      </g>
      <g id="Group_647" data-name="Group 647" transform="translate(4051.6 9285.285)" opacity="0.4">
        <path id="Path_2283" data-name="Path 2283" d="M4096.79,9326.735l3.854-1.272a2.575,2.575,0,0,0,.247-.086c.469-.209.641-.482.45-.811-.183-.312-.6-.395-1.144-.375a98.369,98.369,0,0,1-10.461-.052c-.549-.039-1.1-.078-1.655-.078-.771,0-1.153.353-.889.772a1.313,1.313,0,0,0,1.112.449c1.488.07,2.976.146,4.465.205.867.033,1.736.04,2.6.059l.026.1c-.967.148-1.93.308-2.9.442-.6.082-1.049.23-1.059.619s.413.564,1.013.651c1.1.159,2.19.327,3.37.5-.6.173-.994.432-.713.769a2.012,2.012,0,0,0,1.018.521c1.19.248,2.42.432,3.65.645-.985.631-.93.9.278,1.361a5.831,5.831,0,0,0,.962.286c1.08.208,2.172.4,3.265.592-.926.429-.772.974.35,1.229.446.1.907.182,1.4.278-.17.449.227.736.778,1,.646.313,1.206.69,1.875.985,1.126.5,2.288.973,3.477,1.421a1.552,1.552,0,0,0,1.558-.238c.3-.295.135-.567-.487-.8-.284-.105-.584-.2-.868-.3a17.61,17.61,0,0,1-3.39-1.65c.965-.653.71-1.1-.679-1.314l-1.137-.174c1.125-.615.911-1.131-.5-1.356-1-.159-2.024-.253-3.032-.391-.492-.067-.97-.169-1.537-.271.353-.168.583-.289.833-.395.471-.2.859-.434.677-.8s-.722-.445-1.3-.488c-.8-.057-1.589-.135-2.383-.2a.931.931,0,0,1,.444-.18c.644-.113,1.056-.346,1.025-.75-.034-.441-.643-.5-1.229-.56C4099.056,9326.979,4097.969,9326.861,4096.79,9326.735Z" transform="translate(-4087.109 -9324.062)" fill="#004680"/>
        <path id="Path_2284" data-name="Path 2284" d="M4096.79,9326.735c1.18.126,2.266.243,3.355.355.587.061,1.2.118,1.229.56.031.4-.381.637-1.025.75a.931.931,0,0,0-.444.18c.794.068,1.586.146,2.383.2.582.043,1.124.126,1.3.488s-.206.6-.677.8c-.25.105-.48.227-.833.395.567.1,1.045.2,1.537.271,1.008.138,2.035.231,3.032.391,1.416.226,1.63.741.5,1.356l1.137.174c1.389.213,1.645.661.679,1.314a17.61,17.61,0,0,0,3.39,1.65c.283.105.583.2.868.3.622.232.783.5.487.8a1.552,1.552,0,0,1-1.558.238c-1.188-.448-2.35-.923-3.477-1.421-.668-.295-1.229-.672-1.875-.985-.551-.269-.948-.556-.778-1-.489-.1-.95-.177-1.4-.278-1.122-.255-1.276-.8-.35-1.229-1.093-.2-2.186-.384-3.265-.592a5.831,5.831,0,0,1-.962-.286c-1.208-.457-1.263-.73-.278-1.361-1.23-.213-2.46-.4-3.65-.645a2.012,2.012,0,0,1-1.018-.521c-.281-.337.118-.6.713-.769-1.18-.178-2.273-.346-3.37-.5-.6-.087-1.023-.267-1.013-.651s.463-.537,1.059-.619c.972-.135,1.935-.294,2.9-.442l-.026-.1c-.869-.019-1.738-.025-2.6-.059-1.489-.059-2.978-.135-4.465-.205a1.313,1.313,0,0,1-1.112-.449c-.264-.42.119-.773.889-.772.552,0,1.105.039,1.655.078a98.369,98.369,0,0,0,10.461.052c.548-.02.961.063,1.144.375.191.328.019.6-.45.811a2.575,2.575,0,0,1-.247.086Z" transform="translate(-4087.109 -9324.062)" fill="#004680"/>
      </g>
    </g>
    <g id="Group_667" data-name="Group 667" transform="translate(-3936.227 -7140.934)">
      <g id="square" transform="translate(4666.052 9262.51)">
        <path id="Path_2296" data-name="Path 2296" d="M4859.846,9269.271l-14.653,8.46.016-16.835,14.637-8.445Z" transform="translate(-4830.54 -9225.264)" fill="#b4abfb"/>
        <path id="Path_2297" data-name="Path 2297" d="M4822.738,9269.257l14.653,8.46.016-16.834-14.666-8.472Z" transform="translate(-4822.738 -9225.25)" fill="#b4abfb"/>
        <path id="Path_2298" data-name="Path 2298" d="M4837.409,9256.388l-14.667-8.472,14.606-8.443,14.7,8.47Z" transform="translate(-4822.74 -9220.755)" fill="#d3cefb"/>
        <path id="Path_2299" data-name="Path 2299" d="M4852.149,9257.184l-6.957-4.017.007,7.992,6.949,4.009Z" transform="translate(-4830.54 -9225.513)" fill="#998dfb"/>
        <path id="Path_2300" data-name="Path 2300" d="M4834.533,9257.184l6.957-4.017.007,7.992-6.962,4.021Z" transform="translate(-4826.836 -9225.513)" fill="#998dfb"/>
        <path id="Path_2301" data-name="Path 2301" d="M4841.5,9265.414l-6.962,4.021,6.934,4.008,6.978-4.021Z" transform="translate(-4826.837 -9229.769)" fill="#998dfb"/>
        <g id="Group_657" data-name="Group 657" transform="translate(9.87)">
          <path id="Path_2302" data-name="Path 2302" d="M4849.976,9220.515l-4.783,2.762.005-5.494,4.777-2.757Z" transform="translate(-4840.41 -9212.261)" fill="#ee72f2"/>
          <path id="Path_2303" data-name="Path 2303" d="M4838.781,9215.541l-.917-.529v5.5l4.782,2.762.012-5.654" transform="translate(-4837.864 -9212.256)" fill="#ee72f2"/>
          <path id="Path_2304" data-name="Path 2304" d="M4838.957,9214.176l-1.092-.631,4.768-2.756,4.8,2.765-4.761,2.747" transform="translate(-4837.864 -9210.789)" fill="#f0a7f2"/>
        </g>
        <line id="Line_234" data-name="Line 234" x1="0.371" y1="0.215" transform="translate(12.529 34.448)" fill="#f0a7f2"/>
      </g>
      <g id="square-2" data-name="square" transform="translate(4488.227 9205.43)">
        <path id="Path_2305" data-name="Path 2305" d="M4479.022,9217.516l-9.4,5.424.011-10.794,9.386-5.415Z" transform="translate(-4460.23 -9201.299)" fill="#a0bbfb"/>
        <path id="Path_2306" data-name="Path 2306" d="M4457.694,9208.127l-2.465-1.424,0,10.8,9.4,5.425.01-10.794-4.977-2.875" transform="translate(-4455.227 -9201.289)" fill="#a0bbfb"/>
        <path id="Path_2307" data-name="Path 2307" d="M4458.226,9205.552l-3-1.73,9.367-5.415,9.424,5.432-9.386,5.416-5.21-3.01" transform="translate(-4455.228 -9198.406)" fill="#cedefb"/>
        <path id="Path_2308" data-name="Path 2308" d="M4474.087,9209.764l-4.46-2.576,0,5.125,4.456,2.571Z" transform="translate(-4460.23 -9201.457)" fill="#83a6fb"/>
        <path id="Path_2309" data-name="Path 2309" d="M4462.791,9209.764l4.461-2.576,0,5.125-4.465,2.579Z" transform="translate(-4457.855 -9201.457)" fill="#83a6fb"/>
        <path id="Path_2310" data-name="Path 2310" d="M4467.257,9215.041l-4.465,2.58,4.447,2.569,4.474-2.578Z" transform="translate(-4457.855 -9204.186)" fill="#83a6fb"/>
        <path id="Path_2311" data-name="Path 2311" d="M4472.693,9215.885l-3.066,1.771,0-3.523,3.063-1.768Z" transform="translate(-4460.23 -9203.256)" fill="#c6f2c7"/>
        <path id="Path_2312" data-name="Path 2312" d="M4465.9,9212.883l-.97-.527v3.526l3.067,1.771,0-3.544" transform="translate(-4458.597 -9203.253)" fill="#a7e8a7"/>
        <path id="Path_2313" data-name="Path 2313" d="M4466.223,9212.145l-1.295-.729,3.057-1.767,3.076,1.771-3.071,1.77" transform="translate(-4458.598 -9202.313)" fill="#c6f2c7"/>
      </g>
      <g id="square-3" data-name="square" transform="translate(4502.322 9224.493)">
        <path id="Path_2314" data-name="Path 2314" d="M4514.771,9258.092l-14.984,8.651.016-17.214,14.968-8.637Z" transform="translate(-4484.804 -9232.231)" fill="#a0bbfb"/>
        <path id="Path_2315" data-name="Path 2315" d="M4480.759,9243.121l-3.931-2.271,0,17.227,14.984,8.651.017-17.214-7.936-4.585" transform="translate(-4476.826 -9232.217)" fill="#a0bbfb"/>
        <path id="Path_2316" data-name="Path 2316" d="M4481.608,9239.014l-4.778-2.76,14.937-8.634,15.028,8.661-14.967,8.637-8.309-4.8" transform="translate(-4476.827 -9227.62)" fill="#cedefb"/>
        <path id="Path_2317" data-name="Path 2317" d="M4506.9,9245.73l-7.114-4.105.008,8.172,7.105,4.1Z" transform="translate(-4484.804 -9232.486)" fill="#83a6fb"/>
        <path id="Path_2318" data-name="Path 2318" d="M4488.887,9245.73l7.113-4.105.008,8.172-7.12,4.112Z" transform="translate(-4481.016 -9232.486)" fill="#83a6fb"/>
        <path id="Path_2319" data-name="Path 2319" d="M4496.009,9254.148l-7.12,4.111,7.091,4.1,7.135-4.112Z" transform="translate(-4481.017 -9236.838)" fill="#83a6fb"/>
        <path id="Path_2320" data-name="Path 2320" d="M4504.678,9255.492l-4.89,2.823.005-5.618,4.885-2.818Z" transform="translate(-4484.804 -9235.354)" fill="#c6f2c7"/>
        <path id="Path_2321" data-name="Path 2321" d="M4493.841,9250.706l-1.546-.841v5.622l4.891,2.823,0-5.651" transform="translate(-4482.2 -9235.349)" fill="#a7e8a7"/>
        <path id="Path_2322" data-name="Path 2322" d="M4494.359,9249.527l-2.065-1.162,4.875-2.818,4.905,2.826-4.9,2.821" transform="translate(-4482.2 -9233.849)" fill="#c6f2c7"/>
      </g>
    </g>
  </g>
</svg>
