<svg xmlns="http://www.w3.org/2000/svg" xmlns:xlink="http://www.w3.org/1999/xlink" width="234.786" height="269.908" viewBox="0 0 234.786 269.908">
  <defs>
    <linearGradient id="linear-gradient" x1="0.609" y1="1.113" x2="0.521" y2="0.37" gradientUnits="objectBoundingBox">
      <stop offset="0" stop-color="#feffff"/>
      <stop offset="0.296" stop-color="#e5ffff"/>
      <stop offset="1" stop-color="#bfbafb"/>
    </linearGradient>
  </defs>
  <g id="Group_680" data-name="Group 680" transform="translate(-5181.045 -9214.38)">
    <g id="Group_678" data-name="Group 678" transform="translate(5249.615 9239.676)">
      <path id="Path_2343" data-name="Path 2343" d="M5333.271,9426.464l-95.49-56.568c-2.1-1.214-1.839-3.332.588-4.733l3.5-2.4c2.428-1.4,6.1-1.554,8.2-.339l95.49,56.7c2.1,1.213,1.838,3.332-.588,4.733l-3.5,2.265C5339.043,9427.525,5335.373,9427.678,5333.271,9426.464Z" transform="translate(-5234.079 -9197.765)" fill="#6d7780" opacity="0.1"/>
      <g id="Group_677" data-name="Group 677">
        <path id="Path_2344" data-name="Path 2344" d="M5342.563,9290.3l-96.147-55.509a2.407,2.407,0,0,0-2.825-.08l-.015-.018L5235,9240.2l7.082,10,.664,1.425V9384.5a8.107,8.107,0,0,0,3.672,6.339L5311,9428.132l19.05,11,2.181,4.682s4.288,9.14,4.465,9.057,8.348-5.213,8.348-5.213l0-.01c.736-.348,1.211-1.173,2.332-2.739V9296.314C5346.246,9294.313,5344.589,9291.479,5342.563,9290.3Z" transform="translate(-5234.47 -9234.299)" fill="url(#linear-gradient)"/>
        <g id="product_ui" data-name="product ui" transform="translate(0 5.171)">
          <g id="Group_676" data-name="Group 676">
            <path id="Path_2345" data-name="Path 2345" d="M5234.588,9340.455v49.053a8.111,8.111,0,0,0,3.671,6.34l64.58,37.287,31.568,18.223c2.024,1.166,3.682.236,3.682-2.1V9300.672a8.129,8.129,0,0,0-3.682-6.342l-96.148-55.508c-2.024-1.176-3.671-.234-3.671,2.1v94.246" transform="translate(-5234.588 -9238.315)" fill="#f9fbfc"/>
            <g id="Group_669" data-name="Group 669" transform="translate(5.433 19.019)">
              <path id="Path_2346" data-name="Path 2346" d="M5240.485,9257.766l46.482,26.838c.926.533,1.677-.033,1.677-1.268h0a4.017,4.017,0,0,0-1.677-3.205l-46.482-26.836c-.926-.533-1.676.033-1.676,1.268h0A4.016,4.016,0,0,0,5240.485,9257.766Z" transform="translate(-5238.81 -9253.095)" fill="#cfd9e6"/>
              <path id="Path_2347" data-name="Path 2347" d="M5240.485,9265.408l24.713,14.268c.926.533,1.676-.035,1.676-1.27h0a4.016,4.016,0,0,0-1.676-3.2l-24.713-14.268c-.926-.535-1.676.033-1.676,1.268h0A4.019,4.019,0,0,0,5240.485,9265.408Z" transform="translate(-5238.81 -9250.902)" fill="#cfd9e6"/>
            </g>
            <g id="Group_670" data-name="Group 670" transform="translate(8.981 51.152)">
              <path id="Path_2348" data-name="Path 2348" d="M5242.891,9281.754l77.036,44.721c.731.422,1.324-.025,1.324-1h0a3.172,3.172,0,0,0-1.324-2.531l-77.036-44.723c-.731-.422-1.325.025-1.325,1h0A3.177,3.177,0,0,0,5242.891,9281.754Z" transform="translate(-5241.566 -9278.062)" fill="#cfd9e6"/>
            </g>
            <g id="Group_671" data-name="Group 671" transform="translate(8.981 63.865)">
              <path id="Path_2349" data-name="Path 2349" d="M5242.891,9291.63l77.036,44.723c.731.422,1.324-.025,1.324-1h0a3.169,3.169,0,0,0-1.324-2.529l-77.036-44.723c-.731-.422-1.325.025-1.325,1h0A3.17,3.17,0,0,0,5242.891,9291.63Z" transform="translate(-5241.566 -9287.94)" fill="#cfd9e6"/>
            </g>
            <g id="Group_672" data-name="Group 672" transform="translate(8.981 76.578)">
              <path id="Path_2350" data-name="Path 2350" d="M5242.891,9301.508l77.036,44.723c.731.422,1.324-.025,1.324-1h0a3.169,3.169,0,0,0-1.324-2.529l-77.036-44.723c-.731-.423-1.325.025-1.325,1h0A3.169,3.169,0,0,0,5242.891,9301.508Z" transform="translate(-5241.566 -9297.818)" fill="#cfd9e6"/>
            </g>
            <g id="Group_673" data-name="Group 673" transform="translate(8.981 89.29)">
              <path id="Path_2351" data-name="Path 2351" d="M5242.891,9311.387l77.036,44.723c.731.421,1.324-.026,1.324-1h0a3.173,3.173,0,0,0-1.324-2.53l-77.036-44.722c-.731-.423-1.325.024-1.325,1h0A3.171,3.171,0,0,0,5242.891,9311.387Z" transform="translate(-5241.566 -9307.696)" fill="#cfd9e6"/>
            </g>
            <g id="Group_674" data-name="Group 674" transform="translate(8.981 102.003)">
              <path id="Path_2352" data-name="Path 2352" d="M5242.891,9321.266l77.036,44.723c.731.42,1.324-.027,1.324-1h0a3.172,3.172,0,0,0-1.324-2.531l-77.036-44.723c-.731-.422-1.325.025-1.325,1h0A3.177,3.177,0,0,0,5242.891,9321.266Z" transform="translate(-5241.566 -9317.573)" fill="#cfd9e6"/>
            </g>
            <g id="Group_675" data-name="Group 675" transform="translate(8.981 114.716)">
              <path id="Path_2353" data-name="Path 2353" d="M5242.891,9331.143l35.345,20.436c.732.422,1.324-.025,1.324-1h0a3.167,3.167,0,0,0-1.324-2.529l-35.345-20.437c-.731-.422-1.325.027-1.325,1h0A3.175,3.175,0,0,0,5242.891,9331.143Z" transform="translate(-5241.566 -9327.451)" fill="#cfd9e6"/>
            </g>
          </g>
        </g>
      </g>
    </g>
    <ellipse id="Ellipse_365" data-name="Ellipse 365" cx="46.279" cy="80.161" rx="46.279" ry="80.161" transform="translate(5213.223 9300.659) rotate(-30.311)" fill="none" stroke="#ff82e7" stroke-miterlimit="10" stroke-width="2.875" opacity="0.4"/>
    <ellipse id="Ellipse_366" data-name="Ellipse 366" cx="66.886" cy="115.855" rx="66.886" ry="115.855" transform="translate(5182.225 9283.073) rotate(-30.311)" fill="none" stroke="#ff82e7" stroke-miterlimit="10" stroke-width="1.725" opacity="0.2"/>
    <g id="lock" transform="translate(5268.218 9293.972)">
      <path id="Path_2354" data-name="Path 2354" d="M5250.959,9304.135l10.185-6.28,0,0a4.291,4.291,0,0,1,4.208.444l33.354,19.567c3.64,2.135,6.562,7.815,6.528,12.688l-.2,29.146c-.018,2.614-.888,4.453-2.249,5.277l.009.015c-.1.057-9.879,6.117-10.42,6.4-.017.009-.037-.206-.041-.205-.029.009-2.8-4.458-6.9-11.083l-22.756-13.351c-3.64-2.134-6.562-7.815-6.529-12.687l.148-21.249C5253.056,9307.544,5250.959,9304.135,5250.959,9304.135Z" transform="translate(-5248.494 -9270.46)" fill="#f272c5"/>
      <path id="Path_2355" data-name="Path 2355" d="M5255.572,9349.9l33.354,19.567c3.639,2.135,6.617-.084,6.651-4.957l.2-29.146c.033-4.873-2.89-10.554-6.529-12.688l-33.353-19.567c-3.64-2.136-6.618.084-6.652,4.957l-.2,29.146C5249.01,9342.083,5251.933,9347.764,5255.572,9349.9Z" transform="translate(-5249.043 -9269.081)" fill="#f2a7db"/>
      <path id="Path_2356" data-name="Path 2356" d="M5263.433,9322.955c.022-3.106,2.228-4.346,4.925-2.763a10.81,10.81,0,0,1,4.848,8.5c-.015,2.083-1.011,3.319-2.477,3.438l-.083,11.812-4.885-2.866.081-11.812A10.661,10.661,0,0,1,5263.433,9322.955Z" transform="translate(-5244.914 -9264.143)" fill="#eb0fb0"/>
      <g id="Group_679" data-name="Group 679" transform="translate(11.086 29.967)">
        <path id="Path_2357" data-name="Path 2357" d="M5277.985,9311.609c.118-.066.255-.117.381-.177a8.036,8.036,0,0,1,6.6.118c.064.035.138.059.2.1,1.969,1.154,1.947,3.013-.052,4.147-.057.032-.121.053-.179.084a8.043,8.043,0,0,1-6.605.071c-.134-.063-.277-.119-.4-.19C5275.963,9314.6,5275.986,9312.744,5277.985,9311.609Z" transform="translate(-5252.258 -9296.612)" fill="#970a9c"/>
        <path id="Path_2358" data-name="Path 2358" d="M5259.172,9300.6c.072-.041.156-.068.23-.107a8.033,8.033,0,0,1,6.606-.023c.116.057.241.1.35.168,1.971,1.154,1.947,3.012-.052,4.148-.1.059-.221.1-.329.152a8.034,8.034,0,0,1-6.606-.068c-.081-.043-.172-.076-.251-.121C5257.15,9303.6,5257.173,9301.736,5259.172,9300.6Z" transform="translate(-5257.658 -9299.771)" fill="#970a9c"/>
      </g>
      <path id="Path_2359" data-name="Path 2359" d="M5274.749,9278.465c9.672,5.019,15.418,17.072,15.35,26.9l-.112,16.032-.03,4.328a8.043,8.043,0,0,1-6.605.071l.031-4.518.138-19.773c.04-5.646-3.915-12.578-8.824-15.458s-8.919-.622-8.958,5.026l-.112,16.083-.031,4.47a8.037,8.037,0,0,1-6.606-.069l.031-4.376.139-19.968C5259.227,9277.385,5265.976,9273.911,5274.749,9278.465Z" transform="translate(-5246.189 -9276.487)" fill="#323d80"/>
    </g>
    <path id="Path_2360" data-name="Path 2360" d="M5301.355,9394.488c-.685-.592-1.393-1.127-2.051-1.787a19.564,19.564,0,0,0-4.626-3.525,12.812,12.812,0,0,1-1.857-1.229,8.667,8.667,0,0,1-2.587-3.859c-.607-1.57-1.15-3.154-1.842-4.707-.473-1.064-1.155-2.084-1.734-3.129a7.472,7.472,0,0,1-1.264-4.414,8.175,8.175,0,0,1,.466-1.859,10.6,10.6,0,0,0,.691-4.5,14.623,14.623,0,0,1,.051-1.574c.1-1.666.857-2.523,2.174-2.467a9.33,9.33,0,0,0,5.3-1.332c1.048-.619,2.363-.123,3.789,1.186.5.455,1,.914,1.484,1.393a15.941,15.941,0,0,0,3.359,2.568c.709.391,1.419.836,2.124,1.316a7.592,7.592,0,0,1,2.615,3.32,8.632,8.632,0,0,1,.387.926,36.29,36.29,0,0,0,3.683,8.033,6.3,6.3,0,0,1,.927,5.2,28.244,28.244,0,0,0-.906,3.375,15.97,15.97,0,0,0-.067,2.574c0,1.273-.128,2.467-.941,2.945a3.132,3.132,0,0,1-1.743.447,7.137,7.137,0,0,0-4.385,1.1,2.473,2.473,0,0,1-2.667.135c-.12-.059-.241-.139-.362-.207Z" transform="translate(29.596 41.405)" fill="#03c1ff" opacity="0.3"/>
    <ellipse id="Ellipse_367" data-name="Ellipse 367" cx="6.571" cy="11.383" rx="6.571" ry="11.383" transform="translate(5316.709 9412.355) rotate(-30.311)" opacity="0.3" stroke="#fff" stroke-linecap="round" stroke-linejoin="round" stroke-width="1.725" fill="#03c1ff"/>
  </g>
</svg>
