<svg xmlns="http://www.w3.org/2000/svg" xmlns:xlink="http://www.w3.org/1999/xlink" width="249.963" height="177.945" viewBox="0 0 249.963 177.945">
  <defs>
    <linearGradient id="linear-gradient" x1="0.545" y1="0.366" x2="0.385" y2="0.776" gradientUnits="objectBoundingBox">
      <stop offset="0" stop-color="#7ab4f4"/>
      <stop offset="0.75" stop-color="#f0f7ff"/>
    </linearGradient>
    <linearGradient id="linear-gradient-2" x1="0.57" y1="0.194" x2="0.424" y2="0.858" gradientUnits="objectBoundingBox">
      <stop offset="0" stop-color="#7ab4f4"/>
      <stop offset="1" stop-color="#dfedfa"/>
    </linearGradient>
  </defs>
  <g id="Group_583" data-name="Group 583" transform="translate(-1873.147 -9332.888)">
    <path id="Path_2074" data-name="Path 2074" d="M2106.109,9453.048a2.992,2.992,0,0,1-.04.4,4.214,4.214,0,0,1-.251.9,6.164,6.164,0,0,1-1.637,2.229,9.507,9.507,0,0,1-1.378,1.043c-.058.038-.117.075-.18.11a3.065,3.065,0,0,1-.278.171l-1.917,1.109-3.631,2.091-1.97,1.14-.516.3-2.339,1.351-3.029,1.75-1.925,1.112-1.23.709-2.262,1.307-2.441,1.41-1.867,1.076-1.948,1.127-2.194,1.265-1.841,1.063-1.822,1.05-2.656,1.535-2.132,1.23-1.248.722-1.768,1.02-3.371,1.943-2.06,1.193-.656.377-1.714.991-4.084,2.361-1.992,1.148-.063.037-1.67.96-4.788,2.765-1.4.809-.543.313-1.078.625-5.506,3.177-.722.417-1.149.665-.426.246-6.221,3.585-.058.037-1.53.885-.211.121-6.108,3.527-.6.345-.893.517-.858.5h0l-5.5,3.174-1.261.727-.193.112-1.508.868-4.892,2.824-1.4.813-.512.3-1.647.953-4.286,2.472-1.373.795-1.207.694-1.593.92-3.671,2.119-1.342.777-1.9,1.094-1.553.9-1.158.668c-4.564,2.634-11.462,2.917-15.415.639l-25.684-14.829-7.229-4.175-9.416-5.435-9.052-5.227-9.7-5.6-30.271-17.476.579-.332,2.024-1.171,1.09-.63.982-.564,1.248-.723,1.472-.853,1.081-.619,1.567-.907,1.239-.718.911-.524,1.068-.617,2.145-1.237,1.2-.691.39-.223,1.028-.6,2.751-1.584,1.019-.587.2-.113.839-.488,3.312-1.912.44-.256.9-.521.26-.148,3.635-2.1.126-.073,1.036-.6.305-.174,3.33-1.926.7-.4.462-.264.871-.5,2.764-1.6,1.158-.665.112-.063,1.329-.771,2.2-1.27,1.154-.665.687-.394,1.323-.767,1.629-.943,1.158-.666,1.252-.721,1.328-.769,1.064-.614,1.158-.67,1.817-1.05,1.319-.758.5-.292,1.153-.668,2.388-1.378,1.257-.723.068-.041,1.09-.628,2.953-1.705.687-.4.633-.367.521-.3,3.527-2.039.108-.062,1.158-.668.053-.031,3.591-2.07.453-.265.7-.408.615-.354,3.02-1.741,1.023-.589.14-.081,1.18-.682,2.451-1.418,1.162-.669.436-.251,1.314-.759,1.881-1.086,1.167-.678,1-.579,1.319-.759,1.31-.754,1.167-.677,1.571-.907,1.315-.758.741-.427,1.167-.673,2.14-1.238,1.315-.759.175-.1,1.172-.677,2.706-1.562.915-.53.4-.228.777-.45,3.281-1.895.336-.193.974-.564.206-.116,3.613-2.087.229-.135.956-.552.359-.207,4.052-2.338,1.31-.758,4.057-2.344,1.31-.753,3.186-1.841,28.682,16.557,3.236,1.871,5.933,3.424,2.612,1.509,4.707,2.714,2.361,1.364,1.414.817,1.908,1.1.83.48,2.217,1.279.063.036,1.827,1.054,1.961,1.132.988.569,1.135.654.636.369,2.859,1.651.188.107,1.539.889.512.3,2.3,1.328,1.31.76.391.225,1.624.938,1.19.687,1.669.961.727.422,1.97,1.14.135.076,1.656.956,1.827,1.054,1.064.615.87.5.763.439,2.935,1.691.036.023,1.625.938.251.147,3,1.729.4.232c.13.077.251.153.372.233a6.162,6.162,0,0,1,.7.516,5.153,5.153,0,0,1,.632.635,3.893,3.893,0,0,1,.925,1.938A3.229,3.229,0,0,1,2106.109,9453.048Z" transform="translate(0 -19.858)" fill="#6d7780" stroke="rgba(0,0,0,0)" stroke-miterlimit="10" stroke-width="1" opacity="0.1"/>
    <path id="Path_2075" data-name="Path 2075" d="M1965.5,9486.846l-91.349-52.742v-8.529l13.9.508,124.053-71.623,91.35,52.74c3.95,2.281,3.455,6.266-1.107,8.9l-121.429,70.107C1976.353,9488.84,1969.452,9489.125,1965.5,9486.846Z" transform="translate(-0.001 -6.614)" stroke="rgba(0,0,0,0)" stroke-miterlimit="10" stroke-width="1" fill="url(#linear-gradient)"/>
    <g id="Group_579" data-name="Group 579" transform="translate(1888.574 9357.196)">
      <path id="Path_2076" data-name="Path 2076" d="M2126.908,9419.089l-169.837,66.423c-2.487.974-5.882.593-7.583-.849l-53.273-45.18c-1.7-1.442-1.063-3.4,1.424-4.373l169.836-66.424c2.487-.973,5.882-.591,7.583.851l53.273,45.179C2130.033,9416.158,2129.395,9418.115,2126.908,9419.089Z" transform="translate(-1895.263 -9368.148)" fill="#f0ece0" stroke="rgba(0,0,0,0)" stroke-miterlimit="10" stroke-width="1"/>
      <path id="Path_2077" data-name="Path 2077" d="M2076.725,9370.95,1897.881,9440.9l-1.666-1.413c-1.7-1.442-1.063-3.4,1.424-4.373l169.836-66.424c2.487-.973,5.882-.591,7.583.851Z" transform="translate(-1895.263 -9368.148)" fill="#ffb700" stroke="rgba(0,0,0,0)" stroke-miterlimit="10" stroke-width="1"/>
      <path id="Path_2078" data-name="Path 2078" d="M2147.8,9437.073,1977.96,9503.5c-2.487.975-5.882.594-7.583-.849l-9.179-7.785,178.844-69.946,9.179,7.784C2150.923,9434.144,2150.284,9436.1,2147.8,9437.073Z" transform="translate(-1916.152 -9386.133)" fill="#ffb700" stroke="rgba(0,0,0,0)" stroke-miterlimit="10" stroke-width="1"/>
      <path id="Path_2079" data-name="Path 2079" d="M2150.958,9457.652h0c-.709-.6-.443-1.417.594-1.822l48.589-19a3.44,3.44,0,0,1,3.16.355h0c.708.6.442,1.417-.594,1.822l-48.589,19A3.44,3.44,0,0,1,2150.958,9457.652Z" transform="translate(-1976.145 -9389.835)" fill="#fff" stroke="rgba(0,0,0,0)" stroke-miterlimit="10" stroke-width="1"/>
      <path id="Path_2080" data-name="Path 2080" d="M2104.145,9480.614h0c-.708-.6-.443-1.416.594-1.821l22.93-8.969a3.441,3.441,0,0,1,3.159.354h0c.708.6.443,1.416-.593,1.821l-22.93,8.969A3.442,3.442,0,0,1,2104.145,9480.614Z" transform="translate(-1961.314 -9400.29)" fill="#fff" stroke="rgba(0,0,0,0)" stroke-miterlimit="10" stroke-width="1"/>
      <g id="Group_578" data-name="Group 578" transform="translate(166.305 9.597)">
        <path id="Path_2081" data-name="Path 2081" d="M2139.464,9386.663l-.775-.658,9.742-3.811.776.658Z" transform="translate(-2138.689 -9382.194)" stroke="rgba(0,0,0,0)" stroke-miterlimit="10" stroke-width="1"/>
        <path id="Path_2082" data-name="Path 2082" d="M2141.392,9388.3l-.444-.376,9.742-3.811.444.376Z" transform="translate(-2139.404 -9382.802)" stroke="rgba(0,0,0,0)" stroke-miterlimit="10" stroke-width="1"/>
        <path id="Path_2083" data-name="Path 2083" d="M2144.941,9391.308l-.444-.377,9.742-3.811.444.377Z" transform="translate(-2140.529 -9383.755)" stroke="rgba(0,0,0,0)" stroke-miterlimit="10" stroke-width="1"/>
        <path id="Path_2084" data-name="Path 2084" d="M2142.544,9389.275l-1.786-1.516,9.742-3.81,1.786,1.514Z" transform="translate(-2139.344 -9382.751)" stroke="rgba(0,0,0,0)" stroke-miterlimit="10" stroke-width="1"/>
        <path id="Path_2085" data-name="Path 2085" d="M2154.967,9399.809l-1.786-1.514,9.742-3.811,1.786,1.516Z" transform="translate(-2143.28 -9386.089)" stroke="rgba(0,0,0,0)" stroke-miterlimit="10" stroke-width="1"/>
        <path id="Path_2086" data-name="Path 2086" d="M2146.473,9392.606l-.968-.821,9.742-3.811.968.821Z" transform="translate(-2140.848 -9384.026)" stroke="rgba(0,0,0,0)" stroke-miterlimit="10" stroke-width="1"/>
        <path id="Path_2087" data-name="Path 2087" d="M2148.247,9394.111l-.968-.821,9.742-3.81.968.821Z" transform="translate(-2141.41 -9384.503)" stroke="rgba(0,0,0,0)" stroke-miterlimit="10" stroke-width="1"/>
        <path id="Path_2088" data-name="Path 2088" d="M2158.9,9403.141l-.969-.82,9.742-3.812.969.821Z" transform="translate(-2144.783 -9387.362)" stroke="rgba(0,0,0,0)" stroke-miterlimit="10" stroke-width="1"/>
        <path id="Path_2089" data-name="Path 2089" d="M2153.572,9398.626l-.969-.82,9.742-3.811.968.821Z" transform="translate(-2143.097 -9385.934)" stroke="rgba(0,0,0,0)" stroke-miterlimit="10" stroke-width="1"/>
        <path id="Path_2090" data-name="Path 2090" d="M2150.313,9395.863l-.342-.291,9.742-3.81.342.29Z" transform="translate(-2142.263 -9385.227)" stroke="rgba(0,0,0,0)" stroke-miterlimit="10" stroke-width="1"/>
        <path id="Path_2091" data-name="Path 2091" d="M2157.411,9401.882l-.342-.29,9.742-3.811.342.29Z" transform="translate(-2144.512 -9387.133)" stroke="rgba(0,0,0,0)" stroke-miterlimit="10" stroke-width="1"/>
        <path id="Path_2092" data-name="Path 2092" d="M2152.087,9397.368l-.342-.291,9.742-3.81.342.289Z" transform="translate(-2142.825 -9385.703)" stroke="rgba(0,0,0,0)" stroke-miterlimit="10" stroke-width="1"/>
        <path id="Path_2093" data-name="Path 2093" d="M2164.219,9407.657l-.969-.821,9.742-3.81.968.82Z" transform="translate(-2146.47 -9388.796)" stroke="rgba(0,0,0,0)" stroke-miterlimit="10" stroke-width="1"/>
        <path id="Path_2094" data-name="Path 2094" d="M2160.96,9404.893l-.342-.289,9.742-3.811.342.29Z" transform="translate(-2145.636 -9388.088)" stroke="rgba(0,0,0,0)" stroke-miterlimit="10" stroke-width="1"/>
        <path id="Path_2095" data-name="Path 2095" d="M2162.735,9406.4l-.342-.289,9.742-3.812.342.289Z" transform="translate(-2146.198 -9388.563)" stroke="rgba(0,0,0,0)" stroke-miterlimit="10" stroke-width="1"/>
        <path id="Path_2096" data-name="Path 2096" d="M2169.543,9412.171l-.969-.821,9.742-3.811.968.821Z" transform="translate(-2148.157 -9390.224)" stroke="rgba(0,0,0,0)" stroke-miterlimit="10" stroke-width="1"/>
        <path id="Path_2097" data-name="Path 2097" d="M2166.284,9409.407l-.342-.29,9.742-3.811.342.291Z" transform="translate(-2147.323 -9389.517)" stroke="rgba(0,0,0,0)" stroke-miterlimit="10" stroke-width="1"/>
        <path id="Path_2098" data-name="Path 2098" d="M2168.059,9410.913l-.342-.291,9.742-3.81.342.289Z" transform="translate(-2147.885 -9389.994)" stroke="rgba(0,0,0,0)" stroke-miterlimit="10" stroke-width="1"/>
        <path id="Path_2099" data-name="Path 2099" d="M2171.608,9413.923l-.342-.29,9.742-3.811.342.29Z" transform="translate(-2149.01 -9390.947)" stroke="rgba(0,0,0,0)" stroke-miterlimit="10" stroke-width="1"/>
        <path id="Path_2100" data-name="Path 2100" d="M2173.382,9415.427l-.342-.29,9.742-3.811.342.29Z" transform="translate(-2149.572 -9391.424)" stroke="rgba(0,0,0,0)" stroke-miterlimit="10" stroke-width="1"/>
        <path id="Path_2101" data-name="Path 2101" d="M2175.157,9416.934l-.342-.291,9.742-3.81.342.29Z" transform="translate(-2150.134 -9391.901)" stroke="rgba(0,0,0,0)" stroke-miterlimit="10" stroke-width="1"/>
        <path id="Path_2102" data-name="Path 2102" d="M2176.931,9418.437l-.342-.29,9.742-3.811.342.29Z" transform="translate(-2150.696 -9392.377)" stroke="rgba(0,0,0,0)" stroke-miterlimit="10" stroke-width="1"/>
        <path id="Path_2103" data-name="Path 2103" d="M2178.889,9420.1l-.969-.82,9.742-3.812.968.822Z" transform="translate(-2151.118 -9392.735)" stroke="rgba(0,0,0,0)" stroke-miterlimit="10" stroke-width="1"/>
        <path id="Path_2104" data-name="Path 2104" d="M2184.213,9424.613l-.969-.82,9.742-3.811.969.82Z" transform="translate(-2152.805 -9394.167)" stroke="rgba(0,0,0,0)" stroke-miterlimit="10" stroke-width="1"/>
        <path id="Path_2105" data-name="Path 2105" d="M2180.954,9421.848l-.342-.29,9.742-3.811.342.29Z" transform="translate(-2151.97 -9393.458)" stroke="rgba(0,0,0,0)" stroke-miterlimit="10" stroke-width="1"/>
        <path id="Path_2106" data-name="Path 2106" d="M2182.729,9423.353l-.342-.289,9.742-3.811.342.289Z" transform="translate(-2152.533 -9393.936)" stroke="rgba(0,0,0,0)" stroke-miterlimit="10" stroke-width="1"/>
        <path id="Path_2107" data-name="Path 2107" d="M2186.278,9426.362l-.342-.289,9.742-3.811.342.289Z" transform="translate(-2153.657 -9394.889)" stroke="rgba(0,0,0,0)" stroke-miterlimit="10" stroke-width="1"/>
        <path id="Path_2108" data-name="Path 2108" d="M2188.052,9427.868l-.342-.29,9.742-3.81.342.289Z" transform="translate(-2154.219 -9395.366)" stroke="rgba(0,0,0,0)" stroke-miterlimit="10" stroke-width="1"/>
      </g>
      <path id="Path_2109" data-name="Path 2109" d="M2073.428,9410.364l-2.812-2.386,39.257-15.354,2.812,2.385Z" transform="translate(-1950.817 -9375.902)" fill="#fff" stroke="rgba(0,0,0,0)" stroke-miterlimit="10" stroke-width="1" opacity="0.4"/>
      <path id="Path_2110" data-name="Path 2110" d="M2083.859,9419.211l-2.812-2.386,39.258-15.354,2.812,2.384Z" transform="translate(-1954.122 -9378.706)" fill="#fff" stroke="rgba(0,0,0,0)" stroke-miterlimit="10" stroke-width="1" opacity="0.4"/>
      <path id="Path_2111" data-name="Path 2111" d="M2093.232,9427.159l-2.812-2.386,39.258-15.354,2.812,2.385Z" transform="translate(-1957.091 -9381.223)" fill="#fff" stroke="rgba(0,0,0,0)" stroke-miterlimit="10" stroke-width="1" opacity="0.4"/>
      <path id="Path_2112" data-name="Path 2112" d="M2100.21,9452.826l-4.173-3.538,51.356-20.087,4.173,3.54Z" transform="translate(-1958.871 -9387.49)" fill="#fff" stroke="rgba(0,0,0,0)" stroke-miterlimit="10" stroke-width="1" opacity="0.4"/>
    </g>
    <g id="Group_581" data-name="Group 581" transform="translate(1891.074 9333.582)">
      <path id="Path_2113" data-name="Path 2113" d="M2120.222,9377.622,1975.2,9461.35a8.521,8.521,0,0,1-7.715-.014l-66.953-38.655c-2.138-1.233-2.148-3.227-.025-4.454l145.021-83.729a8.529,8.529,0,0,1,7.716.015l66.953,38.654C2122.334,9374.4,2122.345,9376.4,2120.222,9377.622Z" transform="translate(-1898.922 -9333.583)" fill="#c0eafa" stroke="rgba(0,0,0,0)" stroke-miterlimit="10" stroke-width="1"/>
      <path id="Path_2114" data-name="Path 2114" d="M2055.338,9335.722l-152.712,88.169-2.093-1.21c-2.138-1.233-2.148-3.227-.025-4.454l145.021-83.729a8.529,8.529,0,0,1,7.716.015Z" transform="translate(-1898.922 -9333.583)" fill="#01a4db" stroke="rgba(0,0,0,0)" stroke-miterlimit="10" stroke-width="1"/>
      <path id="Path_2115" data-name="Path 2115" d="M2146.667,9392.891l-145.021,83.728a8.527,8.527,0,0,1-7.715-.014l-11.536-6.661,152.713-88.168,11.536,6.66C2148.78,9389.67,2148.791,9391.665,2146.667,9392.891Z" transform="translate(-1925.367 -9348.851)" fill="#01a4db" stroke="rgba(0,0,0,0)" stroke-miterlimit="10" stroke-width="1"/>
      <path id="Path_2116" data-name="Path 2116" d="M2148.989,9419.226h0c-.891-.514-.779-1.412.249-2l40.97-23.654a3.86,3.86,0,0,1,3.475-.145h0c.89.515.779,1.413-.25,2.007l-40.97,23.653A3.862,3.862,0,0,1,2148.989,9419.226Z" transform="translate(-1977.956 -9352.432)" fill="#fff" stroke="rgba(0,0,0,0)" stroke-miterlimit="10" stroke-width="1"/>
      <path id="Path_2117" data-name="Path 2117" d="M2109.014,9448.17h0c-.89-.513-.779-1.411.25-2l19.06-11a3.853,3.853,0,0,1,3.474-.144h0c.891.514.779,1.412-.25,2.006l-19.06,11A3.867,3.867,0,0,1,2109.014,9448.17Z" transform="translate(-1965.292 -9365.607)" fill="#fff" stroke="rgba(0,0,0,0)" stroke-miterlimit="10" stroke-width="1"/>
      <g id="Group_580" data-name="Group 580" transform="translate(144.994 9.408)">
        <path id="Path_2118" data-name="Path 2118" d="M2112.129,9352.719l-.974-.562,8.319-4.8.974.563Z" transform="translate(-2111.155 -9347.353)" stroke="rgba(0,0,0,0)" stroke-miterlimit="10" stroke-width="1"/>
        <path id="Path_2119" data-name="Path 2119" d="M2114.552,9354.117l-.558-.322,8.319-4.8.558.322Z" transform="translate(-2112.054 -9347.872)" stroke="rgba(0,0,0,0)" stroke-miterlimit="10" stroke-width="1"/>
        <path id="Path_2120" data-name="Path 2120" d="M2119.013,9356.693l-.558-.323,8.319-4.8.558.322Z" transform="translate(-2113.467 -9348.688)" stroke="rgba(0,0,0,0)" stroke-miterlimit="10" stroke-width="1"/>
        <path id="Path_2121" data-name="Path 2121" d="M2116,9354.953l-2.245-1.295,8.319-4.8,2.245,1.3Z" transform="translate(-2111.979 -9347.828)" stroke="rgba(0,0,0,0)" stroke-miterlimit="10" stroke-width="1"/>
        <path id="Path_2122" data-name="Path 2122" d="M2131.613,9363.967l-2.245-1.295,8.319-4.8,2.245,1.295Z" transform="translate(-2116.925 -9350.685)" stroke="rgba(0,0,0,0)" stroke-miterlimit="10" stroke-width="1"/>
        <path id="Path_2123" data-name="Path 2123" d="M2120.938,9357.8l-1.217-.7,8.319-4.8,1.217.7Z" transform="translate(-2113.869 -9348.92)" stroke="rgba(0,0,0,0)" stroke-miterlimit="10" stroke-width="1"/>
        <path id="Path_2124" data-name="Path 2124" d="M2123.168,9359.092l-1.217-.7,8.319-4.8,1.217.7Z" transform="translate(-2114.575 -9349.327)" stroke="rgba(0,0,0,0)" stroke-miterlimit="10" stroke-width="1"/>
        <path id="Path_2125" data-name="Path 2125" d="M2136.55,9366.818l-1.217-.7,8.319-4.8,1.217.7Z" transform="translate(-2118.815 -9351.775)" stroke="rgba(0,0,0,0)" stroke-miterlimit="10" stroke-width="1"/>
        <path id="Path_2126" data-name="Path 2126" d="M2129.859,9362.956l-1.217-.7,8.319-4.8,1.217.7Z" transform="translate(-2116.695 -9350.551)" stroke="rgba(0,0,0,0)" stroke-miterlimit="10" stroke-width="1"/>
        <path id="Path_2127" data-name="Path 2127" d="M2125.763,9360.592l-.43-.248,8.319-4.8.43.248Z" transform="translate(-2115.647 -9349.947)" stroke="rgba(0,0,0,0)" stroke-miterlimit="10" stroke-width="1"/>
        <path id="Path_2128" data-name="Path 2128" d="M2134.685,9365.741l-.43-.248,8.319-4.8.43.248Z" transform="translate(-2118.473 -9351.578)" stroke="rgba(0,0,0,0)" stroke-miterlimit="10" stroke-width="1"/>
        <path id="Path_2129" data-name="Path 2129" d="M2127.994,9361.877l-.43-.248,8.319-4.8.43.249Z" transform="translate(-2116.354 -9350.354)" stroke="rgba(0,0,0,0)" stroke-miterlimit="10" stroke-width="1"/>
        <path id="Path_2130" data-name="Path 2130" d="M2143.241,9370.68l-1.217-.7,8.319-4.8,1.217.7Z" transform="translate(-2120.935 -9352.999)" stroke="rgba(0,0,0,0)" stroke-miterlimit="10" stroke-width="1"/>
        <path id="Path_2131" data-name="Path 2131" d="M2139.145,9368.315l-.43-.248,8.319-4.8.43.249Z" transform="translate(-2119.886 -9352.394)" stroke="rgba(0,0,0,0)" stroke-miterlimit="10" stroke-width="1"/>
        <path id="Path_2132" data-name="Path 2132" d="M2141.375,9369.6l-.43-.247,8.319-4.8.43.249Z" transform="translate(-2120.593 -9352.802)" stroke="rgba(0,0,0,0)" stroke-miterlimit="10" stroke-width="1"/>
        <path id="Path_2133" data-name="Path 2133" d="M2149.931,9374.545l-1.217-.7,8.319-4.8,1.217.7Z" transform="translate(-2123.054 -9354.223)" stroke="rgba(0,0,0,0)" stroke-miterlimit="10" stroke-width="1"/>
        <path id="Path_2134" data-name="Path 2134" d="M2145.836,9372.181l-.43-.248,8.319-4.8.43.248Z" transform="translate(-2122.007 -9353.619)" stroke="rgba(0,0,0,0)" stroke-miterlimit="10" stroke-width="1"/>
        <path id="Path_2135" data-name="Path 2135" d="M2148.066,9373.467l-.43-.248,8.319-4.8.43.247Z" transform="translate(-2122.713 -9354.027)" stroke="rgba(0,0,0,0)" stroke-miterlimit="10" stroke-width="1"/>
        <path id="Path_2136" data-name="Path 2136" d="M2152.527,9376.042l-.43-.249,8.319-4.8.43.249Z" transform="translate(-2124.126 -9354.842)" stroke="rgba(0,0,0,0)" stroke-miterlimit="10" stroke-width="1"/>
        <path id="Path_2137" data-name="Path 2137" d="M2154.757,9377.33l-.43-.248,8.319-4.8.43.248Z" transform="translate(-2124.832 -9355.25)" stroke="rgba(0,0,0,0)" stroke-miterlimit="10" stroke-width="1"/>
        <path id="Path_2138" data-name="Path 2138" d="M2156.987,9378.616l-.43-.247,8.319-4.8.43.248Z" transform="translate(-2125.539 -9355.657)" stroke="rgba(0,0,0,0)" stroke-miterlimit="10" stroke-width="1"/>
        <path id="Path_2139" data-name="Path 2139" d="M2159.218,9379.9l-.43-.248,8.319-4.8.43.248Z" transform="translate(-2126.246 -9356.065)" stroke="rgba(0,0,0,0)" stroke-miterlimit="10" stroke-width="1"/>
        <path id="Path_2140" data-name="Path 2140" d="M2161.678,9381.326l-1.217-.7,8.319-4.8,1.217.7Z" transform="translate(-2126.776 -9356.371)" stroke="rgba(0,0,0,0)" stroke-miterlimit="10" stroke-width="1"/>
        <path id="Path_2141" data-name="Path 2141" d="M2168.368,9385.189l-1.217-.7,8.319-4.8,1.217.7Z" transform="translate(-2128.895 -9357.598)" stroke="rgba(0,0,0,0)" stroke-miterlimit="10" stroke-width="1"/>
        <path id="Path_2142" data-name="Path 2142" d="M2164.273,9382.825l-.43-.248,8.319-4.8.43.248Z" transform="translate(-2127.847 -9356.992)" stroke="rgba(0,0,0,0)" stroke-miterlimit="10" stroke-width="1"/>
        <path id="Path_2143" data-name="Path 2143" d="M2166.5,9384.111l-.43-.248,8.319-4.8.43.248Z" transform="translate(-2128.554 -9357.398)" stroke="rgba(0,0,0,0)" stroke-miterlimit="10" stroke-width="1"/>
        <path id="Path_2144" data-name="Path 2144" d="M2170.964,9386.688l-.43-.249,8.319-4.8.43.249Z" transform="translate(-2129.967 -9358.214)" stroke="rgba(0,0,0,0)" stroke-miterlimit="10" stroke-width="1"/>
        <path id="Path_2145" data-name="Path 2145" d="M2173.194,9387.974l-.43-.248,8.319-4.8.43.249Z" transform="translate(-2130.674 -9358.622)" stroke="rgba(0,0,0,0)" stroke-miterlimit="10" stroke-width="1"/>
      </g>
      <path id="Path_2146" data-name="Path 2146" d="M2056.791,9381.7l-3.535-2.042,33.521-19.353,3.534,2.04Z" transform="translate(-1947.818 -9342.048)" fill="#fff" stroke="rgba(0,0,0,0)" stroke-miterlimit="10" stroke-width="1" opacity="0.4"/>
      <path id="Path_2147" data-name="Path 2147" d="M2069.9,9389.27l-3.534-2.041,33.521-19.354,3.534,2.041Z" transform="translate(-1951.971 -9344.447)" fill="#fff" stroke="rgba(0,0,0,0)" stroke-miterlimit="10" stroke-width="1" opacity="0.4"/>
      <path id="Path_2148" data-name="Path 2148" d="M2081.681,9396.07l-3.535-2.042,33.522-19.353,3.534,2.04Z" transform="translate(-1955.703 -9346.601)" fill="#fff" stroke="rgba(0,0,0,0)" stroke-miterlimit="10" stroke-width="1" opacity="0.4"/>
      <path id="Path_2149" data-name="Path 2149" d="M2097.585,9419.948l-5.244-3.029,43.852-25.317,5.244,3.028Z" transform="translate(-1960.2 -9351.964)" fill="#fff" stroke="rgba(0,0,0,0)" stroke-miterlimit="10" stroke-width="1" opacity="0.4"/>
    </g>
    <path id="Path_2150" data-name="Path 2150" d="M2106.109,9398.758a2.943,2.943,0,0,1-.04.4,4.19,4.19,0,0,1-.251.9,6.151,6.151,0,0,1-1.637,2.23,9.577,9.577,0,0,1-1.378,1.043c-.058.04-.117.075-.18.111-.09.062-.184.117-.278.17l-1.917,1.109-3.631,2.091-1.97,1.14-.516.3-2.339,1.351-3.029,1.751-1.925,1.112-1.23.708-2.262,1.306-2.441,1.409-1.867,1.079-1.948,1.126-2.194,1.266-1.841,1.063-1.822,1.05-2.656,1.536-2.132,1.229-1.248.725-1.768,1.017-3.371,1.945-2.06,1.192-.656.378-1.714.99-4.084,2.362-1.992,1.148-.063.035-1.67.961-4.788,2.765-1.4.808-.543.314-1.078.624-5.506,3.178-.722.417-1.149.664-.426.247-6.221,3.585-.058.036-1.53.885-.211.12-6.108,3.527-.6.346-.893.518-.858.5h0l-5.5,3.173-1.261.727-.193.113-1.508.87-4.892,2.823-1.4.812-.512.3-1.647.951-4.286,2.474-1.373.794-1.207.7-1.593.919-3.671,2.118-1.342.777-1.9,1.095-1.553.9-1.158.67c-4.564,2.634-11.462,2.916-15.415.637l-25.684-14.829-7.229-4.173-9.416-5.436-9.052-5.228-9.7-5.6-30.271-17.477.579-.331,2.024-1.172,1.09-.63.982-.565,1.248-.722,1.472-.852,1.081-.621,1.567-.9,1.239-.72.911-.525,1.068-.613,2.145-1.239,1.2-.692.39-.224,1.028-.6,2.751-1.584,1.019-.588.2-.112.839-.49,3.312-1.912.44-.254.9-.521.26-.147,3.635-2.1.126-.073,1.036-.6.305-.176,3.33-1.926.7-.4.462-.266.871-.5,2.764-1.6,1.158-.665.112-.062,1.329-.771,2.2-1.27,1.154-.665.687-.394,1.323-.769,1.629-.943,1.158-.664,1.252-.723,1.328-.767,1.064-.615,1.158-.669,1.817-1.05,1.319-.759.5-.291,1.153-.669,2.388-1.377,1.257-.723.068-.042,1.09-.627,2.953-1.707.687-.393.633-.369.521-.3,3.527-2.037.108-.063,1.158-.668.053-.031,3.591-2.069.453-.265.7-.409.615-.354,3.02-1.741,1.023-.589.14-.08,1.18-.683,2.451-1.418,1.162-.668.436-.251,1.314-.759,1.881-1.087,1.167-.677,1-.58,1.319-.757,1.31-.755,1.167-.678,1.571-.907,1.315-.757.741-.427,1.167-.674,2.14-1.238,1.315-.759.175-.1,1.172-.678,2.706-1.562.915-.53.4-.229.777-.449,3.281-1.893.336-.193.974-.565.206-.117,3.613-2.086.229-.136.956-.552.359-.207,4.052-2.338,1.31-.759,4.057-2.342,1.31-.754,3.186-1.841,28.682,16.557,3.236,1.871,5.933,3.424,2.612,1.509,4.707,2.714,2.361,1.364,1.414.817,1.908,1.105.83.479,2.217,1.278.063.036,1.827,1.055,1.961,1.131.988.57,1.135.654.636.369,2.859,1.649.188.109,1.539.888.512.3,2.3,1.328,1.31.757.391.227,1.624.937,1.19.687,1.669.961.727.422,1.97,1.14.135.076,1.656.957,1.827,1.053,1.064.615.87.5.763.44,2.935,1.691.036.023,1.625.937.251.148,3,1.728.4.232c.13.079.251.154.372.235a6.157,6.157,0,0,1,.7.515,5.286,5.286,0,0,1,.632.634,3.9,3.9,0,0,1,.925,1.939A3.218,3.218,0,0,1,2106.109,9398.758Z" transform="translate(0 -2.657)" stroke="rgba(0,0,0,0)" stroke-miterlimit="10" stroke-width="1" fill="url(#linear-gradient-2)"/>
    <path id="Path_2151" data-name="Path 2151" d="M2040.784,9359.379c-11.26-2.164-20.168-5.557-26.635-10.161a33.915,33.915,0,0,1-5.233-4.555l-1.31.753a35.763,35.763,0,0,0,5.448,4.744c1.109.791,2.306,1.563,3.559,2.28,6.992,4.039,16.157,6.979,27.407,8.811Zm9.169,5.3c-18.347-1.8-32.2-6-41.319-12.526a35.263,35.263,0,0,1-5.085-4.389l-1.31.758a37.239,37.239,0,0,0,5.3,4.573,44.051,44.051,0,0,0,3.761,2.414c9.747,5.633,23.579,9.206,41.27,10.678Zm7.319,4.222c-24.754-1.108-42.943-5.744-54.172-13.826a36.611,36.611,0,0,1-4.914-4.214l-.359.206-.956.552a37.718,37.718,0,0,0,5.125,4.4,46.2,46.2,0,0,0,3.985,2.563c12.014,6.943,30.038,10.861,53.653,11.686Zm6.512,3.767c-30.876-.27-53.154-5.216-66.236-14.685a37.87,37.87,0,0,1-4.725-4.026l-.974.565-.336.193a39.035,39.035,0,0,0,4.932,4.206,48.308,48.308,0,0,0,4.223,2.732c13.8,7.961,35.252,12.095,63.758,12.287.525,0,1.046,0,1.576,0Zm7.055,4.07-.988-.57q-3.07.054-6.05.054c-1.906,0-3.819-.014-5.677-.049-30.728-.553-52.984-5.7-66.156-15.295a39.176,39.176,0,0,1-4.515-3.819l-.4.229-.915.529a40.6,40.6,0,0,0,4.721,3.993,51.008,51.008,0,0,0,4.488,2.908c13.755,7.939,34.866,12.216,62.745,12.72,1.871.035,3.8.054,5.726.054q4,0,8.155-.1Zm6.359,3.67-1.539-.888q-7.418.283-14.361.283c-3.231,0-6.431-.045-9.5-.136-30.248-.9-52.261-6.26-65.429-15.914a41.376,41.376,0,0,1-4.286-3.6l-1.315.76a43.271,43.271,0,0,0,4.488,3.773,51.81,51.81,0,0,0,4.776,3.1c13.7,7.912,34.462,12.338,61.7,13.146,3.1.094,6.31.144,9.563.144q7.9-.007,16.408-.368Zm4.511,2.608-.391-.225q-11.687.639-22.327.638c-4.64,0-9.2-.1-13.53-.274-29.768-1.256-51.543-6.821-64.706-16.543a43.8,43.8,0,0,1-4.03-3.36l-1.315.758a44.352,44.352,0,0,0,4.224,3.532,54.3,54.3,0,0,0,5.084,3.312c13.652,7.882,34.054,12.45,60.658,13.563,4.362.184,8.944.282,13.616.282q11.552,0,24.343-.744Zm5.21,3.006q-15.854,1.078-29.979,1.078c-6.18,0-12.184-.161-17.835-.472-29.3-1.611-50.834-7.391-64.006-17.18a45.106,45.106,0,0,1-3.738-3.1l-1.319.758a46.421,46.421,0,0,0,3.931,3.268,56.606,56.606,0,0,0,5.431,3.55c13.589,7.845,33.641,12.548,59.589,13.97,5.686.314,11.727.473,17.947.473,9.985,0,20.658-.4,31.949-1.2Zm6.651,3.843-1.064-.615c-13.275,1.05-25.769,1.575-37.366,1.575-7.841,0-15.38-.246-22.408-.723-28.839-1.975-50.142-7.975-63.319-17.844q-1.818-1.354-3.42-2.81l-1.314.759q1.689,1.541,3.608,2.975a56.657,56.657,0,0,0,5.8,3.807c13.522,7.81,33.21,12.646,58.5,14.374,7.082.485,14.671.732,22.561.732,12.166,0,25.307-.579,39.3-1.729Zm6.229,3.595-1.625-.938-.036-.022c-15.883,1.405-30.791,2.113-44.488,2.113-9.649,0-18.839-.358-27.313-1.05-28.385-2.343-49.465-8.566-62.65-18.518-1.073-.806-2.091-1.643-3.057-2.5l-1.18.682-.14.081c1.024.912,2.11,1.8,3.245,2.657a61.371,61.371,0,0,0,6.216,4.094c13.454,7.768,32.761,12.731,57.386,14.761,8.536.7,17.789,1.059,27.492,1.059,14.253,0,29.809-.764,46.4-2.271Zm4.722,2.857a6.162,6.162,0,0,0-.7-.516c-18.369,1.764-35.616,2.662-51.332,2.662-11.614,0-22.574-.489-32.572-1.454-27.938-2.711-48.8-9.173-62-19.208q-1.386-1.05-2.657-2.163l-.615.354-.7.409q1.36,1.191,2.841,2.315a63.28,63.28,0,0,0,6.669,4.412c13.369,7.723,32.3,12.813,56.255,15.138,10.067.974,21.1,1.468,32.784,1.468,16.1,0,33.807-.934,52.656-2.783A5.286,5.286,0,0,0,2104.52,9396.313Zm-5.484,3.869c-16.9,1.481-32.959,2.235-47.742,2.235-46.853,0-80.225-7.373-99.186-21.9-.758-.585-1.495-1.177-2.2-1.791l-.053.03-1.158.669-.108.063c.767.665,1.562,1.307,2.388,1.939a65.035,65.035,0,0,0,7.171,4.762c13.284,7.67,31.824,12.885,55.1,15.5a348.058,348.058,0,0,0,38.479,1.976c14.693,0,30.678-.745,47.513-2.222q3.339-.3,6.583-.534a4.214,4.214,0,0,0,.251-.9,2.978,2.978,0,0,0,.04-.395Q2102.622,9399.867,2099.036,9400.182Zm-8.163,4.717c-13.931,1.02-27.344,1.535-39.875,1.535-49.55,0-84.8-7.813-104.755-23.233-.583-.449-1.149-.906-1.705-1.369l-.633.368-.687.395c.61.517,1.239,1.02,1.88,1.518a68.89,68.89,0,0,0,7.728,5.148c13.19,7.614,31.329,12.947,53.912,15.841a354.334,354.334,0,0,0,44.623,2.59c12.44,0,25.791-.517,39.677-1.531q4.786-.349,9.388-.587l1.917-1.108c.094-.054.188-.108.278-.171.063-.037.122-.072.18-.111C2098.933,9404.36,2094.947,9404.6,2090.873,9404.9Zm-8.154,4.718c-10.866.628-21.47.951-31.509.951-52.521,0-89.829-8.321-110.9-24.729-.385-.3-.767-.605-1.14-.911l-.068.04-1.257.723c.431.354.87.709,1.315,1.055a73.883,73.883,0,0,0,8.343,5.588c13.086,7.553,30.818,12.991,52.7,16.164a361.222,361.222,0,0,0,51.279,3.326c9.968,0,20.522-.314,31.365-.942,3.1-.18,6.144-.322,9.119-.431l2.339-1.351C2090.545,9409.217,2086.672,9409.387,2082.719,9409.616Zm-8.155,4.722c-7.692.317-15.29.479-22.592.479-54.985,0-95.663-9.123-117.653-26.383l-.512-.405-1.319.759c.229.185.458.369.687.547a76.3,76.3,0,0,0,9.025,6.067c12.965,7.482,30.275,13.024,51.444,16.463a368.268,368.268,0,0,0,58.5,4.218c7.252,0,14.828-.166,22.515-.479,3.007-.126,5.969-.216,8.864-.274l2.262-1.306C2082.144,9414.071,2078.388,9414.18,2074.564,9414.338Zm1.611,4.6c-3.164,0-6.449.04-9.766.115-4.389.108-8.783.158-13.055.158-40.7,0-95.363-4.879-124.906-28.09l-1.328.768a82.038,82.038,0,0,0,9.761,6.583c12.84,7.411,29.719,13.042,50.161,16.74,19.321,3.491,41.661,5.27,66.393,5.27,4.259,0,8.639-.055,13.029-.158,2.921-.071,5.812-.112,8.612-.116l2.194-1.266C2076.906,9418.938,2076.543,9418.938,2076.175,9418.938Zm-15.739,4.828c-.728,0-1.455,0-2.182,0q-1.421.013-2.854.013c-43.011,0-100.649-5.161-132.32-29.564l-1.323.767a85.811,85.811,0,0,0,9.815,6.553c12.692,7.328,29.117,13.045,48.828,17,21.613,4.322,46.849,6.516,75,6.516.952,0,1.916,0,2.872-.009.723,0,1.445,0,2.164,0q3.142,0,6.188.05l2.132-1.229Q2064.683,9423.768,2060.437,9423.766Zm-10.331,4.726c-42.671-.623-99.878-6.589-132.387-31.178l-1.329.772a94.442,94.442,0,0,0,9.865,6.521c12.53,7.234,28.5,13.023,47.464,17.2,22.017,4.855,47.706,7.531,76.36,7.951q4.134.063,8.1.2l2.06-1.192Q2055.3,9428.567,2050.105,9428.491Zm-8.15,4.722c-41.333-1.49-96.776-8.441-129.6-32.8l-.871.5-.462.265a101.4,101.4,0,0,0,9.923,6.5c12.346,7.132,27.838,12.975,46.045,17.382,21.7,5.243,46.9,8.416,74.893,9.425q4.033.149,7.85.359l1.992-1.149Q2046.966,9433.389,2041.955,9433.213Zm-8.145,4.716c-55.905-3.293-100.618-15.473-126.814-34.421l-.305.175-1.036.6a111.191,111.191,0,0,0,9.972,6.473c12.153,7.01,27.156,12.9,44.592,17.5,21.4,5.646,46.117,9.331,73.461,10.947q3.9.227,7.594.523l.543-.313,1.4-.808Q2038.621,9438.211,2033.81,9437.929Zm-8.15,4.722c-53.863-4.51-97.512-17.237-124.026-36.05l-.9.52-.44.256c3.137,2.249,6.494,4.407,10.026,6.44,11.929,6.888,26.42,12.8,43.079,17.588,21.12,6.063,45.368,10.272,72.084,12.513q3.763.316,7.337.69l1.149-.664.722-.417Q2030.274,9443.034,2025.659,9442.65Zm-8.145,4.727c-26.4-2.922-76.043-10.906-111.945-31.641q-5-2.88-9.429-5.96l-.2.113-1.019.588q3.043,2.14,6.345,4.183c1.212.75,2.464,1.5,3.721,2.222,13.818,7.974,30.751,14.77,50.318,20.2a396.511,396.511,0,0,0,61.968,11.547q3.636.406,7.1.854l.211-.121,1.53-.884.058-.036Q2021.937,9447.862,2017.515,9447.377Zm-8.146,4.72c-31.823-4.441-83.281-15.016-118.614-39.215l-1.2.692q3.1,2.14,6.4,4.16c1.207.74,2.459,1.485,3.721,2.218,13.809,7.97,30.473,14.912,49.532,20.629a402.571,402.571,0,0,0,59.863,12.764q3.5.492,6.839,1.024h0l.858-.5.893-.516Q2013.642,9452.7,2009.369,9452.1Zm-8.141,4.722c-28.754-4.918-79.439-16.506-115.8-40.866l-1.239.719q3.116,2.106,6.44,4.134c1.216.743,2.473,1.489,3.725,2.211,13.809,7.977,30.212,15.058,48.747,21.072a415.822,415.822,0,0,0,57.759,13.97q3.373.58,6.588,1.192l1.508-.869.193-.111Q2005.3,9457.515,2001.228,9456.818Zm-8.141,4.727c-27.5-5.646-76.28-18.347-113.012-42.5l-1.248.723q3.144,2.082,6.486,4.105c1.247.755,2.521,1.509,3.8,2.245,34.157,19.719,75.163,30.817,103.552,36.652q3.238.665,6.337,1.359l1.647-.951Q1996.969,9462.342,1993.087,9461.545Zm-8.141,4.73c-26.236-6.387-73.111-20.191-110.217-44.139l-.579.332,30.271,17.476c28.552,13.468,58.279,22.246,80.027,27.538q3.11.754,6.09,1.534l1.593-.92Q1988.63,9467.167,1984.946,9466.275Zm-8.132,4.725c-10.726-3.056-26.541-7.97-44.227-14.792l7.229,4.174c13.432,4.915,25.931,8.823,36.419,11.813q2.975.847,5.838,1.71l1.553-.9Q1980.3,9472,1976.814,9471Z" transform="translate(0 -3.511)" fill="#0078c9" stroke="rgba(0,0,0,0)" stroke-miterlimit="10" stroke-width="1" opacity="0.3"/>
    <g id="Group_582" data-name="Group 582" transform="translate(1988.031 9363.565)">
      <path id="Path_2152" data-name="Path 2152" d="M2046.5,9382.149l-3.724,2.149-1.937-1.118,9.891-5.71,3.719,2.148c1.966,1.134,1.974,2.637.188,3.668a6.6,6.6,0,0,1-6.354-.109Zm3.2-.067a3,3,0,0,0,2.967.086c.879-.508.834-1.161-.135-1.721l-1.531-.884-2.832,1.636Z" transform="translate(-2040.841 -9377.471)" fill="#fff" stroke="rgba(0,0,0,0)" stroke-miterlimit="10" stroke-width="1"/>
      <path id="Path_2153" data-name="Path 2153" d="M2059.842,9392.564l-4.043-2.335-3.088.827-2.05-1.184,13.708-3.506,2.246,1.3-6.1,7.9-2.105-1.216Zm-1.639-2.977,2.751,1.589,2.362-2.953Z" transform="translate(-2043.953 -9380.288)" fill="#fff" stroke="rgba(0,0,0,0)" stroke-miterlimit="10" stroke-width="1"/>
      <path id="Path_2154" data-name="Path 2154" d="M2079.36,9397.393c.445-.371.847-1.121-.416-1.852a3.1,3.1,0,0,0-2.814-.174c-.544.314-.625.766-.035,1.268l1.125.957c1.462,1.246,1.259,2.48-.136,3.287a7.141,7.141,0,0,1-6.649-.311c-2.638-1.523-2.116-3.172-.861-4.074l2.271.764c-.892.613-1.083,1.518.32,2.328a2.916,2.916,0,0,0,2.828.23c.571-.33.583-.84-.036-1.373l-1.111-.963c-1.265-1.1-1.271-2.281.221-3.143a7.248,7.248,0,0,1,6.564.213c2.415,1.395,1.89,2.768,1,3.541Z" transform="translate(-2049.617 -9382.596)" fill="#fff" stroke="rgba(0,0,0,0)" stroke-miterlimit="10" stroke-width="1"/>
      <path id="Path_2155" data-name="Path 2155" d="M2091.77,9404.559c.445-.371.847-1.122-.416-1.851a3.085,3.085,0,0,0-2.814-.176c-.544.313-.625.767-.035,1.268l1.125.956c1.462,1.247,1.259,2.481-.136,3.287a7.135,7.135,0,0,1-6.649-.311c-2.639-1.523-2.116-3.171-.862-4.073l2.271.763c-.892.614-1.083,1.519.322,2.328a2.916,2.916,0,0,0,2.828.231c.572-.33.583-.839-.036-1.373l-1.111-.964c-1.265-1.1-1.271-2.28.22-3.143a7.252,7.252,0,0,1,6.564.214c2.414,1.394,1.89,2.767,1,3.541Z" transform="translate(-2053.549 -9384.866)" fill="#fff" stroke="rgba(0,0,0,0)" stroke-miterlimit="10" stroke-width="1"/>
      <path id="Path_2156" data-name="Path 2156" d="M2097.355,9411.509l-3.724,2.15-1.937-1.117,9.89-5.712,3.72,2.147c1.966,1.135,1.974,2.639.188,3.669a6.6,6.6,0,0,1-6.354-.109Zm3.2-.067a3,3,0,0,0,2.967.087c.879-.508.833-1.162-.135-1.722l-1.53-.883-2.832,1.635Z" transform="translate(-2056.952 -9386.771)" fill="#fff" stroke="rgba(0,0,0,0)" stroke-miterlimit="10" stroke-width="1"/>
      <path id="Path_2157" data-name="Path 2157" d="M2119.749,9417.076c2.709,1.564,3.157,4.095-.038,5.938a10.967,10.967,0,0,1-10.271.013c-2.7-1.556-3.142-4.085.038-5.921A10.973,10.973,0,0,1,2119.749,9417.076Zm-8.439,4.872a6.681,6.681,0,0,0,6.408-.1c2.232-1.289,1.719-2.809.176-3.7a6.679,6.679,0,0,0-6.394.11C2109.268,9419.546,2109.779,9421.066,2111.31,9421.948Z" transform="translate(-2061.881 -9389.619)" fill="#fff" stroke="rgba(0,0,0,0)" stroke-miterlimit="10" stroke-width="1"/>
      <path id="Path_2158" data-name="Path 2158" d="M2127.5,9428.813l-1.01-.583-3.808,2.2-1.951-1.126,9.89-5.711,3.888,2.245c1.937,1.118,1.847,2.6.132,3.587a6.257,6.257,0,0,1-4.924.4l-1.912,3.566-2.162-1.247Zm2.221-.635a2.963,2.963,0,0,0,2.926.11c.837-.483.805-1.13-.177-1.7l-1.572-.908-2.748,1.587Z" transform="translate(-2066.15 -9392.082)" fill="#fff" stroke="rgba(0,0,0,0)" stroke-miterlimit="10" stroke-width="1"/>
      <path id="Path_2159" data-name="Path 2159" d="M2146.848,9434.232l-8.062,4.656-1.951-1.128,8.062-4.656-3.144-1.814,1.828-1.055,8.24,4.757-1.828,1.057Z" transform="translate(-2071.253 -9394.188)" fill="#fff" stroke="rgba(0,0,0,0)" stroke-miterlimit="10" stroke-width="1"/>
    </g>
    <path id="Path_2160" data-name="Path 2160" d="M1977.008,9430.321c15.223-8.6,39.756-8.5,54.645.229,14.917,8.745,14.775,22.945-.314,31.452-15.157,8.548-39.507,8.381-54.237-.273C1962.069,9452.9,1962.208,9438.941,1977.008,9430.321Zm12.843,10.813c1.184-.39,2.518-.807,3.066-1.772l-3.385-.239-.176-.319c1.17-.544,2.332-1.095,3.51-1.634a3.435,3.435,0,0,1,2.534.061c.861.255.946.676.863,1.134-.12.651-.3,1.3-.449,1.948-.155.685-.3,1.37-.468,2.136a2.287,2.287,0,0,0,.426-.148c.829-.748,1.663-1.494,2.468-2.25a1.048,1.048,0,0,1,1.62,0,12.391,12.391,0,0,1,.839.99c.861,1.021,1.591,1.263,3.472.978,1.752-.265,3.474-.6,5.184-.952a4,4,0,0,1,3.095.431,20.79,20.79,0,0,1,2.223,1.691,1.3,1.3,0,0,0,1.8.113,11.088,11.088,0,0,1,1.318-.791,10.328,10.328,0,0,1,1.353-.4c-.007,1.6-2.512,2.666-1.78,4.332a7.057,7.057,0,0,0,1.045-.463c2.273-1.7,4.554-3.389,6.755-5.115a1.139,1.139,0,0,0,.357-1.037,8.614,8.614,0,0,0-.46-1.791c-.422-1.276-1.981-1.781-4.03-1.248-1.19.309-2.286.737-3.42,1.115a1.8,1.8,0,0,1-1.891-.178c-.188-.218.045-.715.387-.895.939-.493,1.124-1.037.82-1.7a2.367,2.367,0,0,1-.34-.922,1.112,1.112,0,0,1,.4-1,3.126,3.126,0,0,1,1.6.052c4.405,1.269,8.345,2.783,8.848,5.979a.5.5,0,0,0,.131.3c.181.171.41.323.618.483.3-.131.747-.225.879-.4a10.373,10.373,0,0,0,1.488-2.263,1.926,1.926,0,0,0-.988-2.8,27.289,27.289,0,0,0-5.439-1.935c-1.729-.4-2.54-1-2.548-1.973-.012-1.272-1.29-1.915-3.161-2.245-3.694-.655-7.416-1.256-11.124-1.884-2.4-.406-4.161.026-5.379,1.276-1.161,1.189-3.019,1.669-5.333,1.655a9.106,9.106,0,0,0-4.535.863c-2,1.162-3.914,2.379-5.846,3.581a2.22,2.22,0,0,0-.46.493l.249.162,5.081-1.591c-.894.743-1.916,1.376-2.82,2.062-1.775,1.341-3.149,2.785-2.338,4.567.385.846.007,1.475-1.088,2.031a5.471,5.471,0,0,1-3.775.392,31.659,31.659,0,0,0-4.218-.6c-1.9-.129-3.046.293-3.665,1.341-.974,1.651-1.464,3.315.714,4.84,1.417.993,1.545,2.026.361,3.117a2.726,2.726,0,0,0-.738.924c-.339.909-.963,1.855-.784,2.742.433,2.145,2.493,3.865,5.209,5.308a6.811,6.811,0,0,0,1.8.255,4.834,4.834,0,0,0-.5-1.119c-.492-.656-1.327-1.257-1.595-1.933-.433-1.1.684-1.842,2.642-1.886,1.449-.033,2.906.022,4.358.065a20.39,20.39,0,0,0,8.573-1.436c2.067-.869,2.05-1.479-.052-2.361a6.983,6.983,0,0,1-3.393-2.513c-1.084-1.78-2.11-3.571-3.187-5.354-.345-.571-.132-.87.993-.826a5.2,5.2,0,0,0,.948.029,6.735,6.735,0,0,0,1.884-.432C1990.591,9442.092,1990.1,9441.572,1989.851,9441.134Zm38.064,19.978a2.324,2.324,0,0,0,1.411-2.965,4.6,4.6,0,0,0-.628-1.608c-.924-1.205-.851-2.286.407-3.414.9-.8.491-1.336-.8-1.978a8.158,8.158,0,0,0-6.71-.526,4.01,4.01,0,0,1-3.043-.127,3.789,3.789,0,0,0-1.773-.187,12.753,12.753,0,0,0-2.7.7c-1.989.777-3.823,1.692-3.681,3.25a17.69,17.69,0,0,0,.791,3.192c.2.7.928,1.142,2.078,1.441a15.537,15.537,0,0,1,2.6.984c.822.379.809.847.122,1.3a18.4,18.4,0,0,1-9.417,2.967,18.753,18.753,0,0,0-3.184.361c-.507.121-1.032.616-1.014.934.013.232.863.594,1.407.645a14.454,14.454,0,0,0,3.111-.03c3.706-.492,7.44-.956,11.054-1.623A34.237,34.237,0,0,0,2027.915,9461.111Zm9.572-16.156c-1.623,1.216-3.464.764-5.278.2-.038.28-.055.357-.06.435-.071,1.468-.616,1.645-2.817.938-.808-.26-1.655-.479-2.9-.834-.01,1.235-.092,2.244,0,3.247.048.5.728.6,1.52.432.89-.189,1.78-.393,2.7-.526,1.6-.235,2.222.125,1.913,1.078-.074.229-.342.452-.33.675.03.532-.133,1.184.331,1.565a1.637,1.637,0,0,1,.191,2.725c-.516.581-1.062,1.154-1.551,1.743a12.916,12.916,0,0,0-.758,1.131C2035.915,9456.555,2039.555,9449.839,2037.487,9444.955Zm-4.9-.577.3.163c1.631-.2,3.226-.449,3.951-1.487.391-.561.954-1.264.006-1.669a6.709,6.709,0,0,0-2.794-.13,4.326,4.326,0,0,0-1.479.763c.5.213,1,.424,1.493.642.062.027.083.087.154.165Z" transform="translate(-29.058 -28.625)" fill="#fff" stroke="rgba(0,0,0,0)" stroke-miterlimit="10" stroke-width="1"/>
  </g>
</svg>
