<svg xmlns="http://www.w3.org/2000/svg" xmlns:xlink="http://www.w3.org/1999/xlink" width="249.78" height="212.352" viewBox="0 0 249.78 212.352">
  <defs>
    <linearGradient id="linear-gradient" x1="0.638" y1="0.971" x2="0.604" y2="0.855" gradientUnits="objectBoundingBox">
      <stop offset="0" stop-color="#ccddf0"/>
      <stop offset="1" stop-color="#d1e1f0"/>
    </linearGradient>
    <linearGradient id="linear-gradient-2" y1="0.5" x2="1" y2="0.5" gradientUnits="objectBoundingBox">
      <stop offset="0" stop-color="#e5edf6"/>
      <stop offset="1" stop-color="#e6f0fa"/>
    </linearGradient>
    <linearGradient id="linear-gradient-3" x1="0.5" y1="0.994" x2="0.5" y2="-0.011" xlink:href="#linear-gradient"/>
    <linearGradient id="linear-gradient-4" x1="0.497" y1="0.989" x2="0.503" y2="-0.007" gradientUnits="objectBoundingBox">
      <stop offset="0" stop-color="#7ab4f4"/>
      <stop offset="1" stop-color="#dfedfa"/>
    </linearGradient>
    <linearGradient id="linear-gradient-5" y1="0.5" x2="1" y2="0.5" gradientUnits="objectBoundingBox">
      <stop offset="0" stop-color="#7ab4f4"/>
      <stop offset="1" stop-color="#49a5fa"/>
    </linearGradient>
    <linearGradient id="linear-gradient-6" x1="0.5" y1="0.988" x2="0.5" y2="-0.018" xlink:href="#linear-gradient-4"/>
    <linearGradient id="linear-gradient-7" x1="-0.316" y1="1.609" x2="0.711" y2="0.214" xlink:href="#linear-gradient-4"/>
    <linearGradient id="linear-gradient-8" x1="0.5" y1="1.005" x2="0.5" y2="0.007" xlink:href="#linear-gradient-4"/>
    <linearGradient id="linear-gradient-10" x1="0.5" y1="0.994" x2="0.5" y2="-0.011" xlink:href="#linear-gradient-4"/>
    <linearGradient id="linear-gradient-14" x1="0.5" y1="0.988" x2="0.5" y2="-0.018" xlink:href="#linear-gradient-4"/>
    <linearGradient id="linear-gradient-15" x1="-0.316" y1="1.609" x2="0.711" y2="0.214" xlink:href="#linear-gradient-4"/>
    <linearGradient id="linear-gradient-18" x1="0.497" y1="0.989" x2="0.503" y2="-0.007" xlink:href="#linear-gradient-4"/>
    <linearGradient id="linear-gradient-26" x1="0.5" y1="0.416" x2="0.5" y2="0.994" gradientUnits="objectBoundingBox">
      <stop offset="0" stop-color="#2bc0ff"/>
      <stop offset="1" stop-color="#2bc0ff" stop-opacity="0"/>
    </linearGradient>
  </defs>
  <g id="Group_642" data-name="Group 642" transform="translate(-3285.133 -9214.779)">
    <g id="app_icons" data-name="app icons" transform="translate(3285.133 9243.827)">
      <g id="Group_622" data-name="Group 622" transform="translate(0 30.354)">
        <g id="Group_621" data-name="Group 621">
          <path id="Path_2212" data-name="Path 2212" d="M3316.7,9401.317l70.788,40.87c12.691,7.328,34.86,6.408,49.514-2.053l85.791-49.532c8.514-4.914,12.608-9.77,12.065-15.69v-8.173c.454-5.032-2.329-9.9-8.511-13.469l-93.773-54.14c-12.691-7.328-34.86-6.408-49.514,2.054l-85.791,49.531c-7.987,4.61-12.084,10.511-12.112,16.11h-.021v8.273h.025c-.222,4.847,2.586,9.5,8.554,12.947l11.16,6.443" transform="translate(-3285.133 -9294.184)" fill="url(#linear-gradient)"/>
          <path id="Path_2213" data-name="Path 2213" d="M3473.449,9410.347,3437,9431.389c-15.827,9.139-35.65,10.059-49.514,2.054l-93.773-54.141c-12.691-7.327-11.1-20.126,3.555-28.586l85.791-49.531c14.654-8.462,36.823-9.382,49.514-2.054l93.773,54.14c12.691,7.328,11.1,20.127-3.555,28.588l-23.932,13.816" transform="translate(-3285.137 -9294.184)" fill="url(#linear-gradient-2)"/>
        </g>
      </g>
      <g id="Group_626" data-name="Group 626" transform="translate(79.06 0)">
        <g id="Group_623" data-name="Group 623" transform="translate(0 31.772)">
          <path id="Path_2214" data-name="Path 2214" d="M3391.638,9321.1c-.156-1.736.8-3.413,2.933-4.643l32.317-18.658c4.374-2.525,12.014-2.209,17.064.707l29.566,17.07c2.753,1.589,4.164,3.623,4.175,5.552h.008v14.2h-.009c.077,1.671-.891,3.275-2.948,4.463l-32.317,18.659c-4.374,2.524-12.013,2.208-17.065-.708l-29.566-17.069c-2.934-1.694-4.346-3.894-4.159-5.934Z" transform="translate(-3391.619 -9296.095)" fill="url(#linear-gradient-3)"/>
          <path id="Path_2215" data-name="Path 2215" d="M3427.212,9344.289c4.927,2.042,11.347,2.03,15.214-.2l32.317-18.659c4.374-2.524,3.826-6.935-1.225-9.851l-29.566-17.07c-5.051-2.916-12.691-3.232-17.064-.707l-32.317,18.658c-4.374,2.525-3.826,6.937,1.225,9.852l20.373,11.763" transform="translate(-3391.618 -9296.095)" fill="#afc7de"/>
        </g>
        <g id="Group_624" data-name="Group 624" transform="translate(0 15.945)">
          <path id="Path_2216" data-name="Path 2216" d="M3417.3,9331.768l-21.5-12.415c-2.934-1.693-4.346-3.892-4.159-5.932v-13.639c-.156-1.734.8-3.411,2.933-4.642l32.317-18.659c4.374-2.525,12.014-2.208,17.064.709l29.566,17.069c2.753,1.589,4.164,3.621,4.175,5.552h.008v14.2h-.009c.077,1.669-.891,3.273-2.948,4.462l-32.317,18.658c-4.374,2.525-12.013,2.208-17.065-.708l-1.8-1.041" transform="translate(-3391.619 -9274.777)" fill="url(#linear-gradient-4)"/>
          <path id="Path_2217" data-name="Path 2217" d="M3442.426,9322.77l32.317-18.658c4.374-2.525,3.826-6.936-1.225-9.852l-29.566-17.069c-5.051-2.917-12.691-3.234-17.064-.709l-32.317,18.659c-4.374,2.524-3.826,6.936,1.225,9.852l29.566,17.07C3430.413,9324.978,3438.052,9325.295,3442.426,9322.77Z" transform="translate(-3391.618 -9274.777)" fill="url(#linear-gradient-5)"/>
        </g>
        <g id="Group_625" data-name="Group 625">
          <path id="Path_2218" data-name="Path 2218" d="M3391.638,9278.308c-.156-1.736.8-3.412,2.933-4.644l32.317-18.657c4.374-2.525,12.014-2.208,17.064.707l29.566,17.07c2.753,1.588,4.164,3.622,4.175,5.552h.008v14.2h-.009c.077,1.671-.891,3.275-2.948,4.464l-32.317,18.658c-4.374,2.524-12.013,2.209-17.065-.708l-29.566-17.07c-2.934-1.694-4.346-3.893-4.159-5.933Z" transform="translate(-3391.619 -9253.302)" fill="url(#linear-gradient-6)"/>
          <path id="Path_2219" data-name="Path 2219" d="M3416.571,9295.512l8.791,5.075c5.051,2.916,12.691,3.232,17.065.708l32.317-18.659c4.374-2.524,3.826-6.936-1.225-9.852l-29.566-17.07c-5.051-2.915-12.691-3.232-17.064-.707l-32.317,18.657c-4.374,2.527-3.826,6.938,1.225,9.854l4.78,2.76" transform="translate(-3391.618 -9253.302)" fill="url(#linear-gradient-7)"/>
        </g>
      </g>
      <g id="Group_631" data-name="Group 631" transform="translate(34.543 19.146)">
        <g id="Group_627" data-name="Group 627" transform="translate(0 47.716)">
          <path id="Path_2220" data-name="Path 2220" d="M3331.679,9368.363c-.156-1.733.8-3.412,2.933-4.641l32.318-18.66c4.373-2.524,12.014-2.208,17.064.708l29.566,17.069c2.753,1.591,4.165,3.622,4.175,5.554h.008v14.2h-.009c.077,1.67-.891,3.274-2.948,4.462l-32.318,18.658c-4.374,2.525-12.013,2.209-17.065-.708l-29.566-17.069c-2.934-1.694-4.345-3.892-4.158-5.932Z" transform="translate(-3331.66 -9343.358)" fill="url(#linear-gradient-8)"/>
          <path id="Path_2221" data-name="Path 2221" d="M3382.467,9391.351l32.318-18.657c4.374-2.525,3.825-6.937-1.226-9.854l-29.566-17.069c-5.05-2.916-12.69-3.232-17.064-.708l-32.317,18.66c-4.374,2.524-3.825,6.935,1.225,9.851l29.566,17.07C3370.454,9393.56,3378.093,9393.877,3382.467,9391.351Z" transform="translate(-3331.659 -9343.358)" fill="url(#linear-gradient-5)"/>
        </g>
        <g id="Group_628" data-name="Group 628" transform="translate(0 31.772)">
          <path id="Path_2222" data-name="Path 2222" d="M3331.679,9346.889c-.156-1.735.8-3.411,2.933-4.643l32.318-18.659c4.373-2.523,12.014-2.208,17.064.709l29.566,17.069c2.753,1.589,4.165,3.623,4.175,5.552h.008v14.2h-.009c.077,1.67-.891,3.274-2.948,4.463l-32.318,18.658c-4.374,2.525-12.013,2.207-17.065-.707l-29.566-17.071c-2.934-1.693-4.345-3.892-4.158-5.933Z" transform="translate(-3331.66 -9321.883)" fill="url(#linear-gradient-10)"/>
          <path id="Path_2223" data-name="Path 2223" d="M3367.254,9370.077c4.926,2.042,11.346,2.031,15.213-.2l32.318-18.66c4.374-2.524,3.825-6.935-1.226-9.852l-29.566-17.069c-5.05-2.917-12.69-3.232-17.064-.709l-32.317,18.659c-4.374,2.524-3.825,6.937,1.225,9.854l20.373,11.761" transform="translate(-3331.659 -9321.883)" fill="url(#linear-gradient-5)"/>
        </g>
        <g id="Group_629" data-name="Group 629" transform="translate(0 15.945)">
          <path id="Path_2224" data-name="Path 2224" d="M3357.342,9357.557l-21.5-12.415c-2.934-1.694-4.345-3.892-4.158-5.932v-13.641c-.156-1.732.8-3.411,2.933-4.641l32.318-18.658c4.373-2.525,12.014-2.209,17.064.708l29.566,17.069c2.753,1.59,4.165,3.622,4.175,5.553h.008v14.2h-.009c.077,1.67-.891,3.273-2.948,4.462l-32.318,18.657c-4.374,2.525-12.013,2.209-17.065-.708l-1.8-1.04" transform="translate(-3331.66 -9300.565)" fill="url(#linear-gradient-4)"/>
          <path id="Path_2225" data-name="Path 2225" d="M3382.467,9348.558l32.318-18.657c4.374-2.525,3.825-6.937-1.226-9.853l-29.566-17.069c-5.05-2.917-12.69-3.233-17.064-.708l-32.317,18.658c-4.374,2.525-3.825,6.937,1.225,9.852l29.566,17.071C3370.454,9350.767,3378.093,9351.084,3382.467,9348.558Z" transform="translate(-3331.659 -9300.565)" fill="url(#linear-gradient-5)"/>
        </g>
        <g id="Group_630" data-name="Group 630">
          <path id="Path_2226" data-name="Path 2226" d="M3331.679,9304.095c-.156-1.734.8-3.412,2.933-4.642l32.318-18.659c4.373-2.524,12.014-2.207,17.064.707l29.566,17.071c2.753,1.589,4.165,3.622,4.175,5.552h.008v14.2h-.009c.077,1.67-.891,3.275-2.948,4.463l-32.318,18.659c-4.374,2.524-12.013,2.208-17.065-.708l-29.566-17.07c-2.934-1.694-4.345-3.893-4.158-5.933Z" transform="translate(-3331.66 -9279.09)" fill="url(#linear-gradient-14)"/>
          <path id="Path_2227" data-name="Path 2227" d="M3356.612,9321.3l8.791,5.075c5.051,2.916,12.691,3.232,17.064.708l32.318-18.659c4.374-2.524,3.825-6.937-1.226-9.852l-29.566-17.071c-5.05-2.914-12.69-3.231-17.064-.707l-32.317,18.659c-4.374,2.525-3.825,6.936,1.225,9.853l4.78,2.76" transform="translate(-3331.659 -9279.09)" fill="url(#linear-gradient-15)"/>
        </g>
      </g>
      <g id="Group_635" data-name="Group 635" transform="translate(127.885 36.857)">
        <g id="Group_632" data-name="Group 632" transform="translate(0 31.772)">
          <path id="Path_2228" data-name="Path 2228" d="M3457.4,9370.742c-.156-1.733.8-3.412,2.933-4.641l32.317-18.659c4.374-2.524,12.014-2.209,17.065.708l29.566,17.069c2.753,1.59,4.166,3.623,4.175,5.553h.008v14.2h-.009c.076,1.671-.891,3.274-2.948,4.462l-32.317,18.658c-4.374,2.525-12.013,2.209-17.064-.708l-29.566-17.069c-2.934-1.694-4.345-3.893-4.158-5.933Z" transform="translate(-3457.38 -9345.738)" fill="url(#linear-gradient-10)"/>
          <path id="Path_2229" data-name="Path 2229" d="M3492.974,9393.931c4.926,2.044,11.346,2.032,15.213-.2l32.318-18.657c4.374-2.525,3.825-6.937-1.226-9.853l-29.566-17.069c-5.05-2.917-12.691-3.232-17.065-.708l-32.317,18.659c-4.374,2.524-3.825,6.936,1.225,9.851l20.373,11.764" transform="translate(-3457.379 -9345.738)" fill="url(#linear-gradient-5)"/>
        </g>
        <g id="Group_633" data-name="Group 633" transform="translate(0 15.945)">
          <path id="Path_2230" data-name="Path 2230" d="M3483.062,9381.411l-21.5-12.414c-2.934-1.694-4.345-3.893-4.158-5.933v-13.64c-.156-1.733.8-3.411,2.933-4.642l32.317-18.658c4.374-2.525,12.014-2.208,17.065.707l29.566,17.07c2.753,1.589,4.166,3.623,4.175,5.553h.008v14.2h-.009c.076,1.67-.891,3.276-2.948,4.463l-32.317,18.659c-4.374,2.524-12.013,2.208-17.064-.708l-1.8-1.042" transform="translate(-3457.38 -9324.42)" fill="url(#linear-gradient-18)"/>
          <path id="Path_2231" data-name="Path 2231" d="M3508.187,9372.412l32.318-18.658c4.374-2.524,3.825-6.936-1.226-9.852l-29.566-17.07c-5.05-2.915-12.691-3.232-17.065-.707l-32.317,18.658c-4.374,2.525-3.825,6.936,1.225,9.853l29.566,17.069C3496.174,9374.622,3503.813,9374.938,3508.187,9372.412Z" transform="translate(-3457.379 -9324.42)" fill="url(#linear-gradient-5)"/>
        </g>
        <g id="Group_634" data-name="Group 634">
          <path id="Path_2232" data-name="Path 2232" d="M3457.4,9327.949c-.156-1.733.8-3.411,2.933-4.642l32.317-18.658c4.374-2.525,12.014-2.209,17.065.708l29.566,17.069c2.753,1.59,4.166,3.623,4.175,5.554h.008v14.2h-.009c.076,1.671-.891,3.275-2.948,4.462l-32.317,18.659c-4.374,2.524-12.013,2.208-17.064-.708l-29.566-17.069c-2.934-1.694-4.345-3.893-4.158-5.934Z" transform="translate(-3457.38 -9302.944)" fill="url(#linear-gradient-14)"/>
          <path id="Path_2233" data-name="Path 2233" d="M3482.332,9345.155l8.791,5.075c5.051,2.915,12.691,3.233,17.064.707l32.318-18.658c4.374-2.525,3.825-6.936-1.226-9.853l-29.566-17.069c-5.05-2.917-12.691-3.233-17.065-.708l-32.317,18.658c-4.374,2.525-3.825,6.937,1.225,9.853l4.78,2.761" transform="translate(-3457.379 -9302.944)" fill="url(#linear-gradient-15)"/>
        </g>
      </g>
      <g id="Group_638" data-name="Group 638" transform="translate(82.65 79.22)">
        <g id="Group_636" data-name="Group 636" transform="translate(0 15.945)">
          <path id="Path_2234" data-name="Path 2234" d="M3422.136,9438.47l-21.5-12.415c-2.934-1.694-4.345-3.892-4.158-5.933v-13.639c-.157-1.734.8-3.412,2.933-4.642l32.317-18.658c4.374-2.525,12.014-2.21,17.064.706l29.567,17.07c2.752,1.59,4.165,3.623,4.174,5.553h.007v14.2h-.009c.077,1.67-.891,3.273-2.948,4.462l-32.317,18.658c-4.374,2.525-12.013,2.208-17.064-.707l-1.8-1.042" transform="translate(-3396.454 -9381.479)" fill="url(#linear-gradient-4)"/>
          <path id="Path_2235" data-name="Path 2235" d="M3447.261,9429.472l32.317-18.659c4.374-2.525,3.825-6.936-1.225-9.853l-29.567-17.07c-5.05-2.916-12.69-3.231-17.064-.706l-32.317,18.658c-4.374,2.524-3.825,6.936,1.225,9.852l29.567,17.07C3435.248,9431.679,3442.887,9432,3447.261,9429.472Z" transform="translate(-3396.453 -9381.479)" fill="url(#linear-gradient-5)"/>
        </g>
        <g id="Group_637" data-name="Group 637">
          <path id="Path_2236" data-name="Path 2236" d="M3396.474,9385.007c-.157-1.734.8-3.411,2.933-4.642l32.317-18.659c4.374-2.523,12.014-2.208,17.064.709l29.567,17.069c2.752,1.589,4.165,3.622,4.174,5.552h.007v14.2h-.009c.077,1.67-.891,3.273-2.948,4.462l-32.317,18.658c-4.374,2.525-12.013,2.208-17.064-.707l-29.567-17.071c-2.934-1.693-4.345-3.892-4.158-5.932Z" transform="translate(-3396.454 -9360.002)" fill="url(#linear-gradient-14)"/>
          <path id="Path_2237" data-name="Path 2237" d="M3421.406,9402.212l8.792,5.075c5.05,2.917,12.69,3.232,17.064.707l32.317-18.658c4.374-2.524,3.825-6.936-1.225-9.852l-29.567-17.069c-5.05-2.917-12.69-3.232-17.064-.709l-32.317,18.659c-4.374,2.524-3.825,6.937,1.225,9.853l4.78,2.759" transform="translate(-3396.453 -9360.002)" fill="url(#linear-gradient-7)"/>
        </g>
      </g>
    </g>
    <g id="Group_641" data-name="Group 641" transform="translate(3413.444 9216.513)">
      <path id="Path_2238" data-name="Path 2238" stroke="#2bc0ff" d="M3496.285,9344.553l-35.629-20.571c-2.581-1.489-2.257-4.092.722-5.812l33.9-19.574c2.979-1.72,7.486-1.907,10.066-.417l35.629,20.57c2.581,1.49,2.257,4.091-.723,5.811l-33.9,19.574C3503.373,9345.854,3498.866,9346.042,3496.285,9344.553Z" fill="none" transform="translate(-3458.201 -9237.286)" stroke-linecap="round" stroke-linejoin="round" stroke-width="2.887" opacity="0.1"/>
      <path id="Path_2239" data-name="Path 2239" d="M3495.5,9237.772l-37.55,7.927v65.376h85.232v-65.229Z" transform="translate(-3457.954 -9221.988)" opacity="0.5" fill="url(#linear-gradient-26)"/>
      <path id="Path_2240" data-name="Path 2240" stroke="#2bc0ff" d="M3496.285,9282.9l-35.629-20.57c-2.581-1.491-2.257-4.092.722-5.812l33.9-19.574c2.979-1.72,7.486-1.906,10.066-.417l35.629,20.57c2.581,1.489,2.257,4.092-.723,5.813l-33.9,19.574C3503.373,9284.206,3498.866,9284.393,3496.285,9282.9Z" fill="none" transform="translate(-3458.201 -9221.409)" stroke-linecap="round" stroke-linejoin="round" stroke-width="2.887" opacity="0.4"/>
      <path id="Path_2241" data-name="Path 2241" stroke="#2bc0ff" d="M3496.285,9304.109l-35.629-20.57c-2.581-1.489-2.257-4.091.722-5.812l33.9-19.573c2.979-1.721,7.486-1.907,10.066-.418l35.629,20.57c2.581,1.49,2.257,4.091-.723,5.812l-33.9,19.574C3503.373,9305.413,3498.866,9305.6,3496.285,9304.109Z" fill="none" transform="translate(-3458.201 -9226.871)" stroke-linecap="round" stroke-linejoin="round" stroke-width="2.887" opacity="0.2"/>
      <path id="Path_2242" data-name="Path 2242" stroke="#2bc0ff" d="M3496.285,9325.073l-35.629-20.57c-2.581-1.489-2.257-4.091.722-5.812l33.9-19.573c2.979-1.721,7.486-1.907,10.066-.419l35.629,20.571c2.581,1.49,2.257,4.091-.723,5.812l-33.9,19.574C3503.373,9326.376,3498.866,9326.563,3496.285,9325.073Z" fill="none" transform="translate(-3458.201 -9232.27)" stroke-linecap="round" stroke-linejoin="round" stroke-width="2.887" opacity="0.1"/>
      <path id="Path_2243" data-name="Path 2243" d="M3496.285,9263.893l-35.629-20.571c-2.581-1.489-2.257-4.092.722-5.812l33.9-19.573c2.979-1.72,7.486-1.906,10.066-.416l35.629,20.569c2.581,1.489,2.257,4.092-.723,5.812l-33.9,19.574C3503.373,9265.194,3498.866,9265.382,3496.285,9263.893Z" transform="translate(-3458.201 -9216.514)" fill="#fff" stroke="#2bc0ff" stroke-linecap="round" stroke-linejoin="round" stroke-width="3.464"/>
      <g id="Group_640" data-name="Group 640" transform="translate(7.04 3.58)">
        <g id="Group_639" data-name="Group 639">
          <path id="Path_2244" data-name="Path 2244" d="M3525.6,9256.847l-1.714.99,3.345,1.932,1.6-.922,1.782.9v-.013l-1.62,1.086,1.628.938-1.745,1.008-1.646-.95-1.678.969-1.706-.984-1.749,1.01,3.357,1.938-3.383,1.954-1.665-.961,1.641-.948-1.712-.988-1.621.936-1.711-.987,3.339-1.928-1.7-.981,1.748-1.009,1.641.947,1.653-.955-5.1-2.941-1.611.931-3.417-1.973,5.066-2.924,3.365,1.941,1.688-.975-1.642-.947,1.728-1,5.09,2.938,1.651-.952,3.4,1.961-1.639.948-1.664-.961-3.433,1.982-1.6-1.011c.506-.321,1.013-.643,1.53-.968l-1.631-.942-1.682.971Z" transform="translate(-3479.315 -9229.219)" fill="#004680"/>
          <path id="Path_2245" data-name="Path 2245" d="M3511.46,9221.335l11.947,6.9-11.883,6.862-11.947-6.9Zm8.513,6.9-8.519-4.918-8.45,4.879,8.519,4.918Z" transform="translate(-3475.713 -9221.335)" fill="#004680"/>
          <path id="Path_2246" data-name="Path 2246" d="M3491.216,9246.824l-11.833,6.833-11.948-6.9,11.833-6.832Zm-11.933-4.938-8.434,4.869,8.514,4.915,8.434-4.869Z" transform="translate(-3467.435 -9226.123)" fill="#004680"/>
          <path id="Path_2247" data-name="Path 2247" d="M3543.857,9253.774l-11.907-6.874,11.873-6.855,11.907,6.875Zm-.012-1.985,8.462-4.886-8.477-4.894-8.461,4.885Z" transform="translate(-3484.051 -9226.153)" fill="#004680"/>
          <path id="Path_2248" data-name="Path 2248" d="M3499.413,9238.789l1.775-.891-1.72-.992,1.651-.954,3.4,1.965-1.656.957,1.78,1.027,0-.022-1.744,1.007,1.712.989c-.6.345-1.121.646-1.643.948-.558-.321-1.115-.644-1.685-.971l-1.682.971,1.668.962,1.7-.98,1.695,1.013,0-.02-1.7.979,1.7.979-1.711.988,3.435,1.983,1.65-.952,1.672.965-3.373,1.947-1.658-.957-1.716.991-5.146-2.972,3.394-1.96-8.569-4.946,1.706-.984,1.688.974,1.715-.99,1.686.974,1.649-.953c-.584-.381-1.128-.738-1.673-1.094Z" transform="translate(-3473.927 -9225.1)" fill="#004680"/>
          <path id="Path_2249" data-name="Path 2249" d="M3518.372,9240.552l1.842.92,3.364-1.942-1.667-.962,1.7-.979-1.679-.971,3.4-1.964,1.663.96-1.646.949,1.7.983-1.723,1,3.459,2c-.476.275-.855.513-1.271.729-.365.189-.342.343.008.528.417.221.8.459,1.237.708l-5.139,2.968-1.657-.957-1.683.972,1.656.957-1.692.977-3.385-1.954-1.691.978-1.785-1.032,3.4-1.964q.864.5,1.728,1l1.626-.937-1.709-.986-1.642.947-1.7-.98v.02l3.3-1.957Z" transform="translate(-3479.269 -9224.766)" fill="#004680"/>
          <path id="Path_2250" data-name="Path 2250" d="M3507.274,9268.11l-1.855.97-3.391-1.956,5.091-2.94-1.691-.976,3.387-1.955,1.658.957-1.638.947,1.738,1,1.642-.948,1.688.976-3.352,1.936,1.781,1.028c-1.161.669-2.258,1.3-3.359,1.937h.021l-1.751-.979c.506-.322,1.013-.644,1.53-.97l-1.631-.941-1.682.971Z" transform="translate(-3476.344 -9231.616)" fill="#004680"/>
          <path id="Path_2251" data-name="Path 2251" d="M3494.939,9261.057l-3.382-1.953-1.711.988-1.716-.99,5.091-2.938-1.677-.968,3.384-1.954,1.678.969-1.662.96,1.682.971,0-.021-1.639,1.045,1.669.964-1.685.972,1.666.961-1.723,1Z" transform="translate(-3472.765 -9229.553)" fill="#004680"/>
          <path id="Path_2252" data-name="Path 2252" d="M3490.339,9237.09l3.29-1.9-1.615-.932,1.694-.977,3.355,1.937-1.619.936,3.376,1.948v-.02l-1.577,1.088-3.464-2-1.752,1.013-1.686-1.1Z" transform="translate(-3473.334 -9224.412)" fill="#004680"/>
          <path id="Path_2253" data-name="Path 2253" d="M3535.759,9235.926l3.421,1.9,0-.007-1.6,1.112,1.606.928-1.668.963-3.376-1.948,1.641-.946-1.734-1,1.738-1Z" transform="translate(-3484.592 -9225.093)" fill="#004680"/>
          <path id="Path_2254" data-name="Path 2254" d="M3513.552,9272.405l3.288-1.9,3.462,2-3.278,1.893-3.472-2Z" transform="translate(-3479.312 -9234)" fill="#004680"/>
          <path id="Path_2255" data-name="Path 2255" d="M3496.72,9263.767l1.77,1.022,1.672-.966,1.691.977-1.662.959-1.657-.957-1.672.966-1.709-.986,1.6-1.014Z" transform="translate(-3474.574 -9232.264)" fill="#004680"/>
          <path id="Path_2256" data-name="Path 2256" d="M3536.524,9261.789l3.305-1.909,1.752,1.011-3.4,1.963c-.578-.374-1.119-.725-1.659-1.076Z" transform="translate(-3485.229 -9231.263)" fill="#004680"/>
          <path id="Path_2257" data-name="Path 2257" d="M3508.808,9240.938l1.66-.958,3.384,1.954-1.658.957h.034l-3.422-1.976Z" transform="translate(-3478.09 -9226.137)" fill="#004680"/>
          <path id="Path_2258" data-name="Path 2258" d="M3513.923,9244.869l-3.39,1.957-1.7-.98,0,.02,3.4-1.963h-.034l1.722.986Z" transform="translate(-3478.097 -9227.148)" fill="#004680"/>
          <path id="Path_2259" data-name="Path 2259" d="M3499.571,9256.809l1.7-.979,3.4,1.965,0-.019-1.594,1.036-3.506-2.023Z" transform="translate(-3475.711 -9230.219)" fill="#004680"/>
          <path id="Path_2260" data-name="Path 2260" d="M3506.439,9258.161l1.744-.9,1.646.951-1.64.946c-.6-.344-1.175-.677-1.753-1.012Z" transform="translate(-3477.48 -9230.588)" fill="#004680"/>
          <path id="Path_2261" data-name="Path 2261" d="M3489.166,9238.1l-1.686,1.067-1.7-.981,1.625-.938c.609.3,1.184.584,1.76.865Z" transform="translate(-3472.159 -9225.434)" fill="#004680"/>
          <path id="Path_2262" data-name="Path 2262" d="M3519.6,9241.921l-1.544-1,1.638-.945,1.626.939c-.6.347-1.172.677-1.745,1.006Z" transform="translate(-3480.473 -9226.136)" fill="#004680"/>
          <path id="Path_2263" data-name="Path 2263" d="M3540.959,9238.2l1.755-.843,1.642.947-1.684.975c-.577-.367-1.144-.726-1.711-1.085Z" transform="translate(-3486.371 -9225.46)" fill="#004680"/>
          <path id="Path_2264" data-name="Path 2264" d="M3535.815,9235.262l-1.667-.963,1.65-.953,1.651.955-1.665.961Z" transform="translate(-3484.617 -9224.429)" fill="#004680"/>
          <path id="Path_2265" data-name="Path 2265" d="M3512.39,9272.729l-1.662,1.065-1.688-.975,1.757-1.014h-.019l1.612.935Z" transform="translate(-3478.15 -9234.334)" fill="#004680"/>
          <path id="Path_2266" data-name="Path 2266" d="M3513.848,9232.506l-5.089-2.938,5.058-2.92,5.089,2.938Z" transform="translate(-3478.078 -9222.703)" fill="#004680"/>
          <path id="Path_2267" data-name="Path 2267" d="M3481.652,9245.226l5.093,2.939-5.042,2.912-5.093-2.94Z" transform="translate(-3469.798 -9227.487)" fill="#004680"/>
          <path id="Path_2268" data-name="Path 2268" d="M3546.221,9251.2l-5.061-2.92,5.079-2.933,5.06,2.921Z" transform="translate(-3486.423 -9227.52)" fill="#004680"/>
        </g>
      </g>
    </g>
  </g>
</svg>
