<svg xmlns="http://www.w3.org/2000/svg" xmlns:xlink="http://www.w3.org/1999/xlink" width="182.851" height="232.352" viewBox="0 0 182.851 232.352">
  <defs>
    <linearGradient id="linear-gradient" x1="0.609" y1="1.113" x2="0.521" y2="0.37" gradientUnits="objectBoundingBox">
      <stop offset="0" stop-color="#feffff"/>
      <stop offset="0.296" stop-color="#e5ffff"/>
      <stop offset="1" stop-color="#bfbafb"/>
    </linearGradient>
  </defs>
  <g id="Group_620" data-name="Group 620" transform="translate(-2822.536 -9252.512)">
    <g id="Group_593" data-name="Group 593" transform="translate(2900.844 9252.513)">
      <path id="Path_2161" data-name="Path 2161" d="M2993.233,9462.324l-83.119-49.24c-1.829-1.055-1.6-2.9.512-4.12l3.044-2.089a7.934,7.934,0,0,1,7.137-.3l83.119,49.358c1.829,1.056,1.6,2.9-.512,4.12l-3.044,1.971A7.932,7.932,0,0,1,2993.233,9462.324Z" transform="translate(-2906.891 -9263.253)" fill="#6d7780" opacity="0.1"/>
      <g id="Group_592" data-name="Group 592">
        <path id="Path_2162" data-name="Path 2162" d="M3000.867,9301.263l-83.693-48.318a2.1,2.1,0,0,0-2.459-.068l-.012-.017-7.467,4.794,6.165,8.708.578,1.241v115.659a7.059,7.059,0,0,0,3.2,5.518l56.213,32.456,16.582,9.572,1.9,4.075s3.733,7.954,3.886,7.884,7.268-4.54,7.268-4.54l0-.008c.643-.3,1.055-1.021,2.03-2.384V9306.494C3004.072,9304.752,3002.629,9302.287,3000.867,9301.263Z" transform="translate(-2906.776 -9252.514)" fill="url(#linear-gradient)"/>
        <g id="product_ui" data-name="product ui" transform="translate(0 4.5)">
          <g id="Group_591" data-name="Group 591">
            <path id="Path_2163" data-name="Path 2163" d="M2906.741,9346.261v42.7a7.061,7.061,0,0,0,3.2,5.52l56.215,32.455,27.479,15.862c1.762,1.016,3.2.206,3.2-1.824V9311.63a7.07,7.07,0,0,0-3.2-5.519l-83.693-48.317c-1.762-1.024-3.2-.205-3.2,1.824v82.035" transform="translate(-2906.741 -9257.353)" fill="#f9fbfc"/>
            <g id="Group_584" data-name="Group 584" transform="translate(4.729 16.555)">
              <path id="Path_2164" data-name="Path 2164" d="M2913.285,9279.223l40.461,23.36c.806.464,1.46-.03,1.46-1.105h0a3.494,3.494,0,0,0-1.46-2.788l-40.461-23.36c-.805-.465-1.459.028-1.459,1.1h0A3.5,3.5,0,0,0,2913.285,9279.223Z" transform="translate(-2911.826 -9275.154)" fill="#cfd9e6"/>
              <path id="Path_2165" data-name="Path 2165" d="M2913.285,9288.426l21.512,12.42c.805.465,1.459-.03,1.459-1.1h0a3.5,3.5,0,0,0-1.459-2.79l-21.512-12.42c-.805-.466-1.459.029-1.459,1.1h0A3.5,3.5,0,0,0,2913.285,9288.426Z" transform="translate(-2911.826 -9275.799)" fill="#cfd9e6"/>
            </g>
            <g id="Group_585" data-name="Group 585" transform="translate(7.818 44.527)">
              <path id="Path_2166" data-name="Path 2166" d="M2916.3,9308.444l67.056,38.929c.637.367,1.153-.022,1.153-.871h0a2.759,2.759,0,0,0-1.153-2.2L2916.3,9305.37c-.636-.367-1.152.022-1.152.872h0A2.761,2.761,0,0,0,2916.3,9308.444Z" transform="translate(-2915.148 -9305.232)" fill="#cfd9e6"/>
            </g>
            <g id="Group_586" data-name="Group 586" transform="translate(7.818 55.592)">
              <path id="Path_2167" data-name="Path 2167" d="M2916.3,9320.344l67.056,38.929c.637.365,1.153-.022,1.153-.872h0a2.762,2.762,0,0,0-1.153-2.2l-67.056-38.929c-.636-.367-1.152.022-1.152.872h0A2.764,2.764,0,0,0,2916.3,9320.344Z" transform="translate(-2915.148 -9317.131)" fill="#cfd9e6"/>
            </g>
            <g id="Group_587" data-name="Group 587" transform="translate(7.818 66.658)">
              <path id="Path_2168" data-name="Path 2168" d="M2916.3,9332.242l67.056,38.929c.637.368,1.153-.022,1.153-.871h0a2.762,2.762,0,0,0-1.153-2.2l-67.056-38.929c-.636-.367-1.152.023-1.152.871h0A2.761,2.761,0,0,0,2916.3,9332.242Z" transform="translate(-2915.148 -9329.03)" fill="#cfd9e6"/>
            </g>
            <g id="Group_588" data-name="Group 588" transform="translate(7.818 77.723)">
              <path id="Path_2169" data-name="Path 2169" d="M2916.3,9344.142l67.056,38.928c.637.367,1.153-.022,1.153-.872h0a2.763,2.763,0,0,0-1.153-2.2l-67.056-38.927c-.636-.369-1.152.021-1.152.87h0A2.766,2.766,0,0,0,2916.3,9344.142Z" transform="translate(-2915.148 -9340.928)" fill="#cfd9e6"/>
            </g>
            <g id="Group_589" data-name="Group 589" transform="translate(7.818 88.789)">
              <path id="Path_2170" data-name="Path 2170" d="M2916.3,9356.041l67.056,38.928c.637.367,1.153-.022,1.153-.871h0a2.76,2.76,0,0,0-1.153-2.2l-67.056-38.929c-.636-.367-1.152.022-1.152.871h0A2.765,2.765,0,0,0,2916.3,9356.041Z" transform="translate(-2915.148 -9352.827)" fill="#cfd9e6"/>
            </g>
            <g id="Group_590" data-name="Group 590" transform="translate(7.818 99.855)">
              <path id="Path_2171" data-name="Path 2171" d="M2916.3,9367.939l30.767,17.788c.637.369,1.153-.021,1.153-.871h0a2.758,2.758,0,0,0-1.153-2.2l-30.767-17.789c-.636-.367-1.152.022-1.152.871h0A2.763,2.763,0,0,0,2916.3,9367.939Z" transform="translate(-2915.148 -9364.727)" fill="#cfd9e6"/>
            </g>
          </g>
        </g>
      </g>
    </g>
    <path id="Path_2172" data-name="Path 2172" d="M2981.826,9433.9c-.6-.515-1.212-.98-1.785-1.556a16.95,16.95,0,0,0-4.028-3.067,11.337,11.337,0,0,1-1.616-1.071,7.545,7.545,0,0,1-2.251-3.357c-.53-1.369-1-2.747-1.6-4.1-.412-.927-1.006-1.812-1.51-2.722a6.521,6.521,0,0,1-1.1-3.844,7.027,7.027,0,0,1,.406-1.617,9.218,9.218,0,0,0,.6-3.916,12.613,12.613,0,0,1,.045-1.373c.084-1.45.746-2.2,1.893-2.146a8.122,8.122,0,0,0,4.615-1.16c.911-.538,2.057-.105,3.3,1.031.434.4.866.8,1.292,1.212a13.831,13.831,0,0,0,2.925,2.237c.615.341,1.235.727,1.848,1.144a6.631,6.631,0,0,1,2.277,2.892,7.536,7.536,0,0,1,.336.806,31.594,31.594,0,0,0,3.206,6.993,5.486,5.486,0,0,1,.807,4.526,24.69,24.69,0,0,0-.79,2.937,13.836,13.836,0,0,0-.057,2.241c-.005,1.108-.113,2.147-.82,2.563a2.711,2.711,0,0,1-1.518.388,6.234,6.234,0,0,0-3.817.96,2.153,2.153,0,0,1-2.322.117c-.1-.052-.21-.121-.315-.181Z" transform="translate(-10.181 -10.591)" fill="#03c1ff" opacity="0.3"/>
    <ellipse id="Ellipse_360" data-name="Ellipse 360" cx="5.72" cy="9.908" rx="5.72" ry="9.908" transform="translate(2959.247 9402.822) rotate(-30.311)" opacity="0.3" stroke="#fff" stroke-linecap="round" stroke-linejoin="round" stroke-width="2.078" fill="#03c1ff"/>
    <g id="Group_595" data-name="Group 595" transform="translate(2950.659 9310.854)">
      <path id="Path_2173" data-name="Path 2173" d="M3009.305,9337.684l-37.641-21.732c-1.648-.95-3.136-.9-4.2-.066l-4.931,2.966,3.249,4.01v13.323c0,4.335,2.636,9.37,5.887,11.247l26.359,15.218,5.852,7.222,4.153,2.712,5.011-3.045c.032-.016.061-.038.093-.056l.251-.152,0,0c1.115-.785,1.813-2.386,1.813-4.61v-15.782C3015.192,9344.6,3012.557,9339.561,3009.305,9337.684Z" transform="translate(-2960.464 -9315.247)" fill="#eb0fb0"/>
      <path id="Path_2174" data-name="Path 2174" d="M3003.836,9372.633l-37.641-21.731c-3.251-1.879-5.887-6.915-5.887-11.249V9323.87c0-4.335,2.635-6.326,5.887-4.449l37.641,21.731c3.251,1.878,5.887,6.914,5.887,11.247v15.782C3009.723,9372.517,3007.087,9374.51,3003.836,9372.633Z" transform="translate(-2960.308 -9315.49)" fill="#f272c5"/>
      <g id="Group_594" data-name="Group 594" transform="translate(8.632 16.222)">
        <path id="Path_2175" data-name="Path 2175" d="M2976.556,9339.022a4.619,4.619,0,0,0-2.224-3.263c-1.155-.667-1.914-.256-1.914.675a3.124,3.124,0,0,0,1.328,2.35l1.707,1.361a8.313,8.313,0,0,1,3.414,6.106c0,2.156-1.569,3.427-4.413,1.785a9.809,9.809,0,0,1-4.862-7.2l2.207.6a5.364,5.364,0,0,0,2.673,4.173c1.275.736,1.982.414,1.982-.576a3.5,3.5,0,0,0-1.482-2.518l-1.707-1.38a7.93,7.93,0,0,1-3.208-5.868c0-2.492,1.948-3.268,4.259-1.934a8.864,8.864,0,0,1,4.379,6.169Z" transform="translate(-2969.59 -9332.69)" fill="#fff"/>
        <path id="Path_2176" data-name="Path 2176" d="M2981.732,9351.809v-14.027l2.38,1.373v11.416l5.448,3.146v2.611Z" transform="translate(-2970.44 -9333.047)" fill="#fff"/>
        <path id="Path_2177" data-name="Path 2177" d="M2999.446,9359.033l-4.966-2.866-1.016,2.618-2.518-1.454,4.69-11.319,2.758,1.593,4.655,16.715-2.586-1.494Zm-4.173-4.9,3.379,1.951-1.689-6.279Z" transform="translate(-2971.086 -9333.623)" fill="#fff"/>
      </g>
    </g>
    <g id="Group_605" data-name="Group 605" transform="translate(2861.187 9268.573)">
      <path id="Path_2178" data-name="Path 2178" d="M2950.59,9479.6l-83.119-49.24c-1.829-1.056-1.6-2.9.512-4.122l3.044-2.088a7.934,7.934,0,0,1,7.137-.3l83.12,49.357c1.829,1.058,1.6,2.9-.512,4.121l-3.044,1.972A7.941,7.941,0,0,1,2950.59,9479.6Z" transform="translate(-2864.248 -9280.523)" fill="#6d7780" opacity="0.1"/>
      <g id="Group_604" data-name="Group 604">
        <path id="Path_2179" data-name="Path 2179" d="M2958.224,9318.533l-83.693-48.317a2.094,2.094,0,0,0-2.459-.069l-.012-.016-7.467,4.793,6.165,8.708.578,1.241v115.658a7.065,7.065,0,0,0,3.2,5.52l56.214,32.455,16.581,9.571,1.9,4.077s3.733,7.954,3.886,7.883,7.268-4.539,7.268-4.539l0-.01c.643-.3,1.054-1.02,2.03-2.383v-129.34C2961.428,9322.023,2959.987,9319.557,2958.224,9318.533Z" transform="translate(-2864.133 -9269.783)" fill="url(#linear-gradient)"/>
        <g id="product_ui-2" data-name="product ui" transform="translate(0 4.5)">
          <g id="Group_603" data-name="Group 603">
            <path id="Path_2180" data-name="Path 2180" d="M2864.1,9363.531v42.7a7.06,7.06,0,0,0,3.2,5.52l56.214,32.455,27.479,15.862c1.763,1.016,3.2.205,3.2-1.824V9328.9a7.067,7.067,0,0,0-3.2-5.519l-83.692-48.319c-1.763-1.022-3.2-.2-3.2,1.825v82.037" transform="translate(-2864.098 -9274.622)" fill="#f9fbfc"/>
            <g id="Group_596" data-name="Group 596" transform="translate(4.729 16.556)">
              <path id="Path_2181" data-name="Path 2181" d="M2870.643,9296.492l40.46,23.359c.806.466,1.46-.027,1.46-1.1h0a3.5,3.5,0,0,0-1.46-2.79l-40.46-23.359c-.806-.465-1.46.029-1.46,1.1h0A3.5,3.5,0,0,0,2870.643,9296.492Z" transform="translate(-2869.183 -9292.425)" fill="#cfd9e6"/>
              <path id="Path_2182" data-name="Path 2182" d="M2870.643,9305.7l21.511,12.42c.806.466,1.459-.028,1.459-1.1h0a3.5,3.5,0,0,0-1.459-2.789l-21.511-12.419c-.806-.466-1.46.028-1.46,1.1h0A3.493,3.493,0,0,0,2870.643,9305.7Z" transform="translate(-2869.183 -9293.069)" fill="#cfd9e6"/>
            </g>
            <g id="Group_597" data-name="Group 597" transform="translate(7.818 44.527)">
              <path id="Path_2183" data-name="Path 2183" d="M2873.658,9325.715l67.055,38.93c.637.366,1.153-.024,1.153-.873h0a2.758,2.758,0,0,0-1.153-2.2l-67.055-38.929c-.637-.368-1.154.022-1.154.872h0A2.76,2.76,0,0,0,2873.658,9325.715Z" transform="translate(-2872.505 -9322.502)" fill="#cfd9e6"/>
            </g>
            <g id="Group_598" data-name="Group 598" transform="translate(7.818 55.592)">
              <path id="Path_2184" data-name="Path 2184" d="M2873.658,9337.614l67.055,38.929c.637.367,1.153-.023,1.153-.872h0a2.756,2.756,0,0,0-1.153-2.2l-67.055-38.93c-.637-.367-1.154.023-1.154.872h0A2.761,2.761,0,0,0,2873.658,9337.614Z" transform="translate(-2872.505 -9334.401)" fill="#cfd9e6"/>
            </g>
            <g id="Group_599" data-name="Group 599" transform="translate(7.818 66.658)">
              <path id="Path_2185" data-name="Path 2185" d="M2873.658,9349.513l67.055,38.929c.637.367,1.153-.023,1.153-.873h0a2.762,2.762,0,0,0-1.153-2.2l-67.055-38.928c-.637-.368-1.154.022-1.154.871h0A2.762,2.762,0,0,0,2873.658,9349.513Z" transform="translate(-2872.505 -9346.3)" fill="#cfd9e6"/>
            </g>
            <g id="Group_600" data-name="Group 600" transform="translate(7.818 77.724)">
              <path id="Path_2186" data-name="Path 2186" d="M2873.658,9361.412l67.055,38.929c.637.367,1.153-.023,1.153-.872h0a2.758,2.758,0,0,0-1.153-2.2l-67.055-38.929c-.637-.368-1.154.022-1.154.871h0A2.761,2.761,0,0,0,2873.658,9361.412Z" transform="translate(-2872.505 -9358.199)" fill="#cfd9e6"/>
            </g>
            <g id="Group_601" data-name="Group 601" transform="translate(7.818 88.789)">
              <path id="Path_2187" data-name="Path 2187" d="M2873.658,9373.311l67.055,38.929c.637.367,1.153-.022,1.153-.872h0a2.757,2.757,0,0,0-1.153-2.2l-67.055-38.93c-.637-.369-1.154.022-1.154.871h0A2.759,2.759,0,0,0,2873.658,9373.311Z" transform="translate(-2872.505 -9370.098)" fill="#cfd9e6"/>
            </g>
            <g id="Group_602" data-name="Group 602" transform="translate(7.818 99.855)">
              <path id="Path_2188" data-name="Path 2188" d="M2873.658,9385.209,2904.424,9403c.637.365,1.153-.024,1.153-.873h0a2.763,2.763,0,0,0-1.153-2.2l-30.766-17.787c-.637-.369-1.154.021-1.154.871h0A2.758,2.758,0,0,0,2873.658,9385.209Z" transform="translate(-2872.505 -9381.997)" fill="#cfd9e6"/>
            </g>
          </g>
        </g>
      </g>
    </g>
    <path id="Path_2189" data-name="Path 2189" d="M2939.183,9451.175c-.6-.516-1.212-.981-1.785-1.555a16.914,16.914,0,0,0-4.028-3.07,11.319,11.319,0,0,1-1.616-1.069,7.558,7.558,0,0,1-2.251-3.358c-.53-1.368-1-2.747-1.6-4.1-.412-.928-1.006-1.813-1.51-2.722a6.522,6.522,0,0,1-1.1-3.844,7.115,7.115,0,0,1,.406-1.617,9.221,9.221,0,0,0,.6-3.917,12.5,12.5,0,0,1,.045-1.37c.083-1.452.746-2.2,1.892-2.148a8.128,8.128,0,0,0,4.615-1.16c.911-.537,2.057-.105,3.3,1.033.433.4.866.795,1.292,1.211a13.825,13.825,0,0,0,2.925,2.236c.615.342,1.235.729,1.849,1.145a6.637,6.637,0,0,1,2.276,2.891,7.4,7.4,0,0,1,.336.807,31.552,31.552,0,0,0,3.206,6.993,5.485,5.485,0,0,1,.807,4.525,24.757,24.757,0,0,0-.79,2.938,13.974,13.974,0,0,0-.057,2.241c-.005,1.107-.112,2.146-.82,2.564a2.727,2.727,0,0,1-1.518.388,6.225,6.225,0,0,0-3.816.958,2.157,2.157,0,0,1-2.322.118c-.1-.053-.209-.12-.314-.182Z" transform="translate(-7.194 -11.802)" fill="#03c1ff" opacity="0.3"/>
    <ellipse id="Ellipse_361" data-name="Ellipse 361" cx="5.72" cy="9.908" rx="5.72" ry="9.908" transform="translate(2919.591 9418.883) rotate(-30.311)" opacity="0.3" stroke="#fff" stroke-linecap="round" stroke-linejoin="round" stroke-width="2.078" fill="#03c1ff"/>
    <g id="Group_607" data-name="Group 607" transform="translate(2911.003 9326.915)">
      <path id="Path_2190" data-name="Path 2190" d="M2966.663,9354.954l-37.642-21.732c-1.648-.952-3.136-.905-4.2-.066l-4.931,2.964,3.249,4.012v13.323c0,4.334,2.635,9.37,5.887,11.247l26.359,15.219,5.851,7.22,4.153,2.711,5.01-3.043c.032-.018.061-.038.093-.057l.251-.152,0-.006c1.116-.783,1.813-2.385,1.813-4.61V9366.2C2972.549,9361.866,2969.914,9356.831,2966.663,9354.954Z" transform="translate(-2917.821 -9332.517)" fill="#eb0fb0"/>
      <path id="Path_2191" data-name="Path 2191" d="M2961.193,9389.9l-37.641-21.732c-3.251-1.876-5.887-6.912-5.887-11.247v-15.78c0-4.335,2.635-6.328,5.887-4.451l37.641,21.732c3.251,1.878,5.887,6.913,5.887,11.248v15.78C2967.08,9389.787,2964.444,9391.78,2961.193,9389.9Z" transform="translate(-2917.665 -9332.762)" fill="#f272c5"/>
      <g id="Group_606" data-name="Group 606" transform="translate(8.632 16.222)">
        <path id="Path_2192" data-name="Path 2192" d="M2933.913,9356.292a4.625,4.625,0,0,0-2.225-3.262c-1.155-.666-1.914-.254-1.914.676a3.122,3.122,0,0,0,1.328,2.35l1.706,1.361a8.309,8.309,0,0,1,3.414,6.105c0,2.156-1.569,3.427-4.414,1.784a9.806,9.806,0,0,1-4.862-7.2l2.207.6a5.37,5.37,0,0,0,2.672,4.174c1.275.736,1.982.412,1.982-.577a3.5,3.5,0,0,0-1.483-2.517l-1.707-1.382a7.927,7.927,0,0,1-3.207-5.868c0-2.492,1.947-3.268,4.258-1.934a8.866,8.866,0,0,1,4.379,6.169Z" transform="translate(-2926.947 -9349.961)" fill="#fff"/>
        <path id="Path_2193" data-name="Path 2193" d="M2939.09,9369.079v-14.026l2.379,1.373v11.415l5.448,3.145v2.613Z" transform="translate(-2927.798 -9350.318)" fill="#fff"/>
        <path id="Path_2194" data-name="Path 2194" d="M2956.8,9376.306l-4.965-2.867-1.017,2.617-2.518-1.453,4.69-11.318,2.759,1.592,4.656,16.714-2.586-1.492Zm-4.173-4.9,3.379,1.952-1.69-6.278Z" transform="translate(-2928.443 -9350.896)" fill="#fff"/>
      </g>
    </g>
    <g id="Group_617" data-name="Group 617" transform="translate(2822.536 9285.077)">
      <path id="Path_2195" data-name="Path 2195" d="M2909.03,9497.341l-83.12-49.24c-1.829-1.056-1.6-2.9.512-4.12l3.043-2.09a7.935,7.935,0,0,1,7.138-.295l83.119,49.356c1.829,1.058,1.6,2.9-.512,4.122l-3.044,1.971A7.932,7.932,0,0,1,2909.03,9497.341Z" transform="translate(-2822.686 -9298.271)" fill="#6d7780" opacity="0.1"/>
      <g id="Group_616" data-name="Group 616">
        <path id="Path_2196" data-name="Path 2196" d="M2916.663,9336.279l-83.693-48.318a2.1,2.1,0,0,0-2.459-.069l-.013-.016-7.467,4.794,6.165,8.707.578,1.242v115.658a7.059,7.059,0,0,0,3.2,5.519l56.214,32.455,16.581,9.572,1.9,4.076s3.733,7.953,3.887,7.884,7.267-4.54,7.267-4.54l0-.009c.644-.3,1.055-1.021,2.03-2.383V9341.511C2919.866,9339.769,2918.425,9337.3,2916.663,9336.279Z" transform="translate(-2822.571 -9287.53)" fill="url(#linear-gradient)"/>
        <g id="product_ui-3" data-name="product ui" transform="translate(0 4.499)">
          <g id="Group_615" data-name="Group 615">
            <path id="Path_2197" data-name="Path 2197" d="M2822.536,9381.276v42.7a7.063,7.063,0,0,0,3.2,5.521l56.214,32.454,27.479,15.864c1.762,1.015,3.2.2,3.2-1.825V9346.646a7.072,7.072,0,0,0-3.2-5.52l-83.693-48.317c-1.762-1.023-3.2-.2-3.2,1.823v82.037" transform="translate(-2822.536 -9292.368)" fill="#f9fbfc"/>
            <g id="Group_608" data-name="Group 608" transform="translate(4.729 16.557)">
              <path id="Path_2198" data-name="Path 2198" d="M2829.081,9314.237l40.46,23.36c.806.466,1.46-.028,1.46-1.1h0a3.493,3.493,0,0,0-1.46-2.788l-40.46-23.359c-.806-.466-1.46.027-1.46,1.1h0A3.491,3.491,0,0,0,2829.081,9314.237Z" transform="translate(-2827.621 -9310.171)" fill="#cfd9e6"/>
              <path id="Path_2199" data-name="Path 2199" d="M2829.081,9323.442l21.511,12.419c.807.465,1.459-.028,1.459-1.1h0a3.5,3.5,0,0,0-1.459-2.789l-21.511-12.42c-.806-.465-1.46.029-1.46,1.1h0A3.5,3.5,0,0,0,2829.081,9323.442Z" transform="translate(-2827.621 -9310.816)" fill="#cfd9e6"/>
            </g>
            <g id="Group_609" data-name="Group 609" transform="translate(7.818 44.528)">
              <path id="Path_2200" data-name="Path 2200" d="M2832.1,9343.461l67.056,38.927c.636.369,1.152-.021,1.152-.87h0a2.76,2.76,0,0,0-1.152-2.2l-67.056-38.929c-.637-.367-1.153.021-1.153.871h0A2.766,2.766,0,0,0,2832.1,9343.461Z" transform="translate(-2830.943 -9340.248)" fill="#cfd9e6"/>
            </g>
            <g id="Group_610" data-name="Group 610" transform="translate(7.818 55.593)">
              <path id="Path_2201" data-name="Path 2201" d="M2832.1,9355.358l67.056,38.93c.636.369,1.152-.024,1.152-.872h0a2.758,2.758,0,0,0-1.152-2.2l-67.056-38.93c-.637-.368-1.153.023-1.153.871h0A2.759,2.759,0,0,0,2832.1,9355.358Z" transform="translate(-2830.943 -9352.146)" fill="#cfd9e6"/>
            </g>
            <g id="Group_611" data-name="Group 611" transform="translate(7.818 66.659)">
              <path id="Path_2202" data-name="Path 2202" d="M2832.1,9367.258l67.056,38.93c.636.367,1.152-.023,1.152-.872h0a2.76,2.76,0,0,0-1.152-2.2l-67.056-38.929c-.637-.368-1.153.022-1.153.871h0A2.758,2.758,0,0,0,2832.1,9367.258Z" transform="translate(-2830.943 -9364.046)" fill="#cfd9e6"/>
            </g>
            <g id="Group_612" data-name="Group 612" transform="translate(7.818 77.724)">
              <path id="Path_2203" data-name="Path 2203" d="M2832.1,9379.157l67.056,38.928c.636.369,1.152-.021,1.152-.871h0a2.762,2.762,0,0,0-1.152-2.2l-67.056-38.929c-.637-.368-1.153.022-1.153.872h0A2.762,2.762,0,0,0,2832.1,9379.157Z" transform="translate(-2830.943 -9375.944)" fill="#cfd9e6"/>
            </g>
            <g id="Group_613" data-name="Group 613" transform="translate(7.818 88.79)">
              <path id="Path_2204" data-name="Path 2204" d="M2832.1,9391.057l67.056,38.93c.636.366,1.152-.024,1.152-.873h0a2.76,2.76,0,0,0-1.152-2.2l-67.056-38.929c-.637-.368-1.153.022-1.153.871h0A2.761,2.761,0,0,0,2832.1,9391.057Z" transform="translate(-2830.943 -9387.844)" fill="#cfd9e6"/>
            </g>
            <g id="Group_614" data-name="Group 614" transform="translate(7.818 99.855)">
              <path id="Path_2205" data-name="Path 2205" d="M2832.1,9402.956l30.766,17.789c.637.366,1.153-.024,1.153-.872h0a2.761,2.761,0,0,0-1.153-2.2l-30.766-17.789c-.637-.367-1.153.022-1.153.872h0A2.761,2.761,0,0,0,2832.1,9402.956Z" transform="translate(-2830.943 -9399.743)" fill="#cfd9e6"/>
            </g>
          </g>
        </g>
      </g>
    </g>
    <path id="Path_2206" data-name="Path 2206" d="M2897.62,9468.92c-.6-.516-1.211-.981-1.784-1.557a16.959,16.959,0,0,0-4.028-3.067,11.431,11.431,0,0,1-1.616-1.069,7.568,7.568,0,0,1-2.251-3.36c-.529-1.366-1-2.745-1.6-4.1-.412-.926-1.006-1.812-1.51-2.72a6.524,6.524,0,0,1-1.1-3.844,7.137,7.137,0,0,1,.406-1.618,9.222,9.222,0,0,0,.6-3.916,12.863,12.863,0,0,1,.045-1.37c.083-1.452.746-2.2,1.892-2.149a8.11,8.11,0,0,0,4.614-1.16c.912-.538,2.058-.106,3.3,1.032.432.4.865.8,1.291,1.212a13.9,13.9,0,0,0,2.925,2.237c.615.341,1.234.728,1.848,1.144a6.62,6.62,0,0,1,2.276,2.89,7.58,7.58,0,0,1,.336.808,31.552,31.552,0,0,0,3.205,6.993,5.484,5.484,0,0,1,.808,4.525,24.621,24.621,0,0,0-.789,2.938,13.747,13.747,0,0,0-.058,2.241c-.005,1.107-.112,2.146-.82,2.563a2.733,2.733,0,0,1-1.518.389,6.218,6.218,0,0,0-3.816.959,2.158,2.158,0,0,1-2.322.117c-.1-.053-.21-.12-.315-.181Z" transform="translate(-4.283 -13.044)" fill="#03c1ff" opacity="0.3"/>
    <ellipse id="Ellipse_362" data-name="Ellipse 362" cx="5.72" cy="9.908" rx="5.72" ry="9.908" transform="translate(2880.939 9435.386) rotate(-30.311)" opacity="0.3" stroke="#fff" stroke-linecap="round" stroke-linejoin="round" stroke-width="2.078" fill="#03c1ff"/>
    <g id="Group_619" data-name="Group 619" transform="translate(2872.351 9343.417)">
      <path id="Path_2207" data-name="Path 2207" d="M2925.1,9372.7l-37.642-21.731c-1.648-.952-3.137-.905-4.205-.067l-4.932,2.966,3.25,4.01V9371.2c0,4.334,2.635,9.369,5.886,11.247l26.358,15.219,5.852,7.22,4.152,2.712,5.011-3.044c.032-.017.061-.039.092-.056l.251-.153,0,0c1.116-.783,1.814-2.387,1.814-4.61v-15.781C2930.988,9379.613,2928.353,9374.577,2925.1,9372.7Z" transform="translate(-2876.259 -9350.264)" fill="#eb0fb0"/>
      <path id="Path_2208" data-name="Path 2208" d="M2919.631,9407.648l-37.641-21.731c-3.251-1.877-5.887-6.912-5.887-11.247v-15.782c0-4.335,2.635-6.328,5.887-4.451l37.641,21.733c3.251,1.877,5.887,6.912,5.887,11.247V9403.2C2925.518,9407.534,2922.882,9409.525,2919.631,9407.648Z" transform="translate(-2876.103 -9350.506)" fill="#f272c5"/>
      <g id="Group_618" data-name="Group 618" transform="translate(8.632 16.223)">
        <path id="Path_2209" data-name="Path 2209" d="M2892.351,9374.038a4.624,4.624,0,0,0-2.224-3.263c-1.156-.666-1.914-.253-1.914.677a3.123,3.123,0,0,0,1.327,2.349l1.707,1.36a8.314,8.314,0,0,1,3.414,6.106c0,2.157-1.569,3.427-4.414,1.785a9.806,9.806,0,0,1-4.862-7.2l2.207.6a5.368,5.368,0,0,0,2.673,4.173c1.276.736,1.982.414,1.982-.575a3.5,3.5,0,0,0-1.482-2.518l-1.707-1.381a7.931,7.931,0,0,1-3.207-5.868c0-2.494,1.948-3.268,4.258-1.934a8.865,8.865,0,0,1,4.379,6.168Z" transform="translate(-2885.385 -9367.706)" fill="#fff"/>
        <path id="Path_2210" data-name="Path 2210" d="M2897.528,9386.824V9372.8l2.379,1.374v11.415l5.449,3.145v2.612Z" transform="translate(-2886.236 -9368.063)" fill="#fff"/>
        <path id="Path_2211" data-name="Path 2211" d="M2915.241,9394.051l-4.965-2.867-1.018,2.617-2.517-1.453,4.69-11.319,2.758,1.593,4.656,16.714-2.586-1.492Zm-4.172-4.9,3.379,1.951-1.69-6.278Z" transform="translate(-2886.881 -9368.64)" fill="#fff"/>
      </g>
    </g>
  </g>
</svg>
