<?xml version="1.0" encoding="UTF-8"?>
<svg width="261px" height="91px" viewBox="0 0 261 91" version="1.1" xmlns="http://www.w3.org/2000/svg" xmlns:xlink="http://www.w3.org/1999/xlink">
    <!-- Generator: Sketch 59.1 (86144) - https://sketch.com -->
    <title>Group</title>
    <desc>Created with Sketch.</desc>
    <g id="Page-1" stroke="none" stroke-width="1" fill="none" fill-rule="evenodd">
        <g id="Group">
            <path d="M159.552,44 C157.63199,44 156.672,43.0400096 156.672,41.12 C156.672,39.919994 156.899998,39.1040022 157.356,38.672 C157.812002,38.2399978 158.543995,38.024 159.552,38.024 L170.784,38.024 L170.784,16.28 L176.688,16.28 L176.688,44 L159.552,44 Z M164.376,4.184 C164.376,3.12799472 164.747996,2.22800372 165.492,1.484 C166.236004,0.73999628 167.135995,0.368 168.192,0.368 C169.248005,0.368 170.147996,0.73999628 170.892,1.484 C171.636004,2.22800372 172.008,3.12799472 172.008,4.184 C172.008,5.24000528 171.636004,6.13999628 170.892,6.884 C170.147996,7.62800372 169.248005,8 168.192,8 C167.135995,8 166.236004,7.62800372 165.492,6.884 C164.747996,6.13999628 164.376,5.24000528 164.376,4.184 Z M173.736,4.184 C173.736,3.12799472 174.107996,2.22800372 174.852,1.484 C175.596004,0.73999628 176.495995,0.368 177.552,0.368 C178.608005,0.368 179.507996,0.73999628 180.252,1.484 C180.996004,2.22800372 181.368,3.12799472 181.368,4.184 C181.368,5.24000528 180.996004,6.13999628 180.252,6.884 C179.507996,7.62800372 178.608005,8 177.552,8 C176.495995,8 175.596004,7.62800372 174.852,6.884 C174.107996,6.13999628 173.736,5.24000528 173.736,4.184 Z M115.2,44 C113.711993,44 112.488005,43.8680013 111.528,43.604 C110.567995,43.3399987 109.788003,42.9920022 109.188,42.56 C108.587997,42.1279978 108.108002,41.6240029 107.748,41.048 C107.387998,40.4719971 107.064001,39.8960029 106.776,39.32 C106.343998,40.328005 105.768004,41.131997 105.048,41.732 C104.327996,42.332003 103.416006,42.7999983 102.312,43.136 C101.207994,43.4720017 99.8760078,43.6999994 98.316,43.82 C96.7559922,43.9400006 94.9200106,44 92.808,44 L90.432,44 C88.5119904,44 87.552,43.0400096 87.552,41.12 C87.552,39.919994 87.7799977,39.1040022 88.236,38.672 C88.6920023,38.2399978 89.423995,38.024 90.432,38.024 L92.952,38.024 C94.5360079,38.024 95.8799945,37.9760005 96.984,37.88 C98.0880055,37.7839995 98.9639968,37.5560018 99.612,37.196 C100.260003,36.8359982 100.727999,36.3080035 101.016,35.612 C101.304001,34.9159965 101.448,33.968006 101.448,32.768 L101.448,19.88 L107.352,19.88 L107.352,30.104 C107.352,31.304006 107.4,32.3959951 107.496,33.38 C107.592,34.3640049 107.819998,35.1919966 108.18,35.864 C108.540002,36.5360034 109.055997,37.0639981 109.728,37.448 C110.400003,37.8320019 111.311994,38.024 112.464,38.024 C113.376005,35.3839868 114.635992,32.7080136 116.244,29.996 C117.852008,27.2839864 119.771989,24.8360109 122.004,22.652 C124.236011,20.4679891 126.767986,18.6920068 129.6,17.324 C132.432014,15.9559932 135.503983,15.272 138.816,15.272 C143.664024,15.272 147.419987,16.7119856 150.084,19.592 C152.748013,22.4720144 154.08,26.5519736 154.08,31.832 L154.08,38.024 L159.552,38.024 C161.47201,38.024 162.432,38.9839904 162.432,40.904 C162.432,42.104006 162.204002,42.9199978 161.748,43.352 C161.291998,43.7840022 160.560005,44 159.552,44 L115.2,44 Z M148.176,38.024 L148.176,33.2 C148.176,31.4719914 147.996002,29.8760073 147.636,28.412 C147.275998,26.9479927 146.688004,25.6880053 145.872,24.632 C145.055996,23.5759947 143.988007,22.7600029 142.668,22.184 C141.347993,21.6079971 139.752009,21.32 137.88,21.32 C135.575988,21.32 133.42801,21.823995 131.436,22.832 C129.44399,23.840005 127.620008,25.1359921 125.964,26.72 C124.307992,28.3040079 122.880006,30.09199 121.68,32.084 C120.479994,34.07601 119.520004,36.0559902 118.8,38.024 L148.176,38.024 Z M90.432,44 C88.8479921,44 87.5280053,43.6400036 86.472,42.92 C85.4159947,42.1999964 84.6240026,41.3600048 84.096,40.4 C84.096,43.8560173 83.8800022,46.7719881 83.448,49.148 C83.0159978,51.5240119 82.2360056,53.4439927 81.108,54.908 C79.9799944,56.3720073 78.4080101,57.4279968 76.392,58.076 C74.3759899,58.7240032 71.7600161,59.048 68.544,59.048 L68.544,53.072 C70.8960118,53.072 72.7319934,52.8200025 74.052,52.316 C75.3720066,51.8119975 76.3559968,50.9960056 77.004,49.868 C77.6520032,48.7399944 78.0359994,47.3000088 78.156,45.548 L78.2071245,44.7129683 C78.2930418,43.1336538 78.336,41.2880106 78.336,39.176 L78.336,19.88 L84.168,19.88 L84.168,30.104 C84.168,32.5520122 84.6119956,34.4839929 85.5,35.9 C86.3493956,37.2544416 87.890462,37.961097 90.1232424,38.0199849 L90.432,38.024 C92.3520096,38.024 93.312,38.9839904 93.312,40.904 C93.312,42.104006 93.0840023,42.9199978 92.628,43.352 C92.1719977,43.7840022 91.440005,44 90.432,44 Z M45.864,44 C43.9439904,44 42.984,43.0400096 42.984,41.12 C42.984,39.919994 43.2119977,39.1040022 43.668,38.672 C44.1240023,38.2399978 44.855995,38.024 45.864,38.024 L57.096,38.024 L57.096,16.28 L63,16.28 L63,44 L45.864,44 Z M48.744,54.872 C48.744,53.8159947 49.1159963,52.9160037 49.86,52.172 C50.6040037,51.4279963 51.5039947,51.056 52.56,51.056 C53.6160053,51.056 54.5159963,51.4279963 55.26,52.172 C56.0040037,52.9160037 56.376,53.8159947 56.376,54.872 C56.376,55.9280053 56.0040037,56.8279963 55.26,57.572 C54.5159963,58.3160037 53.6160053,58.688 52.56,58.688 C51.5039947,58.688 50.6040037,58.3160037 49.86,57.572 C49.1159963,56.8279963 48.744,55.9280053 48.744,54.872 Z M58.104,54.872 C58.104,53.8159947 58.4759963,52.9160037 59.22,52.172 C59.9640037,51.4279963 60.8639947,51.056 61.92,51.056 C62.9760053,51.056 63.8759963,51.4279963 64.62,52.172 C65.3640037,52.9160037 65.736,53.8159947 65.736,54.872 C65.736,55.9280053 65.3640037,56.8279963 64.62,57.572 C63.8759963,58.3160037 62.9760053,58.688 61.92,58.688 C60.8639947,58.688 59.9640037,58.3160037 59.22,57.572 C58.4759963,56.8279963 58.104,55.9280053 58.104,54.872 Z M19.728,44 C18.1919923,44 16.6320079,44.1559984 15.048,44.468 C13.4639921,44.7800016 12.0120066,45.331996 10.692,46.124 C9.3719934,46.916004 8.2920042,48.0199929 7.452,49.436 C6.6119958,50.8520071 6.192,52.663989 6.192,54.872 C6.192,56.9360103 6.56399628,58.7119926 7.308,60.2 C8.05200372,61.6880074 9.07199352,62.9119952 10.368,63.872 C11.6640065,64.8320048 13.1759914,65.5399977 14.904,65.996 C16.6320086,66.4520023 18.4559904,66.68 20.376,66.68 C22.3440098,66.68 24.3599897,66.5240016 26.424,66.212 C28.4880103,65.8999984 30.9119861,65.0960065 33.696,63.8 L36.072,68.336 C34.7279933,69.2960048 33.3000076,70.0639971 31.788,70.64 C30.2759924,71.2160029 28.824007,71.6599984 27.432,71.972 C26.039993,72.2840016 24.744006,72.4999994 23.544,72.62 L22.775998,72.6911114 C21.917331,72.7637041 21.1893363,72.8 20.592,72.8 C17.5199846,72.8 14.7240126,72.4400036 12.204,71.72 C9.6839874,70.9999964 7.524009,69.9200072 5.724,68.48 C3.923991,67.0399928 2.52000504,65.2400108 1.512,63.08 C0.50399496,60.9199892 -4.26325641e-14,58.4000144 -4.26325641e-14,55.52 C-4.26325641e-14,52.0639827 0.599994,49.2080113 1.8,46.952 C3,44.6959887 4.54799052,42.9080066 6.444,41.588 C8.34000948,40.2679934 10.4639882,39.3440026 12.816,38.816 C15.1680118,38.2879974 17.4959885,38.024 19.8,38.024 L35.136,38.024 C35.136,34.9519846 34.7280041,32.3600106 33.912,30.248 C33.0959959,28.1359894 31.992007,26.4200066 30.6,25.1 C29.207993,23.7799934 27.5880092,22.820003 25.74,22.22 C23.8919908,21.619997 21.9120106,21.32 19.8,21.32 C18.407993,21.32 16.9320078,21.4519987 15.372,21.716 C13.8119922,21.9800013 12.528005,22.2559986 11.52,22.544 L11.52,16.784 L12.0745796,16.6233385 C12.9528604,16.3769913 14.0399935,16.1065469 15.336,15.812 C16.9200079,15.4519982 18.6479906,15.272 20.52,15.272 C24.120018,15.272 27.215987,15.871994 29.808,17.072 C32.400013,18.272 34.5479915,19.9159896 36.252,22.004 C37.9560085,24.0920104 39.2159959,26.5159862 40.032,29.276 C40.8480041,32.0360138 41.2799998,34.9519846 41.328,38.024 L45.864,38.024 C47.7840096,38.024 48.744,38.9839904 48.744,40.904 C48.744,42.104006 48.5160023,42.9199978 48.06,43.352 C47.6039977,43.7840022 46.872005,44 45.864,44 L19.728,44 Z" id="تصريح" fill="#000000" fill-rule="nonzero"></path>
            <g id="door" transform="translate(201.000000, 2.000000)" fill="#CC0000" fill-rule="nonzero">
                <path d="M53.316129,0 L9.66129032,0 C4.32558081,0 0,4.26242781 0,9.52023656 L0,76.4797634 C0,81.7375722 4.32558081,86 9.66129032,86 L53.316129,86 C57.0072339,86 59.9992876,83.050928 60,79.4137128 L60,6.58628719 C59.9992876,2.94907202 57.0072339,0 53.316129,0 L53.316129,0 Z M38.6419355,39.1330992 C38.6717772,39.361901 38.5486102,39.5835916 38.3369242,39.682095 C38.1252382,39.7805984 37.8732516,39.7334772 37.7129032,39.5654038 C36.3290323,38.1349843 33.9967742,35.7191647 32.583871,34.256958 C31.1741935,35.7128072 28.7935484,38.1222695 27.383871,39.5431528 C27.2216242,39.708423 26.9699595,39.7522167 26.7600813,39.6517022 C26.5502031,39.5511877 26.4296574,39.3291357 26.4612903,39.1013121 L27.4774194,31.8411384 C25.4322581,31.6663094 22.0483871,31.3325448 20.0451613,31.1322861 C19.8127701,31.1093381 19.6215636,30.9420166 19.570976,30.7173349 C19.5203884,30.4926531 19.6218434,30.2613483 19.8225806,30.1437073 C21.5483871,29.1360562 24.4612903,27.4290889 26.2225806,26.3991868 C25.0870968,24.7112918 23.1774194,21.8790612 22.0419355,20.1943449 C21.911186,20.0024789 21.9215266,19.7492817 22.0674998,19.5683896 C22.2134729,19.3874975 22.4614884,19.3205356 22.6806452,19.4028461 L29.7516129,22.0379967 C30.3806452,20.1116984 31.4387097,16.8725929 32.0677419,14.9494733 C32.139454,14.7291064 32.3474095,14.5796204 32.5822581,14.5796204 C32.8171066,14.5796204 33.0250622,14.7291064 33.0967742,14.9494733 C33.7258065,16.8694142 34.7806452,20.0989836 35.4129032,22.0379967 C37.7612903,21.1606727 40.0935484,20.2928849 42.4806452,19.4028461 C42.7005066,19.3218116 42.9483159,19.3894696 43.0945068,19.5704451 C43.2406977,19.7514207 43.2520308,20.0045655 43.1225806,20.1975236 C41.716129,22.2859361 40.3387097,24.3266679 38.9419355,26.3991868 C40.6967742,27.4259102 43.616129,29.1328775 45.3419355,30.1437073 C45.5432552,30.2604462 45.6456513,30.4914474 45.5957556,30.7163149 C45.54586,30.9411823 45.3549718,31.1089933 45.1225806,31.1322861 C43.1193548,31.3325448 39.7354839,31.6663094 37.683871,31.8411384 C37.9645161,33.8373683 38.3903226,37.162299 38.6419355,39.1330992 Z M13.516129,8.75416744 C11.1083463,8.93312726 9.24762385,10.9108178 9.2483871,13.2901867 L9.2483871,73.0467566 C9.2483723,75.425266 11.1091458,77.4016247 13.516129,77.5795971 L54.8451613,80.6248013 L10.3677419,80.6248013 C7.48917755,80.6237487 5.15590689,78.3245436 5.15483871,75.4880059 L5.15483871,10.8457586 C5.15626356,8.00988085 7.48984688,5.71214193 10.3677419,5.71214193 L54.8451613,5.71214193 L13.516129,8.75416744 Z M19.0903226,43.5038255 C19.0894318,45.3581533 17.5635227,46.8608355 15.6817207,46.8605429 C13.7999187,46.8602503 12.2744909,45.3570936 12.274194,43.5027657 C12.273897,41.6484378 13.7988433,40.1448068 15.6806452,40.143929 C17.5635367,40.1444554 19.0897884,41.648424 19.0903226,43.5038255 Z" id="Path_1"></path>
            </g>
            <text id="TASREEH.JO" font-family="HelveticaNeue-Light, Helvetica Neue" font-size="24" font-weight="300" fill="#000000">
                <tspan x="39.728" y="90">TASREEH.JO</tspan>
            </text>
        </g>
    </g>
</svg>